<svg width="24" height="24" viewBox="0 0 24 24" fill="none" xmlns="http://www.w3.org/2000/svg">
<path d="M20.4067 19.4776L16.8411 14.3375C17.7209 13.3651 18.3229 12.1611 18.5544 10.8182C19.249 6.88209 16.4706 2.85338 12.5345 2.11247C8.59841 1.41786 4.80124 4.01106 4.10663 7.94715C3.41202 11.8832 6.19045 15.9583 10.1265 16.6529C11.4231 16.8844 12.7197 16.7455 13.9237 16.3287L17.5357 21.5151C17.9061 22.0245 18.6007 22.1634 19.1101 21.7929L20.4067 20.9131C20.8235 20.5427 20.7772 19.987 20.4067 19.4776ZM6.28306 8.31761C6.79244 5.58549 9.38563 3.77952 12.1177 4.24259C14.8499 4.75197 16.8411 7.623 16.3317 10.3551C15.8223 13.0872 13.2291 14.8932 10.497 14.4301C7.76488 13.9671 5.77368 11.0497 6.28306 8.31761Z" fill="#523C3C"/>
</svg>
