<svg width="27" height="20" viewBox="0 0 27 20" fill="none" xmlns="http://www.w3.org/2000/svg">
<g id="Menu/Button/Arrow">
<path id="Ellipse 6 (Stroke)" fill-rule="evenodd" clip-rule="evenodd" d="M10 19C14.9706 19 19 14.9706 19 10C19 5.02944 14.9706 1 10 1C5.02944 1 1 5.02944 1 10C1 14.9706 5.02944 19 10 19ZM10 20C15.5228 20 20 15.5228 20 10C20 4.47715 15.5228 0 10 0C4.47715 0 0 4.47715 0 10C0 15.5228 4.47715 20 10 20Z" fill="#FA4E16"/>
<path id="Union" fill-rule="evenodd" clip-rule="evenodd" d="M25.6214 10.4002H11V9.6002H25.6214L23.8 7.71398L24.2961 7.2002L27 10.0002L24.2961 12.8002L23.8 12.2864L25.6214 10.4002Z" fill="#FA4E16"/>
</g>
</svg>
