<svg width="292" height="50" viewBox="0 0 292 50" fill="none" xmlns="http://www.w3.org/2000/svg">
<path d="M120.416 18.2C121.136 18.344 121.744 18.504 122.16 18.696C122.368 18.776 122.464 18.872 122.464 19.016C122.464 19.112 122.432 19.176 122.352 19.272C122.24 19.4 122.16 19.624 122.064 20.024C121.84 21.112 121.712 22.248 121.616 23.08C121.584 23.656 121.536 24.264 121.568 24.84C121.92 24.216 122.256 23.608 122.688 22.792C122.832 23.272 122.992 23.56 123.184 23.832C123.264 23.928 123.28 24.008 123.28 24.088C123.28 24.216 123.216 24.344 123.12 24.488C122.768 25.16 122.4 25.832 122.176 26.536C122.128 26.68 122.112 26.824 122.096 27.016C122.096 27.176 122.032 27.24 121.888 27.272C121.696 27.32 121.008 27.416 120.608 27.464C120.496 27.48 120.416 27.368 120.384 27.256C120.128 26.568 119.904 25.336 119.904 24.008C119.904 22.936 120.08 21.624 120.288 20.024C120.352 19.464 120.416 18.92 120.416 18.2ZM125.536 18.232C126.24 18.264 126.896 18.296 127.36 18.424C127.68 18.504 127.712 18.584 127.68 18.856C127.648 19.08 127.648 19.368 127.648 19.592C127.76 21.112 127.872 22.568 127.872 23.72C127.872 25.992 127.504 27.96 126.656 29.272C126.032 30.264 125.024 31.208 124.016 31.848C123.904 31.928 123.792 31.96 123.696 31.96C123.584 31.96 123.488 31.912 123.36 31.784C123.008 31.48 122.512 31.192 122 31.048C123.296 30.328 124.08 29.752 124.72 28.904C125.648 27.64 126.064 26.328 126.064 23.8C126.064 22.664 125.984 21 125.872 19.976C125.792 19.192 125.712 18.792 125.536 18.232ZM136.736 19.224C137.12 18.648 137.424 18.232 137.68 17.976C137.76 17.896 137.856 17.848 137.984 17.896C139.168 18.36 140.16 18.968 141.12 19.8C141.2 19.864 141.232 19.912 141.232 19.976C141.232 20.024 141.2 20.088 141.152 20.168C140.944 20.504 140.608 20.968 140.336 21.288C140.272 21.368 140.208 21.416 140.16 21.416C140.096 21.416 140.048 21.384 139.968 21.304C139.072 20.52 138 19.784 136.736 19.224ZM135.616 21.448C136.24 21.624 136.912 21.816 137.28 22.024C137.456 22.104 137.536 22.2 137.536 22.328C137.536 22.408 137.504 22.488 137.456 22.568C137.312 22.824 137.2 23.112 137.136 23.416C136.976 24.232 136.816 25.416 136.752 26.328C138.224 24.84 140.144 23.8 142.096 23.8C144.432 23.8 145.824 25.16 145.824 27.224C145.824 28.968 144.784 30.12 143.408 30.808C142.336 31.352 140.688 31.736 139.312 31.912C138.96 31.96 138.816 31.944 138.672 31.704C138.368 31.16 138.08 30.728 137.584 30.344C139.376 30.232 140.912 29.928 141.984 29.448C143.28 28.888 143.872 28.056 143.872 27.032C143.872 26.168 143.328 25.384 141.952 25.384C140.544 25.384 138.848 26.296 137.344 27.816C137.056 28.104 136.848 28.376 136.656 28.696C136.56 28.856 136.496 28.856 136.288 28.808C135.92 28.68 135.536 28.536 135.2 28.376C135.04 28.312 134.976 28.28 134.976 28.056C135.072 26.2 135.28 24.312 135.472 22.888C135.536 22.408 135.616 21.992 135.616 21.448ZM157.264 18.008C157.968 18.424 158.576 18.84 159.024 19.224C159.104 19.288 159.152 19.416 159.152 19.48C159.152 19.624 159.072 19.72 158.928 19.784C158.736 19.88 158.496 20.024 158.16 20.344C156.784 21.576 155.024 23.224 153.792 24.504C153.648 24.68 153.584 24.776 153.584 24.856C153.584 24.952 153.648 25.032 153.792 25.144C155.872 26.648 158.032 28.392 159.744 30.184C159.808 30.264 159.856 30.328 159.856 30.392C159.856 30.456 159.824 30.504 159.744 30.584C159.376 30.984 158.912 31.448 158.64 31.688C158.544 31.768 158.48 31.816 158.416 31.816C158.352 31.816 158.304 31.768 158.224 31.672C156.368 29.592 154.576 27.928 152.4 26.264C151.792 25.8 151.552 25.448 151.552 24.92C151.552 24.392 151.84 24.04 152.336 23.512C153.696 22.04 155.024 20.712 156.4 19.208C156.832 18.744 157.072 18.408 157.264 18.008ZM170.992 24.248L171.008 24.296C171.904 23.784 172.656 23.576 173.552 23.576C175.888 23.576 177.52 25.112 177.52 27.416C177.52 30.088 175.36 31.8 171.936 31.8C169.92 31.8 168.704 30.936 168.704 29.448C168.704 28.376 169.712 27.496 170.96 27.496C172.464 27.496 173.568 28.296 173.968 29.832C175.088 29.32 175.6 28.616 175.6 27.4C175.6 25.944 174.576 24.984 173.088 24.984C171.76 24.984 170.288 25.576 168.992 26.68C168.528 27.096 168.08 27.56 167.6 28.04C167.488 28.152 167.408 28.216 167.328 28.216C167.264 28.216 167.184 28.168 167.088 28.072C166.752 27.784 166.4 27.368 166.144 27.032C166.048 26.904 166.096 26.792 166.224 26.664C167.472 25.656 168.576 24.632 170.016 23.128C171.008 22.104 171.76 21.304 172.496 20.392C171.536 20.568 170.4 20.792 169.408 21C169.2 21.048 168.992 21.096 168.736 21.192C168.656 21.224 168.496 21.272 168.416 21.272C168.256 21.272 168.144 21.192 168.064 21C167.872 20.632 167.728 20.184 167.504 19.272C167.984 19.336 168.512 19.336 168.992 19.304C169.968 19.208 171.376 19 172.624 18.76C173.024 18.68 173.344 18.6 173.504 18.52C173.584 18.472 173.728 18.392 173.808 18.392C173.968 18.392 174.064 18.44 174.176 18.52C174.656 18.888 174.976 19.208 175.248 19.544C175.376 19.688 175.424 19.8 175.424 19.928C175.424 20.088 175.328 20.232 175.152 20.312C174.88 20.44 174.752 20.552 174.448 20.824C173.28 21.96 172.208 23.08 170.992 24.248ZM172.384 30.232C172.176 29.352 171.696 28.856 171.024 28.856C170.56 28.856 170.256 29.128 170.256 29.464C170.256 29.96 170.688 30.296 171.648 30.296C171.936 30.296 172.144 30.28 172.384 30.232ZM185.264 23.128V21.592C185.264 20.328 185.232 19.672 185.056 18.776C185.856 18.84 186.624 18.952 187.12 19.096C187.328 19.144 187.424 19.24 187.424 19.384C187.424 19.448 187.392 19.544 187.328 19.64C187.152 19.976 187.12 20.312 187.12 21.064V22.712L191.296 21.736C192 21.576 192.144 21.496 192.432 21.272C192.512 21.208 192.592 21.176 192.656 21.176C192.736 21.176 192.8 21.208 192.88 21.272C193.216 21.48 193.728 21.928 194.064 22.312C194.16 22.408 194.208 22.504 194.208 22.6C194.208 22.712 194.128 22.824 194 22.92C193.776 23.08 193.648 23.32 193.504 23.544C192.688 24.92 191.888 26.088 190.96 27C190.816 27.144 190.688 27.24 190.544 27.24C190.448 27.24 190.352 27.208 190.24 27.128C189.776 26.856 189.376 26.648 188.912 26.52C190.016 25.56 190.8 24.488 191.52 23.32L187.12 24.44V28.072C187.12 28.92 187.408 29.192 189.136 29.192C190.432 29.192 191.92 29.032 193.008 28.84C193.232 28.808 193.248 28.92 193.28 29.16C193.36 29.592 193.424 30.072 193.424 30.504C193.424 30.664 193.328 30.728 193.088 30.744C192.128 30.856 191.024 30.936 189.264 30.936C186.208 30.936 185.264 30.28 185.264 28.12V24.888L184.24 25.16C183.376 25.384 182.48 25.624 181.984 25.848C181.904 25.88 181.84 25.912 181.792 25.912C181.68 25.912 181.616 25.832 181.536 25.656C181.312 25.24 181.072 24.552 180.896 24.024C181.904 23.896 182.816 23.736 183.904 23.464L185.264 23.128ZM205.616 20.536H202.448C201.728 20.536 200.928 20.552 200.256 20.6C200.096 20.6 200.048 20.504 200.032 20.248C199.984 19.912 199.952 19.208 199.952 18.712C200.928 18.808 201.408 18.824 202.576 18.824H205.456C206.496 18.824 207.344 18.776 207.968 18.744C208.112 18.744 208.16 18.824 208.16 19C208.192 19.4 208.192 19.848 208.16 20.248C208.16 20.52 208.112 20.584 207.872 20.568C207.344 20.568 206.592 20.536 205.616 20.536ZM206.832 23.96L201.376 23.976C200.576 23.976 199.776 23.992 198.976 24.04C198.832 24.04 198.768 23.944 198.736 23.736C198.64 23.336 198.608 22.744 198.56 22.12C199.472 22.216 200.448 22.248 201.504 22.248H206.992C207.264 22.248 207.584 22.216 207.84 22.072C207.92 22.008 207.984 21.976 208.048 21.976C208.128 21.976 208.208 22.024 208.288 22.088C208.672 22.392 209.104 22.792 209.36 23.08C209.472 23.192 209.52 23.304 209.52 23.416C209.52 23.512 209.472 23.624 209.344 23.72C209.088 23.928 208.976 24.104 208.8 24.472C207.2 27.88 205.36 29.88 202.272 31.544C202.144 31.608 202.048 31.656 201.952 31.656C201.84 31.656 201.728 31.592 201.6 31.464C201.168 31.08 200.656 30.84 200.112 30.632C203.072 29.256 205.68 27.048 206.832 23.96ZM217.088 21.576V23.8C218.496 23.336 219.712 22.872 220.992 22.248C221.856 21.832 222.256 21.576 222.704 21.096C223.264 21.56 223.792 22.216 224.032 22.536C224.224 22.76 224.208 23.032 223.888 23.112C223.44 23.224 222.992 23.448 222.56 23.64C220.976 24.36 219.184 25 217.072 25.624V27.752C217.072 28.504 217.184 28.76 217.6 28.888C218.016 29 218.64 29.064 219.616 29.064C221.12 29.064 222.464 28.952 224.128 28.696C224.368 28.664 224.4 28.728 224.416 28.92C224.464 29.368 224.512 29.976 224.512 30.312C224.512 30.52 224.416 30.584 224.176 30.6C222.368 30.824 221.44 30.888 219.424 30.888C218 30.888 217.056 30.744 216.384 30.456C215.584 30.12 215.248 29.368 215.248 28.056V22.152C215.248 20.632 215.216 20.024 215.088 19.224C215.84 19.304 216.592 19.4 217.104 19.544C217.456 19.624 217.392 19.896 217.248 20.136C217.12 20.392 217.088 20.824 217.088 21.576ZM225.552 18.52C226.512 18.52 227.28 19.272 227.28 20.232C227.28 21.192 226.512 21.944 225.552 21.944C224.592 21.944 223.824 21.192 223.824 20.232C223.824 19.24 224.592 18.52 225.552 18.52ZM225.552 19.288C225.008 19.288 224.608 19.688 224.608 20.232C224.608 20.776 225.008 21.176 225.552 21.176C226.096 21.176 226.496 20.776 226.496 20.232C226.496 19.688 226.096 19.288 225.552 19.288ZM233.536 19.88H237.936C238.512 19.88 238.8 19.864 239.04 19.736C239.104 19.688 239.152 19.672 239.216 19.672C239.312 19.672 239.392 19.736 239.488 19.8C239.856 20.088 240.224 20.504 240.528 20.92C240.576 21 240.608 21.064 240.608 21.128C240.608 21.224 240.544 21.336 240.4 21.448C240.192 21.624 239.984 21.864 239.808 22.152C239.152 23.272 238.528 24.168 237.76 25.144C239.296 26.28 240.72 27.528 242.192 29.016C242.272 29.096 242.32 29.176 242.32 29.24C242.32 29.304 242.288 29.384 242.208 29.48C241.904 29.848 241.536 30.232 241.136 30.568C241.072 30.632 241.008 30.664 240.944 30.664C240.864 30.664 240.8 30.616 240.72 30.536C239.376 28.968 238 27.704 236.56 26.568C234.752 28.456 232.928 29.816 231.184 30.792C231.04 30.856 230.928 30.92 230.816 30.92C230.72 30.92 230.624 30.872 230.544 30.776C230.192 30.344 229.728 30.024 229.2 29.736C231.696 28.472 233.184 27.336 234.832 25.656C235.984 24.456 236.864 23.32 237.84 21.64L233.712 21.656C232.88 21.656 232.048 21.688 231.184 21.752C231.056 21.768 231.008 21.656 230.976 21.48C230.896 21.144 230.832 20.376 230.832 19.816C231.696 19.88 232.496 19.88 233.536 19.88ZM251.472 20.488V22.776C253.424 23.384 254.976 24.008 256.56 24.952C256.736 25.048 256.816 25.16 256.736 25.368C256.528 25.896 256.272 26.392 256.048 26.76C255.984 26.872 255.92 26.936 255.84 26.936C255.792 26.936 255.728 26.92 255.664 26.856C254.192 25.912 252.752 25.208 251.456 24.808V28.344C251.456 29.384 251.488 30.328 251.52 31.48C251.536 31.672 251.456 31.72 251.232 31.72C250.768 31.752 250.272 31.752 249.808 31.72C249.584 31.72 249.504 31.672 249.504 31.48C249.552 30.296 249.568 29.352 249.568 28.328V20.456C249.568 19.256 249.52 18.728 249.408 18.088C250.144 18.136 250.944 18.216 251.408 18.344C251.632 18.392 251.712 18.488 251.712 18.616C251.712 18.712 251.664 18.84 251.584 18.984C251.472 19.192 251.472 19.592 251.472 20.488ZM263.984 29.272V28.744C263.344 29.112 262.656 29.432 261.936 29.72C261.76 29.8 261.648 29.848 261.568 29.848C261.424 29.848 261.36 29.736 261.2 29.448C260.992 29.096 260.768 28.824 260.528 28.632C262.176 28.152 263.36 27.656 264.272 27.032H263.04C261.616 27.032 261.136 27.064 261.04 27.064C260.896 27.064 260.88 27.048 260.88 26.888V25.944C260.88 25.784 260.896 25.768 261.04 25.768C261.136 25.768 261.616 25.8 263.04 25.8H265.648C265.904 25.512 266.08 25.24 266.224 24.968H265.408C263.856 24.968 263.312 25 263.2 25C263.04 25 263.024 24.984 263.024 24.808C263.024 24.712 263.056 24.392 263.056 23.592V22.232C263.056 21.416 263.024 21.096 263.024 21C263.024 20.84 263.04 20.824 263.2 20.824C263.312 20.824 263.856 20.856 265.408 20.856H270.576C272.112 20.856 272.656 20.824 272.768 20.824C272.928 20.824 272.944 20.84 272.944 21C272.944 21.096 272.912 21.416 272.912 22.232V23.592C272.912 24.392 272.944 24.712 272.944 24.808C272.944 24.984 272.928 25 272.768 25C272.656 25 272.112 24.968 270.576 24.968H267.12L267.68 25.096C267.856 25.144 267.936 25.192 267.936 25.304C267.936 25.4 267.872 25.48 267.744 25.544C267.648 25.592 267.536 25.672 267.424 25.8H272.928C274.368 25.8 274.832 25.768 274.944 25.768C275.104 25.768 275.12 25.784 275.12 25.944V26.888C275.12 27.048 275.104 27.064 274.944 27.064C274.832 27.064 274.368 27.032 272.928 27.032H271.808C272.752 27.608 273.904 27.976 275.536 28.328C275.312 28.6 275.12 28.904 274.944 29.288C274.8 29.592 274.752 29.704 274.624 29.704C274.544 29.704 274.432 29.656 274.256 29.608C273.568 29.4 272.96 29.144 272.384 28.856C272.352 29.192 272.32 29.512 272.272 29.832C272.192 30.44 272.048 30.952 271.808 31.4C271.504 31.912 270.976 32.168 270.048 32.168C269.664 32.168 269.472 32.168 269.136 32.136C268.768 32.104 268.768 32.104 268.64 31.688C268.528 31.288 268.384 31 268.192 30.696C268.848 30.792 269.328 30.824 269.824 30.824C270.224 30.824 270.416 30.744 270.512 30.504C270.624 30.232 270.688 29.88 270.752 29.432H268.096C267.76 30.104 267.296 30.632 266.704 31.032C265.84 31.64 264.704 32.024 263.232 32.264C263.072 32.296 262.928 32.312 262.864 32.312C262.704 32.312 262.64 32.216 262.528 31.912C262.4 31.56 262.208 31.272 262.016 31.016C263.776 30.872 265.024 30.584 265.824 30.008C266.048 29.848 266.256 29.656 266.432 29.432H266.24C264.752 29.432 264.256 29.464 264.16 29.464C264 29.464 263.984 29.448 263.984 29.272ZM268.512 28.264H271.376C270.864 27.912 270.384 27.512 269.92 27.032H266.368C265.92 27.464 265.392 27.88 264.8 28.264H266.992C267.072 27.896 267.12 27.576 267.104 27.224C267.632 27.256 268.096 27.304 268.528 27.336C268.704 27.368 268.816 27.416 268.816 27.512C268.816 27.592 268.752 27.672 268.704 27.752C268.624 27.848 268.592 27.96 268.512 28.264ZM271.312 24.008V23.368H264.656V24.008H271.312ZM271.312 21.848H264.656V22.472H271.312V21.848ZM263.104 18.584H264.88C264.864 18.216 264.848 17.88 264.8 17.592C265.312 17.608 265.888 17.64 266.32 17.688C266.464 17.704 266.544 17.752 266.544 17.832C266.544 17.928 266.496 17.992 266.464 18.072C266.432 18.152 266.384 18.312 266.384 18.584H269.52C269.504 18.216 269.488 17.88 269.44 17.592C269.952 17.608 270.528 17.64 270.96 17.688C271.104 17.704 271.184 17.752 271.184 17.832C271.184 17.928 271.136 17.992 271.104 18.072C271.072 18.152 271.024 18.312 271.024 18.584H272.896C274.32 18.584 274.816 18.552 274.912 18.552C275.072 18.552 275.088 18.568 275.088 18.728V19.688C275.088 19.864 275.072 19.88 274.912 19.88C274.816 19.88 274.32 19.848 272.896 19.848H271.024C271.04 20.12 271.056 20.296 271.056 20.36C271.056 20.52 271.04 20.536 270.864 20.536H269.68C269.504 20.536 269.488 20.52 269.488 20.36C269.488 20.296 269.504 20.12 269.504 19.848H266.384C266.4 20.12 266.416 20.296 266.416 20.36C266.416 20.52 266.4 20.536 266.224 20.536H265.04C264.864 20.536 264.848 20.52 264.848 20.36C264.848 20.296 264.864 20.12 264.864 19.848H263.104C261.68 19.848 261.184 19.88 261.088 19.88C260.928 19.88 260.912 19.864 260.912 19.688V18.728C260.912 18.568 260.928 18.552 261.088 18.552C261.184 18.552 261.68 18.584 263.104 18.584ZM282.016 28.456H279.248C277.808 28.456 277.312 28.488 277.216 28.488C277.056 28.488 277.04 28.472 277.04 28.312V27.288C277.04 27.144 277.056 27.128 277.216 27.128C277.312 27.128 277.808 27.16 279.248 27.16H283.136V27.08C283.136 26.824 283.136 26.536 283.12 26.264H281.136C279.568 26.264 278.992 26.296 278.896 26.296C278.736 26.296 278.72 26.28 278.72 26.104C278.72 26.008 278.752 25.48 278.752 24.296V21.752C278.448 22.056 278.128 22.36 277.808 22.648C277.648 22.792 277.552 22.856 277.472 22.856C277.376 22.856 277.312 22.744 277.2 22.52C277.008 22.136 276.784 21.832 276.544 21.592C277.936 20.664 278.928 19.416 279.472 18.472C279.712 18.04 279.808 17.8 279.904 17.48C280.416 17.576 280.896 17.688 281.408 17.848C281.552 17.896 281.616 17.976 281.616 18.072C281.616 18.168 281.584 18.232 281.472 18.312C281.36 18.408 281.2 18.584 281.04 18.824L280.768 19.224H283.712C283.888 18.92 284.032 18.648 284.144 18.376C284.256 18.104 284.336 17.848 284.4 17.544C284.96 17.64 285.456 17.752 285.92 17.88C286.064 17.928 286.112 18.024 286.112 18.104C286.112 18.2 286.032 18.28 285.952 18.344C285.856 18.424 285.712 18.616 285.648 18.744C285.552 18.92 285.472 19.08 285.376 19.224H287.808C289.36 19.224 289.872 19.192 289.984 19.192C290.144 19.192 290.16 19.208 290.16 19.352V20.296C290.16 20.472 290.144 20.488 289.984 20.488C289.872 20.488 289.36 20.456 287.808 20.456H285.04V21.256H287.056C288.592 21.256 289.12 21.224 289.216 21.224C289.392 21.224 289.408 21.24 289.408 21.4V22.2C289.408 22.36 289.392 22.376 289.216 22.376C289.12 22.376 288.592 22.344 287.056 22.344H285.04V23.144H287.056C288.592 23.144 289.12 23.112 289.216 23.112C289.392 23.112 289.408 23.128 289.408 23.288V24.072C289.408 24.232 289.392 24.248 289.216 24.248C289.12 24.248 288.592 24.216 287.056 24.216H285.04V25.064H287.952C289.52 25.064 290.064 25.032 290.16 25.032C290.32 25.032 290.336 25.048 290.336 25.208V26.104C290.336 26.28 290.32 26.296 290.16 26.296C290.064 26.296 289.52 26.264 287.952 26.264H284.864L284.816 26.36C284.768 26.456 284.768 26.648 284.768 27.064V27.16H288.816C290.256 27.16 290.752 27.128 290.848 27.128C291.008 27.128 291.024 27.144 291.024 27.288V28.312C291.024 28.472 291.008 28.488 290.848 28.488C290.752 28.488 290.256 28.456 288.816 28.456H285.808C287.296 29.448 289.088 30.072 291.344 30.472C291.056 30.792 290.864 31.16 290.72 31.544C290.592 31.864 290.544 31.976 290.4 31.976C290.304 31.976 290.208 31.944 290.032 31.896C287.856 31.24 286.048 30.296 284.736 29.064C284.736 30.84 284.8 31.768 284.8 32.104C284.8 32.264 284.784 32.28 284.64 32.28H283.264C283.12 32.28 283.104 32.264 283.104 32.104C283.104 31.768 283.152 30.872 283.168 29.112C281.904 30.376 279.984 31.272 277.984 31.864C277.808 31.912 277.696 31.96 277.6 31.96C277.456 31.96 277.392 31.848 277.28 31.544C277.152 31.192 276.96 30.856 276.704 30.568C278.848 30.088 280.576 29.48 282.016 28.456ZM280.32 25.064H283.552V24.216H280.32V25.064ZM280.32 21.256H283.552V20.456H280.32V21.256ZM280.32 23.144H283.552V22.344H280.32V23.144Z" fill="#523C3C"/>
<g clip-path="url(#clip0_981_2327)">
<rect width="96" height="50" fill="white"/>
<path d="M75.3861 27.7856H78.7932C81.3455 27.7856 82.6257 26.2906 82.6257 23.2964V17.8698C82.6257 14.8757 81.3455 13.3766 78.7932 13.3766H59.4615V36.5326H63.8061V17.717H76.4516C77.067 17.717 77.4965 17.8079 77.7401 17.9896C78.0705 18.258 78.2399 18.7825 78.2399 19.5672V21.6445C78.2399 22.4292 78.0664 22.9537 77.7401 23.2262C77.4965 23.4079 77.0711 23.4947 76.4516 23.4947H66.6969L77.3395 36.5326H82.6629L75.382 27.7856H75.3861Z" fill="#FA4E16"/>
<path d="M50 0H0V50H96.0684V0H50ZM92.1244 46.056H50.0124V3.944H92.1244V46.056Z" fill="#FA4E16"/>
<path d="M11.8444 9.20953H9.20953V17.1017H11.8444V9.20953Z" fill="white"/>
<path d="M21.1035 19.274L17.1099 22.3672H12.7612L19.1377 17.4692C19.1377 17.4692 19.7365 17.0975 19.7365 16.3418V9.20541H22.3672V16.5896C22.3672 16.5896 22.3672 18.3241 21.1035 19.2698V19.274Z" fill="white"/>
<path d="M40.1834 21.8634C39.8323 22.1938 39.4152 22.3672 38.8288 22.3672H27.6286V19.7406H37.5939C37.9615 19.7406 38.1515 19.5754 38.1515 19.2451V17.6014C38.1515 17.2751 37.9615 17.0975 37.5939 17.1017H27.6286V9.20953H30.2593V14.4751H38.8329C39.4193 14.4751 39.8984 14.6527 40.2494 14.9913C40.6005 15.3341 40.7904 15.7801 40.7904 16.317V20.5212C40.7904 21.087 40.5385 21.5165 40.1875 21.8592L40.1834 21.8634Z" fill="white"/>
<path d="M9.20953 34.2033C9.20953 33.5632 9.5234 33.1255 10.2379 32.6753L17.8657 27.6286H22.3713L13.3518 33.7656C13.3518 33.7656 13.0627 33.9555 13.0585 34.2033C13.0585 34.4511 13.3518 34.6411 13.3518 34.6411L22.3837 40.7863H17.8781L10.2379 35.7314C9.5234 35.2812 9.20953 34.8435 9.20953 34.2033Z" fill="white"/>
<path d="M34.2983 30.2593H27.6328V27.641H40.7946V30.2593L35.5249 31.5768H38.7916C39.3987 31.5768 39.8984 31.7378 40.2494 32.0517C40.6005 32.378 40.7904 32.8281 40.7904 33.3898V38.9444C40.7904 39.5061 40.6005 39.9397 40.2494 40.2659C39.8984 40.6129 39.3987 40.7904 38.7916 40.7904H29.1278C28.6982 40.7904 28.3472 40.6542 28.0623 40.4022C27.7773 40.1338 27.6328 39.8241 27.6328 39.4359V36.9043C27.6328 36.5202 27.7773 36.2063 28.0623 35.9379C28.3513 35.6694 28.6982 35.5249 29.1278 35.5249H34.0547C35.0293 35.5249 35.5207 36.0576 35.5207 37.1149V38.1597H37.5981C37.9615 38.1597 38.1556 37.9987 38.1556 37.6559V34.732C38.1556 34.3892 37.9615 34.2116 37.5981 34.2116H27.6328V31.5933H28.9832L34.2983 30.2635V30.2593ZM32.8942 37.755C32.8942 37.5196 32.7496 37.3874 32.4812 37.3874H30.6599C30.3915 37.3874 30.2635 37.5031 30.2635 37.7426V37.8128C30.2635 38.0482 30.3915 38.1556 30.6599 38.1556H32.8942V37.755Z" fill="white"/>
<path d="M40.7946 9.20953H34.2116V11.8444H40.7946V9.20953Z" fill="white"/>
</g>
<defs>
<clipPath id="clip0_981_2327">
<rect width="96.0684" height="50" fill="white"/>
</clipPath>
</defs>
</svg>
