<svg width="187" height="40" viewBox="0 0 187 40" fill="none" xmlns="http://www.w3.org/2000/svg">
<path d="M92.864 3.8C93.494 3.926 94.026 4.066 94.39 4.234C94.572 4.304 94.656 4.388 94.656 4.514C94.656 4.598 94.628 4.654 94.558 4.738C94.46 4.85 94.39 5.046 94.306 5.396C94.11 6.348 93.998 7.342 93.914 8.07C93.886 8.574 93.844 9.106 93.872 9.61C94.18 9.064 94.474 8.532 94.852 7.818C94.978 8.238 95.118 8.49 95.286 8.728C95.356 8.812 95.37 8.882 95.37 8.952C95.37 9.064 95.314 9.176 95.23 9.302C94.922 9.89 94.6 10.478 94.404 11.094C94.362 11.22 94.348 11.346 94.334 11.514C94.334 11.654 94.278 11.71 94.152 11.738C93.984 11.78 93.382 11.864 93.032 11.906C92.934 11.92 92.864 11.822 92.836 11.724C92.612 11.122 92.416 10.044 92.416 8.882C92.416 7.944 92.57 6.796 92.752 5.396C92.808 4.906 92.864 4.43 92.864 3.8ZM97.344 3.828C97.96 3.856 98.534 3.884 98.94 3.996C99.22 4.066 99.248 4.136 99.22 4.374C99.192 4.57 99.192 4.822 99.192 5.018C99.29 6.348 99.388 7.622 99.388 8.63C99.388 10.618 99.066 12.34 98.324 13.488C97.778 14.356 96.896 15.182 96.014 15.742C95.916 15.812 95.818 15.84 95.734 15.84C95.636 15.84 95.552 15.798 95.44 15.686C95.132 15.42 94.698 15.168 94.25 15.042C95.384 14.412 96.07 13.908 96.63 13.166C97.442 12.06 97.806 10.912 97.806 8.7C97.806 7.706 97.736 6.25 97.638 5.354C97.568 4.668 97.498 4.318 97.344 3.828ZM107.144 4.696C107.48 4.192 107.746 3.828 107.97 3.604C108.04 3.534 108.124 3.492 108.236 3.534C109.272 3.94 110.14 4.472 110.98 5.2C111.05 5.256 111.078 5.298 111.078 5.354C111.078 5.396 111.05 5.452 111.008 5.522C110.826 5.816 110.532 6.222 110.294 6.502C110.238 6.572 110.182 6.614 110.14 6.614C110.084 6.614 110.042 6.586 109.972 6.516C109.188 5.83 108.25 5.186 107.144 4.696ZM106.164 6.642C106.71 6.796 107.298 6.964 107.62 7.146C107.774 7.216 107.844 7.3 107.844 7.412C107.844 7.482 107.816 7.552 107.774 7.622C107.648 7.846 107.55 8.098 107.494 8.364C107.354 9.078 107.214 10.114 107.158 10.912C108.446 9.61 110.126 8.7 111.834 8.7C113.878 8.7 115.096 9.89 115.096 11.696C115.096 13.222 114.186 14.23 112.982 14.832C112.044 15.308 110.602 15.644 109.398 15.798C109.09 15.84 108.964 15.826 108.838 15.616C108.572 15.14 108.32 14.762 107.886 14.426C109.454 14.328 110.798 14.062 111.736 13.642C112.87 13.152 113.388 12.424 113.388 11.528C113.388 10.772 112.912 10.086 111.708 10.086C110.476 10.086 108.992 10.884 107.676 12.214C107.424 12.466 107.242 12.704 107.074 12.984C106.99 13.124 106.934 13.124 106.752 13.082C106.43 12.97 106.094 12.844 105.8 12.704C105.66 12.648 105.604 12.62 105.604 12.424C105.688 10.8 105.87 9.148 106.038 7.902C106.094 7.482 106.164 7.118 106.164 6.642ZM125.106 3.632C125.722 3.996 126.254 4.36 126.646 4.696C126.716 4.752 126.758 4.864 126.758 4.92C126.758 5.046 126.688 5.13 126.562 5.186C126.394 5.27 126.184 5.396 125.89 5.676C124.686 6.754 123.146 8.196 122.068 9.316C121.942 9.47 121.886 9.554 121.886 9.624C121.886 9.708 121.942 9.778 122.068 9.876C123.888 11.192 125.778 12.718 127.276 14.286C127.332 14.356 127.374 14.412 127.374 14.468C127.374 14.524 127.346 14.566 127.276 14.636C126.954 14.986 126.548 15.392 126.31 15.602C126.226 15.672 126.17 15.714 126.114 15.714C126.058 15.714 126.016 15.672 125.946 15.588C124.322 13.768 122.754 12.312 120.85 10.856C120.318 10.45 120.108 10.142 120.108 9.68C120.108 9.218 120.36 8.91 120.794 8.448C121.984 7.16 123.146 5.998 124.35 4.682C124.728 4.276 124.938 3.982 125.106 3.632ZM137.118 9.092L137.132 9.134C137.916 8.686 138.574 8.504 139.358 8.504C141.402 8.504 142.83 9.848 142.83 11.864C142.83 14.202 140.94 15.7 137.944 15.7C136.18 15.7 135.116 14.944 135.116 13.642C135.116 12.704 135.998 11.934 137.09 11.934C138.406 11.934 139.372 12.634 139.722 13.978C140.702 13.53 141.15 12.914 141.15 11.85C141.15 10.576 140.254 9.736 138.952 9.736C137.79 9.736 136.502 10.254 135.368 11.22C134.962 11.584 134.57 11.99 134.15 12.41C134.052 12.508 133.982 12.564 133.912 12.564C133.856 12.564 133.786 12.522 133.702 12.438C133.408 12.186 133.1 11.822 132.876 11.528C132.792 11.416 132.834 11.318 132.946 11.206C134.038 10.324 135.004 9.428 136.264 8.112C137.132 7.216 137.79 6.516 138.434 5.718C137.594 5.872 136.6 6.068 135.732 6.25C135.55 6.292 135.368 6.334 135.144 6.418C135.074 6.446 134.934 6.488 134.864 6.488C134.724 6.488 134.626 6.418 134.556 6.25C134.388 5.928 134.262 5.536 134.066 4.738C134.486 4.794 134.948 4.794 135.368 4.766C136.222 4.682 137.454 4.5 138.546 4.29C138.896 4.22 139.176 4.15 139.316 4.08C139.386 4.038 139.512 3.968 139.582 3.968C139.722 3.968 139.806 4.01 139.904 4.08C140.324 4.402 140.604 4.682 140.842 4.976C140.954 5.102 140.996 5.2 140.996 5.312C140.996 5.452 140.912 5.578 140.758 5.648C140.52 5.76 140.408 5.858 140.142 6.096C139.12 7.09 138.182 8.07 137.118 9.092ZM138.336 14.328C138.154 13.558 137.734 13.124 137.146 13.124C136.74 13.124 136.474 13.362 136.474 13.656C136.474 14.09 136.852 14.384 137.692 14.384C137.944 14.384 138.126 14.37 138.336 14.328ZM93.606 28.112V26.768C93.606 25.662 93.578 25.088 93.424 24.304C94.124 24.36 94.796 24.458 95.23 24.584C95.412 24.626 95.496 24.71 95.496 24.836C95.496 24.892 95.468 24.976 95.412 25.06C95.258 25.354 95.23 25.648 95.23 26.306V27.748L98.884 26.894C99.5 26.754 99.626 26.684 99.878 26.488C99.948 26.432 100.018 26.404 100.074 26.404C100.144 26.404 100.2 26.432 100.27 26.488C100.564 26.67 101.012 27.062 101.306 27.398C101.39 27.482 101.432 27.566 101.432 27.65C101.432 27.748 101.362 27.846 101.25 27.93C101.054 28.07 100.942 28.28 100.816 28.476C100.102 29.68 99.402 30.702 98.59 31.5C98.464 31.626 98.352 31.71 98.226 31.71C98.142 31.71 98.058 31.682 97.96 31.612C97.554 31.374 97.204 31.192 96.798 31.08C97.764 30.24 98.45 29.302 99.08 28.28L95.23 29.26V32.438C95.23 33.18 95.482 33.418 96.994 33.418C98.128 33.418 99.43 33.278 100.382 33.11C100.578 33.082 100.592 33.18 100.62 33.39C100.69 33.768 100.746 34.188 100.746 34.566C100.746 34.706 100.662 34.762 100.452 34.776C99.612 34.874 98.646 34.944 97.106 34.944C94.432 34.944 93.606 34.37 93.606 32.48V29.652L92.71 29.89C91.954 30.086 91.17 30.296 90.736 30.492C90.666 30.52 90.61 30.548 90.568 30.548C90.47 30.548 90.414 30.478 90.344 30.324C90.148 29.96 89.938 29.358 89.784 28.896C90.666 28.784 91.464 28.644 92.416 28.406L93.606 28.112ZM111.414 25.844H108.642C108.012 25.844 107.312 25.858 106.724 25.9C106.584 25.9 106.542 25.816 106.528 25.592C106.486 25.298 106.458 24.682 106.458 24.248C107.312 24.332 107.732 24.346 108.754 24.346H111.274C112.184 24.346 112.926 24.304 113.472 24.276C113.598 24.276 113.64 24.346 113.64 24.5C113.668 24.85 113.668 25.242 113.64 25.592C113.64 25.83 113.598 25.886 113.388 25.872C112.926 25.872 112.268 25.844 111.414 25.844ZM112.478 28.84L107.704 28.854C107.004 28.854 106.304 28.868 105.604 28.91C105.478 28.91 105.422 28.826 105.394 28.644C105.31 28.294 105.282 27.776 105.24 27.23C106.038 27.314 106.892 27.342 107.816 27.342H112.618C112.856 27.342 113.136 27.314 113.36 27.188C113.43 27.132 113.486 27.104 113.542 27.104C113.612 27.104 113.682 27.146 113.752 27.202C114.088 27.468 114.466 27.818 114.69 28.07C114.788 28.168 114.83 28.266 114.83 28.364C114.83 28.448 114.788 28.546 114.676 28.63C114.452 28.812 114.354 28.966 114.2 29.288C112.8 32.27 111.19 34.02 108.488 35.476C108.376 35.532 108.292 35.574 108.208 35.574C108.11 35.574 108.012 35.518 107.9 35.406C107.522 35.07 107.074 34.86 106.598 34.678C109.188 33.474 111.47 31.542 112.478 28.84ZM121.452 26.754V28.7C122.684 28.294 123.748 27.888 124.868 27.342C125.624 26.978 125.974 26.754 126.366 26.334C126.856 26.74 127.318 27.314 127.528 27.594C127.696 27.79 127.682 28.028 127.402 28.098C127.01 28.196 126.618 28.392 126.24 28.56C124.854 29.19 123.286 29.75 121.438 30.296V32.158C121.438 32.816 121.536 33.04 121.9 33.152C122.264 33.25 122.81 33.306 123.664 33.306C124.98 33.306 126.156 33.208 127.612 32.984C127.822 32.956 127.85 33.012 127.864 33.18C127.906 33.572 127.948 34.104 127.948 34.398C127.948 34.58 127.864 34.636 127.654 34.65C126.072 34.846 125.26 34.902 123.496 34.902C122.25 34.902 121.424 34.776 120.836 34.524C120.136 34.23 119.842 33.572 119.842 32.424V27.258C119.842 25.928 119.814 25.396 119.702 24.696C120.36 24.766 121.018 24.85 121.466 24.976C121.774 25.046 121.718 25.284 121.592 25.494C121.48 25.718 121.452 26.096 121.452 26.754ZM128.858 24.08C129.698 24.08 130.37 24.738 130.37 25.578C130.37 26.418 129.698 27.076 128.858 27.076C128.018 27.076 127.346 26.418 127.346 25.578C127.346 24.71 128.018 24.08 128.858 24.08ZM128.858 24.752C128.382 24.752 128.032 25.102 128.032 25.578C128.032 26.054 128.382 26.404 128.858 26.404C129.334 26.404 129.684 26.054 129.684 25.578C129.684 25.102 129.334 24.752 128.858 24.752ZM135.844 25.27H139.694C140.198 25.27 140.45 25.256 140.66 25.144C140.716 25.102 140.758 25.088 140.814 25.088C140.898 25.088 140.968 25.144 141.052 25.2C141.374 25.452 141.696 25.816 141.962 26.18C142.004 26.25 142.032 26.306 142.032 26.362C142.032 26.446 141.976 26.544 141.85 26.642C141.668 26.796 141.486 27.006 141.332 27.258C140.758 28.238 140.212 29.022 139.54 29.876C140.884 30.87 142.13 31.962 143.418 33.264C143.488 33.334 143.53 33.404 143.53 33.46C143.53 33.516 143.502 33.586 143.432 33.67C143.166 33.992 142.844 34.328 142.494 34.622C142.438 34.678 142.382 34.706 142.326 34.706C142.256 34.706 142.2 34.664 142.13 34.594C140.954 33.222 139.75 32.116 138.49 31.122C136.908 32.774 135.312 33.964 133.786 34.818C133.66 34.874 133.562 34.93 133.464 34.93C133.38 34.93 133.296 34.888 133.226 34.804C132.918 34.426 132.512 34.146 132.05 33.894C134.234 32.788 135.536 31.794 136.978 30.324C137.986 29.274 138.756 28.28 139.61 26.81L135.998 26.824C135.27 26.824 134.542 26.852 133.786 26.908C133.674 26.922 133.632 26.824 133.604 26.67C133.534 26.376 133.478 25.704 133.478 25.214C134.234 25.27 134.934 25.27 135.844 25.27ZM151.538 25.802V27.804C153.246 28.336 154.604 28.882 155.99 29.708C156.144 29.792 156.214 29.89 156.144 30.072C155.962 30.534 155.738 30.968 155.542 31.29C155.486 31.388 155.43 31.444 155.36 31.444C155.318 31.444 155.262 31.43 155.206 31.374C153.918 30.548 152.658 29.932 151.524 29.582V32.676C151.524 33.586 151.552 34.412 151.58 35.42C151.594 35.588 151.524 35.63 151.328 35.63C150.922 35.658 150.488 35.658 150.082 35.63C149.886 35.63 149.816 35.588 149.816 35.42C149.858 34.384 149.872 33.558 149.872 32.662V25.774C149.872 24.724 149.83 24.262 149.732 23.702C150.376 23.744 151.076 23.814 151.482 23.926C151.678 23.968 151.748 24.052 151.748 24.164C151.748 24.248 151.706 24.36 151.636 24.486C151.538 24.668 151.538 25.018 151.538 25.802ZM162.486 33.488V33.026C161.926 33.348 161.324 33.628 160.694 33.88C160.54 33.95 160.442 33.992 160.372 33.992C160.246 33.992 160.19 33.894 160.05 33.642C159.868 33.334 159.672 33.096 159.462 32.928C160.904 32.508 161.94 32.074 162.738 31.528H161.66C160.414 31.528 159.994 31.556 159.91 31.556C159.784 31.556 159.77 31.542 159.77 31.402V30.576C159.77 30.436 159.784 30.422 159.91 30.422C159.994 30.422 160.414 30.45 161.66 30.45H163.942C164.166 30.198 164.32 29.96 164.446 29.722H163.732C162.374 29.722 161.898 29.75 161.8 29.75C161.66 29.75 161.646 29.736 161.646 29.582C161.646 29.498 161.674 29.218 161.674 28.518V27.328C161.674 26.614 161.646 26.334 161.646 26.25C161.646 26.11 161.66 26.096 161.8 26.096C161.898 26.096 162.374 26.124 163.732 26.124H168.254C169.598 26.124 170.074 26.096 170.172 26.096C170.312 26.096 170.326 26.11 170.326 26.25C170.326 26.334 170.298 26.614 170.298 27.328V28.518C170.298 29.218 170.326 29.498 170.326 29.582C170.326 29.736 170.312 29.75 170.172 29.75C170.074 29.75 169.598 29.722 168.254 29.722H165.23L165.72 29.834C165.874 29.876 165.944 29.918 165.944 30.016C165.944 30.1 165.888 30.17 165.776 30.226C165.692 30.268 165.594 30.338 165.496 30.45H170.312C171.572 30.45 171.978 30.422 172.076 30.422C172.216 30.422 172.23 30.436 172.23 30.576V31.402C172.23 31.542 172.216 31.556 172.076 31.556C171.978 31.556 171.572 31.528 170.312 31.528H169.332C170.158 32.032 171.166 32.354 172.594 32.662C172.398 32.9 172.23 33.166 172.076 33.502C171.95 33.768 171.908 33.866 171.796 33.866C171.726 33.866 171.628 33.824 171.474 33.782C170.872 33.6 170.34 33.376 169.836 33.124C169.808 33.418 169.78 33.698 169.738 33.978C169.668 34.51 169.542 34.958 169.332 35.35C169.066 35.798 168.604 36.022 167.792 36.022C167.456 36.022 167.288 36.022 166.994 35.994C166.672 35.966 166.672 35.966 166.56 35.602C166.462 35.252 166.336 35 166.168 34.734C166.742 34.818 167.162 34.846 167.596 34.846C167.946 34.846 168.114 34.776 168.198 34.566C168.296 34.328 168.352 34.02 168.408 33.628H166.084C165.79 34.216 165.384 34.678 164.866 35.028C164.11 35.56 163.116 35.896 161.828 36.106C161.688 36.134 161.562 36.148 161.506 36.148C161.366 36.148 161.31 36.064 161.212 35.798C161.1 35.49 160.932 35.238 160.764 35.014C162.304 34.888 163.396 34.636 164.096 34.132C164.292 33.992 164.474 33.824 164.628 33.628H164.46C163.158 33.628 162.724 33.656 162.64 33.656C162.5 33.656 162.486 33.642 162.486 33.488ZM166.448 32.606H168.954C168.506 32.298 168.086 31.948 167.68 31.528H164.572C164.18 31.906 163.718 32.27 163.2 32.606H165.118C165.188 32.284 165.23 32.004 165.216 31.696C165.678 31.724 166.084 31.766 166.462 31.794C166.616 31.822 166.714 31.864 166.714 31.948C166.714 32.018 166.658 32.088 166.616 32.158C166.546 32.242 166.518 32.34 166.448 32.606ZM168.898 28.882V28.322H163.074V28.882H168.898ZM168.898 26.992H163.074V27.538H168.898V26.992ZM161.716 24.136H163.27C163.256 23.814 163.242 23.52 163.2 23.268C163.648 23.282 164.152 23.31 164.53 23.352C164.656 23.366 164.726 23.408 164.726 23.478C164.726 23.562 164.684 23.618 164.656 23.688C164.628 23.758 164.586 23.898 164.586 24.136H167.33C167.316 23.814 167.302 23.52 167.26 23.268C167.708 23.282 168.212 23.31 168.59 23.352C168.716 23.366 168.786 23.408 168.786 23.478C168.786 23.562 168.744 23.618 168.716 23.688C168.688 23.758 168.646 23.898 168.646 24.136H170.284C171.53 24.136 171.964 24.108 172.048 24.108C172.188 24.108 172.202 24.122 172.202 24.262V25.102C172.202 25.256 172.188 25.27 172.048 25.27C171.964 25.27 171.53 25.242 170.284 25.242H168.646C168.66 25.48 168.674 25.634 168.674 25.69C168.674 25.83 168.66 25.844 168.506 25.844H167.47C167.316 25.844 167.302 25.83 167.302 25.69C167.302 25.634 167.316 25.48 167.316 25.242H164.586C164.6 25.48 164.614 25.634 164.614 25.69C164.614 25.83 164.6 25.844 164.446 25.844H163.41C163.256 25.844 163.242 25.83 163.242 25.69C163.242 25.634 163.256 25.48 163.256 25.242H161.716C160.47 25.242 160.036 25.27 159.952 25.27C159.812 25.27 159.798 25.256 159.798 25.102V24.262C159.798 24.122 159.812 24.108 159.952 24.108C160.036 24.108 160.47 24.136 161.716 24.136ZM178.264 32.774H175.842C174.582 32.774 174.148 32.802 174.064 32.802C173.924 32.802 173.91 32.788 173.91 32.648V31.752C173.91 31.626 173.924 31.612 174.064 31.612C174.148 31.612 174.582 31.64 175.842 31.64H179.244V31.57C179.244 31.346 179.244 31.094 179.23 30.856H177.494C176.122 30.856 175.618 30.884 175.534 30.884C175.394 30.884 175.38 30.87 175.38 30.716C175.38 30.632 175.408 30.17 175.408 29.134V26.908C175.142 27.174 174.862 27.44 174.582 27.692C174.442 27.818 174.358 27.874 174.288 27.874C174.204 27.874 174.148 27.776 174.05 27.58C173.882 27.244 173.686 26.978 173.476 26.768C174.694 25.956 175.562 24.864 176.038 24.038C176.248 23.66 176.332 23.45 176.416 23.17C176.864 23.254 177.284 23.352 177.732 23.492C177.858 23.534 177.914 23.604 177.914 23.688C177.914 23.772 177.886 23.828 177.788 23.898C177.69 23.982 177.55 24.136 177.41 24.346L177.172 24.696H179.748C179.902 24.43 180.028 24.192 180.126 23.954C180.224 23.716 180.294 23.492 180.35 23.226C180.84 23.31 181.274 23.408 181.68 23.52C181.806 23.562 181.848 23.646 181.848 23.716C181.848 23.8 181.778 23.87 181.708 23.926C181.624 23.996 181.498 24.164 181.442 24.276C181.358 24.43 181.288 24.57 181.204 24.696H183.332C184.69 24.696 185.138 24.668 185.236 24.668C185.376 24.668 185.39 24.682 185.39 24.808V25.634C185.39 25.788 185.376 25.802 185.236 25.802C185.138 25.802 184.69 25.774 183.332 25.774H180.91V26.474H182.674C184.018 26.474 184.48 26.446 184.564 26.446C184.718 26.446 184.732 26.46 184.732 26.6V27.3C184.732 27.44 184.718 27.454 184.564 27.454C184.48 27.454 184.018 27.426 182.674 27.426H180.91V28.126H182.674C184.018 28.126 184.48 28.098 184.564 28.098C184.718 28.098 184.732 28.112 184.732 28.252V28.938C184.732 29.078 184.718 29.092 184.564 29.092C184.48 29.092 184.018 29.064 182.674 29.064H180.91V29.806H183.458C184.83 29.806 185.306 29.778 185.39 29.778C185.53 29.778 185.544 29.792 185.544 29.932V30.716C185.544 30.87 185.53 30.884 185.39 30.884C185.306 30.884 184.83 30.856 183.458 30.856H180.756L180.714 30.94C180.672 31.024 180.672 31.192 180.672 31.556V31.64H184.214C185.474 31.64 185.908 31.612 185.992 31.612C186.132 31.612 186.146 31.626 186.146 31.752V32.648C186.146 32.788 186.132 32.802 185.992 32.802C185.908 32.802 185.474 32.774 184.214 32.774H181.582C182.884 33.642 184.452 34.188 186.426 34.538C186.174 34.818 186.006 35.14 185.88 35.476C185.768 35.756 185.726 35.854 185.6 35.854C185.516 35.854 185.432 35.826 185.278 35.784C183.374 35.21 181.792 34.384 180.644 33.306C180.644 34.86 180.7 35.672 180.7 35.966C180.7 36.106 180.686 36.12 180.56 36.12H179.356C179.23 36.12 179.216 36.106 179.216 35.966C179.216 35.672 179.258 34.888 179.272 33.348C178.166 34.454 176.486 35.238 174.736 35.756C174.582 35.798 174.484 35.84 174.4 35.84C174.274 35.84 174.218 35.742 174.12 35.476C174.008 35.168 173.84 34.874 173.616 34.622C175.492 34.202 177.004 33.67 178.264 32.774ZM176.78 29.806H179.608V29.064H176.78V29.806ZM176.78 26.474H179.608V25.774H176.78V26.474ZM176.78 28.126H179.608V27.426H176.78V28.126Z" fill="#523C3C"/>
<g clip-path="url(#clip0_981_2328)">
<rect width="76.8" height="40" fill="white"/>
<path d="M60.309 22.2284H63.0346C65.0764 22.2284 66.1006 21.0324 66.1006 18.6371V14.2958C66.1006 11.9005 65.0764 10.7012 63.0346 10.7012H47.5692V29.2261H51.0449V14.1736H61.1614C61.6536 14.1736 61.9972 14.2463 62.1922 14.3917C62.4565 14.6064 62.5919 15.026 62.5919 15.6537V17.3156C62.5919 17.9433 62.4532 18.3629 62.1922 18.581C61.9972 18.7263 61.6569 18.7957 61.1614 18.7957H53.3576L61.8717 29.2261H66.1304L60.3056 22.2284H60.309Z" fill="#FA4E16"/>
<path d="M40 0H0V40H76.8547V0H40ZM73.6995 36.8448H40.0099V3.1552H73.6995V36.8448Z" fill="#FA4E16"/>
<path d="M9.47555 7.36765H7.36768V13.6813H9.47555V7.36765Z" fill="white"/>
<path d="M16.8828 15.4192L13.688 17.8938H10.209L15.3102 13.9754C15.3102 13.9754 15.7892 13.6781 15.7892 13.0734V7.36435H17.8938V13.2717C17.8938 13.2717 17.8938 14.6593 16.8828 15.4159V15.4192Z" fill="white"/>
<path d="M32.1467 17.4907C31.8659 17.755 31.5322 17.8938 31.063 17.8938H22.1029V15.7925H30.0752C30.3692 15.7925 30.5212 15.6604 30.5212 15.3961V14.0811C30.5212 13.8201 30.3692 13.678 30.0752 13.6813H22.1029V7.36765H24.2075V11.5801H31.0663C31.5355 11.5801 31.9187 11.7222 32.1995 11.9931C32.4804 12.2673 32.6323 12.6241 32.6323 13.0536V16.417C32.6323 16.8696 32.4308 17.2132 32.15 17.4874L32.1467 17.4907Z" fill="white"/>
<path d="M7.36768 27.3627C7.36768 26.8506 7.61877 26.5004 8.19034 26.1403L14.2926 22.1029H17.8971L10.6815 27.0125C10.6815 27.0125 10.4502 27.1645 10.4469 27.3627C10.4469 27.5609 10.6815 27.7129 10.6815 27.7129L17.907 32.6291H14.3025L8.19034 28.5851C7.61877 28.225 7.36768 27.8748 7.36768 27.3627Z" fill="white"/>
<path d="M27.4387 24.2075H22.1062V22.1129H32.6356V24.2075L28.4199 25.2614H31.0333C31.5189 25.2614 31.9187 25.3903 32.1995 25.6414C32.4804 25.9024 32.6323 26.2625 32.6323 26.7118V31.1556C32.6323 31.6049 32.4804 31.9518 32.1995 32.2128C31.9187 32.4903 31.5189 32.6324 31.0333 32.6324H23.3022C22.9586 32.6324 22.6778 32.5234 22.4498 32.3218C22.2218 32.1071 22.1062 31.8593 22.1062 31.5487V29.5234C22.1062 29.2162 22.2218 28.9651 22.4498 28.7503C22.6811 28.5356 22.9586 28.4199 23.3022 28.4199H27.2437C28.0234 28.4199 28.4166 28.8461 28.4166 29.6919V30.5278H30.0784C30.3692 30.5278 30.5245 30.399 30.5245 30.1247V27.7856C30.5245 27.5114 30.3692 27.3693 30.0784 27.3693H22.1062V25.2747H23.1866L27.4387 24.2108V24.2075ZM26.3153 30.204C26.3153 30.0157 26.1997 29.91 25.9849 29.91H24.5279C24.3132 29.91 24.2108 30.0025 24.2108 30.1941V30.2503C24.2108 30.4386 24.3132 30.5245 24.5279 30.5245H26.3153V30.204Z" fill="white"/>
<path d="M32.6358 7.36765H27.3694V9.47552H32.6358V7.36765Z" fill="white"/>
</g>
<defs>
<clipPath id="clip0_981_2328">
<rect width="76.8547" height="40" fill="white"/>
</clipPath>
</defs>
</svg>
