<svg width="33" height="24" viewBox="0 0 33 24" fill="none" xmlns="http://www.w3.org/2000/svg">
<path fill-rule="evenodd" clip-rule="evenodd" d="M12 22.8C17.9647 22.8 22.8 17.9647 22.8 12C22.8 6.03532 17.9647 1.2 12 1.2C6.03532 1.2 1.2 6.03532 1.2 12C1.2 17.9647 6.03532 22.8 12 22.8ZM12 24C18.6274 24 24 18.6274 24 12C24 5.37258 18.6274 0 12 0C5.37258 0 0 5.37258 0 12C0 18.6274 5.37258 24 12 24Z" fill="#523C3C"/>
<path fill-rule="evenodd" clip-rule="evenodd" d="M30.7457 12.4801H13.2V11.5201H30.7457L28.5599 9.25668L29.1553 8.64014L32.3999 12.0001L29.1553 15.3601L28.5599 14.7436L30.7457 12.4801Z" fill="#523C3C"/>
</svg>
