<svg width="132" height="75" viewBox="0 0 132 75" fill="none" xmlns="http://www.w3.org/2000/svg">
<g id="&#227;&#131;&#173;&#227;&#130;&#180;" clip-path="url(#clip0_1277_370)">
<path id="Vector" d="M120.608 11.4004H68.4481V63.5999H120.608V11.4004Z" fill="white"/>
<path id="Vector_2" d="M132 0H0V75H132V0Z" fill="white"/>
<path id="Vector_3" d="M68.4481 6.5332H6.5282V68.4997H68.4481V6.5332Z" fill="#FA4E16"/>
<path id="Vector_4" d="M99.8813 41.0278H104.092C107.258 41.0278 108.825 39.1658 108.825 35.4746V28.7455C108.825 25.0543 107.226 23.1924 104.092 23.1924H80.1335V51.9054H85.5193V28.5822H101.187C101.938 28.5822 102.493 28.7129 102.786 28.9088C103.178 29.2355 103.407 29.8888 103.407 30.8688V33.4494C103.407 34.4293 103.211 35.0826 102.786 35.4093C102.493 35.6379 101.938 35.7359 101.187 35.7359H89.1098L102.297 51.9054H108.89L99.8813 41.0604V41.0278Z" fill="#FA4E16"/>
<path id="Vector_5" d="M125.504 68.4997H63.5846V6.5332H125.504V68.4997ZM120.608 11.4004H68.4481V63.5998H120.608V11.4004Z" fill="#FA4E16"/>
<path id="Vector_6" d="M21.184 17.9336H17.9199V27.7006H21.184V17.9336Z" fill="white"/>
<path id="Vector_7" d="M32.641 30.4118L27.7122 34.2663H22.3264L30.2255 28.1906C30.2255 28.1906 30.9763 27.7332 30.9763 26.7859V17.9336H34.2404V27.0799C34.2404 27.0799 34.2404 29.2359 32.6736 30.4118" fill="white"/>
<path id="Vector_8" d="M56.3056 33.6126C55.8813 34.0046 55.3591 34.2332 54.641 34.2332H40.7686V30.9994H53.1068C53.5638 30.9994 53.7923 30.8034 53.7923 30.3787V28.3535C53.7923 27.9615 53.5638 27.7328 53.1068 27.7328H40.7686V17.9658H44.0326V24.4989H54.641C55.3591 24.4989 55.9466 24.7276 56.4036 25.1522C56.8279 25.5769 57.089 26.1322 57.089 26.7855V32.012C57.089 32.698 56.7626 33.2533 56.3383 33.6779" fill="white"/>
<path id="Vector_9" d="M17.9199 48.9008C17.9199 48.1168 18.3116 47.5615 19.1929 47.0062L28.6261 40.7344H34.2077L23.0445 48.3454C23.0445 48.3454 22.6855 48.5741 22.6855 48.9008C22.6855 49.1947 23.0445 49.4561 23.0445 49.4561L34.2404 57.0671H28.6588L19.1929 50.7954C18.3116 50.24 17.9199 49.6847 17.9199 48.9008Z" fill="white"/>
<path id="Vector_10" d="M48.9941 44.0327H40.7359V40.7988H57.0237V44.0327L50.4955 45.666H54.543C55.2938 45.666 55.9139 45.862 56.3383 46.254C56.7626 46.646 57.0237 47.2013 57.0237 47.9199V54.8123C57.0237 55.4983 56.7952 56.0536 56.3383 56.4456C55.9139 56.8703 55.2938 57.0989 54.543 57.0989H42.5638C42.0415 57.0989 41.5846 56.9356 41.2582 56.6089C40.8991 56.2823 40.7359 55.8903 40.7359 55.4003V52.2644C40.7359 51.7744 40.9317 51.4151 41.2582 51.0558C41.6172 50.7291 42.0415 50.5332 42.5638 50.5332H48.6677C49.8754 50.5332 50.4955 51.1865 50.4955 52.4931V53.7997H53.0742C53.5312 53.7997 53.7596 53.6037 53.7596 53.1791V49.5532C53.7596 49.1285 53.5312 48.8999 53.0742 48.8999H40.7359V45.666H42.4006L48.9941 44.0327ZM47.2641 53.3097C47.2641 53.0157 47.1009 52.8524 46.7418 52.8524H44.4896C44.1632 52.8524 44 52.9831 44 53.3097V53.4077C44 53.7017 44.1632 53.8324 44.4896 53.8324H47.2641V53.3424V53.3097Z" fill="white"/>
<path id="Vector_11" d="M57.0564 17.9336H48.8961V21.2001H57.0564V17.9336Z" fill="white"/>
</g>
<defs>
<clipPath id="clip0_1277_370">
<rect width="132" height="75" fill="white"/>
</clipPath>
</defs>
</svg>
