<svg width="466" height="23" viewBox="0 0 466 23" fill="none" xmlns="http://www.w3.org/2000/svg">
<g clip-path="url(#clip0_923_2293)">
<path opacity="0.5" d="M17.088 11.16C17.088 15.576 16.08 18.432 13.392 20.88C12.6 21.6 11.088 22.752 9.984 22.992L9.936 22.872C14.088 19.872 15.312 15.24 15.312 10.944C15.312 9.36 15.216 4.992 13.416 4.992C12.456 4.992 11.784 5.976 11.568 6.288C10.608 7.68 9.024 11.352 9.024 14.232C9.024 14.496 9.192 15.72 9.192 15.96C9.192 16.224 9.096 16.632 8.616 16.632C7.2 16.632 6.768 13.824 6.768 11.664C6.768 9.84 7.272 6.672 7.608 4.728C7.632 4.608 7.704 4.152 7.704 3.816C7.704 2.52 6.816 1.968 6.312 1.632C6.528 1.584 6.936 1.464 7.392 1.464C8.496 1.464 9.504 2.352 9.504 3.192C9.504 3.576 9.36 3.888 9.216 4.248C8.472 5.976 7.872 8.4 7.872 10.68C7.872 11.04 7.872 12.408 8.112 12.408C8.256 12.408 8.304 12.288 8.328 12.168C8.88 10.2 10.944 4.056 13.776 4.056C16.776 4.056 17.088 8.76 17.088 11.16ZM44.04 15.432C44.04 19.392 39.144 21.744 33.432 21.408V21.264C35.424 20.952 37.32 20.256 39.072 19.296C40.776 18.384 42.192 17.232 42.192 15.192C42.192 14.544 42.048 12.12 39.168 12.12C36.312 12.12 33.24 14.04 31.32 16.944C31.2 17.136 31.032 17.376 30.72 17.376C29.832 17.376 29.448 15.96 29.448 15.456C29.448 15.072 29.496 14.928 29.76 13.728C30 12.624 30.192 9.72 30.192 8.688C30.192 6.504 30.192 5.256 34.344 4.608C34.488 4.584 34.56 4.56 34.56 4.44C34.56 4.32 34.488 4.272 33.912 3.888C33.24 3.432 32.4 2.448 32.424 1.512C33.456 2.352 33.648 2.424 35.88 3.36C36.408 3.576 37.752 4.128 37.752 5.568C37.752 6.096 37.56 6.312 37.248 6.312C36.912 6.312 36.696 6.192 36.144 5.928C35.712 5.736 34.704 5.52 33.648 5.52C31.824 5.52 31.056 6.096 31.056 6.792C31.056 7.032 31.104 7.176 31.584 8.376C31.704 8.712 31.752 9.048 31.752 9.216C31.752 9.456 31.464 10.416 31.416 10.632C31.296 11.136 30.912 12.792 30.912 13.896C30.912 14.04 30.936 14.448 31.224 14.448C31.368 14.448 32.856 13.368 33.168 13.176C35.568 11.712 37.944 11.256 39.36 11.256C42.648 11.256 44.04 13.56 44.04 15.432ZM64.224 21.36C64.224 21.912 63.912 22.752 63.312 22.752C62.928 22.752 62.856 22.656 61.728 20.832C60.408 18.696 59.856 18.144 55.296 13.632C55.056 13.392 54.432 12.696 54.432 11.928C54.432 11.544 54.504 11.136 55.32 10.272C57.744 7.704 61.392 3.888 61.392 2.952C61.392 2.376 60.864 1.848 60.24 1.224C62.352 1.008 63.48 2.76 63.48 3.672C63.48 4.152 63.24 4.344 62.52 4.92C61.752 5.52 58.176 8.808 56.184 10.992C55.776 11.424 55.776 11.736 55.776 11.88C55.776 12.48 55.944 12.648 57.888 14.424C63.264 19.272 64.224 20.112 64.224 21.36ZM91.608 15.504C91.608 18.264 89.208 21.192 84.792 21.192C82.488 21.192 80.112 20.256 80.112 18.384C80.112 16.728 81.768 16.296 82.752 16.296C84.552 16.296 85.896 17.544 86.52 19.536C88.44 19.2 89.784 17.136 89.784 15.312C89.784 13.416 88.32 11.736 85.872 11.736C81.192 11.736 78.096 16.272 77.736 16.824C77.136 17.784 76.92 18.144 76.416 18.144C76.128 18.144 75.6 17.976 75.6 17.136C75.6 16.344 75.792 16.152 77.232 14.76C79.152 12.864 85.056 5.208 85.056 4.296C85.056 4.152 84.984 4.056 84.792 4.056C84.48 4.056 82.656 4.656 81.36 5.352C81.312 5.376 80.376 5.88 80.304 5.88C79.776 5.88 78.36 5.112 78.36 3.624C78.36 3.192 78.48 3 78.624 2.832C79.176 3.744 79.608 3.96 80.28 3.96C81.432 3.96 83.976 3.24 84.696 3C84.864 2.952 85.656 2.688 85.776 2.688C86.688 2.688 87.528 3.84 87.528 4.344C87.528 4.728 87.528 4.752 86.664 5.4C86.04 5.88 81.432 11.16 80.472 12.72C81.912 11.904 83.736 11.016 86.232 11.016C90.096 11.016 91.608 13.32 91.608 15.504ZM85.032 19.92C84.528 18.144 82.968 17.256 82.176 17.256C81.696 17.256 81.024 17.568 81.024 18.264C81.024 19.512 83.496 20.064 84.192 20.064C84.552 20.064 84.744 20.016 85.032 19.92ZM117.696 19.272C117.696 19.608 117.504 20.064 117 20.064C116.568 20.064 116.088 19.728 115.56 19.344C114.168 18.336 113.832 18.144 113.472 17.952C113.184 18.816 112.536 20.688 109.608 20.688C107.544 20.688 105.768 19.56 105.768 18.072C105.768 16.56 107.304 15.696 109.704 15.696C110.76 15.696 111.528 15.816 112.2 15.912C112.176 14.832 111.96 10.08 111.936 9.096C110.448 9.264 110.424 9.264 109.944 9.264C108.912 9.264 106.44 8.952 105.792 7.464C106.392 7.68 107.472 8.064 109.152 8.064C110.28 8.064 111.432 7.896 111.888 7.824C111.84 6.312 111.768 4.224 111.72 3.984C111.624 3.504 111.48 3.24 110.088 2.88C110.352 2.664 110.88 2.256 111.648 2.256C112.464 2.256 113.712 2.928 113.712 3.552C113.712 3.624 113.448 4.92 113.424 5.016C113.304 5.736 113.256 6.744 113.232 7.584C113.424 7.536 113.76 7.44 114.024 7.368C114.192 7.32 115.656 6.888 116.208 6.888C116.664 6.888 117.48 7.248 117.48 7.704C117.48 8.424 115.944 8.616 113.232 8.952C113.232 9.12 113.28 12.72 113.616 16.368C116.352 17.496 117.696 18.12 117.696 19.272ZM103.32 12C103.296 12.096 102.192 17.472 102.168 17.568C102.072 18.192 102.048 18.6 102.048 18.864C102.048 19.128 102.192 20.232 102.192 20.448C102.192 21.144 101.784 21.216 101.52 21.216C99.816 21.216 99.36 16.944 99.36 15.24C99.36 12.648 99.936 9.624 100.128 8.568C100.464 6.696 100.632 5.808 100.632 5.496C100.632 4.392 100.08 3.936 99.6 3.552C99.792 3.48 99.984 3.408 100.32 3.408C101.424 3.408 102.672 4.56 102.672 5.448C102.672 5.76 102.624 5.856 102.288 6.648C100.728 10.392 100.584 13.128 100.584 14.28C100.584 14.664 100.68 17.064 101.016 17.064C101.16 17.064 101.28 16.848 101.328 16.656C101.352 16.56 102.912 12.408 103.08 11.952L103.32 12ZM112.032 17.256C111.264 16.92 110.136 16.824 109.272 16.824C107.4 16.824 106.656 17.52 106.656 17.928C106.656 18.552 107.544 19.224 109.104 19.224C109.512 19.224 111.648 19.224 112.032 17.256ZM126.936 20.544C126.936 21.216 126.504 21.936 125.76 21.936C124.992 21.936 124.8 21.312 124.56 20.52C124.416 20.016 123.72 17.76 121.416 15.912L121.488 15.696C123.168 16.248 124.152 16.632 125.304 17.592C125.712 17.952 126.936 19.104 126.936 20.544ZM153.72 9.912C153.72 10.512 153.072 10.512 153.024 10.512C152.64 10.512 150.96 10.416 150.6 10.416C145.056 10.416 141.936 13.584 141.936 16.104C141.936 18.912 145.296 19.68 147.528 19.992C148.272 20.088 148.8 20.52 148.8 21.264C148.8 21.624 148.68 22.008 147.768 22.008C146.472 22.008 140.88 20.736 140.88 16.656C140.88 13.68 143.448 11.904 145.584 10.608C143.424 10.68 139.368 12.144 136.872 13.584C136.728 13.656 136.056 14.04 135.552 14.04C134.664 14.04 134.352 13.392 134.352 12.984C134.352 12.384 134.592 12.288 135.984 11.832C138.336 11.04 140.616 9.168 143.352 6.648C144.024 6.048 146.376 3.792 146.376 3.24C146.376 3.072 146.232 3 146.088 3C145.272 3 143.376 3.96 142.536 4.56C141.6 5.208 141.504 5.28 141.168 5.28C140.424 5.28 139.464 4.248 139.464 3.12C139.464 2.64 139.608 2.424 139.776 2.184C140.304 2.976 140.616 3.24 141.168 3.24C141.816 3.24 146.04 1.968 146.784 1.968C147.648 1.968 148.656 3.096 148.656 3.816C148.656 4.224 148.536 4.296 147.456 4.968C146.712 5.424 143.688 7.848 143.04 8.28C142.392 8.736 139.008 10.968 138.888 11.088C138.864 11.112 138.816 11.16 138.816 11.208C138.816 11.256 138.864 11.304 138.984 11.304C139.08 11.304 139.56 11.184 139.704 11.136C142.464 10.368 144.264 10.008 150.48 8.592C151.056 8.472 151.344 8.424 151.536 8.424C152.376 8.424 153.72 9.24 153.72 9.912ZM178.224 12.888C177.816 14.496 176.232 20.568 171.72 20.568C169.032 20.568 168.792 18.552 168.48 16.152C168.312 14.712 168.12 13.152 166.656 13.152C163.656 13.152 161.784 17.496 161.112 19.056C160.344 20.808 160.272 21 159.696 21C159.048 21 158.88 19.992 158.88 19.44C158.88 19.128 158.88 18.816 159.696 17.712C161.208 15.624 166.728 5.496 166.728 4.392C166.728 3.84 166.368 3.6 165.408 2.976C165.624 2.88 165.888 2.736 166.344 2.736C167.592 2.736 168.912 3.912 168.912 4.896C168.912 5.352 168.84 5.448 168.072 6.384C167.52 7.08 163.992 12.096 163.128 14.088C164.664 12.912 165.744 12.312 167.16 12.312C169.488 12.312 169.728 13.944 170.016 15.696C170.4 18 170.88 18.768 172.008 18.768C174.936 18.768 177.168 14.52 177.984 12.84L178.224 12.888ZM194.88 5.496C194.88 5.736 194.688 5.88 194.496 5.976C194.112 6.168 192.24 6.696 189.528 7.344C188.904 8.592 186.288 14.16 185.664 15.24C185.112 16.176 184.608 17.064 184.128 17.064C183.96 17.064 183.456 16.968 183.456 16.152C183.456 15.48 183.792 15.048 184.032 14.712C185.76 12.432 187.296 9.264 188.016 7.704C187.488 7.824 186.768 8.016 185.856 8.016C184.44 8.016 183.24 7.272 183.432 5.832C184.008 6.648 184.8 6.792 185.76 6.792C186.624 6.792 187.608 6.624 188.568 6.408C189.12 5.04 189.576 3.864 189.576 3.36C189.576 3.096 189.432 2.52 188.16 2.184C188.52 1.872 188.856 1.704 189.336 1.704C190.272 1.704 191.736 2.712 191.736 3.336C191.736 3.576 191.736 3.576 191.136 4.44C190.8 4.92 190.608 5.256 190.248 5.952C190.728 5.784 191.544 5.496 192.048 5.256C193.104 4.776 193.224 4.704 193.512 4.704C193.824 4.704 194.88 5.04 194.88 5.496ZM201.12 11.256C201.12 11.688 200.88 11.952 200.496 11.952C200.352 11.952 200.088 11.928 199.656 11.688C198.84 11.256 198.552 11.088 197.616 11.088C195.096 11.088 194.736 12.456 194.736 13.584C194.736 14.976 195 16.32 195.144 17.064C197.064 17.472 199.704 18.48 199.704 20.04C199.704 20.4 199.464 20.832 199.032 20.832C198.744 20.832 197.784 20.16 197.184 19.728C196.224 19.056 195.792 18.888 195.312 18.72C195.288 19.224 195.24 20.232 194.4 21C193.416 21.912 192.048 22.008 191.496 22.008C189.504 22.008 187.776 20.928 187.776 19.44C187.776 17.64 189.96 16.776 192.288 16.776C192.816 16.776 193.176 16.824 193.536 16.848C193.464 16.008 193.368 14.88 193.368 14.328C193.368 11.688 195.912 10.656 197.568 10.344C197.76 10.296 197.976 10.248 197.976 9.96C197.976 9.648 197.112 8.76 194.688 8.136C195.048 8.016 195.504 7.896 196.224 7.896C199.2 7.896 201.12 10.128 201.12 11.256ZM193.632 18.168C193.176 18.048 192.792 17.928 191.832 17.928C190.92 17.928 188.688 18.12 188.688 19.416C188.688 20.424 190.224 20.688 191.04 20.688C191.88 20.688 193.704 20.472 193.632 18.168ZM214.512 2.088H207.552V22.896H206.544V1.056H214.512V2.088ZM234.696 14.88H234C234 17.496 233.976 19.992 234.024 20.304C234.072 20.616 234.624 20.664 235.272 20.664C236.616 20.664 236.808 20.568 237.168 19.728C237.384 19.2 237.744 18 237.96 16.944L238.128 16.968C238.2 17.688 238.416 19.632 238.728 19.92C238.8 19.992 238.992 20.16 239.136 20.28C239.256 20.376 239.304 20.52 239.304 20.616C239.304 21.048 238.896 21.576 238.392 21.816C238.008 22.008 237.48 22.248 234.912 22.248C232.392 22.248 232.392 22.056 232.392 18.96C232.392 18.312 232.416 15.456 232.416 14.88H230.064L231.576 16.032C231.696 16.128 231.768 16.248 231.768 16.368C231.768 16.704 231.408 16.752 230.736 16.848C228.48 19.92 226.2 22.272 220.872 22.92L220.824 22.704C224.856 21.672 228.72 17.928 229.68 14.88H229.224C229.272 15.624 228.744 15.912 228.192 15.912C227.688 15.912 227.568 15.624 227.568 15.36C227.568 15.144 227.592 14.712 227.592 14.424C227.616 13.224 227.664 10.824 227.664 6.768C227.664 3.792 227.568 2.688 227.352 1.536L229.56 2.496H234.528L235.08 1.896C235.152 1.824 235.344 1.632 235.488 1.632C235.584 1.632 235.776 1.752 235.872 1.824L237.048 2.736C237.144 2.808 237.24 2.952 237.24 3.048C237.24 3.264 237.144 3.336 236.304 3.936C236.28 5.928 236.304 8.832 236.352 10.344C236.352 10.728 236.544 14.52 236.544 14.712C236.544 15.552 235.728 15.792 235.344 15.792C234.672 15.792 234.696 15.312 234.696 14.88ZM234.696 6.912H229.2V10.176H234.696V6.912ZM229.2 14.304H234.696V10.752H229.2V14.304ZM234.696 3.072H229.2V6.336H234.696V3.072ZM226.416 3.576H222.888V9.552H223.752L224.592 8.592C224.736 8.448 224.856 8.304 224.976 8.304C225.096 8.304 225.216 8.376 225.408 8.544L226.512 9.504C226.608 9.576 226.752 9.72 226.752 9.864C226.752 10.104 226.512 10.128 226.392 10.128H222.888V15.624C223.656 15.408 226.056 14.688 226.656 14.472L226.704 14.664C225.816 15.24 220.68 17.856 218.808 18.624C218.592 19.224 218.52 19.416 218.28 19.416C218.112 19.416 218.016 19.248 217.944 19.104L216.888 16.848C217.968 16.944 218.808 16.8 221.232 16.104V10.128C219.552 10.128 218.808 10.2 218.112 10.344L217.632 9.384C218.376 9.456 220.368 9.528 221.232 9.552V3.576H220.656C220.08 3.576 218.904 3.6 217.824 3.792L217.368 2.832C218.52 2.952 219.864 3 221.04 3H223.872L224.688 2.184C224.832 2.04 225 1.872 225.096 1.872C225.192 1.872 225.36 1.968 225.528 2.112L226.536 2.952C226.632 3.024 226.776 3.192 226.776 3.312C226.776 3.528 226.608 3.576 226.416 3.576ZM259.368 2.616C259.368 2.856 258.984 3.096 258.6 3.312C258.6 5.352 258.624 6.168 258.648 7.008C258.672 7.344 258.72 8.856 258.72 9.168C258.72 9.96 257.832 10.104 257.568 10.104C256.944 10.104 256.968 9.624 257.016 9.024H252.744C252.744 9.504 252.768 10.272 251.64 10.272C250.992 10.272 250.992 9.888 250.992 9.72C250.992 9.6 251.04 9.264 251.04 9.192C251.088 8.112 251.136 5.784 251.136 4.68C251.136 2.664 251.064 2.064 250.896 1.176L252.864 2.184H256.92L257.472 1.584C257.592 1.44 257.664 1.368 257.76 1.368C257.856 1.368 257.952 1.44 258.096 1.536L259.104 2.28C259.224 2.352 259.368 2.472 259.368 2.616ZM257.04 5.184V2.76H252.72V5.184H257.04ZM257.04 8.448V5.76H252.72V8.448H257.04ZM263.088 11.304C263.088 11.544 262.872 11.568 262.728 11.568H252.936C252.384 12.696 251.928 13.344 251.568 13.8H259.224L259.824 13.008C259.92 12.864 260.04 12.744 260.136 12.744C260.256 12.744 260.424 12.888 260.544 12.984L261.744 13.872C261.864 13.944 261.984 14.064 261.984 14.208C261.984 14.568 261.432 14.784 261.096 14.928C260.592 22.464 258.576 22.896 256.8 22.968C256.728 22.272 256.44 21.552 255.168 20.52L255.192 20.328C256.56 20.616 257.064 20.664 257.52 20.664C258.072 20.664 258.432 20.496 258.912 18.624C259.272 17.256 259.416 15.816 259.464 14.376H257.904C256.416 18.576 253.272 21.744 250.152 22.752L250.056 22.632C252.792 20.616 255.096 17.16 256.032 14.376H254.592C252.672 17.952 249.576 21.12 245.88 22.248L245.808 22.104C248.952 20.352 251.904 15.936 252.672 14.376H251.112C249.888 15.936 248.352 17.232 246.6 18.12L246.48 18C249.12 15.504 250.44 12.816 251.016 11.568H250.44C249.84 11.568 248.688 11.592 247.608 11.784L247.128 10.824C248.64 10.944 250.128 10.992 250.824 10.992H259.68L260.544 9.792C260.64 9.672 260.784 9.504 260.904 9.504C261.024 9.504 261.12 9.576 261.336 9.744L262.848 10.944C262.968 11.04 263.088 11.16 263.088 11.304ZM249.504 7.512C249.504 7.752 249.288 7.776 249.144 7.776H246.024C246 10.008 246.024 12.384 246.024 14.688C248.136 13.824 248.592 13.608 249.12 13.344L249.216 13.512C248.04 14.592 244.992 16.536 242.736 17.952C242.592 18.552 242.472 18.744 242.232 18.744C242.04 18.744 241.872 18.456 241.8 18.336L240.672 16.176C242.04 16.176 242.28 16.08 244.392 15.336C244.392 13.128 244.368 9.864 244.368 7.776C243.528 7.776 242.496 7.848 241.656 7.992L241.2 7.032C242.088 7.104 242.832 7.152 244.368 7.2C244.344 6.096 244.296 2.976 244.104 2.088C244.008 1.704 243.912 1.392 243.768 1.032L246.336 1.8C246.624 1.896 246.864 1.944 246.864 2.208C246.864 2.52 246.408 2.712 246.048 2.856C246.024 3.528 246.024 6.576 246.024 7.2H246.744L247.416 6.216C247.488 6.096 247.632 5.904 247.752 5.904C247.896 5.904 248.064 6.024 248.208 6.168L249.264 7.152C249.456 7.32 249.504 7.416 249.504 7.512ZM286.536 9.672C286.536 10.344 286.032 10.44 285.888 10.44C285.528 10.44 285.456 10.32 284.76 9.264C284.184 8.424 283.104 7.536 282.312 6.96C283.848 7.104 286.536 8.088 286.536 9.672ZM283.728 10.704C283.728 11.112 283.584 11.544 283.08 11.544C282.672 11.544 282.6 11.448 282.024 10.44C281.544 9.6 280.92 8.952 279.768 7.8C281.376 8.136 283.728 9.192 283.728 10.704ZM285.168 4.68C285.168 5.448 284.424 5.448 283.752 5.448C280.68 5.448 279.768 5.448 278.16 6.408C275.928 7.728 274.104 10.824 274.104 13.56C274.104 17.568 278.328 18.504 280.488 18.984C280.848 19.056 281.856 19.272 281.856 20.304C281.856 20.928 281.256 20.976 280.944 20.976C278.472 20.976 272.928 19.152 272.928 13.872C272.928 12.84 273.12 10.776 274.896 8.496C275.568 7.632 276.144 7.128 278.208 5.496C275.664 5.832 270.528 7.608 269.712 8.064C268.68 8.664 268.56 8.712 268.176 8.712C267.576 8.712 266.424 7.992 266.424 6.6C266.424 5.976 266.592 5.664 266.76 5.376C267.216 6.096 267.576 6.648 268.632 6.648C269.112 6.648 269.736 6.528 272.16 5.952C275.016 5.256 279.624 4.224 282.48 3.528C282.72 3.48 283.056 3.408 283.248 3.408C283.608 3.408 285.168 3.864 285.168 4.68ZM303.768 6.144C303.768 6.288 303.6 6.36 303.408 6.36H299.016V8.4H300.72L301.056 7.944C301.176 7.776 301.32 7.656 301.44 7.656C301.536 7.656 301.752 7.752 301.944 7.896L302.784 8.472C302.904 8.544 303.048 8.688 303.048 8.808C303.048 9 302.832 9.216 302.304 9.696C302.256 10.296 302.328 13.296 302.328 13.968C302.328 14.904 301.56 14.952 301.32 14.952C300.744 14.952 300.792 14.544 300.84 14.208H299.016V16.464H300.288L300.864 15.624C300.984 15.456 301.08 15.336 301.248 15.336C301.368 15.336 301.512 15.432 301.68 15.576L302.64 16.416C302.76 16.536 302.88 16.68 302.88 16.824C302.88 16.968 302.76 17.04 302.52 17.04H299.016V18.888C300.048 18.768 301.44 18.552 302.592 18.216L302.64 18.384C301.104 19.224 297.504 20.28 295.32 20.784C295.2 21.048 295.032 21.288 294.816 21.288C294.672 21.288 294.552 21.144 294.48 20.928L293.904 19.08C294.192 19.128 294.576 19.176 295.008 19.176C295.128 19.176 296.28 19.176 297.672 19.032V17.04H297.264C297.096 17.04 295.56 17.04 294.432 17.256L293.976 16.296C295.032 16.392 295.968 16.44 297.672 16.464V14.208H295.848C295.848 14.544 295.824 15.144 294.912 15.144C294.336 15.144 294.336 14.76 294.336 14.592C294.336 14.52 294.36 14.16 294.36 14.064C294.432 12.816 294.456 10.872 294.456 9.984C294.456 9.216 294.456 8.328 294.288 7.68L295.944 8.4H297.672V6.36H297.12C296.544 6.36 295.344 6.36 294.288 6.576L293.832 5.616C294.432 5.664 295.872 5.784 297.672 5.784V4.008C295.92 4.344 295.056 4.296 294.528 4.272V4.128C300.672 2.112 301.08 1.656 301.608 1.032L303.048 2.376C303.168 2.496 303.24 2.592 303.24 2.688C303.24 2.808 303.144 2.928 302.832 2.928H302.208C302.112 2.928 299.52 3.6 299.016 3.72V5.784H301.008L301.728 4.848C301.872 4.656 301.992 4.536 302.112 4.536C302.256 4.536 302.376 4.656 302.544 4.8L303.528 5.736C303.672 5.88 303.768 6.024 303.768 6.144ZM300.864 10.968V8.976H299.016V10.968H300.864ZM300.864 13.632V11.544H299.016V13.632H300.864ZM297.672 10.968V8.976H295.848V10.968H297.672ZM297.672 13.632V11.544H295.848V13.632H297.672ZM310.392 7.176C310.392 7.392 310.2 7.536 309.792 7.848C309.744 9.12 309.624 14.832 309.576 15.984C309.336 20.472 308.544 22.224 305.88 22.632C305.52 21.552 304.68 20.832 303.672 20.304L303.696 20.112C304.224 20.208 304.944 20.352 306 20.352C307.272 20.352 307.632 19.488 307.92 17.352C308.328 14.448 308.256 8.4 308.256 7.296L306.528 7.416C306.432 12.096 306.264 19.848 299.592 22.536L299.52 22.368C303.12 19.752 304.752 16.44 304.944 7.512C303.696 7.632 303.288 7.728 302.904 7.824L302.376 6.912C303.504 6.96 304.704 6.912 304.92 6.888C304.92 6.312 304.872 3.432 304.872 3.216C304.872 2.496 304.848 2.352 304.536 1.176L306.768 1.752C306.912 1.8 307.128 1.896 307.128 2.04C307.128 2.184 306.984 2.4 306.552 2.712V3.192C306.552 3.408 306.528 4.296 306.528 6.84L307.92 6.744L308.424 6.144C308.568 5.976 308.664 5.88 308.784 5.88C308.928 5.88 309.048 5.952 309.24 6.096L310.128 6.792C310.248 6.888 310.392 7.032 310.392 7.176ZM295.44 2.472C295.44 2.616 295.344 2.736 295.176 2.808C295.032 2.88 294.744 2.976 294.552 3.048C294.24 3.72 293.88 4.536 293.184 5.832L293.568 6.072C293.76 6.192 293.808 6.264 293.808 6.384C293.808 6.552 293.736 6.696 293.016 7.176C292.992 9.696 292.968 11.208 292.968 12.6C292.968 13.992 293.088 20.088 293.088 21.336C293.088 21.768 293.016 22.776 291.792 22.776C291.336 22.776 291.168 22.584 291.168 21.984C291.168 21.504 291.312 18.12 291.336 17.52C291.432 15.576 291.504 13.44 291.504 11.496V8.568C290.832 9.576 289.752 11.112 288.6 12.048L288.504 11.976C290.472 8.952 292.92 2.88 293.136 1.032L295.152 2.088C295.32 2.184 295.44 2.304 295.44 2.472ZM328.224 21.36C328.224 21.912 327.912 22.752 327.312 22.752C326.928 22.752 326.856 22.656 325.728 20.832C324.408 18.696 323.856 18.144 319.296 13.632C319.056 13.392 318.432 12.696 318.432 11.928C318.432 11.544 318.504 11.136 319.32 10.272C321.744 7.704 325.392 3.888 325.392 2.952C325.392 2.376 324.864 1.848 324.24 1.224C326.352 1.008 327.48 2.76 327.48 3.672C327.48 4.152 327.24 4.344 326.52 4.92C325.752 5.52 322.176 8.808 320.184 10.992C319.776 11.424 319.776 11.736 319.776 11.88C319.776 12.48 319.944 12.648 321.888 14.424C327.264 19.272 328.224 20.112 328.224 21.36ZM355.92 18.864C355.92 19.512 355.656 19.992 355.08 19.992C354.576 19.992 354.312 19.584 354.096 19.224C352.176 16.056 350.856 14.472 348.72 12.888C344.448 18.264 340.368 19.776 338.112 20.232L338.088 20.04C343.656 17.592 349.512 10.248 350.832 5.784C349.92 5.904 345.936 6.648 344.64 7.152C344.424 7.248 343.536 7.728 343.344 7.728C342.984 7.728 341.664 6.552 341.664 5.304C341.664 4.824 341.76 4.512 341.88 4.272C342.792 5.712 343.2 5.736 343.68 5.736C344.352 5.736 349.56 5.232 350.544 4.656C350.712 4.56 351.456 3.984 351.648 3.984C351.912 3.984 353.688 5.496 353.688 5.904C353.688 6.168 353.52 6.216 352.752 6.504C352.584 6.576 352.56 6.624 352.248 7.2C351.192 9.24 350.592 10.416 349.056 12.48C351.936 13.752 355.92 16.608 355.92 18.864ZM379.272 6.888C379.272 7.128 379.176 7.152 378.648 7.368C378.168 7.56 378 7.704 377.208 9.264C373.512 16.44 369.792 19.728 364.512 21.216L364.44 21.048C367.656 19.2 370.536 16.8 372.696 13.824C372.456 13.8 372.192 13.584 371.76 13.104C370.104 11.208 369.864 10.944 368.568 10.224C367.272 11.64 365.952 12.672 364.56 13.344L364.488 13.2C367.512 10.272 370.392 5.328 370.392 4.392C370.392 3.6 369.456 3.24 368.976 3.048C369.288 2.904 369.624 2.76 370.176 2.76C371.544 2.76 372.84 3.936 372.84 4.44C372.84 4.704 372.792 4.752 372.24 5.232C372.048 5.424 371.76 5.88 371.592 6.12C371.76 6.12 372 6.144 372.456 6.144C373.632 6.144 376.056 5.76 376.392 5.592C376.56 5.496 377.232 5.016 377.4 5.016C377.688 5.016 379.272 6.552 379.272 6.888ZM376.416 6.744C375.768 6.816 372.912 7.296 372.36 7.296C372.168 7.296 371.904 7.296 371.112 6.84C369.864 8.688 368.928 9.792 368.808 9.936C370.152 10.104 373.224 10.704 373.368 12.864C373.992 11.928 375.144 10.176 376.416 6.744ZM396.768 10.896C396.768 11.4 396.504 11.832 396.048 11.832C395.544 11.832 395.472 11.616 395.064 10.512C394.752 9.624 394.176 8.76 393.624 8.04C395.256 8.52 396.768 9.864 396.768 10.896ZM402.312 9.696C402.312 9.864 402.264 9.936 401.808 10.44C401.664 10.608 400.68 12.72 400.464 13.128C397.008 19.632 392.736 20.76 391.056 21.216L391.008 20.976C398.208 17.616 400.272 9.936 400.272 9.6C400.272 9.024 399.312 8.472 399 8.304C399.312 8.232 399.624 8.136 400.056 8.136C401.088 8.136 402.312 9.408 402.312 9.696ZM392.616 11.976C392.616 12.456 392.376 12.864 391.92 12.864C391.392 12.864 391.152 12.312 390.888 11.712C390.576 11.04 389.928 9.96 389.136 9.12C390.72 9.36 392.616 10.656 392.616 11.976ZM428.016 6.648C428.016 6.936 427.992 6.936 427.224 7.392C426.792 7.656 426.6 8.088 426.312 8.928C424.92 12.936 422.688 16.752 419.112 19.056C417.096 20.352 415.392 20.784 414.648 20.976L414.6 20.784C418.968 18.528 423.768 13.296 425.232 6.432C423.6 6.408 416.688 7.416 415.44 7.776C415.224 7.848 414.144 8.328 414.096 8.328C413.64 8.328 412.152 7.104 412.152 5.52C412.152 5.208 412.272 4.944 412.368 4.752C413.448 6.024 413.64 6.264 414.696 6.264C415.368 6.264 424.32 5.52 425.04 5.208C425.208 5.136 425.808 4.632 425.952 4.632C426.24 4.632 428.016 6.192 428.016 6.648ZM441.456 22.704H433.488V21.672H440.448V0.863999H441.456V22.704ZM465.6 11.76C465.6 16.416 461.712 19.992 456.216 20.472L456.192 20.28C461.328 18.456 463.728 15.072 463.728 11.424C463.728 7.368 460.464 4.968 456.288 4.968C455.688 4.968 455.568 4.992 455.304 5.112C456.6 5.808 456.96 6.696 456.96 7.032C456.96 7.296 456.888 7.464 456.144 9.024C454.608 12.312 452.352 17.136 450.72 18.48C450.552 18.6 450.264 18.744 449.952 18.744C449.4 18.744 449.184 18.432 448.464 17.424C448.296 17.184 447.336 16.296 447.168 16.08C446.904 15.696 446.496 14.832 446.496 13.632C446.496 8.472 450.864 4.224 456.72 4.224C461.376 4.224 465.6 6.936 465.6 11.76ZM455.064 6.792C455.064 6.192 454.776 5.688 454.32 5.256C451.68 5.688 448.008 9.096 448.008 13.512C448.008 15.144 448.944 16.944 449.88 16.944C450.528 16.944 451.464 15.24 451.872 14.424C454.272 9.6 455.064 8.04 455.064 6.792ZM10.512 50.088H3.552V70.896H2.544V49.056H10.512V50.088ZM35.376 68.76C35.376 69.216 34.704 70.296 33.384 70.296H29.832C28.272 70.296 27.576 69.96 27.576 68.088C27.576 65.328 27.576 52.536 27.504 50.616C27.48 49.92 27.408 49.68 27.264 49.272L29.616 49.872C29.736 49.896 30.024 49.968 30.024 50.208C30.024 50.376 29.856 50.52 29.712 50.64C29.496 50.808 29.4 50.88 29.208 51.048V57.168C29.616 56.808 32.208 54.36 32.76 52.944L34.56 54.624C34.656 54.696 34.752 54.864 34.752 54.96C34.752 55.176 34.488 55.224 34.344 55.224C34.2 55.224 33.984 55.176 33.744 55.128C32.232 56.16 30.504 57.096 29.208 57.624C29.184 59.232 29.232 66.264 29.184 67.704C29.16 68.448 29.28 68.664 30.144 68.664H32.04C32.52 68.664 33.024 68.448 33.288 67.512C33.336 67.344 33.816 65.448 33.936 64.728H34.104C34.2 65.712 34.488 67.848 34.752 68.136C34.824 68.208 35.16 68.424 35.232 68.472C35.328 68.544 35.376 68.64 35.376 68.76ZM33.936 62.856C33.936 63.216 33.672 63.888 33 63.888C32.256 63.888 31.896 63.264 31.176 61.992C31.128 61.896 30.24 60.528 29.256 59.928L29.304 59.736C29.928 59.904 31.368 60.312 32.304 60.864C33.816 61.776 33.936 62.616 33.936 62.856ZM23.856 57.336C23.856 57.84 23.592 58.296 22.992 58.296C22.248 58.296 22.128 57.96 21.648 56.472C21.6 56.328 21.288 55.44 20.568 54.6L20.664 54.432C22.368 55.176 23.856 55.944 23.856 57.336ZM26.592 50.232C26.592 50.496 26.208 50.712 25.8 50.904C25.824 51.6 25.848 52.632 25.848 53.376C25.848 60.768 25.776 63.312 24.576 65.712C23.4 68.016 21.648 69.528 19.176 70.56L19.08 70.368C23.616 67.2 23.952 63 24.144 60.648C23.376 61.392 22.416 62.208 21.144 63.192C21 63.936 20.88 64.2 20.64 64.2C20.52 64.2 20.304 64.08 20.208 63.864L19.176 61.608C20.64 61.68 23.04 60.72 24.168 60.12C24.24 58.608 24.24 57.744 24.24 56.808C24.24 55.008 24.216 50.592 23.832 49.224L26.136 49.872C26.304 49.92 26.592 50.04 26.592 50.232ZM22.248 53.904C22.248 54.144 22.032 54.168 21.888 54.168H18.312V59.04C19.512 58.728 20.64 58.392 21.48 58.056L21.6 58.296C20.736 58.776 19.44 59.52 18.312 60.072C18.336 61.32 18.504 66.816 18.504 67.92C18.504 68.88 18.504 70.416 15.408 70.92C15.12 69.816 14.784 69.288 13.248 68.448L13.32 68.328C14.28 68.496 15.72 68.568 16.008 68.568C16.536 68.568 16.704 68.472 16.776 68.136C16.848 67.848 16.848 65.976 16.848 65.496C16.848 65.064 16.824 61.08 16.824 60.816C16.08 61.176 15.504 61.416 14.88 61.704C14.736 62.472 14.712 62.664 14.4 62.664C14.184 62.664 14.04 62.52 13.968 62.4L12.648 60.24C13.704 60.216 14.016 60.12 16.8 59.424L16.728 54.168C15.84 54.168 14.688 54.168 13.536 54.384L13.056 53.424C14.64 53.568 15.768 53.592 16.728 53.592C16.728 52.44 16.704 50.424 16.68 50.112C16.608 49.584 16.464 49.272 16.32 48.936L18.888 49.68C19.08 49.728 19.224 49.848 19.224 50.04C19.224 50.232 19.056 50.376 18.312 50.832V53.592H19.536L20.28 52.656C20.448 52.464 20.52 52.344 20.664 52.344C20.808 52.344 20.904 52.44 21.072 52.608L22.008 53.544C22.152 53.688 22.248 53.784 22.248 53.904ZM58.8 69.696C58.8 70.224 58.368 70.44 57.96 70.44C56.736 70.44 53.928 69.096 52.296 65.616C49.488 68.208 47.112 68.952 46.032 69.264L45.984 69.096C47.208 68.472 49.2 67.344 51.768 64.392C50.712 61.608 50.52 59.112 50.352 57.024C49.224 57.264 48.816 57.408 48.408 57.552L47.856 56.808C47.808 57.72 47.952 61.776 47.952 62.616C47.952 63.288 47.328 63.6 46.896 63.6C46.344 63.6 46.32 63.288 46.32 63.048H44.016V65.352H46.416L47.16 64.344C47.304 64.152 47.424 64.056 47.544 64.056C47.64 64.056 47.808 64.128 47.952 64.272L49.08 65.304C49.2 65.424 49.32 65.592 49.32 65.712C49.32 65.856 49.176 65.928 48.96 65.928H44.016C44.016 66.48 44.112 68.856 44.112 69.336C44.112 70.056 43.704 70.536 42.984 70.536C42.336 70.536 42.24 70.152 42.24 69.864C42.24 69.6 42.36 68.496 42.384 68.28C42.432 67.344 42.456 66.408 42.456 65.928H40.488C40.056 65.928 38.832 65.952 37.68 66.168L37.2 65.208C38.688 65.328 40.152 65.352 40.872 65.352H42.456C42.48 64.992 42.504 63.384 42.504 63.048H40.224C40.224 63.48 40.248 64.128 39.168 64.128C38.808 64.128 38.568 63.888 38.568 63.552C38.568 63.384 38.64 62.712 38.664 62.568C38.688 60.984 38.688 59.784 38.688 58.992C38.688 56.328 38.688 56.256 38.52 54.984L40.32 55.8H46.056L46.608 55.128C46.728 54.984 46.872 54.84 46.992 54.84C47.112 54.84 47.28 54.936 47.496 55.104L48.24 55.704C48.432 55.848 48.504 55.968 48.504 56.088C48.504 56.28 48.408 56.4 47.904 56.688C49.272 56.568 50.112 56.424 50.304 56.4C50.256 55.416 50.208 52.824 50.16 51.024C50.136 49.992 50.016 49.608 49.896 49.128L52.128 49.896C52.32 49.968 52.512 50.088 52.512 50.232C52.512 50.496 52.224 50.688 51.864 50.832C51.792 51.552 51.744 52.464 51.744 53.928C51.744 55.008 51.768 55.704 51.816 56.16L55.08 55.584L55.824 54.48C55.992 54.216 56.088 54.12 56.232 54.12C56.328 54.12 56.472 54.192 56.664 54.288L58.056 55.032C58.224 55.128 58.344 55.272 58.344 55.392C58.344 55.536 58.224 55.632 58.032 55.656L51.84 56.736C52.008 58.728 52.128 60.456 52.872 63C54.504 60.696 55.704 58.392 55.848 57.192L57.864 58.512C58.008 58.608 58.128 58.728 58.128 58.896C58.128 59.088 57.888 59.28 57.144 59.304C56.376 60.624 55.296 62.376 53.4 64.512C54.48 66.96 56.28 67.848 56.568 67.848C56.928 67.848 57.072 67.584 57.576 66.672C57.744 66.336 58.464 64.896 58.608 64.608L58.752 64.632C58.728 64.944 58.296 68.064 58.296 68.352C58.296 68.496 58.32 68.688 58.584 69.12C58.776 69.408 58.8 69.528 58.8 69.696ZM46.344 59.112V56.376H44.016V59.112H46.344ZM46.344 62.472V59.688H44.016V62.472H46.344ZM42.504 59.112V56.376H40.2V59.112H42.504ZM42.504 62.472V59.688H40.2V62.472H42.504ZM56.232 52.896C56.232 53.52 55.704 53.856 55.248 53.856C54.624 53.856 54.384 53.304 54.288 53.112C54.024 52.488 53.616 51.6 52.944 50.904L53.04 50.736C54.144 50.928 56.232 51.288 56.232 52.896ZM48.792 50.928C48.792 51.192 48.552 51.288 48.24 51.36C47.544 52.2 45.744 54.216 44.28 55.296L44.16 55.152C45.12 53.544 46.32 51.36 46.584 49.728L48.48 50.52C48.696 50.616 48.792 50.76 48.792 50.928ZM43.896 52.824C43.896 53.088 43.752 53.952 42.912 53.952C42.096 53.952 42.048 53.256 41.952 52.344C41.856 51.384 41.664 50.904 41.232 50.088L41.352 49.968C43.896 51.192 43.896 52.56 43.896 52.824ZM40.656 53.424C40.656 54.072 40.296 54.504 39.792 54.504C39.048 54.504 38.832 53.736 38.784 53.52C38.496 52.488 38.328 51.768 37.56 50.688L37.656 50.592C39.528 51.12 40.656 52.296 40.656 53.424ZM69.456 70.704H61.488V69.672H68.448V48.864H69.456V70.704ZM92.184 53.832C92.184 54.384 91.68 54.528 90.816 54.672C88.488 55.08 86.976 55.872 86.184 56.448L86.04 56.304C86.4 55.968 88.152 54.36 88.224 54.288C88.296 54.216 88.296 54.168 88.296 54.096C88.296 53.832 87.552 53.832 87.408 53.832C86.448 53.832 84.864 54.216 83.04 54.912C84.336 53.184 86.76 52.56 88.992 52.56C90.48 52.56 92.184 52.992 92.184 53.832ZM93.36 66.48C93.36 67.248 92.52 67.368 91.008 67.368C90.432 67.368 87.216 67.344 85.128 66.696C83.688 66.24 82.704 64.848 82.704 63.432C82.704 62.88 82.824 62.664 82.944 62.424C83.496 64.248 83.928 65.64 88.464 65.64C88.944 65.64 91.272 65.448 91.512 65.448C92.352 65.448 93.36 65.808 93.36 66.48ZM80.136 59.496C79.992 60.168 79.656 61.56 79.464 62.328C79.176 63.528 78.624 65.832 78.624 66.912C78.624 67.176 78.744 68.328 78.744 68.568C78.744 68.976 78.696 69.456 78.12 69.456C77.136 69.456 75.576 67.248 75.576 62.376C75.576 60.648 76.104 57.408 76.512 54.936C76.584 54.48 76.656 53.856 76.656 53.328C76.656 52.488 76.536 51.864 75.84 51C75.96 50.952 76.056 50.904 76.272 50.904C77.136 50.904 78.696 52.248 78.696 53.184C78.696 53.4 78.648 53.616 78.384 54.312C77.448 56.712 76.704 59.232 76.704 61.848C76.704 63.504 77.112 65.352 77.496 65.352C77.64 65.352 77.76 65.064 77.808 64.896C78.072 64.08 79.08 61.296 79.944 59.448L80.136 59.496ZM114.984 67.296C114.984 67.776 114.792 68.184 114.288 68.184C113.952 68.184 113.064 67.632 112.176 67.056C110.544 66.024 109.752 65.76 108.96 65.568C108.816 66.936 108.384 69.048 104.952 69.048C103.152 69.048 100.632 68.16 100.632 66.528C100.632 65.28 101.928 64.44 102.744 64.2C104.592 63.624 106.32 63.696 107.256 63.744C107.112 62.832 106.944 61.512 106.944 58.44C106.944 57.96 106.968 53.376 106.968 53.208C106.968 51.768 106.68 51.24 104.952 50.928C105.168 50.688 105.552 50.256 106.464 50.256C107.304 50.256 109.08 50.904 109.08 51.84C109.08 52.008 108.864 52.92 108.792 53.16C108.696 53.568 108.6 54 108.456 55.08C109.488 55.008 110.4 54.72 112.272 54.12C112.488 54.048 112.704 54 112.992 54C113.328 54 114.312 54.144 114.312 54.792C114.312 55.128 114.168 55.296 113.976 55.416C113.424 55.8 111.336 56.304 109.944 56.304C109.368 56.304 108.816 56.112 108.36 55.896C108.336 56.328 108.264 57.216 108.264 58.464C108.264 61.32 108.624 63.264 108.792 64.032C111.072 64.44 114.984 65.688 114.984 67.296ZM107.304 65.16C106.824 65.064 106.296 64.968 105.312 64.968C104.064 64.968 101.568 65.232 101.568 66.432C101.568 67.392 103.296 67.608 104.328 67.608C107.208 67.608 107.304 66 107.304 65.16ZM139.32 62.88C139.32 66.408 135.6 68.736 129.432 68.736C128.592 68.736 128.088 68.688 127.656 68.64V68.376C129.096 68.328 132.816 67.848 134.928 66.648C135.792 66.144 137.76 64.752 137.76 62.544C137.76 60.408 135.816 59.112 133.68 59.112C132.792 59.112 130.104 59.4 126.504 62.568C125.592 63.36 125.496 63.432 125.256 63.432C124.704 63.432 123.48 62.424 123.48 61.392C123.48 60.984 123.6 60.744 123.744 60.504C123.984 60.864 124.392 61.44 124.896 61.44C125.232 61.44 125.496 61.32 126.216 60.936C127.728 60.096 129.312 59.376 130.92 58.872C131.688 58.632 132.744 58.392 133.872 58.392C136.68 58.392 139.32 59.856 139.32 62.88ZM165.432 52.824C165.432 53.544 164.76 53.544 164.424 53.544C161.136 53.544 160.776 53.544 159.744 53.88C156.912 54.84 154.32 58.296 154.32 61.68C154.32 65.784 158.712 66.624 160.44 66.96C161.208 67.104 162.096 67.464 162.096 68.376C162.096 69.096 161.352 69.096 161.184 69.096C159.792 69.096 153.144 67.8 153.144 62.064C153.144 58.344 155.616 55.776 158.352 53.616C156.96 53.568 152.088 55.248 149.712 56.328C148.68 56.784 148.656 56.808 148.416 56.808C147.888 56.808 146.664 56.04 146.664 54.648C146.664 54.048 146.88 53.664 147.048 53.376C147.432 54.192 147.936 54.72 148.92 54.72C149.208 54.72 149.712 54.624 149.952 54.576C155.376 53.28 155.976 53.136 158.352 52.632C159.744 52.32 161.448 51.984 162.48 51.672C162.672 51.6 163.152 51.504 163.464 51.504C164.856 51.504 165.432 52.584 165.432 52.824ZM180.936 58.896H187.248L188.136 57.48C188.208 57.36 188.376 57.168 188.52 57.168C188.664 57.168 188.832 57.312 188.976 57.432L190.584 58.848C190.728 58.968 190.824 59.064 190.824 59.208C190.824 59.448 190.632 59.472 190.464 59.472H181.344C183.336 62.928 187.44 65.952 191.376 66.48V66.6C190.464 66.912 189.528 67.56 188.928 68.544C183.864 65.88 181.488 61.512 181.008 59.472H180.96C180.936 60.552 180.936 62.736 180.96 63.744C181.008 65.304 181.128 69.312 181.128 69.624C181.128 70.488 180.504 70.824 179.904 70.824C179.28 70.824 179.088 70.464 179.088 69.984C179.088 69.432 179.232 67.008 179.256 66.504C179.304 65.232 179.304 63.384 179.304 61.536C176.712 65.088 172.824 67.944 169.536 68.856V68.736C174.144 65.76 177.984 60.744 178.656 59.472H172.704C172.272 59.472 171.048 59.472 169.896 59.688L169.416 58.728C171.168 58.872 172.68 58.896 173.088 58.896H179.304C179.328 57.456 179.328 55.56 179.304 54.096H174.864C174.456 54.096 173.208 54.096 172.032 54.312L171.552 53.352C172.776 53.472 174.024 53.52 175.248 53.52H179.28C179.232 50.424 179.112 49.728 178.848 48.72L181.248 49.392C181.464 49.44 181.608 49.584 181.608 49.776C181.608 50.04 181.128 50.328 180.936 50.448V53.52H184.776L185.64 52.224C185.76 52.032 185.88 51.912 186.024 51.912C186.144 51.912 186.312 52.032 186.432 52.152L187.92 53.472C188.016 53.568 188.16 53.688 188.16 53.856C188.16 54.072 187.944 54.096 187.8 54.096H180.936V58.896ZM214.248 60.504H204.912C206.64 63.144 210.48 65.952 214.896 66.408L214.944 66.576C214.368 66.768 213.144 67.464 212.616 68.616C208.536 66.744 205.968 63.288 204.888 61.32C204.912 63.696 204.936 65.496 204.96 66.6C204.96 67.08 205.08 69.168 205.08 69.576C205.08 70.632 204 70.704 203.856 70.704C203.088 70.704 203.088 70.272 203.088 69.984C203.088 69.792 203.136 68.808 203.16 68.544C203.328 65.088 203.352 64.128 203.352 61.992C201.576 64.44 198 67.68 193.968 69.048L193.872 68.856C197.712 66.432 200.928 62.856 202.344 60.504H197.064C196.416 60.504 195.288 60.528 194.232 60.744L193.752 59.784C194.976 59.88 196.224 59.928 197.448 59.928H203.328C203.328 57.336 203.328 56.928 203.28 53.28H198.504C197.808 53.28 196.704 53.328 195.672 53.496L195.192 52.56C196.416 52.656 197.664 52.704 198.888 52.704H203.28C203.232 50.568 203.232 49.992 202.8 49.056L205.344 49.752C205.488 49.8 205.656 49.848 205.656 50.064C205.656 50.208 205.392 50.4 204.888 50.712C204.888 50.928 204.864 52.368 204.864 52.704H209.472L210.336 51.624C210.456 51.456 210.6 51.312 210.72 51.312C210.816 51.312 210.984 51.384 211.2 51.576L212.568 52.68C212.664 52.752 212.808 52.92 212.808 53.04C212.808 53.28 212.568 53.28 212.424 53.28H204.864C204.864 56.4 204.864 56.784 204.888 59.928H206.304C207.552 58.2 208.968 55.176 209.04 54.12L211.2 55.416C211.44 55.56 211.464 55.656 211.464 55.728C211.464 56.04 211.224 56.112 210.384 56.208C210.168 56.424 210.024 56.592 208.632 58.104C207.72 59.112 207.072 59.688 206.784 59.928H211.032L212.136 58.824C212.352 58.608 212.448 58.536 212.544 58.536C212.64 58.536 212.76 58.584 212.976 58.776L214.368 59.904C214.488 60 214.632 60.168 214.632 60.264C214.632 60.504 214.368 60.504 214.248 60.504ZM196.752 54.576L196.872 54.48C197.856 54.912 200.472 56.088 200.472 58.176C200.472 58.68 200.184 59.304 199.512 59.304C198.696 59.304 198.552 58.584 198.456 58.08C198.408 57.84 198.048 56.112 196.752 54.576ZM236.496 58.368C236.496 58.92 236.184 59.016 235.68 59.112C233.352 59.568 231.12 60.432 228.936 61.368C229.008 61.776 229.176 62.808 229.176 64.2C229.176 64.704 229.176 66.288 228.312 66.288C227.424 66.288 227.424 64.92 227.424 64.512C227.424 64.152 227.424 62.52 227.4 62.16C225.792 63.168 223.968 64.92 223.968 66.216C223.968 68.04 227.112 68.04 227.808 68.04C229.104 68.04 230.568 67.8 231.48 67.632C231.936 67.56 232.08 67.536 232.32 67.536C233.352 67.536 233.76 68.16 233.76 68.592C233.76 69.024 233.328 69.288 233.016 69.36C232.584 69.456 230.448 69.6 229.344 69.6C228.024 69.6 222.984 69.6 222.984 66.624C222.984 64.368 225.936 62.184 227.304 61.272C227.088 60 226.752 58.8 225.24 58.8C223.776 58.8 222.624 60.24 222.24 60.864C221.16 62.544 221.064 62.568 220.656 62.568C220.08 62.568 219.96 62.16 219.96 61.584C219.96 60.72 220.224 60.504 220.488 60.264C222.192 58.8 223.416 56.856 224.592 54.912C223.872 55.032 223.176 55.152 222.456 55.152C220.824 55.152 220.032 54.264 220.08 53.016C220.824 53.712 221.496 53.904 222.552 53.904C223.56 53.904 224.952 53.688 225.336 53.616C225.672 53.064 226.656 51.288 226.656 50.88C226.656 50.544 226.128 50.04 225.024 49.896C225.288 49.632 225.648 49.32 226.488 49.32C227.664 49.32 228.672 50.208 228.672 50.712C228.672 51.048 228.456 51.336 228.288 51.552C227.784 52.152 227.712 52.248 227.04 53.232C227.568 53.088 229.872 52.128 230.376 52.128C230.952 52.128 231.648 52.464 231.648 52.944C231.648 53.28 231.384 53.448 231.144 53.544C230.04 54.024 227.4 54.456 226.032 54.672C223.872 57.792 223.656 58.128 223.344 58.704C223.896 58.44 224.64 58.056 225.792 58.056C228 58.056 228.456 59.496 228.72 60.384C230.352 59.424 232.704 58.296 233.4 57.96C233.832 57.744 234 57.576 234 57.264C234 56.952 233.808 56.808 233.256 56.4C233.424 56.352 233.52 56.328 233.76 56.328C234.624 56.328 236.496 57.024 236.496 58.368ZM245.88 56.808L248.352 56.04L249.072 54.624C249.24 54.288 249.288 54.216 249.432 54.216C249.552 54.216 249.744 54.288 249.84 54.336L251.472 55.008C251.64 55.08 251.832 55.176 251.832 55.368C251.832 55.512 251.688 55.632 251.544 55.68L245.88 57.408C245.88 58.344 245.808 63 245.904 63.408C245.976 63.672 246.144 63.816 247.608 63.816C248.64 63.816 249.36 63.672 250.08 60.48H250.272C250.32 60.864 250.44 62.472 250.584 62.904C250.632 63.072 250.752 63.216 250.92 63.384C251.016 63.48 251.064 63.696 251.064 63.792C251.064 64.176 250.632 64.728 250.128 64.968C249.552 65.232 248.688 65.376 247.512 65.376C244.176 65.376 244.176 64.68 244.176 63.384C244.176 62.52 244.224 58.68 244.224 57.912C243.336 58.176 242.376 58.488 241.296 59.04L240.552 58.272C241.92 57.96 242.88 57.72 244.224 57.288C244.272 54.456 244.296 51.768 244.248 50.976C244.224 50.28 244.104 49.632 244.008 49.296L246.336 50.112C246.48 50.16 246.72 50.304 246.72 50.496C246.72 50.76 246.336 51 246 51.168C245.928 52.056 245.904 55.992 245.88 56.808ZM252.336 51.84H259.272L260.04 51.048C260.16 50.904 260.304 50.76 260.424 50.76C260.496 50.76 260.664 50.904 260.736 50.952L261.84 51.912C261.984 52.032 262.176 52.224 262.176 52.392C262.176 52.536 261.912 52.776 261.408 53.184C261.408 54.888 261.432 60.024 261.096 63.024C260.496 68.376 259.224 69.912 255.504 70.392C255.384 69.576 255.192 68.832 253.32 67.536L253.44 67.368C253.896 67.512 255.048 67.896 256.368 67.896C257.352 67.896 258.168 67.728 258.696 66.192C259.632 63.528 259.632 61.08 259.632 52.416H255.264C255.192 56.304 255.192 60.936 253.752 64.296C252.648 66.888 249.648 69.888 244.224 70.752L244.128 70.56C249.168 68.568 251.4 66 252.336 63.336C253.584 59.832 253.512 54.096 253.488 52.416H251.952C251.376 52.416 250.2 52.44 249.12 52.632L248.64 51.672C250.632 51.84 252.048 51.84 252.336 51.84ZM281.088 59.16C281.088 63.576 280.08 66.432 277.392 68.88C276.6 69.6 275.088 70.752 273.984 70.992L273.936 70.872C278.088 67.872 279.312 63.24 279.312 58.944C279.312 57.36 279.216 52.992 277.416 52.992C276.456 52.992 275.784 53.976 275.568 54.288C274.608 55.68 273.024 59.352 273.024 62.232C273.024 62.496 273.192 63.72 273.192 63.96C273.192 64.224 273.096 64.632 272.616 64.632C271.2 64.632 270.768 61.824 270.768 59.664C270.768 57.84 271.272 54.672 271.608 52.728C271.632 52.608 271.704 52.152 271.704 51.816C271.704 50.52 270.816 49.968 270.312 49.632C270.528 49.584 270.936 49.464 271.392 49.464C272.496 49.464 273.504 50.352 273.504 51.192C273.504 51.576 273.36 51.888 273.216 52.248C272.472 53.976 271.872 56.4 271.872 58.68C271.872 59.04 271.872 60.408 272.112 60.408C272.256 60.408 272.304 60.288 272.328 60.168C272.88 58.2 274.944 52.056 277.776 52.056C280.776 52.056 281.088 56.76 281.088 59.16ZM310.824 51.672C310.824 51.912 310.608 51.936 310.464 51.936H304.08C303.528 53.976 302.616 56.28 301.272 58.752L302.232 59.232H307.248L308.064 58.344C308.184 58.224 308.304 58.08 308.448 58.08C308.568 58.08 308.688 58.176 308.808 58.272L309.84 59.112C309.96 59.208 310.128 59.376 310.128 59.568C310.128 59.808 309.936 59.976 309.384 60.264C309.336 61.8 309.408 63.48 309.432 64.8C309.456 65.472 309.6 68.52 309.6 69.12C309.6 70.08 308.88 70.224 308.424 70.224C307.728 70.224 307.728 69.696 307.776 68.808H302.112C302.136 69.528 302.184 70.32 301.008 70.32C300.432 70.32 300.384 69.936 300.384 69.576C300.384 69.36 300.456 68.304 300.456 68.088C300.48 66.888 300.504 65.688 300.504 64.464C300.504 63.336 300.504 61.296 300.432 60.192C299.784 61.224 297.96 64.056 296.184 65.376L296.064 65.208C298.656 61.968 301.152 56.304 302.112 51.936H300.384C299.952 51.936 298.728 51.936 297.576 52.152L297.096 51.192C298.584 51.312 300.048 51.36 300.768 51.36H307.296L308.232 50.112C308.328 49.968 308.472 49.8 308.616 49.8C308.76 49.8 308.928 49.968 309.048 50.064L310.584 51.312C310.704 51.408 310.824 51.528 310.824 51.672ZM298.896 54.264C298.896 54.48 298.704 54.528 298.536 54.528H295.032C295.032 55.248 295.032 58.488 295.056 59.16C295.632 58.944 298.272 58.104 298.8 57.888L298.824 58.056C298.272 58.464 295.608 59.928 295.08 60.24C295.104 61.536 295.224 67.152 295.224 67.92C295.224 69.048 295.152 70.128 292.848 70.776C292.728 70.2 292.512 69.096 290.28 68.376V68.208C290.64 68.232 292.152 68.28 292.464 68.28C293.136 68.28 293.544 68.28 293.544 67.248V61.08C292.008 61.896 291.264 62.232 290.664 62.472C290.544 62.904 290.424 63.048 290.256 63.048C290.136 63.048 289.992 62.952 289.92 62.808L288.672 60.648C288.888 60.672 289.152 60.696 289.536 60.672C290.16 60.624 292.728 59.88 293.544 59.64C293.544 58.824 293.424 55.248 293.4 54.528H292.68C292.08 54.528 290.928 54.552 289.848 54.744L289.368 53.784C290.76 53.904 292.2 53.952 293.376 53.952C293.376 53.448 293.328 51.216 293.28 50.76C293.232 50.016 292.944 49.368 292.752 48.912L295.296 49.656C295.512 49.728 295.68 49.896 295.68 50.04C295.68 50.208 295.464 50.4 295.032 50.76C295.008 51.264 295.032 53.496 295.032 53.952H296.136L296.64 53.112C296.736 52.968 296.832 52.8 296.976 52.8C297.12 52.8 297.24 52.872 297.456 53.04L298.656 53.904C298.776 53.976 298.896 54.096 298.896 54.264ZM307.776 68.232V59.808H302.112V68.232H307.776ZM333.6 61.992C333.6 62.832 333.144 63.552 332.76 63.552C332.472 63.552 332.376 63.456 331.44 62.568C330.792 61.968 329.496 61.728 328.896 61.608V61.464C329.232 61.416 330.864 61.272 331.032 61.224C331.344 61.152 331.56 60.96 331.56 60.6C331.56 59.856 330.312 56.328 327.336 54.84C327.504 54.816 327.552 54.792 327.744 54.792C330.432 54.792 333.6 59.208 333.6 61.992ZM323.76 58.416C323.424 59.136 320.928 64.776 320.88 65.04C320.856 65.16 320.832 65.232 320.832 65.352C320.832 65.544 321.024 66.456 321.024 66.648C321.024 67.272 320.64 67.464 320.28 67.464C319.44 67.464 316.032 66.264 315.624 59.424C315.48 57.048 315.384 55.536 315.24 55.008C315.024 54.144 314.64 53.496 314.4 53.04C315.624 53.112 317.424 54.168 317.424 55.728C317.424 55.896 317.424 56.04 317.328 56.52C317.184 57.408 317.016 58.584 317.016 59.856C317.016 62.808 318.456 64.56 319.104 64.56C319.368 64.56 319.608 64.248 319.68 64.128C320.76 62.52 322.536 59.976 323.568 58.344L323.76 58.416ZM357.432 52.824C357.432 53.544 356.76 53.544 356.424 53.544C353.136 53.544 352.776 53.544 351.744 53.88C348.912 54.84 346.32 58.296 346.32 61.68C346.32 65.784 350.712 66.624 352.44 66.96C353.208 67.104 354.096 67.464 354.096 68.376C354.096 69.096 353.352 69.096 353.184 69.096C351.792 69.096 345.144 67.8 345.144 62.064C345.144 58.344 347.616 55.776 350.352 53.616C348.96 53.568 344.088 55.248 341.712 56.328C340.68 56.784 340.656 56.808 340.416 56.808C339.888 56.808 338.664 56.04 338.664 54.648C338.664 54.048 338.88 53.664 339.048 53.376C339.432 54.192 339.936 54.72 340.92 54.72C341.208 54.72 341.712 54.624 341.952 54.576C347.376 53.28 347.976 53.136 350.352 52.632C351.744 52.32 353.448 51.984 354.48 51.672C354.672 51.6 355.152 51.504 355.464 51.504C356.856 51.504 357.432 52.584 357.432 52.824ZM378.6 63.816C378.6 64.344 378.336 65.592 377.712 65.592C377.472 65.592 377.352 65.52 376.344 64.776C375.264 64.008 371.856 63.216 369.624 63.216C368.688 63.216 366.288 63.408 366.288 65.688C366.288 68.184 369.792 68.4 371.4 68.4C371.856 68.4 373.824 68.232 374.232 68.232C374.856 68.232 375.768 68.496 375.768 69.192C375.768 70.08 374.832 70.08 373.512 70.08C371.688 70.08 365.256 70.08 365.256 65.952C365.256 62.712 368.568 62.472 370.416 62.472C372.24 62.472 374.064 62.688 375.84 63.072C375.912 63.096 375.96 63.096 376.008 63.096C376.128 63.096 376.224 63.096 376.224 62.952C376.224 62.808 376.128 62.64 375.984 62.424C375.912 62.304 375.24 61.32 373.512 58.848C371.016 59.688 368.76 59.952 368.04 59.952C366.648 59.952 365.472 59.088 365.04 58.032C365.904 58.416 366.672 58.752 367.92 58.752C368.904 58.752 370.872 58.488 372.792 57.744C371.928 56.28 371.496 55.32 371.28 54.864C370.848 55.008 368.976 55.56 368.016 55.56C367.176 55.56 365.832 55.032 365.328 53.928C366.144 54.264 366.552 54.432 367.512 54.432C368.664 54.432 369.816 54.144 370.8 53.784C370.632 53.424 369.984 51.768 369.816 51.456C369.36 50.64 368.304 50.472 367.32 50.544C367.584 50.016 367.92 49.368 369.312 49.368C369.816 49.368 371.328 49.56 371.448 50.376C371.472 50.616 371.544 51.792 371.592 52.008C371.688 52.512 371.808 52.944 371.928 53.304C372.24 53.184 372.888 52.848 373.488 52.44C374.352 51.864 374.448 51.792 374.856 51.792C375.384 51.792 375.84 52.104 375.84 52.464C375.84 52.728 375.72 52.944 375.24 53.208C374.136 53.832 373.368 54.168 372.384 54.504C372.936 55.776 373.368 56.544 373.848 57.312C374.352 57.072 375 56.76 375.96 56.16C376.68 55.728 376.776 55.656 377.184 55.656C377.808 55.656 378.288 55.992 378.288 56.352C378.288 56.688 377.928 56.928 377.616 57.096C377.328 57.24 376.128 57.864 374.616 58.44C375.6 59.832 376.704 61.128 377.832 62.376C378.576 63.192 378.6 63.456 378.6 63.816ZM405.384 58.176C405.384 58.44 405.264 58.8 404.712 58.8C404.52 58.8 403.656 58.704 403.488 58.704C402.432 58.704 400.56 59.472 399.888 59.904L399.768 59.784C399.984 59.592 400.944 58.824 401.136 58.68C401.856 58.056 401.928 58.008 401.928 57.768C401.928 57.072 399.576 57.048 399.264 57.048C398.688 57.048 398.28 57.072 397.92 57.096C399.072 56.208 400.464 56.064 401.4 56.064C404.064 56.064 405.384 57.36 405.384 58.176ZM405.216 68.256C405.216 69.12 402.96 69.12 402.12 69.12C399.36 69.12 395.016 68.808 395.016 65.616C395.016 65.424 395.016 64.536 395.568 63.768C395.616 66.744 397.296 67.416 400.584 67.416C401.712 67.416 402.24 67.344 402.96 67.224C403.68 67.104 403.776 67.104 403.944 67.104C404.712 67.104 405.216 67.8 405.216 68.256ZM398.136 53.904C398.136 54.12 398.064 54.36 397.368 54.672C395.448 55.536 393.6 56.064 393.408 56.112C391.992 59.976 390.6 63.864 388.872 67.608C388.32 68.784 388.128 69.024 387.624 69.024C387.096 69.024 386.832 68.352 386.832 67.896C386.832 67.464 386.856 67.44 387.792 65.928C389.592 63.024 391.464 58.008 391.896 56.784C391.968 56.592 391.992 56.544 392.016 56.448C391.008 56.664 389.952 56.832 388.968 56.832C387.72 56.832 386.808 56.04 386.544 55.224C387.048 55.392 387.72 55.608 388.848 55.608C390.312 55.608 391.68 55.272 392.472 55.056C393.168 52.728 393.24 52.176 393.24 51.72C393.24 50.736 391.944 50.28 391.752 50.208C391.992 50.016 392.184 49.848 392.808 49.848C394.248 49.848 395.328 51.024 395.328 51.744C395.328 52.008 395.232 52.152 394.872 52.704C394.608 53.112 394.44 53.448 393.984 54.576C394.704 54.288 395.232 54.048 395.76 53.712C396.528 53.208 396.696 53.112 397.152 53.112C397.776 53.112 398.136 53.544 398.136 53.904ZM431.184 57.192C430.344 57.552 429.48 58.056 428.88 59.016C424.728 57.168 421.68 53.592 420.12 50.376L420.024 50.4C417.408 54.96 411.72 58.944 409.032 60.024L408.96 59.88C412.56 57.36 415.488 54.024 417.792 50.304C418.344 49.44 418.416 49.104 418.512 48.672L420.936 49.44C421.056 49.488 421.32 49.608 421.32 49.848C421.32 50.136 421.08 50.184 420.576 50.304C422.04 52.752 425.856 56.112 431.184 57.024V57.192ZM424.176 57.984C424.176 58.2 423.96 58.224 423.816 58.224H417.648C417.048 58.224 415.896 58.248 414.816 58.44L414.336 57.48C415.992 57.624 417.72 57.648 418.032 57.648H420.72L421.8 56.448C421.92 56.328 422.04 56.16 422.184 56.16C422.304 56.16 422.496 56.304 422.616 56.4L423.936 57.6C424.056 57.72 424.176 57.816 424.176 57.984ZM429.432 62.112C429.432 62.376 429.192 62.376 429.072 62.376H419.448C418.152 64.8 415.728 67.584 415.488 67.872C418.44 67.68 422.16 67.32 424.872 66.984C424.728 66.72 423.936 65.28 422.232 63.672L422.376 63.528C425.664 65.016 428.28 67.44 428.28 69.456C428.28 69.84 428.016 70.632 427.224 70.632C426.432 70.632 426.12 69.984 425.808 69.144C425.52 68.304 425.424 68.04 425.088 67.392C423.144 67.992 414.312 69.864 412.944 70.08C412.8 70.392 412.728 70.608 412.512 70.608C412.32 70.608 412.2 70.368 412.128 70.176L411.12 67.752C411.648 67.848 412.2 67.968 413.256 67.968C413.76 67.968 414.24 67.944 414.984 67.896C415.776 66.12 416.448 64.344 416.952 62.376H413.568C413.016 62.376 411.816 62.4 410.76 62.592L410.28 61.656C412.176 61.8 413.544 61.8 413.952 61.8H425.472L426.696 60.48C426.864 60.288 426.984 60.192 427.104 60.192C427.224 60.192 427.368 60.312 427.536 60.432L429.192 61.752C429.288 61.824 429.432 61.968 429.432 62.112ZM454.752 68.832C454.752 69 454.536 69.072 454.392 69.072H444.24C444 69.072 442.536 69.072 441.408 69.288L440.928 68.328C442.608 68.472 444.408 68.496 444.624 68.496H446.976C446.976 66.048 447 62.16 446.976 59.712C446.952 58.56 446.952 58.392 446.952 57.648H445.536C445.296 57.648 443.832 57.648 442.704 57.864L442.224 56.904C443.832 57.048 445.488 57.072 445.92 57.072H446.952C446.952 56.664 446.928 55.08 446.928 54.672C446.904 50.808 446.904 50.304 446.232 48.912L448.896 49.536C449.256 49.608 449.472 49.776 449.472 49.992C449.472 50.304 449.016 50.568 448.656 50.712C448.632 51.312 448.632 56.064 448.632 57.072H451.056L451.944 55.896C452.088 55.704 452.184 55.608 452.328 55.608C452.448 55.608 452.592 55.704 452.784 55.872L454.104 57.024C454.248 57.144 454.344 57.288 454.344 57.408C454.344 57.576 454.152 57.648 453.984 57.648H448.632V64.152L448.656 68.496H451.224L452.352 67.248C452.52 67.056 452.64 66.984 452.76 66.984C452.88 66.984 453.024 67.032 453.216 67.224L454.536 68.448C454.656 68.568 454.752 68.712 454.752 68.832ZM442.656 61.224C442.656 61.584 442.44 62.232 441.792 62.232C441.24 62.232 440.976 61.776 440.784 61.416C440.232 60.336 439.608 59.256 438.816 58.344C438.792 64.704 438.792 65.4 438.84 67.152C438.84 67.512 438.936 69.12 438.936 69.432C438.936 70.32 438.12 70.512 437.76 70.512C437.016 70.512 437.016 69.984 437.016 69.768C437.016 69.504 437.112 68.352 437.112 68.112C437.184 66.264 437.16 65.784 437.232 59.904C435.024 62.112 433.2 63.048 432.48 63.432L432.384 63.264C435.096 60.912 438.552 56.472 439.632 54.168H436.272C435.672 54.168 434.52 54.192 433.44 54.384L432.984 53.448C434.616 53.568 436.32 53.592 436.656 53.592H437.28C437.232 50.52 436.968 49.8 436.656 48.888L439.416 49.68C439.56 49.728 439.704 49.872 439.704 49.992C439.704 50.28 439.416 50.472 438.936 50.712C438.888 51.384 438.888 51.432 438.936 53.592H439.8L440.4 52.968C440.568 52.8 440.688 52.728 440.832 52.728C440.976 52.728 441.072 52.824 441.216 52.944L442.296 53.904C442.416 54 442.464 54.12 442.464 54.24C442.464 54.6 442.08 54.696 441.312 54.792C440.928 55.392 440.256 56.424 438.912 58.08C439.152 58.152 440.256 58.536 441.456 59.4C441.888 59.712 442.656 60.264 442.656 61.224ZM478.536 57.672C478.536 58.344 478.032 58.44 477.888 58.44C477.528 58.44 477.456 58.32 476.76 57.264C476.184 56.424 475.104 55.536 474.312 54.96C475.848 55.104 478.536 56.088 478.536 57.672ZM475.728 58.704C475.728 59.112 475.584 59.544 475.08 59.544C474.672 59.544 474.6 59.448 474.024 58.44C473.544 57.6 472.92 56.952 471.768 55.8C473.376 56.136 475.728 57.192 475.728 58.704ZM477.168 52.68C477.168 53.448 476.424 53.448 475.752 53.448C472.68 53.448 471.768 53.448 470.16 54.408C467.928 55.728 466.104 58.824 466.104 61.56C466.104 65.568 470.328 66.504 472.488 66.984C472.848 67.056 473.856 67.272 473.856 68.304C473.856 68.928 473.256 68.976 472.944 68.976C470.472 68.976 464.928 67.152 464.928 61.872C464.928 60.84 465.12 58.776 466.896 56.496C467.568 55.632 468.144 55.128 470.208 53.496C467.664 53.832 462.528 55.608 461.712 56.064C460.68 56.664 460.56 56.712 460.176 56.712C459.576 56.712 458.424 55.992 458.424 54.6C458.424 53.976 458.592 53.664 458.76 53.376C459.216 54.096 459.576 54.648 460.632 54.648C461.112 54.648 461.736 54.528 464.16 53.952C467.016 53.256 471.624 52.224 474.48 51.528C474.72 51.48 475.056 51.408 475.248 51.408C475.608 51.408 477.168 51.864 477.168 52.68ZM502.2 54.96C502.2 55.488 501.696 55.608 501.432 55.608C500.64 55.608 499.368 55.32 498.576 55.248C497.688 55.176 496.92 55.152 496.32 55.152C495.312 55.152 494.184 55.224 493.44 55.272C493.416 56.016 493.416 56.568 493.416 57.192C493.416 57.816 493.44 58.248 493.464 58.68C493.824 59.328 494.496 60.48 494.496 62.472C494.496 66.096 492.168 69.48 487.752 71.04L487.656 70.872C490.344 69.192 492.192 66.6 492.528 64.032C492.024 64.44 491.544 64.824 490.944 64.824C489.744 64.824 488.232 63.24 488.232 61.176C488.232 59.424 489.384 57.696 491.04 57.696C491.568 57.696 492 57.84 492.432 57.984C492.432 57.864 492.384 56.256 492.384 55.392C490.92 55.56 486.912 56.088 484.56 57.36C483.864 57.72 483.792 57.768 483.576 57.768C482.76 57.768 481.608 56.28 481.608 55.296C481.608 55.032 481.68 54.84 481.8 54.624C482.28 55.272 482.784 55.752 483.552 55.752C483.816 55.752 485.712 55.416 486.792 55.248C489.048 54.864 490.824 54.6 492.36 54.456C492.192 50.616 492.192 50.544 490.2 49.8C490.896 49.248 491.472 49.248 491.592 49.248C492.216 49.248 494.016 49.896 494.016 50.664C494.016 50.736 493.848 51.432 493.8 51.6C493.704 52.032 493.584 52.944 493.488 54.336C494.04 54.288 500.208 53.736 500.232 53.736C501.048 53.736 502.2 54.288 502.2 54.96ZM492.456 61.152C492.456 60.576 492.36 58.752 490.68 58.752C490.008 58.752 489.072 59.568 489.072 60.936C489.072 62.304 490.128 63.408 491.016 63.408C491.808 63.408 492.456 62.544 492.456 61.152ZM512.496 66.552C512.496 68.496 510.984 70.104 509.016 70.104C507.072 70.104 505.56 68.496 505.56 66.552C505.56 64.584 507.12 63.024 509.016 63.024C510.936 63.024 512.496 64.584 512.496 66.552ZM511.8 66.576C511.8 64.992 510.552 63.72 509.016 63.72C507.48 63.72 506.256 65.016 506.256 66.552C506.256 68.088 507.456 69.408 509.016 69.408C510.576 69.408 511.8 68.112 511.8 66.576Z" fill="#523C3C"/>
</g>
<defs>
<clipPath id="clip0_923_2293">
<rect width="466" height="23" fill="white"/>
</clipPath>
</defs>
</svg>
