<svg width="324" height="18" viewBox="0 0 324 18" fill="none" xmlns="http://www.w3.org/2000/svg">
<g clip-path="url(#clip0_933_2309)">
<path opacity="0.5" d="M12.816 8.62C12.816 11.932 12.06 14.074 10.044 15.91C9.45 16.45 8.316 17.314 7.488 17.494L7.452 17.404C10.566 15.154 11.484 11.68 11.484 8.458C11.484 7.27 11.412 3.994 10.062 3.994C9.342 3.994 8.838 4.732 8.676 4.966C7.956 6.01 6.768 8.764 6.768 10.924C6.768 11.122 6.894 12.04 6.894 12.22C6.894 12.418 6.822 12.724 6.462 12.724C5.4 12.724 5.076 10.618 5.076 8.998C5.076 7.63 5.454 5.254 5.706 3.796C5.724 3.706 5.778 3.364 5.778 3.112C5.778 2.14 5.112 1.726 4.734 1.474C4.896 1.438 5.202 1.348 5.544 1.348C6.372 1.348 7.128 2.014 7.128 2.644C7.128 2.932 7.02 3.166 6.912 3.436C6.354 4.732 5.904 6.55 5.904 8.26C5.904 8.53 5.904 9.556 6.084 9.556C6.192 9.556 6.228 9.466 6.246 9.376C6.66 7.9 8.208 3.292 10.332 3.292C12.582 3.292 12.816 6.82 12.816 8.62ZM33.03 11.824C33.03 14.794 29.358 16.558 25.074 16.306V16.198C26.568 15.964 27.99 15.442 29.304 14.722C30.582 14.038 31.644 13.174 31.644 11.644C31.644 11.158 31.536 9.34 29.376 9.34C27.234 9.34 24.93 10.78 23.49 12.958C23.4 13.102 23.274 13.282 23.04 13.282C22.374 13.282 22.086 12.22 22.086 11.842C22.086 11.554 22.122 11.446 22.32 10.546C22.5 9.718 22.644 7.54 22.644 6.766C22.644 5.128 22.644 4.192 25.758 3.706C25.866 3.688 25.92 3.67 25.92 3.58C25.92 3.49 25.866 3.454 25.434 3.166C24.93 2.824 24.3 2.086 24.318 1.384C25.092 2.014 25.236 2.068 26.91 2.77C27.306 2.932 28.314 3.346 28.314 4.426C28.314 4.822 28.17 4.984 27.936 4.984C27.684 4.984 27.522 4.894 27.108 4.696C26.784 4.552 26.028 4.39 25.236 4.39C23.868 4.39 23.292 4.822 23.292 5.344C23.292 5.524 23.328 5.632 23.688 6.532C23.778 6.784 23.814 7.036 23.814 7.162C23.814 7.342 23.598 8.062 23.562 8.224C23.472 8.602 23.184 9.844 23.184 10.672C23.184 10.78 23.202 11.086 23.418 11.086C23.526 11.086 24.642 10.276 24.876 10.132C26.676 9.034 28.458 8.692 29.52 8.692C31.986 8.692 33.03 10.42 33.03 11.824ZM48.168 16.27C48.168 16.684 47.934 17.314 47.484 17.314C47.196 17.314 47.142 17.242 46.296 15.874C45.306 14.272 44.892 13.858 41.472 10.474C41.292 10.294 40.824 9.772 40.824 9.196C40.824 8.908 40.878 8.602 41.49 7.954C43.308 6.028 46.044 3.166 46.044 2.464C46.044 2.032 45.648 1.636 45.18 1.168C46.764 1.006 47.61 2.32 47.61 3.004C47.61 3.364 47.43 3.508 46.89 3.94C46.314 4.39 43.632 6.856 42.138 8.494C41.832 8.818 41.832 9.052 41.832 9.16C41.832 9.61 41.958 9.736 43.416 11.068C47.448 14.704 48.168 15.334 48.168 16.27ZM68.706 11.878C68.706 13.948 66.906 16.144 63.594 16.144C61.866 16.144 60.084 15.442 60.084 14.038C60.084 12.796 61.326 12.472 62.064 12.472C63.414 12.472 64.422 13.408 64.89 14.902C66.33 14.65 67.338 13.102 67.338 11.734C67.338 10.312 66.24 9.052 64.404 9.052C60.894 9.052 58.572 12.454 58.302 12.868C57.852 13.588 57.69 13.858 57.312 13.858C57.096 13.858 56.7 13.732 56.7 13.102C56.7 12.508 56.844 12.364 57.924 11.32C59.364 9.898 63.792 4.156 63.792 3.472C63.792 3.364 63.738 3.292 63.594 3.292C63.36 3.292 61.992 3.742 61.02 4.264C60.984 4.282 60.282 4.66 60.228 4.66C59.832 4.66 58.77 4.084 58.77 2.968C58.77 2.644 58.86 2.5 58.968 2.374C59.382 3.058 59.706 3.22 60.21 3.22C61.074 3.22 62.982 2.68 63.522 2.5C63.648 2.464 64.242 2.266 64.332 2.266C65.016 2.266 65.646 3.13 65.646 3.508C65.646 3.796 65.646 3.814 64.998 4.3C64.53 4.66 61.074 8.62 60.354 9.79C61.434 9.178 62.802 8.512 64.674 8.512C67.572 8.512 68.706 10.24 68.706 11.878ZM63.774 15.19C63.396 13.858 62.226 13.192 61.632 13.192C61.272 13.192 60.768 13.426 60.768 13.948C60.768 14.884 62.622 15.298 63.144 15.298C63.414 15.298 63.558 15.262 63.774 15.19ZM88.272 14.704C88.272 14.956 88.128 15.298 87.75 15.298C87.426 15.298 87.066 15.046 86.67 14.758C85.626 14.002 85.374 13.858 85.104 13.714C84.888 14.362 84.402 15.766 82.206 15.766C80.658 15.766 79.326 14.92 79.326 13.804C79.326 12.67 80.478 12.022 82.278 12.022C83.07 12.022 83.646 12.112 84.15 12.184C84.132 11.374 83.97 7.81 83.952 7.072C82.836 7.198 82.818 7.198 82.458 7.198C81.684 7.198 79.83 6.964 79.344 5.848C79.794 6.01 80.604 6.298 81.864 6.298C82.71 6.298 83.574 6.172 83.916 6.118C83.88 4.984 83.826 3.418 83.79 3.238C83.718 2.878 83.61 2.68 82.566 2.41C82.764 2.248 83.16 1.942 83.736 1.942C84.348 1.942 85.284 2.446 85.284 2.914C85.284 2.968 85.086 3.94 85.068 4.012C84.978 4.552 84.942 5.308 84.924 5.938C85.068 5.902 85.32 5.83 85.518 5.776C85.644 5.74 86.742 5.416 87.156 5.416C87.498 5.416 88.11 5.686 88.11 6.028C88.11 6.568 86.958 6.712 84.924 6.964C84.924 7.09 84.96 9.79 85.212 12.526C87.264 13.372 88.272 13.84 88.272 14.704ZM77.49 9.25C77.472 9.322 76.644 13.354 76.626 13.426C76.554 13.894 76.536 14.2 76.536 14.398C76.536 14.596 76.644 15.424 76.644 15.586C76.644 16.108 76.338 16.162 76.14 16.162C74.862 16.162 74.52 12.958 74.52 11.68C74.52 9.736 74.952 7.468 75.096 6.676C75.348 5.272 75.474 4.606 75.474 4.372C75.474 3.544 75.06 3.202 74.7 2.914C74.844 2.86 74.988 2.806 75.24 2.806C76.068 2.806 77.004 3.67 77.004 4.336C77.004 4.57 76.968 4.642 76.716 5.236C75.546 8.044 75.438 10.096 75.438 10.96C75.438 11.248 75.51 13.048 75.762 13.048C75.87 13.048 75.96 12.886 75.996 12.742C76.014 12.67 77.184 9.556 77.31 9.214L77.49 9.25ZM84.024 13.192C83.448 12.94 82.602 12.868 81.954 12.868C80.55 12.868 79.992 13.39 79.992 13.696C79.992 14.164 80.658 14.668 81.828 14.668C82.134 14.668 83.736 14.668 84.024 13.192ZM95.202 15.658C95.202 16.162 94.878 16.702 94.32 16.702C93.744 16.702 93.6 16.234 93.42 15.64C93.312 15.262 92.79 13.57 91.062 12.184L91.116 12.022C92.376 12.436 93.114 12.724 93.978 13.444C94.284 13.714 95.202 14.578 95.202 15.658ZM115.29 7.684C115.29 8.134 114.804 8.134 114.768 8.134C114.48 8.134 113.22 8.062 112.95 8.062C108.792 8.062 106.452 10.438 106.452 12.328C106.452 14.434 108.972 15.01 110.646 15.244C111.204 15.316 111.6 15.64 111.6 16.198C111.6 16.468 111.51 16.756 110.826 16.756C109.854 16.756 105.66 15.802 105.66 12.742C105.66 10.51 107.586 9.178 109.188 8.206C107.568 8.26 104.526 9.358 102.654 10.438C102.546 10.492 102.042 10.78 101.664 10.78C100.998 10.78 100.764 10.294 100.764 9.988C100.764 9.538 100.944 9.466 101.988 9.124C103.752 8.53 105.462 7.126 107.514 5.236C108.018 4.786 109.782 3.094 109.782 2.68C109.782 2.554 109.674 2.5 109.566 2.5C108.954 2.5 107.532 3.22 106.902 3.67C106.2 4.156 106.128 4.21 105.876 4.21C105.318 4.21 104.598 3.436 104.598 2.59C104.598 2.23 104.706 2.068 104.832 1.888C105.228 2.482 105.462 2.68 105.876 2.68C106.362 2.68 109.53 1.726 110.088 1.726C110.736 1.726 111.492 2.572 111.492 3.112C111.492 3.418 111.402 3.472 110.592 3.976C110.034 4.318 107.766 6.136 107.28 6.46C106.794 6.802 104.256 8.476 104.166 8.566C104.148 8.584 104.112 8.62 104.112 8.656C104.112 8.692 104.148 8.728 104.238 8.728C104.31 8.728 104.67 8.638 104.778 8.602C106.848 8.026 108.198 7.756 112.86 6.694C113.292 6.604 113.508 6.568 113.652 6.568C114.282 6.568 115.29 7.18 115.29 7.684ZM133.668 9.916C133.362 11.122 132.174 15.676 128.79 15.676C126.774 15.676 126.594 14.164 126.36 12.364C126.234 11.284 126.09 10.114 124.992 10.114C122.742 10.114 121.338 13.372 120.834 14.542C120.258 15.856 120.204 16 119.772 16C119.286 16 119.16 15.244 119.16 14.83C119.16 14.596 119.16 14.362 119.772 13.534C120.906 11.968 125.046 4.372 125.046 3.544C125.046 3.13 124.776 2.95 124.056 2.482C124.218 2.41 124.416 2.302 124.758 2.302C125.694 2.302 126.684 3.184 126.684 3.922C126.684 4.264 126.63 4.336 126.054 5.038C125.64 5.56 122.994 9.322 122.346 10.816C123.498 9.934 124.308 9.484 125.37 9.484C127.116 9.484 127.296 10.708 127.512 12.022C127.8 13.75 128.16 14.326 129.006 14.326C131.202 14.326 132.876 11.14 133.488 9.88L133.668 9.916ZM146.16 4.372C146.16 4.552 146.016 4.66 145.872 4.732C145.584 4.876 144.18 5.272 142.146 5.758C141.678 6.694 139.716 10.87 139.248 11.68C138.834 12.382 138.456 13.048 138.096 13.048C137.97 13.048 137.592 12.976 137.592 12.364C137.592 11.86 137.844 11.536 138.024 11.284C139.32 9.574 140.472 7.198 141.012 6.028C140.616 6.118 140.076 6.262 139.392 6.262C138.33 6.262 137.43 5.704 137.574 4.624C138.006 5.236 138.6 5.344 139.32 5.344C139.968 5.344 140.706 5.218 141.426 5.056C141.84 4.03 142.182 3.148 142.182 2.77C142.182 2.572 142.074 2.14 141.12 1.888C141.39 1.654 141.642 1.528 142.002 1.528C142.704 1.528 143.802 2.284 143.802 2.752C143.802 2.932 143.802 2.932 143.352 3.58C143.1 3.94 142.956 4.192 142.686 4.714C143.046 4.588 143.658 4.372 144.036 4.192C144.828 3.832 144.918 3.778 145.134 3.778C145.368 3.778 146.16 4.03 146.16 4.372ZM150.84 8.692C150.84 9.016 150.66 9.214 150.372 9.214C150.264 9.214 150.066 9.196 149.742 9.016C149.13 8.692 148.914 8.566 148.212 8.566C146.322 8.566 146.052 9.592 146.052 10.438C146.052 11.482 146.25 12.49 146.358 13.048C147.798 13.354 149.778 14.11 149.778 15.28C149.778 15.55 149.598 15.874 149.274 15.874C149.058 15.874 148.338 15.37 147.888 15.046C147.168 14.542 146.844 14.416 146.484 14.29C146.466 14.668 146.43 15.424 145.8 16C145.062 16.684 144.036 16.756 143.622 16.756C142.128 16.756 140.832 15.946 140.832 14.83C140.832 13.48 142.47 12.832 144.216 12.832C144.612 12.832 144.882 12.868 145.152 12.886C145.098 12.256 145.026 11.41 145.026 10.996C145.026 9.016 146.934 8.242 148.176 8.008C148.32 7.972 148.482 7.936 148.482 7.72C148.482 7.486 147.834 6.82 146.016 6.352C146.286 6.262 146.628 6.172 147.168 6.172C149.4 6.172 150.84 7.846 150.84 8.692ZM145.224 13.876C144.882 13.786 144.594 13.696 143.874 13.696C143.19 13.696 141.516 13.84 141.516 14.812C141.516 15.568 142.668 15.766 143.28 15.766C143.91 15.766 145.278 15.604 145.224 13.876ZM7.884 37.816H2.664V53.422H1.908V37.042H7.884V37.816ZM23.022 47.41H22.5C22.5 49.372 22.482 51.244 22.518 51.478C22.554 51.712 22.968 51.748 23.454 51.748C24.462 51.748 24.606 51.676 24.876 51.046C25.038 50.65 25.308 49.75 25.47 48.958L25.596 48.976C25.65 49.516 25.812 50.974 26.046 51.19C26.1 51.244 26.244 51.37 26.352 51.46C26.442 51.532 26.478 51.64 26.478 51.712C26.478 52.036 26.172 52.432 25.794 52.612C25.506 52.756 25.11 52.936 23.184 52.936C21.294 52.936 21.294 52.792 21.294 50.47C21.294 49.984 21.312 47.842 21.312 47.41H19.548L20.682 48.274C20.772 48.346 20.826 48.436 20.826 48.526C20.826 48.778 20.556 48.814 20.052 48.886C18.36 51.19 16.65 52.954 12.654 53.44L12.618 53.278C15.642 52.504 18.54 49.696 19.26 47.41H18.918C18.954 47.968 18.558 48.184 18.144 48.184C17.766 48.184 17.676 47.968 17.676 47.77C17.676 47.608 17.694 47.284 17.694 47.068C17.712 46.168 17.748 44.368 17.748 41.326C17.748 39.094 17.676 38.266 17.514 37.402L19.17 38.122H22.896L23.31 37.672C23.364 37.618 23.508 37.474 23.616 37.474C23.688 37.474 23.832 37.564 23.904 37.618L24.786 38.302C24.858 38.356 24.93 38.464 24.93 38.536C24.93 38.698 24.858 38.752 24.228 39.202C24.21 40.696 24.228 42.874 24.264 44.008C24.264 44.296 24.408 47.14 24.408 47.284C24.408 47.914 23.796 48.094 23.508 48.094C23.004 48.094 23.022 47.734 23.022 47.41ZM23.022 41.434H18.9V43.882H23.022V41.434ZM18.9 46.978H23.022V44.314H18.9V46.978ZM23.022 38.554H18.9V41.002H23.022V38.554ZM16.812 38.932H14.166V43.414H14.814L15.444 42.694C15.552 42.586 15.642 42.478 15.732 42.478C15.822 42.478 15.912 42.532 16.056 42.658L16.884 43.378C16.956 43.432 17.064 43.54 17.064 43.648C17.064 43.828 16.884 43.846 16.794 43.846H14.166V47.968C14.742 47.806 16.542 47.266 16.992 47.104L17.028 47.248C16.362 47.68 12.51 49.642 11.106 50.218C10.944 50.668 10.89 50.812 10.71 50.812C10.584 50.812 10.512 50.686 10.458 50.578L9.666 48.886C10.476 48.958 11.106 48.85 12.924 48.328V43.846C11.664 43.846 11.106 43.9 10.584 44.008L10.224 43.288C10.782 43.342 12.276 43.396 12.924 43.414V38.932H12.492C12.06 38.932 11.178 38.95 10.368 39.094L10.026 38.374C10.89 38.464 11.898 38.5 12.78 38.5H14.904L15.516 37.888C15.624 37.78 15.75 37.654 15.822 37.654C15.894 37.654 16.02 37.726 16.146 37.834L16.902 38.464C16.974 38.518 17.082 38.644 17.082 38.734C17.082 38.896 16.956 38.932 16.812 38.932ZM41.526 38.212C41.526 38.392 41.238 38.572 40.95 38.734C40.95 40.264 40.968 40.876 40.986 41.506C41.004 41.758 41.04 42.892 41.04 43.126C41.04 43.72 40.374 43.828 40.176 43.828C39.708 43.828 39.726 43.468 39.762 43.018H36.558C36.558 43.378 36.576 43.954 35.73 43.954C35.244 43.954 35.244 43.666 35.244 43.54C35.244 43.45 35.28 43.198 35.28 43.144C35.316 42.334 35.352 40.588 35.352 39.76C35.352 38.248 35.298 37.798 35.172 37.132L36.648 37.888H39.69L40.104 37.438C40.194 37.33 40.248 37.276 40.32 37.276C40.392 37.276 40.464 37.33 40.572 37.402L41.328 37.96C41.418 38.014 41.526 38.104 41.526 38.212ZM39.78 40.138V38.32H36.54V40.138H39.78ZM39.78 42.586V40.57H36.54V42.586H39.78ZM44.316 44.728C44.316 44.908 44.154 44.926 44.046 44.926H36.702C36.288 45.772 35.946 46.258 35.676 46.6H41.418L41.868 46.006C41.94 45.898 42.03 45.808 42.102 45.808C42.192 45.808 42.318 45.916 42.408 45.988L43.308 46.654C43.398 46.708 43.488 46.798 43.488 46.906C43.488 47.176 43.074 47.338 42.822 47.446C42.444 53.098 40.932 53.422 39.6 53.476C39.546 52.954 39.33 52.414 38.376 51.64L38.394 51.496C39.42 51.712 39.798 51.748 40.14 51.748C40.554 51.748 40.824 51.622 41.184 50.218C41.454 49.192 41.562 48.112 41.598 47.032H40.428C39.312 50.182 36.954 52.558 34.614 53.314L34.542 53.224C36.594 51.712 38.322 49.12 39.024 47.032H37.944C36.504 49.714 34.182 52.09 31.41 52.936L31.356 52.828C33.714 51.514 35.928 48.202 36.504 47.032H35.334C34.416 48.202 33.264 49.174 31.95 49.84L31.86 49.75C33.84 47.878 34.83 45.862 35.262 44.926H34.83C34.38 44.926 33.516 44.944 32.706 45.088L32.346 44.368C33.48 44.458 34.596 44.494 35.118 44.494H41.76L42.408 43.594C42.48 43.504 42.588 43.378 42.678 43.378C42.768 43.378 42.84 43.432 43.002 43.558L44.136 44.458C44.226 44.53 44.316 44.62 44.316 44.728ZM34.128 41.884C34.128 42.064 33.966 42.082 33.858 42.082H31.518C31.5 43.756 31.518 45.538 31.518 47.266C33.102 46.618 33.444 46.456 33.84 46.258L33.912 46.384C33.03 47.194 30.744 48.652 29.052 49.714C28.944 50.164 28.854 50.308 28.674 50.308C28.53 50.308 28.404 50.092 28.35 50.002L27.504 48.382C28.53 48.382 28.71 48.31 30.294 47.752C30.294 46.096 30.276 43.648 30.276 42.082C29.646 42.082 28.872 42.136 28.242 42.244L27.9 41.524C28.566 41.578 29.124 41.614 30.276 41.65C30.258 40.822 30.222 38.482 30.078 37.816C30.006 37.528 29.934 37.294 29.826 37.024L31.752 37.6C31.968 37.672 32.148 37.708 32.148 37.906C32.148 38.14 31.806 38.284 31.536 38.392C31.518 38.896 31.518 41.182 31.518 41.65H32.058L32.562 40.912C32.616 40.822 32.724 40.678 32.814 40.678C32.922 40.678 33.048 40.768 33.156 40.876L33.948 41.614C34.092 41.74 34.128 41.812 34.128 41.884ZM61.902 43.504C61.902 44.008 61.524 44.08 61.416 44.08C61.146 44.08 61.092 43.99 60.57 43.198C60.138 42.568 59.328 41.902 58.734 41.47C59.886 41.578 61.902 42.316 61.902 43.504ZM59.796 44.278C59.796 44.584 59.688 44.908 59.31 44.908C59.004 44.908 58.95 44.836 58.518 44.08C58.158 43.45 57.69 42.964 56.826 42.1C58.032 42.352 59.796 43.144 59.796 44.278ZM60.876 39.76C60.876 40.336 60.318 40.336 59.814 40.336C57.51 40.336 56.826 40.336 55.62 41.056C53.946 42.046 52.578 44.368 52.578 46.42C52.578 49.426 55.746 50.128 57.366 50.488C57.636 50.542 58.392 50.704 58.392 51.478C58.392 51.946 57.942 51.982 57.708 51.982C55.854 51.982 51.696 50.614 51.696 46.654C51.696 45.88 51.84 44.332 53.172 42.622C53.676 41.974 54.108 41.596 55.656 40.372C53.748 40.624 49.896 41.956 49.284 42.298C48.51 42.748 48.42 42.784 48.132 42.784C47.682 42.784 46.818 42.244 46.818 41.2C46.818 40.732 46.944 40.498 47.07 40.282C47.412 40.822 47.682 41.236 48.474 41.236C48.834 41.236 49.302 41.146 51.12 40.714C53.262 40.192 56.718 39.418 58.86 38.896C59.04 38.86 59.292 38.806 59.436 38.806C59.706 38.806 60.876 39.148 60.876 39.76ZM74.826 40.858C74.826 40.966 74.7 41.02 74.556 41.02H71.262V42.55H72.54L72.792 42.208C72.882 42.082 72.99 41.992 73.08 41.992C73.152 41.992 73.314 42.064 73.458 42.172L74.088 42.604C74.178 42.658 74.286 42.766 74.286 42.856C74.286 43 74.124 43.162 73.728 43.522C73.692 43.972 73.746 46.222 73.746 46.726C73.746 47.428 73.17 47.464 72.99 47.464C72.558 47.464 72.594 47.158 72.63 46.906H71.262V48.598H72.216L72.648 47.968C72.738 47.842 72.81 47.752 72.936 47.752C73.026 47.752 73.134 47.824 73.26 47.932L73.98 48.562C74.07 48.652 74.16 48.76 74.16 48.868C74.16 48.976 74.07 49.03 73.89 49.03H71.262V50.416C72.036 50.326 73.08 50.164 73.944 49.912L73.98 50.038C72.828 50.668 70.128 51.46 68.49 51.838C68.4 52.036 68.274 52.216 68.112 52.216C68.004 52.216 67.914 52.108 67.86 51.946L67.428 50.56C67.644 50.596 67.932 50.632 68.256 50.632C68.346 50.632 69.21 50.632 70.254 50.524V49.03H69.948C69.822 49.03 68.67 49.03 67.824 49.192L67.482 48.472C68.274 48.544 68.976 48.58 70.254 48.598V46.906H68.886C68.886 47.158 68.868 47.608 68.184 47.608C67.752 47.608 67.752 47.32 67.752 47.194C67.752 47.14 67.77 46.87 67.77 46.798C67.824 45.862 67.842 44.404 67.842 43.738C67.842 43.162 67.842 42.496 67.716 42.01L68.958 42.55H70.254V41.02H69.84C69.408 41.02 68.508 41.02 67.716 41.182L67.374 40.462C67.824 40.498 68.904 40.588 70.254 40.588V39.256C68.94 39.508 68.292 39.472 67.896 39.454V39.346C72.504 37.834 72.81 37.492 73.206 37.024L74.286 38.032C74.376 38.122 74.43 38.194 74.43 38.266C74.43 38.356 74.358 38.446 74.124 38.446H73.656C73.584 38.446 71.64 38.95 71.262 39.04V40.588H72.756L73.296 39.886C73.404 39.742 73.494 39.652 73.584 39.652C73.692 39.652 73.782 39.742 73.908 39.85L74.646 40.552C74.754 40.66 74.826 40.768 74.826 40.858ZM72.648 44.476V42.982H71.262V44.476H72.648ZM72.648 46.474V44.908H71.262V46.474H72.648ZM70.254 44.476V42.982H68.886V44.476H70.254ZM70.254 46.474V44.908H68.886V46.474H70.254ZM79.794 41.632C79.794 41.794 79.65 41.902 79.344 42.136C79.308 43.09 79.218 47.374 79.182 48.238C79.002 51.604 78.408 52.918 76.41 53.224C76.14 52.414 75.51 51.874 74.754 51.478L74.772 51.334C75.168 51.406 75.708 51.514 76.5 51.514C77.454 51.514 77.724 50.866 77.94 49.264C78.246 47.086 78.192 42.55 78.192 41.722L76.896 41.812C76.824 45.322 76.698 51.136 71.694 53.152L71.64 53.026C74.34 51.064 75.564 48.58 75.708 41.884C74.772 41.974 74.466 42.046 74.178 42.118L73.782 41.434C74.628 41.47 75.528 41.434 75.69 41.416C75.69 40.984 75.654 38.824 75.654 38.662C75.654 38.122 75.636 38.014 75.402 37.132L77.076 37.564C77.184 37.6 77.346 37.672 77.346 37.78C77.346 37.888 77.238 38.05 76.914 38.284V38.644C76.914 38.806 76.896 39.472 76.896 41.38L77.94 41.308L78.318 40.858C78.426 40.732 78.498 40.66 78.588 40.66C78.696 40.66 78.786 40.714 78.93 40.822L79.596 41.344C79.686 41.416 79.794 41.524 79.794 41.632ZM68.58 38.104C68.58 38.212 68.508 38.302 68.382 38.356C68.274 38.41 68.058 38.482 67.914 38.536C67.68 39.04 67.41 39.652 66.888 40.624L67.176 40.804C67.32 40.894 67.356 40.948 67.356 41.038C67.356 41.164 67.302 41.272 66.762 41.632C66.744 43.522 66.726 44.656 66.726 45.7C66.726 46.744 66.816 51.316 66.816 52.252C66.816 52.576 66.762 53.332 65.844 53.332C65.502 53.332 65.376 53.188 65.376 52.738C65.376 52.378 65.484 49.84 65.502 49.39C65.574 47.932 65.628 46.33 65.628 44.872V42.676C65.124 43.432 64.314 44.584 63.45 45.286L63.378 45.232C64.854 42.964 66.69 38.41 66.852 37.024L68.364 37.816C68.49 37.888 68.58 37.978 68.58 38.104ZM93.168 52.27C93.168 52.684 92.934 53.314 92.484 53.314C92.196 53.314 92.142 53.242 91.296 51.874C90.306 50.272 89.892 49.858 86.472 46.474C86.292 46.294 85.824 45.772 85.824 45.196C85.824 44.908 85.878 44.602 86.49 43.954C88.308 42.028 91.044 39.166 91.044 38.464C91.044 38.032 90.648 37.636 90.18 37.168C91.764 37.006 92.61 38.32 92.61 39.004C92.61 39.364 92.43 39.508 91.89 39.94C91.314 40.39 88.632 42.856 87.138 44.494C86.832 44.818 86.832 45.052 86.832 45.16C86.832 45.61 86.958 45.736 88.416 47.068C92.448 50.704 93.168 51.334 93.168 52.27ZM113.94 50.398C113.94 50.884 113.742 51.244 113.31 51.244C112.932 51.244 112.734 50.938 112.572 50.668C111.132 48.292 110.142 47.104 108.54 45.916C105.336 49.948 102.276 51.082 100.584 51.424L100.566 51.28C104.742 49.444 109.134 43.936 110.124 40.588C109.44 40.678 106.452 41.236 105.48 41.614C105.318 41.686 104.652 42.046 104.508 42.046C104.238 42.046 103.248 41.164 103.248 40.228C103.248 39.868 103.32 39.634 103.41 39.454C104.094 40.534 104.4 40.552 104.76 40.552C105.264 40.552 109.17 40.174 109.908 39.742C110.034 39.67 110.592 39.238 110.736 39.238C110.934 39.238 112.266 40.372 112.266 40.678C112.266 40.876 112.14 40.912 111.564 41.128C111.438 41.182 111.42 41.218 111.186 41.65C110.394 43.18 109.944 44.062 108.792 45.61C110.952 46.564 113.94 48.706 113.94 50.398ZM131.454 41.416C131.454 41.596 131.382 41.614 130.986 41.776C130.626 41.92 130.5 42.028 129.906 43.198C127.134 48.58 124.344 51.046 120.384 52.162L120.33 52.036C122.742 50.65 124.902 48.85 126.522 46.618C126.342 46.6 126.144 46.438 125.82 46.078C124.578 44.656 124.398 44.458 123.426 43.918C122.454 44.98 121.464 45.754 120.42 46.258L120.366 46.15C122.634 43.954 124.794 40.246 124.794 39.544C124.794 38.95 124.092 38.68 123.732 38.536C123.966 38.428 124.218 38.32 124.632 38.32C125.658 38.32 126.63 39.202 126.63 39.58C126.63 39.778 126.594 39.814 126.18 40.174C126.036 40.318 125.82 40.66 125.694 40.84C125.82 40.84 126 40.858 126.342 40.858C127.224 40.858 129.042 40.57 129.294 40.444C129.42 40.372 129.924 40.012 130.05 40.012C130.266 40.012 131.454 41.164 131.454 41.416ZM129.312 41.308C128.826 41.362 126.684 41.722 126.27 41.722C126.126 41.722 125.928 41.722 125.334 41.38C124.398 42.766 123.696 43.594 123.606 43.702C124.614 43.828 126.918 44.278 127.026 45.898C127.494 45.196 128.358 43.882 129.312 41.308ZM144.576 44.422C144.576 44.8 144.378 45.124 144.036 45.124C143.658 45.124 143.604 44.962 143.298 44.134C143.064 43.468 142.632 42.82 142.218 42.28C143.442 42.64 144.576 43.648 144.576 44.422ZM148.734 43.522C148.734 43.648 148.698 43.702 148.356 44.08C148.248 44.206 147.51 45.79 147.348 46.096C144.756 50.974 141.552 51.82 140.292 52.162L140.256 51.982C145.656 49.462 147.204 43.702 147.204 43.45C147.204 43.018 146.484 42.604 146.25 42.478C146.484 42.424 146.718 42.352 147.042 42.352C147.816 42.352 148.734 43.306 148.734 43.522ZM141.462 45.232C141.462 45.592 141.282 45.898 140.94 45.898C140.544 45.898 140.364 45.484 140.166 45.034C139.932 44.53 139.446 43.72 138.852 43.09C140.04 43.27 141.462 44.242 141.462 45.232ZM168.012 41.236C168.012 41.452 167.994 41.452 167.418 41.794C167.094 41.992 166.95 42.316 166.734 42.946C165.69 45.952 164.016 48.814 161.334 50.542C159.822 51.514 158.544 51.838 157.986 51.982L157.95 51.838C161.226 50.146 164.826 46.222 165.924 41.074C164.7 41.056 159.516 41.812 158.58 42.082C158.418 42.136 157.608 42.496 157.572 42.496C157.23 42.496 156.114 41.578 156.114 40.39C156.114 40.156 156.204 39.958 156.276 39.814C157.086 40.768 157.23 40.948 158.022 40.948C158.526 40.948 165.24 40.39 165.78 40.156C165.906 40.102 166.356 39.724 166.464 39.724C166.68 39.724 168.012 40.894 168.012 41.236ZM178.092 53.278H172.116V52.504H177.336V36.898H178.092V53.278ZM196.2 45.07C196.2 48.562 193.284 51.244 189.162 51.604L189.144 51.46C192.996 50.092 194.796 47.554 194.796 44.818C194.796 41.776 192.348 39.976 189.216 39.976C188.766 39.976 188.676 39.994 188.478 40.084C189.45 40.606 189.72 41.272 189.72 41.524C189.72 41.722 189.666 41.848 189.108 43.018C187.956 45.484 186.264 49.102 185.04 50.11C184.914 50.2 184.698 50.308 184.464 50.308C184.05 50.308 183.888 50.074 183.348 49.318C183.222 49.138 182.502 48.472 182.376 48.31C182.178 48.022 181.872 47.374 181.872 46.474C181.872 42.604 185.148 39.418 189.54 39.418C193.032 39.418 196.2 41.452 196.2 45.07ZM188.298 41.344C188.298 40.894 188.082 40.516 187.74 40.192C185.76 40.516 183.006 43.072 183.006 46.384C183.006 47.608 183.708 48.958 184.41 48.958C184.896 48.958 185.598 47.68 185.904 47.068C187.704 43.45 188.298 42.28 188.298 41.344ZM205.884 37.816H200.664V53.422H199.908V37.042H205.884V37.816ZM224.532 51.82C224.532 52.162 224.028 52.972 223.038 52.972H220.374C219.204 52.972 218.682 52.72 218.682 51.316C218.682 49.246 218.682 39.652 218.628 38.212C218.61 37.69 218.556 37.51 218.448 37.204L220.212 37.654C220.302 37.672 220.518 37.726 220.518 37.906C220.518 38.032 220.392 38.14 220.284 38.23C220.122 38.356 220.05 38.41 219.906 38.536V43.126C220.212 42.856 222.156 41.02 222.57 39.958L223.92 41.218C223.992 41.272 224.064 41.398 224.064 41.47C224.064 41.632 223.866 41.668 223.758 41.668C223.65 41.668 223.488 41.632 223.308 41.596C222.174 42.37 220.878 43.072 219.906 43.468C219.888 44.674 219.924 49.948 219.888 51.028C219.87 51.586 219.96 51.748 220.608 51.748H222.03C222.39 51.748 222.768 51.586 222.966 50.884C223.002 50.758 223.362 49.336 223.452 48.796H223.578C223.65 49.534 223.866 51.136 224.064 51.352C224.118 51.406 224.37 51.568 224.424 51.604C224.496 51.658 224.532 51.73 224.532 51.82ZM223.452 47.392C223.452 47.662 223.254 48.166 222.75 48.166C222.192 48.166 221.922 47.698 221.382 46.744C221.346 46.672 220.68 45.646 219.942 45.196L219.978 45.052C220.446 45.178 221.526 45.484 222.228 45.898C223.362 46.582 223.452 47.212 223.452 47.392ZM215.892 43.252C215.892 43.63 215.694 43.972 215.244 43.972C214.686 43.972 214.596 43.72 214.236 42.604C214.2 42.496 213.966 41.83 213.426 41.2L213.498 41.074C214.776 41.632 215.892 42.208 215.892 43.252ZM217.944 37.924C217.944 38.122 217.656 38.284 217.35 38.428C217.368 38.95 217.386 39.724 217.386 40.282C217.386 45.826 217.332 47.734 216.432 49.534C215.55 51.262 214.236 52.396 212.382 53.17L212.31 53.026C215.712 50.65 215.964 47.5 216.108 45.736C215.532 46.294 214.812 46.906 213.858 47.644C213.75 48.202 213.66 48.4 213.48 48.4C213.39 48.4 213.228 48.31 213.156 48.148L212.382 46.456C213.48 46.51 215.28 45.79 216.126 45.34C216.18 44.206 216.18 43.558 216.18 42.856C216.18 41.506 216.162 38.194 215.874 37.168L217.602 37.654C217.728 37.69 217.944 37.78 217.944 37.924ZM214.686 40.678C214.686 40.858 214.524 40.876 214.416 40.876H211.734V44.53C212.634 44.296 213.48 44.044 214.11 43.792L214.2 43.972C213.552 44.332 212.58 44.89 211.734 45.304C211.752 46.24 211.878 50.362 211.878 51.19C211.878 51.91 211.878 53.062 209.556 53.44C209.34 52.612 209.088 52.216 207.936 51.586L207.99 51.496C208.71 51.622 209.79 51.676 210.006 51.676C210.402 51.676 210.528 51.604 210.582 51.352C210.636 51.136 210.636 49.732 210.636 49.372C210.636 49.048 210.618 46.06 210.618 45.862C210.06 46.132 209.628 46.312 209.16 46.528C209.052 47.104 209.034 47.248 208.8 47.248C208.638 47.248 208.53 47.14 208.476 47.05L207.486 45.43C208.278 45.412 208.512 45.34 210.6 44.818L210.546 40.876C209.88 40.876 209.016 40.876 208.152 41.038L207.792 40.318C208.98 40.426 209.826 40.444 210.546 40.444C210.546 39.58 210.528 38.068 210.51 37.834C210.456 37.438 210.348 37.204 210.24 36.952L212.166 37.51C212.31 37.546 212.418 37.636 212.418 37.78C212.418 37.924 212.292 38.032 211.734 38.374V40.444H212.652L213.21 39.742C213.336 39.598 213.39 39.508 213.498 39.508C213.606 39.508 213.678 39.58 213.804 39.706L214.506 40.408C214.614 40.516 214.686 40.588 214.686 40.678ZM242.1 52.522C242.1 52.918 241.776 53.08 241.47 53.08C240.552 53.08 238.446 52.072 237.222 49.462C235.116 51.406 233.334 51.964 232.524 52.198L232.488 52.072C233.406 51.604 234.9 50.758 236.826 48.544C236.034 46.456 235.89 44.584 235.764 43.018C234.918 43.198 234.612 43.306 234.306 43.414L233.892 42.856C233.856 43.54 233.964 46.582 233.964 47.212C233.964 47.716 233.496 47.95 233.172 47.95C232.758 47.95 232.74 47.716 232.74 47.536H231.012V49.264H232.812L233.37 48.508C233.478 48.364 233.568 48.292 233.658 48.292C233.73 48.292 233.856 48.346 233.964 48.454L234.81 49.228C234.9 49.318 234.99 49.444 234.99 49.534C234.99 49.642 234.882 49.696 234.72 49.696H231.012C231.012 50.11 231.084 51.892 231.084 52.252C231.084 52.792 230.778 53.152 230.238 53.152C229.752 53.152 229.68 52.864 229.68 52.648C229.68 52.45 229.77 51.622 229.788 51.46C229.824 50.758 229.842 50.056 229.842 49.696H228.366C228.042 49.696 227.124 49.714 226.26 49.876L225.9 49.156C227.016 49.246 228.114 49.264 228.654 49.264H229.842C229.86 48.994 229.878 47.788 229.878 47.536H228.168C228.168 47.86 228.186 48.346 227.376 48.346C227.106 48.346 226.926 48.166 226.926 47.914C226.926 47.788 226.98 47.284 226.998 47.176C227.016 45.988 227.016 45.088 227.016 44.494C227.016 42.496 227.016 42.442 226.89 41.488L228.24 42.1H232.542L232.956 41.596C233.046 41.488 233.154 41.38 233.244 41.38C233.334 41.38 233.46 41.452 233.622 41.578L234.18 42.028C234.324 42.136 234.378 42.226 234.378 42.316C234.378 42.46 234.306 42.55 233.928 42.766C234.954 42.676 235.584 42.568 235.728 42.55C235.692 41.812 235.656 39.868 235.62 38.518C235.602 37.744 235.512 37.456 235.422 37.096L237.096 37.672C237.24 37.726 237.384 37.816 237.384 37.924C237.384 38.122 237.168 38.266 236.898 38.374C236.844 38.914 236.808 39.598 236.808 40.696C236.808 41.506 236.826 42.028 236.862 42.37L239.31 41.938L239.868 41.11C239.994 40.912 240.066 40.84 240.174 40.84C240.246 40.84 240.354 40.894 240.498 40.966L241.542 41.524C241.668 41.596 241.758 41.704 241.758 41.794C241.758 41.902 241.668 41.974 241.524 41.992L236.88 42.802C237.006 44.296 237.096 45.592 237.654 47.5C238.878 45.772 239.778 44.044 239.886 43.144L241.398 44.134C241.506 44.206 241.596 44.296 241.596 44.422C241.596 44.566 241.416 44.71 240.858 44.728C240.282 45.718 239.472 47.032 238.05 48.634C238.86 50.47 240.21 51.136 240.426 51.136C240.696 51.136 240.804 50.938 241.182 50.254C241.308 50.002 241.848 48.922 241.956 48.706L242.064 48.724C242.046 48.958 241.722 51.298 241.722 51.514C241.722 51.622 241.74 51.766 241.938 52.09C242.082 52.306 242.1 52.396 242.1 52.522ZM232.758 44.584V42.532H231.012V44.584H232.758ZM232.758 47.104V45.016H231.012V47.104H232.758ZM229.878 44.584V42.532H228.15V44.584H229.878ZM229.878 47.104V45.016H228.15V47.104H229.878ZM240.174 39.922C240.174 40.39 239.778 40.642 239.436 40.642C238.968 40.642 238.788 40.228 238.716 40.084C238.518 39.616 238.212 38.95 237.708 38.428L237.78 38.302C238.608 38.446 240.174 38.716 240.174 39.922ZM234.594 38.446C234.594 38.644 234.414 38.716 234.18 38.77C233.658 39.4 232.308 40.912 231.21 41.722L231.12 41.614C231.84 40.408 232.74 38.77 232.938 37.546L234.36 38.14C234.522 38.212 234.594 38.32 234.594 38.446ZM230.922 39.868C230.922 40.066 230.814 40.714 230.184 40.714C229.572 40.714 229.536 40.192 229.464 39.508C229.392 38.788 229.248 38.428 228.924 37.816L229.014 37.726C230.922 38.644 230.922 39.67 230.922 39.868ZM228.492 40.318C228.492 40.804 228.222 41.128 227.844 41.128C227.286 41.128 227.124 40.552 227.088 40.39C226.872 39.616 226.746 39.076 226.17 38.266L226.242 38.194C227.646 38.59 228.492 39.472 228.492 40.318ZM250.092 53.278H244.116V52.504H249.336V36.898H250.092V53.278ZM267.138 40.624C267.138 41.038 266.76 41.146 266.112 41.254C264.366 41.56 263.232 42.154 262.638 42.586L262.53 42.478C262.8 42.226 264.114 41.02 264.168 40.966C264.222 40.912 264.222 40.876 264.222 40.822C264.222 40.624 263.664 40.624 263.556 40.624C262.836 40.624 261.648 40.912 260.28 41.434C261.252 40.138 263.07 39.67 264.744 39.67C265.86 39.67 267.138 39.994 267.138 40.624ZM268.02 50.11C268.02 50.686 267.39 50.776 266.256 50.776C265.824 50.776 263.412 50.758 261.846 50.272C260.766 49.93 260.028 48.886 260.028 47.824C260.028 47.41 260.118 47.248 260.208 47.068C260.622 48.436 260.946 49.48 264.348 49.48C264.708 49.48 266.454 49.336 266.634 49.336C267.264 49.336 268.02 49.606 268.02 50.11ZM258.102 44.872C257.994 45.376 257.742 46.42 257.598 46.996C257.382 47.896 256.968 49.624 256.968 50.434C256.968 50.632 257.058 51.496 257.058 51.676C257.058 51.982 257.022 52.342 256.59 52.342C255.852 52.342 254.682 50.686 254.682 47.032C254.682 45.736 255.078 43.306 255.384 41.452C255.438 41.11 255.492 40.642 255.492 40.246C255.492 39.616 255.402 39.148 254.88 38.5C254.97 38.464 255.042 38.428 255.204 38.428C255.852 38.428 257.022 39.436 257.022 40.138C257.022 40.3 256.986 40.462 256.788 40.984C256.086 42.784 255.528 44.674 255.528 46.636C255.528 47.878 255.834 49.264 256.122 49.264C256.23 49.264 256.32 49.048 256.356 48.922C256.554 48.31 257.31 46.222 257.958 44.836L258.102 44.872ZM284.238 50.722C284.238 51.082 284.094 51.388 283.716 51.388C283.464 51.388 282.798 50.974 282.132 50.542C280.908 49.768 280.314 49.57 279.72 49.426C279.612 50.452 279.288 52.036 276.714 52.036C275.364 52.036 273.474 51.37 273.474 50.146C273.474 49.21 274.446 48.58 275.058 48.4C276.444 47.968 277.74 48.022 278.442 48.058C278.334 47.374 278.208 46.384 278.208 44.08C278.208 43.72 278.226 40.282 278.226 40.156C278.226 39.076 278.01 38.68 276.714 38.446C276.876 38.266 277.164 37.942 277.848 37.942C278.478 37.942 279.81 38.428 279.81 39.13C279.81 39.256 279.648 39.94 279.594 40.12C279.522 40.426 279.45 40.75 279.342 41.56C280.116 41.506 280.8 41.29 282.204 40.84C282.366 40.786 282.528 40.75 282.744 40.75C282.996 40.75 283.734 40.858 283.734 41.344C283.734 41.596 283.626 41.722 283.482 41.812C283.068 42.1 281.502 42.478 280.458 42.478C280.026 42.478 279.612 42.334 279.27 42.172C279.252 42.496 279.198 43.162 279.198 44.098C279.198 46.24 279.468 47.698 279.594 48.274C281.304 48.58 284.238 49.516 284.238 50.722ZM278.478 49.12C278.118 49.048 277.722 48.976 276.984 48.976C276.048 48.976 274.176 49.174 274.176 50.074C274.176 50.794 275.472 50.956 276.246 50.956C278.406 50.956 278.478 49.75 278.478 49.12ZM302.49 47.41C302.49 50.056 299.7 51.802 295.074 51.802C294.444 51.802 294.066 51.766 293.742 51.73V51.532C294.822 51.496 297.612 51.136 299.196 50.236C299.844 49.858 301.32 48.814 301.32 47.158C301.32 45.556 299.862 44.584 298.26 44.584C297.594 44.584 295.578 44.8 292.878 47.176C292.194 47.77 292.122 47.824 291.942 47.824C291.528 47.824 290.61 47.068 290.61 46.294C290.61 45.988 290.7 45.808 290.808 45.628C290.988 45.898 291.294 46.33 291.672 46.33C291.924 46.33 292.122 46.24 292.662 45.952C293.796 45.322 294.984 44.782 296.19 44.404C296.766 44.224 297.558 44.044 298.404 44.044C300.51 44.044 302.49 45.142 302.49 47.41ZM322.074 39.868C322.074 40.408 321.57 40.408 321.318 40.408C318.852 40.408 318.582 40.408 317.808 40.66C315.684 41.38 313.74 43.972 313.74 46.51C313.74 49.588 317.034 50.218 318.33 50.47C318.906 50.578 319.572 50.848 319.572 51.532C319.572 52.072 319.014 52.072 318.888 52.072C317.844 52.072 312.858 51.1 312.858 46.798C312.858 44.008 314.712 42.082 316.764 40.462C315.72 40.426 312.066 41.686 310.284 42.496C309.51 42.838 309.492 42.856 309.312 42.856C308.916 42.856 307.998 42.28 307.998 41.236C307.998 40.786 308.16 40.498 308.286 40.282C308.574 40.894 308.952 41.29 309.69 41.29C309.906 41.29 310.284 41.218 310.464 41.182C314.532 40.21 314.982 40.102 316.764 39.724C317.808 39.49 319.086 39.238 319.86 39.004C320.004 38.95 320.364 38.878 320.598 38.878C321.642 38.878 322.074 39.688 322.074 39.868ZM9.702 80.422H14.436L15.102 79.36C15.156 79.27 15.282 79.126 15.39 79.126C15.498 79.126 15.624 79.234 15.732 79.324L16.938 80.386C17.046 80.476 17.118 80.548 17.118 80.656C17.118 80.836 16.974 80.854 16.848 80.854H10.008C11.502 83.446 14.58 85.714 17.532 86.11V86.2C16.848 86.434 16.146 86.92 15.696 87.658C11.898 85.66 10.116 82.384 9.756 80.854H9.72C9.702 81.664 9.702 83.302 9.72 84.058C9.756 85.228 9.846 88.234 9.846 88.468C9.846 89.116 9.378 89.368 8.928 89.368C8.46 89.368 8.316 89.098 8.316 88.738C8.316 88.324 8.424 86.506 8.442 86.128C8.478 85.174 8.478 83.788 8.478 82.402C6.534 85.066 3.618 87.208 1.152 87.892V87.802C4.608 85.57 7.488 81.808 7.992 80.854H3.528C3.204 80.854 2.286 80.854 1.422 81.016L1.062 80.296C2.376 80.404 3.51 80.422 3.816 80.422H8.478C8.496 79.342 8.496 77.92 8.478 76.822H5.148C4.842 76.822 3.906 76.822 3.024 76.984L2.664 76.264C3.582 76.354 4.518 76.39 5.436 76.39H8.46C8.424 74.068 8.334 73.546 8.136 72.79L9.936 73.294C10.098 73.33 10.206 73.438 10.206 73.582C10.206 73.78 9.846 73.996 9.702 74.086V76.39H12.582L13.23 75.418C13.32 75.274 13.41 75.184 13.518 75.184C13.608 75.184 13.734 75.274 13.824 75.364L14.94 76.354C15.012 76.426 15.12 76.516 15.12 76.642C15.12 76.804 14.958 76.822 14.85 76.822H9.702V80.422ZM34.686 81.628H27.684C28.98 83.608 31.86 85.714 35.172 86.056L35.208 86.182C34.776 86.326 33.858 86.848 33.462 87.712C30.402 86.308 28.476 83.716 27.666 82.24C27.684 84.022 27.702 85.372 27.72 86.2C27.72 86.56 27.81 88.126 27.81 88.432C27.81 89.224 27 89.278 26.892 89.278C26.316 89.278 26.316 88.954 26.316 88.738C26.316 88.594 26.352 87.856 26.37 87.658C26.496 85.066 26.514 84.346 26.514 82.744C25.182 84.58 22.5 87.01 19.476 88.036L19.404 87.892C22.284 86.074 24.696 83.392 25.758 81.628H21.798C21.312 81.628 20.466 81.646 19.674 81.808L19.314 81.088C20.232 81.16 21.168 81.196 22.086 81.196H26.496C26.496 79.252 26.496 78.946 26.46 76.21H22.878C22.356 76.21 21.528 76.246 20.754 76.372L20.394 75.67C21.312 75.742 22.248 75.778 23.166 75.778H26.46C26.424 74.176 26.424 73.744 26.1 73.042L28.008 73.564C28.116 73.6 28.242 73.636 28.242 73.798C28.242 73.906 28.044 74.05 27.666 74.284C27.666 74.446 27.648 75.526 27.648 75.778H31.104L31.752 74.968C31.842 74.842 31.95 74.734 32.04 74.734C32.112 74.734 32.238 74.788 32.4 74.932L33.426 75.76C33.498 75.814 33.606 75.94 33.606 76.03C33.606 76.21 33.426 76.21 33.318 76.21H27.648C27.648 78.55 27.648 78.838 27.666 81.196H28.728C29.664 79.9 30.726 77.632 30.78 76.84L32.4 77.812C32.58 77.92 32.598 77.992 32.598 78.046C32.598 78.28 32.418 78.334 31.788 78.406C31.626 78.568 31.518 78.694 30.474 79.828C29.79 80.584 29.304 81.016 29.088 81.196H32.274L33.102 80.368C33.264 80.206 33.336 80.152 33.408 80.152C33.48 80.152 33.57 80.188 33.732 80.332L34.776 81.178C34.866 81.25 34.974 81.376 34.974 81.448C34.974 81.628 34.776 81.628 34.686 81.628ZM21.564 77.182L21.654 77.11C22.392 77.434 24.354 78.316 24.354 79.882C24.354 80.26 24.138 80.728 23.634 80.728C23.022 80.728 22.914 80.188 22.842 79.81C22.806 79.63 22.536 78.334 21.564 77.182ZM51.372 80.026C51.372 80.44 51.138 80.512 50.76 80.584C49.014 80.926 47.34 81.574 45.702 82.276C45.756 82.582 45.882 83.356 45.882 84.4C45.882 84.778 45.882 85.966 45.234 85.966C44.568 85.966 44.568 84.94 44.568 84.634C44.568 84.364 44.568 83.14 44.55 82.87C43.344 83.626 41.976 84.94 41.976 85.912C41.976 87.28 44.334 87.28 44.856 87.28C45.828 87.28 46.926 87.1 47.61 86.974C47.952 86.92 48.06 86.902 48.24 86.902C49.014 86.902 49.32 87.37 49.32 87.694C49.32 88.018 48.996 88.216 48.762 88.27C48.438 88.342 46.836 88.45 46.008 88.45C45.018 88.45 41.238 88.45 41.238 86.218C41.238 84.526 43.452 82.888 44.478 82.204C44.316 81.25 44.064 80.35 42.93 80.35C41.832 80.35 40.968 81.43 40.68 81.898C39.87 83.158 39.798 83.176 39.492 83.176C39.06 83.176 38.97 82.87 38.97 82.438C38.97 81.79 39.168 81.628 39.366 81.448C40.644 80.35 41.562 78.892 42.444 77.434C41.904 77.524 41.382 77.614 40.842 77.614C39.618 77.614 39.024 76.948 39.06 76.012C39.618 76.534 40.122 76.678 40.914 76.678C41.67 76.678 42.714 76.516 43.002 76.462C43.254 76.048 43.992 74.716 43.992 74.41C43.992 74.158 43.596 73.78 42.768 73.672C42.966 73.474 43.236 73.24 43.866 73.24C44.748 73.24 45.504 73.906 45.504 74.284C45.504 74.536 45.342 74.752 45.216 74.914C44.838 75.364 44.784 75.436 44.28 76.174C44.676 76.066 46.404 75.346 46.782 75.346C47.214 75.346 47.736 75.598 47.736 75.958C47.736 76.21 47.538 76.336 47.358 76.408C46.53 76.768 44.55 77.092 43.524 77.254C41.904 79.594 41.742 79.846 41.508 80.278C41.922 80.08 42.48 79.792 43.344 79.792C45 79.792 45.342 80.872 45.54 81.538C46.764 80.818 48.528 79.972 49.05 79.72C49.374 79.558 49.5 79.432 49.5 79.198C49.5 78.964 49.356 78.856 48.942 78.55C49.068 78.514 49.14 78.496 49.32 78.496C49.968 78.496 51.372 79.018 51.372 80.026ZM58.41 78.856L60.264 78.28L60.804 77.218C60.93 76.966 60.966 76.912 61.074 76.912C61.164 76.912 61.308 76.966 61.38 77.002L62.604 77.506C62.73 77.56 62.874 77.632 62.874 77.776C62.874 77.884 62.766 77.974 62.658 78.01L58.41 79.306C58.41 80.008 58.356 83.5 58.428 83.806C58.482 84.004 58.608 84.112 59.706 84.112C60.48 84.112 61.02 84.004 61.56 81.61H61.704C61.74 81.898 61.83 83.104 61.938 83.428C61.974 83.554 62.064 83.662 62.19 83.788C62.262 83.86 62.298 84.022 62.298 84.094C62.298 84.382 61.974 84.796 61.596 84.976C61.164 85.174 60.516 85.282 59.634 85.282C57.132 85.282 57.132 84.76 57.132 83.788C57.132 83.14 57.168 80.26 57.168 79.684C56.502 79.882 55.782 80.116 54.972 80.53L54.414 79.954C55.44 79.72 56.16 79.54 57.168 79.216C57.204 77.092 57.222 75.076 57.186 74.482C57.168 73.96 57.078 73.474 57.006 73.222L58.752 73.834C58.86 73.87 59.04 73.978 59.04 74.122C59.04 74.32 58.752 74.5 58.5 74.626C58.446 75.292 58.428 78.244 58.41 78.856ZM63.252 75.13H68.454L69.03 74.536C69.12 74.428 69.228 74.32 69.318 74.32C69.372 74.32 69.498 74.428 69.552 74.464L70.38 75.184C70.488 75.274 70.632 75.418 70.632 75.544C70.632 75.652 70.434 75.832 70.056 76.138C70.056 77.416 70.074 81.268 69.822 83.518C69.372 87.532 68.418 88.684 65.628 89.044C65.538 88.432 65.394 87.874 63.99 86.902L64.08 86.776C64.422 86.884 65.286 87.172 66.276 87.172C67.014 87.172 67.626 87.046 68.022 85.894C68.724 83.896 68.724 82.06 68.724 75.562H65.448C65.394 78.478 65.394 81.952 64.314 84.472C63.486 86.416 61.236 88.666 57.168 89.314L57.096 89.17C60.876 87.676 62.55 85.75 63.252 83.752C64.188 81.124 64.134 76.822 64.116 75.562H62.964C62.532 75.562 61.65 75.58 60.84 75.724L60.48 75.004C61.974 75.13 63.036 75.13 63.252 75.13ZM84.816 80.62C84.816 83.932 84.06 86.074 82.044 87.91C81.45 88.45 80.316 89.314 79.488 89.494L79.452 89.404C82.566 87.154 83.484 83.68 83.484 80.458C83.484 79.27 83.412 75.994 82.062 75.994C81.342 75.994 80.838 76.732 80.676 76.966C79.956 78.01 78.768 80.764 78.768 82.924C78.768 83.122 78.894 84.04 78.894 84.22C78.894 84.418 78.822 84.724 78.462 84.724C77.4 84.724 77.076 82.618 77.076 80.998C77.076 79.63 77.454 77.254 77.706 75.796C77.724 75.706 77.778 75.364 77.778 75.112C77.778 74.14 77.112 73.726 76.734 73.474C76.896 73.438 77.202 73.348 77.544 73.348C78.372 73.348 79.128 74.014 79.128 74.644C79.128 74.932 79.02 75.166 78.912 75.436C78.354 76.732 77.904 78.55 77.904 80.26C77.904 80.53 77.904 81.556 78.084 81.556C78.192 81.556 78.228 81.466 78.246 81.376C78.66 79.9 80.208 75.292 82.332 75.292C84.582 75.292 84.816 78.82 84.816 80.62ZM107.118 75.004C107.118 75.184 106.956 75.202 106.848 75.202H102.06C101.646 76.732 100.962 78.46 99.954 80.314L100.674 80.674H104.436L105.048 80.008C105.138 79.918 105.228 79.81 105.336 79.81C105.426 79.81 105.516 79.882 105.606 79.954L106.38 80.584C106.47 80.656 106.596 80.782 106.596 80.926C106.596 81.106 106.452 81.232 106.038 81.448C106.002 82.6 106.056 83.86 106.074 84.85C106.092 85.354 106.2 87.64 106.2 88.09C106.2 88.81 105.66 88.918 105.318 88.918C104.796 88.918 104.796 88.522 104.832 87.856H100.584C100.602 88.396 100.638 88.99 99.756 88.99C99.324 88.99 99.288 88.702 99.288 88.432C99.288 88.27 99.342 87.478 99.342 87.316C99.36 86.416 99.378 85.516 99.378 84.598C99.378 83.752 99.378 82.222 99.324 81.394C98.838 82.168 97.47 84.292 96.138 85.282L96.048 85.156C97.992 82.726 99.864 78.478 100.584 75.202H99.288C98.964 75.202 98.046 75.202 97.182 75.364L96.822 74.644C97.938 74.734 99.036 74.77 99.576 74.77H104.472L105.174 73.834C105.246 73.726 105.354 73.6 105.462 73.6C105.57 73.6 105.696 73.726 105.786 73.798L106.938 74.734C107.028 74.806 107.118 74.896 107.118 75.004ZM98.172 76.948C98.172 77.11 98.028 77.146 97.902 77.146H95.274C95.274 77.686 95.274 80.116 95.292 80.62C95.724 80.458 97.704 79.828 98.1 79.666L98.118 79.792C97.704 80.098 95.706 81.196 95.31 81.43C95.328 82.402 95.418 86.614 95.418 87.19C95.418 88.036 95.364 88.846 93.636 89.332C93.546 88.9 93.384 88.072 91.71 87.532V87.406C91.98 87.424 93.114 87.46 93.348 87.46C93.852 87.46 94.158 87.46 94.158 86.686V82.06C93.006 82.672 92.448 82.924 91.998 83.104C91.908 83.428 91.818 83.536 91.692 83.536C91.602 83.536 91.494 83.464 91.44 83.356L90.504 81.736C90.666 81.754 90.864 81.772 91.152 81.754C91.62 81.718 93.546 81.16 94.158 80.98C94.158 80.368 94.068 77.686 94.05 77.146H93.51C93.06 77.146 92.196 77.164 91.386 77.308L91.026 76.588C92.07 76.678 93.15 76.714 94.032 76.714C94.032 76.336 93.996 74.662 93.96 74.32C93.924 73.762 93.708 73.276 93.564 72.934L95.472 73.492C95.634 73.546 95.76 73.672 95.76 73.78C95.76 73.906 95.598 74.05 95.274 74.32C95.256 74.698 95.274 76.372 95.274 76.714H96.102L96.48 76.084C96.552 75.976 96.624 75.85 96.732 75.85C96.84 75.85 96.93 75.904 97.092 76.03L97.992 76.678C98.082 76.732 98.172 76.822 98.172 76.948ZM104.832 87.424V81.106H100.584V87.424H104.832ZM124.2 82.744C124.2 83.374 123.858 83.914 123.57 83.914C123.354 83.914 123.282 83.842 122.58 83.176C122.094 82.726 121.122 82.546 120.672 82.456V82.348C120.924 82.312 122.148 82.204 122.274 82.168C122.508 82.114 122.67 81.97 122.67 81.7C122.67 81.142 121.734 78.496 119.502 77.38C119.628 77.362 119.664 77.344 119.808 77.344C121.824 77.344 124.2 80.656 124.2 82.744ZM116.82 80.062C116.568 80.602 114.696 84.832 114.66 85.03C114.642 85.12 114.624 85.174 114.624 85.264C114.624 85.408 114.768 86.092 114.768 86.236C114.768 86.704 114.48 86.848 114.21 86.848C113.58 86.848 111.024 85.948 110.718 80.818C110.61 79.036 110.538 77.902 110.43 77.506C110.268 76.858 109.98 76.372 109.8 76.03C110.718 76.084 112.068 76.876 112.068 78.046C112.068 78.172 112.068 78.28 111.996 78.64C111.888 79.306 111.762 80.188 111.762 81.142C111.762 83.356 112.842 84.67 113.328 84.67C113.526 84.67 113.706 84.436 113.76 84.346C114.57 83.14 115.902 81.232 116.676 80.008L116.82 80.062ZM142.074 75.868C142.074 76.408 141.57 76.408 141.318 76.408C138.852 76.408 138.582 76.408 137.808 76.66C135.684 77.38 133.74 79.972 133.74 82.51C133.74 85.588 137.034 86.218 138.33 86.47C138.906 86.578 139.572 86.848 139.572 87.532C139.572 88.072 139.014 88.072 138.888 88.072C137.844 88.072 132.858 87.1 132.858 82.798C132.858 80.008 134.712 78.082 136.764 76.462C135.72 76.426 132.066 77.686 130.284 78.496C129.51 78.838 129.492 78.856 129.312 78.856C128.916 78.856 127.998 78.28 127.998 77.236C127.998 76.786 128.16 76.498 128.286 76.282C128.574 76.894 128.952 77.29 129.69 77.29C129.906 77.29 130.284 77.218 130.464 77.182C134.532 76.21 134.982 76.102 136.764 75.724C137.808 75.49 139.086 75.238 139.86 75.004C140.004 74.95 140.364 74.878 140.598 74.878C141.642 74.878 142.074 75.688 142.074 75.868ZM157.95 84.112C157.95 84.508 157.752 85.444 157.284 85.444C157.104 85.444 157.014 85.39 156.258 84.832C155.448 84.256 152.892 83.662 151.218 83.662C150.516 83.662 148.716 83.806 148.716 85.516C148.716 87.388 151.344 87.55 152.55 87.55C152.892 87.55 154.368 87.424 154.674 87.424C155.142 87.424 155.826 87.622 155.826 88.144C155.826 88.81 155.124 88.81 154.134 88.81C152.766 88.81 147.942 88.81 147.942 85.714C147.942 83.284 150.426 83.104 151.812 83.104C153.18 83.104 154.548 83.266 155.88 83.554C155.934 83.572 155.97 83.572 156.006 83.572C156.096 83.572 156.168 83.572 156.168 83.464C156.168 83.356 156.096 83.23 155.988 83.068C155.934 82.978 155.43 82.24 154.134 80.386C152.262 81.016 150.57 81.214 150.03 81.214C148.986 81.214 148.104 80.566 147.78 79.774C148.428 80.062 149.004 80.314 149.94 80.314C150.678 80.314 152.154 80.116 153.594 79.558C152.946 78.46 152.622 77.74 152.46 77.398C152.136 77.506 150.732 77.92 150.012 77.92C149.382 77.92 148.374 77.524 147.996 76.696C148.608 76.948 148.914 77.074 149.634 77.074C150.498 77.074 151.362 76.858 152.1 76.588C151.974 76.318 151.488 75.076 151.362 74.842C151.02 74.23 150.228 74.104 149.49 74.158C149.688 73.762 149.94 73.276 150.984 73.276C151.362 73.276 152.496 73.42 152.586 74.032C152.604 74.212 152.658 75.094 152.694 75.256C152.766 75.634 152.856 75.958 152.946 76.228C153.18 76.138 153.666 75.886 154.116 75.58C154.764 75.148 154.836 75.094 155.142 75.094C155.538 75.094 155.88 75.328 155.88 75.598C155.88 75.796 155.79 75.958 155.43 76.156C154.602 76.624 154.026 76.876 153.288 77.128C153.702 78.082 154.026 78.658 154.386 79.234C154.764 79.054 155.25 78.82 155.97 78.37C156.51 78.046 156.582 77.992 156.888 77.992C157.356 77.992 157.716 78.244 157.716 78.514C157.716 78.766 157.446 78.946 157.212 79.072C156.996 79.18 156.096 79.648 154.962 80.08C155.7 81.124 156.528 82.096 157.374 83.032C157.932 83.644 157.95 83.842 157.95 84.112ZM178.038 79.882C178.038 80.08 177.948 80.35 177.534 80.35C177.39 80.35 176.742 80.278 176.616 80.278C175.824 80.278 174.42 80.854 173.916 81.178L173.826 81.088C173.988 80.944 174.708 80.368 174.852 80.26C175.392 79.792 175.446 79.756 175.446 79.576C175.446 79.054 173.682 79.036 173.448 79.036C173.016 79.036 172.71 79.054 172.44 79.072C173.304 78.406 174.348 78.298 175.05 78.298C177.048 78.298 178.038 79.27 178.038 79.882ZM177.912 87.442C177.912 88.09 176.22 88.09 175.59 88.09C173.52 88.09 170.262 87.856 170.262 85.462C170.262 85.318 170.262 84.652 170.676 84.076C170.712 86.308 171.972 86.812 174.438 86.812C175.284 86.812 175.68 86.758 176.22 86.668C176.76 86.578 176.832 86.578 176.958 86.578C177.534 86.578 177.912 87.1 177.912 87.442ZM172.602 76.678C172.602 76.84 172.548 77.02 172.026 77.254C170.586 77.902 169.2 78.298 169.056 78.334C167.994 81.232 166.95 84.148 165.654 86.956C165.24 87.838 165.096 88.018 164.718 88.018C164.322 88.018 164.124 87.514 164.124 87.172C164.124 86.848 164.142 86.83 164.844 85.696C166.194 83.518 167.598 79.756 167.922 78.838C167.976 78.694 167.994 78.658 168.012 78.586C167.256 78.748 166.464 78.874 165.726 78.874C164.79 78.874 164.106 78.28 163.908 77.668C164.286 77.794 164.79 77.956 165.636 77.956C166.734 77.956 167.76 77.704 168.354 77.542C168.876 75.796 168.93 75.382 168.93 75.04C168.93 74.302 167.958 73.96 167.814 73.906C167.994 73.762 168.138 73.636 168.606 73.636C169.686 73.636 170.496 74.518 170.496 75.058C170.496 75.256 170.424 75.364 170.154 75.778C169.956 76.084 169.83 76.336 169.488 77.182C170.028 76.966 170.424 76.786 170.82 76.534C171.396 76.156 171.522 76.084 171.864 76.084C172.332 76.084 172.602 76.408 172.602 76.678ZM197.388 79.144C196.758 79.414 196.11 79.792 195.66 80.512C192.546 79.126 190.26 76.444 189.09 74.032L189.018 74.05C187.056 77.47 182.79 80.458 180.774 81.268L180.72 81.16C183.42 79.27 185.616 76.768 187.344 73.978C187.758 73.33 187.812 73.078 187.884 72.754L189.702 73.33C189.792 73.366 189.99 73.456 189.99 73.636C189.99 73.852 189.81 73.888 189.432 73.978C190.53 75.814 193.392 78.334 197.388 79.018V79.144ZM192.132 79.738C192.132 79.9 191.97 79.918 191.862 79.918H187.236C186.786 79.918 185.922 79.936 185.112 80.08L184.752 79.36C185.994 79.468 187.29 79.486 187.524 79.486H189.54L190.35 78.586C190.44 78.496 190.53 78.37 190.638 78.37C190.728 78.37 190.872 78.478 190.962 78.55L191.952 79.45C192.042 79.54 192.132 79.612 192.132 79.738ZM196.074 82.834C196.074 83.032 195.894 83.032 195.804 83.032H188.586C187.614 84.85 185.796 86.938 185.616 87.154C187.83 87.01 190.62 86.74 192.654 86.488C192.546 86.29 191.952 85.21 190.674 84.004L190.782 83.896C193.248 85.012 195.21 86.83 195.21 88.342C195.21 88.63 195.012 89.224 194.418 89.224C193.824 89.224 193.59 88.738 193.356 88.108C193.14 87.478 193.068 87.28 192.816 86.794C191.358 87.244 184.734 88.648 183.708 88.81C183.6 89.044 183.546 89.206 183.384 89.206C183.24 89.206 183.15 89.026 183.096 88.882L182.34 87.064C182.736 87.136 183.15 87.226 183.942 87.226C184.32 87.226 184.68 87.208 185.238 87.172C185.832 85.84 186.336 84.508 186.714 83.032H184.176C183.762 83.032 182.862 83.05 182.07 83.194L181.71 82.492C183.132 82.6 184.158 82.6 184.464 82.6H193.104L194.022 81.61C194.148 81.466 194.238 81.394 194.328 81.394C194.418 81.394 194.526 81.484 194.652 81.574L195.894 82.564C195.966 82.618 196.074 82.726 196.074 82.834ZM215.064 87.874C215.064 88 214.902 88.054 214.794 88.054H207.18C207 88.054 205.902 88.054 205.056 88.216L204.696 87.496C205.956 87.604 207.306 87.622 207.468 87.622H209.232C209.232 85.786 209.25 82.87 209.232 81.034C209.214 80.17 209.214 80.044 209.214 79.486H208.152C207.972 79.486 206.874 79.486 206.028 79.648L205.668 78.928C206.874 79.036 208.116 79.054 208.44 79.054H209.214C209.214 78.748 209.196 77.56 209.196 77.254C209.178 74.356 209.178 73.978 208.674 72.934L210.672 73.402C210.942 73.456 211.104 73.582 211.104 73.744C211.104 73.978 210.762 74.176 210.492 74.284C210.474 74.734 210.474 78.298 210.474 79.054H212.292L212.958 78.172C213.066 78.028 213.138 77.956 213.246 77.956C213.336 77.956 213.444 78.028 213.588 78.154L214.578 79.018C214.686 79.108 214.758 79.216 214.758 79.306C214.758 79.432 214.614 79.486 214.488 79.486H210.474V84.364L210.492 87.622H212.418L213.264 86.686C213.39 86.542 213.48 86.488 213.57 86.488C213.66 86.488 213.768 86.524 213.912 86.668L214.902 87.586C214.992 87.676 215.064 87.784 215.064 87.874ZM205.992 82.168C205.992 82.438 205.83 82.924 205.344 82.924C204.93 82.924 204.732 82.582 204.588 82.312C204.174 81.502 203.706 80.692 203.112 80.008C203.094 84.778 203.094 85.3 203.13 86.614C203.13 86.884 203.202 88.09 203.202 88.324C203.202 88.99 202.59 89.134 202.32 89.134C201.762 89.134 201.762 88.738 201.762 88.576C201.762 88.378 201.834 87.514 201.834 87.334C201.888 85.948 201.87 85.588 201.924 81.178C200.268 82.834 198.9 83.536 198.36 83.824L198.288 83.698C200.322 81.934 202.914 78.604 203.724 76.876H201.204C200.754 76.876 199.89 76.894 199.08 77.038L198.738 76.336C199.962 76.426 201.24 76.444 201.492 76.444H201.96C201.924 74.14 201.726 73.6 201.492 72.916L203.562 73.51C203.67 73.546 203.778 73.654 203.778 73.744C203.778 73.96 203.562 74.104 203.202 74.284C203.166 74.788 203.166 74.824 203.202 76.444H203.85L204.3 75.976C204.426 75.85 204.516 75.796 204.624 75.796C204.732 75.796 204.804 75.868 204.912 75.958L205.722 76.678C205.812 76.75 205.848 76.84 205.848 76.93C205.848 77.2 205.56 77.272 204.984 77.344C204.696 77.794 204.192 78.568 203.184 79.81C203.364 79.864 204.192 80.152 205.092 80.8C205.416 81.034 205.992 81.448 205.992 82.168ZM232.902 79.504C232.902 80.008 232.524 80.08 232.416 80.08C232.146 80.08 232.092 79.99 231.57 79.198C231.138 78.568 230.328 77.902 229.734 77.47C230.886 77.578 232.902 78.316 232.902 79.504ZM230.796 80.278C230.796 80.584 230.688 80.908 230.31 80.908C230.004 80.908 229.95 80.836 229.518 80.08C229.158 79.45 228.69 78.964 227.826 78.1C229.032 78.352 230.796 79.144 230.796 80.278ZM231.876 75.76C231.876 76.336 231.318 76.336 230.814 76.336C228.51 76.336 227.826 76.336 226.62 77.056C224.946 78.046 223.578 80.368 223.578 82.42C223.578 85.426 226.746 86.128 228.366 86.488C228.636 86.542 229.392 86.704 229.392 87.478C229.392 87.946 228.942 87.982 228.708 87.982C226.854 87.982 222.696 86.614 222.696 82.654C222.696 81.88 222.84 80.332 224.172 78.622C224.676 77.974 225.108 77.596 226.656 76.372C224.748 76.624 220.896 77.956 220.284 78.298C219.51 78.748 219.42 78.784 219.132 78.784C218.682 78.784 217.818 78.244 217.818 77.2C217.818 76.732 217.944 76.498 218.07 76.282C218.412 76.822 218.682 77.236 219.474 77.236C219.834 77.236 220.302 77.146 222.12 76.714C224.262 76.192 227.718 75.418 229.86 74.896C230.04 74.86 230.292 74.806 230.436 74.806C230.706 74.806 231.876 75.148 231.876 75.76ZM250.65 77.47C250.65 77.866 250.272 77.956 250.074 77.956C249.48 77.956 248.526 77.74 247.932 77.686C247.266 77.632 246.69 77.614 246.24 77.614C245.484 77.614 244.638 77.668 244.08 77.704C244.062 78.262 244.062 78.676 244.062 79.144C244.062 79.612 244.08 79.936 244.098 80.26C244.368 80.746 244.872 81.61 244.872 83.104C244.872 85.822 243.126 88.36 239.814 89.53L239.742 89.404C241.758 88.144 243.144 86.2 243.396 84.274C243.018 84.58 242.658 84.868 242.208 84.868C241.308 84.868 240.174 83.68 240.174 82.132C240.174 80.818 241.038 79.522 242.28 79.522C242.676 79.522 243 79.63 243.324 79.738C243.324 79.648 243.288 78.442 243.288 77.794C242.19 77.92 239.184 78.316 237.42 79.27C236.898 79.54 236.844 79.576 236.682 79.576C236.07 79.576 235.206 78.46 235.206 77.722C235.206 77.524 235.26 77.38 235.35 77.218C235.71 77.704 236.088 78.064 236.664 78.064C236.862 78.064 238.284 77.812 239.094 77.686C240.786 77.398 242.118 77.2 243.27 77.092C243.144 74.212 243.144 74.158 241.65 73.6C242.172 73.186 242.604 73.186 242.694 73.186C243.162 73.186 244.512 73.672 244.512 74.248C244.512 74.302 244.386 74.824 244.35 74.95C244.278 75.274 244.188 75.958 244.116 77.002C244.53 76.966 249.156 76.552 249.174 76.552C249.786 76.552 250.65 76.966 250.65 77.47ZM243.342 82.114C243.342 81.682 243.27 80.314 242.01 80.314C241.506 80.314 240.804 80.926 240.804 81.952C240.804 82.978 241.596 83.806 242.262 83.806C242.856 83.806 243.342 83.158 243.342 82.114ZM258.372 86.164C258.372 87.622 257.238 88.828 255.762 88.828C254.304 88.828 253.17 87.622 253.17 86.164C253.17 84.688 254.34 83.518 255.762 83.518C257.202 83.518 258.372 84.688 258.372 86.164ZM257.85 86.182C257.85 84.994 256.914 84.04 255.762 84.04C254.61 84.04 253.692 85.012 253.692 86.164C253.692 87.316 254.592 88.306 255.762 88.306C256.932 88.306 257.85 87.334 257.85 86.182Z" fill="#523C3C"/>
</g>
<defs>
<clipPath id="clip0_933_2309">
<rect width="324" height="18" fill="white"/>
</clipPath>
</defs>
</svg>
