<svg width="244" height="116" viewBox="0 0 244 116" fill="none" xmlns="http://www.w3.org/2000/svg">
<path d="M38.25 15.45C38.25 15.9 37.85 16 37.5 16H22.3C22.15 16.25 22 16.5 21.8 16.85C25.15 17.05 34.8 18.6 34.8 22.8C34.8 23.9 33.85 24.65 33 24.65C31.9 24.65 31.65 24.3 30.15 22.8C29.85 22.5 25.7 18.65 21.5 17.4C17.45 23.3 9 24.15 7.2 24.35L7.15 24.1C12.7 22.35 16.75 19.5 18.8 16H15.5C14.25 16 11.85 16 9.6 16.45L8.6 14.45C11.7 14.7 14.8 14.8 16.3 14.8H19.4C19.9 13.55 20.25 12.4 20.25 11.1C20.25 10.4 20.15 10 20 9.5L24.6 10.5C24.9 10.55 25.3 10.75 25.3 11.1C25.3 11.45 25 11.85 23.6 12.55C23.35 13.55 23.2 14.05 22.85 14.8H31.95L33.4 12.7C33.6 12.45 33.85 12.05 34.1 12.05C34.4 12.05 34.7 12.25 35.05 12.55L37.75 14.65C38.15 14.95 38.25 15.2 38.25 15.45ZM45.35 26.9C45.35 27.4 44.95 27.45 44.6 27.45H35.4C35.4 29.6 35.6 39 35.6 40.9C35.6 42.8 35.6 46.35 29.95 47.15C29.3 45 28 43.2 25.9 42.45L25.95 42.1C27.15 42.2 28.55 42.3 29.95 42.3C31.25 42.3 31.7 42.25 31.9 41.95C32.1 41.7 32.1 40.2 32.1 39.25C32.1 37.75 32.05 31.7 32 27.45H7.6C6.7 27.45 4.1 27.45 1.7 27.9L0.7 25.9C3.8 26.15 6.9 26.25 8.4 26.25H38.85L40.4 23.95C40.55 23.7 40.85 23.3 41.15 23.3C41.45 23.3 41.8 23.65 42.05 23.85L44.85 26.15C45.1 26.35 45.35 26.6 45.35 26.9ZM25.25 32.65C25.25 33 24.95 33.35 24.05 34.25C24.05 35.1 24.2 39.15 24.2 40.05C24.2 41.4 23.4 42.45 22.05 42.45C20.45 42.45 20.6 41.3 20.7 40.55H12V42C12 43.05 12 44.7 9.85 44.7C9.3 44.7 8.4 44.55 8.4 43.45C8.4 43.05 8.65 36.5 8.65 35.2C8.65 32.9 8.5 30.55 8.35 29.65L12.55 31.65H20.2L21.45 30.45C21.6 30.3 21.9 30.15 22.15 30.15C22.45 30.15 22.7 30.25 22.9 30.45L24.7 31.9C24.95 32.1 25.25 32.35 25.25 32.65ZM20.7 39.35V32.85H12V39.35H20.7ZM44.95 10.2C44.95 11 44.25 11.2 41.65 11.2C41.1 11.4 38.4 12.65 37.8 12.95L37.55 12.7C37.85 12.05 38.65 10 39.1 8.55H8.75C8.55 10.6 7.35 15.85 3.55 15.85C2.55 15.85 1.5 15.1 1.5 13.95C1.5 12.45 2.6 11.7 4.4 10.45C7.35 8.45 7.95 6.25 8.25 4.85H8.65C8.75 5.65 8.8 6.35 8.8 7.35H21.2C21.15 4.9 21.15 4.15 20.15 1.35L25.55 2.8C25.95 2.9 26.2 3.2 26.2 3.45C26.2 3.8 26.1 4.05 24.65 4.9C24.6 5.8 24.6 6.05 24.65 7.35H38.65L39.85 6.2C40.15 5.95 40.5 5.7 40.75 5.7C41.05 5.7 41.45 5.9 41.7 6.2L44.65 9.4C44.75 9.55 44.95 9.85 44.95 10.2ZM83.6 22.5C83.6 31.7 81.5 37.65 75.9 42.75C74.25 44.25 71.1 46.65 68.8 47.15L68.7 46.9C77.35 40.65 79.9 31 79.9 22.05C79.9 18.75 79.7 9.65 75.95 9.65C73.95 9.65 72.55 11.7 72.1 12.35C70.1 15.25 66.8 22.9 66.8 28.9C66.8 29.45 67.15 32 67.15 32.5C67.15 33.05 66.95 33.9 65.95 33.9C63 33.9 62.1 28.05 62.1 23.55C62.1 19.75 63.15 13.15 63.85 9.1C63.9 8.85 64.05 7.9 64.05 7.2C64.05 4.5 62.2 3.35 61.15 2.65C61.6 2.55 62.45 2.3 63.4 2.3C65.7 2.3 67.8 4.15 67.8 5.9C67.8 6.7 67.5 7.35 67.2 8.1C65.65 11.7 64.4 16.75 64.4 21.5C64.4 22.25 64.4 25.1 64.9 25.1C65.2 25.1 65.3 24.85 65.35 24.6C66.5 20.5 70.8 7.7 76.7 7.7C82.95 7.7 83.6 17.5 83.6 22.5ZM112.1 31.45L111.95 31.25C118.4 24.05 121.05 19.05 122.75 14.8H120.05C119.15 14.8 116.6 14.8 114.15 15.25L113.2 13.3C116.3 13.55 119.35 13.6 120.85 13.6H123.25C124.2 10.9 124.55 9.45 124.75 8.65C122.05 9.1 119.05 9.4 114.3 9.3L114.4 9C117.8 8.4 132.8 4.75 136.3 0.949999L139.35 3.85C139.8 4.3 140 4.45 140 4.9C140 5.55 139.45 5.6 139.2 5.6C139 5.6 138.3 5.55 137.4 5.3C135 6.2 132.35 7.1 128.75 7.9C127.9 11.05 127.35 12.45 126.85 13.6H138L139.95 11.35C140.25 11 140.45 10.75 140.7 10.75C141.05 10.75 141.2 10.9 141.65 11.25L144.4 13.5C144.65 13.7 144.9 13.9 144.9 14.3C144.9 14.75 144.45 14.8 144.15 14.8H130.7C134.25 21.2 139.45 24.95 146.6 26.3V26.5C144.55 27.1 142.65 28.65 141.55 30C135.8 26.55 131.45 19.55 129.9 14.8H126.35C121.65 25.6 114.8 29.85 112.1 31.45ZM104 3.3V3.05C107.75 3.55 111.7 5.6 111.7 8.7C111.7 9.65 111.25 10.7 109.85 10.7C108.3 10.7 107.7 9.35 107.3 8.45C106.2 6.05 104.85 4.2 104 3.3ZM100 16.6L100.05 16.35C103.5 16.4 107.8 18.6 107.8 21.2C107.8 21.6 107.65 23.3 105.95 23.3C104.85 23.3 104.6 22.85 103.45 20.9C102.4 19.2 101.35 17.75 100 16.6ZM122.8 24.05L127.6 25.4C128.15 25.55 128.35 25.8 128.35 26.1C128.35 26.6 128.2 26.7 126.85 27.65C126.95 30.6 127 37.9 127 40.8C127 44.15 125.8 45.8 121.9 46.7C121.5 44.7 120.65 43.6 118.1 41.8V41.55C118.85 41.75 121.35 41.85 121.9 41.85C122.85 41.85 123.35 41.75 123.5 41.1C123.65 40.6 123.65 37.6 123.65 36.8C123.65 35.05 123.6 27.2 123.35 25.95C123.2 25.1 123 24.55 122.8 24.05ZM117.2 31.3H117.4C117.7 32.05 118.05 33 118.05 35.1C118.05 39.05 116.55 41.8 114.3 41.8C113.6 41.8 112.55 41.4 112.55 40.1C112.55 39 112.95 38.5 114.45 36.75C115.05 36 116.45 34.1 117.2 31.3ZM129.55 32.15L129.75 32C132.05 33.45 135.6 37.1 135.6 40.25C135.6 42.15 134.4 42.95 133.3 42.95C131.4 42.95 131.25 41.1 131.15 39.75C130.95 37.1 130.75 35.05 129.55 32.15ZM136.85 32.75L137.05 32.6C139.25 33.85 144.55 37.05 144.55 41.25C144.55 42.4 143.9 43.75 142.45 43.75C140.65 43.75 140.25 41.6 139.95 40.1C139.5 37.8 138.25 34.7 136.85 32.75ZM112.7 16.2H113C112.25 20.45 111.2 23.55 108.3 32.75C107.85 34.1 107.75 34.75 107.75 35.45C107.75 36.15 107.85 37.05 108.6 39.85C109.3 42.45 109.4 42.75 109.4 43.65C109.4 46.25 107.7 46.55 107.1 46.55C105.5 46.55 104.85 44.95 104.85 43.7C104.85 43.15 105 40.8 105 40.3C105 37.05 105 34.65 102 33.15V32.75C103.05 32.7 104.5 32.6 105.45 31.3C107.05 29.1 112.5 16.65 112.7 16.2ZM193 28.4C193 30.15 192.05 31.65 191.25 31.65C190.65 31.65 190.45 31.45 188.5 29.6C187.15 28.35 184.45 27.85 183.2 27.6V27.3C183.9 27.2 187.3 26.9 187.65 26.8C188.3 26.65 188.75 26.25 188.75 25.5C188.75 23.95 186.15 16.6 179.95 13.5C180.3 13.45 180.4 13.4 180.8 13.4C186.4 13.4 193 22.6 193 28.4ZM172.5 20.95C171.8 22.45 166.6 34.2 166.5 34.75C166.45 35 166.4 35.15 166.4 35.4C166.4 35.8 166.8 37.7 166.8 38.1C166.8 39.4 166 39.8 165.25 39.8C163.5 39.8 156.4 37.3 155.55 23.05C155.25 18.1 155.05 14.95 154.75 13.85C154.3 12.05 153.5 10.7 153 9.75C155.55 9.9 159.3 12.1 159.3 15.35C159.3 15.7 159.3 16 159.1 17C158.8 18.85 158.45 21.3 158.45 23.95C158.45 30.1 161.45 33.75 162.8 33.75C163.35 33.75 163.85 33.1 164 32.85C166.25 29.5 169.95 24.2 172.1 20.8L172.5 20.95ZM37.3 110.35C37.3 111.5 36.05 111.9 35.4 112.1C34 112.55 28.55 112.9 25.5 112.9C23.8 112.9 15.65 112.95 12 110.4C10.05 109.05 8.85 106.8 8.85 104.7C8.85 101.6 10.85 96.75 18.45 92C17.85 91.1 16.5 89.1 16.45 86.2C16.3 78.4 16.25 77.55 16 76.5C15.7 75.25 14.85 74.3 14.15 73.95C12.75 73.2 12.55 73.15 12.2 72.9C12.8 72.65 13.8 72.2 15.05 72.2C17.25 72.2 20.8 74.2 20.8 75.7C20.8 75.95 20.6 76.55 20.5 76.8C20.1 78 19.45 79.8 19.45 83.7C19.45 86.15 19.55 88.6 20.55 90.8C23.45 89.15 26.5 87.8 29.7 86.65C30.6 86.3 31.15 86 31.15 85.3C31.15 84.95 31.05 84.55 30.75 83.7C31.55 83.9 33.1 84.2 34.05 85.3C34.85 86.2 35.4 87.45 35.4 88C35.4 89.4 35.05 89.4 32.3 89.85C25.2 90.95 10.55 97.25 10.55 104.25C10.55 109.6 18 109.6 21.25 109.6C25.15 109.6 27.1 109.3 32 108.45C32.7 108.35 33.3 108.25 33.9 108.25C35.25 108.25 37.3 108.75 37.3 110.35ZM87.05 105.45C87.05 113.85 78.7 115.5 75.25 115.5C72.1 115.5 68.6 114.45 66.55 111.95C65.1 110.15 64.85 107.3 64.85 105.7C64.85 104.3 64.95 103.55 65.45 100.6C63.1 99.6 59.1 97.85 59.1 94.75C59.1 92.6 60 91.85 64.45 88C65 87.55 65.05 87.3 65.05 87.05C65.05 86.7 64.9 86.5 64.5 86.3C60.35 84.05 58.9 83.2 58.85 80.05C61.9 83.1 64.85 83.8 68.5 84.65C69 82.25 69.7 78.25 69.7 76.65C69.7 74.15 68 73.15 66.45 72.35C66.9 72 67.45 71.65 68.6 71.65C71 71.65 74.3 73.9 74.3 75.7C74.3 76.35 74.1 76.75 73.55 78.1C72.3 81 71.95 81.8 71 85.35C72.25 86 72.85 86.95 72.85 87.65C72.85 89 71.5 88.95 70.1 88.9C69.45 91.5 69.35 91.95 68.05 98.3C68.9 98.35 72.5 98.5 73.2 98.75C74.05 99.1 75.4 100.25 75.4 101.2C75.4 102.15 74.15 102.3 72.65 102.3C70.3 102.3 68.3 101.6 67.55 101.35C67.45 102.1 67.35 103.15 67.35 104.7C67.35 107.65 67.85 109.95 70.1 111.45C71.85 112.6 73.75 112.85 75 112.85C79.8 112.85 83.2 109.85 83.2 105.35C83.2 101 79.6 94.4 74.9 91.2L75.1 90.9C82.65 94.65 87.05 99.25 87.05 105.45ZM67.65 88.8C63.9 88.9 61.05 92.2 61.05 94.25C61.05 96.4 64.3 97.45 65.9 97.9C66.25 96.05 66.8 93 67.65 88.8ZM140.05 81.4C140.05 82.55 139 82.85 137.2 83.15C132.35 84 129.2 85.65 127.55 86.85L127.25 86.55C128 85.85 131.65 82.5 131.8 82.35C131.95 82.2 131.95 82.1 131.95 81.95C131.95 81.4 130.4 81.4 130.1 81.4C128.1 81.4 124.8 82.2 121 83.65C123.7 80.05 128.75 78.75 133.4 78.75C136.5 78.75 140.05 79.65 140.05 81.4ZM142.5 107.75C142.5 109.35 140.75 109.6 137.6 109.6C136.4 109.6 129.7 109.55 125.35 108.2C122.35 107.25 120.3 104.35 120.3 101.4C120.3 100.25 120.55 99.8 120.8 99.3C121.95 103.1 122.85 106 132.3 106C133.3 106 138.15 105.6 138.65 105.6C140.4 105.6 142.5 106.35 142.5 107.75ZM114.95 93.2C114.65 94.6 113.95 97.5 113.55 99.1C112.95 101.6 111.8 106.4 111.8 108.65C111.8 109.2 112.05 111.6 112.05 112.1C112.05 112.95 111.95 113.95 110.75 113.95C108.7 113.95 105.45 109.35 105.45 99.2C105.45 95.6 106.55 88.85 107.4 83.7C107.55 82.75 107.7 81.45 107.7 80.35C107.7 78.6 107.45 77.3 106 75.5C106.25 75.4 106.45 75.3 106.9 75.3C108.7 75.3 111.95 78.1 111.95 80.05C111.95 80.5 111.85 80.95 111.3 82.4C109.35 87.4 107.8 92.65 107.8 98.1C107.8 101.55 108.65 105.4 109.45 105.4C109.75 105.4 110 104.8 110.1 104.45C110.65 102.75 112.75 96.95 114.55 93.1L114.95 93.2ZM195.05 105.4C195.05 105.9 194.55 105.9 194.3 105.9H171.6C171.65 106.9 171.7 108.75 169.5 108.75C168.3 108.75 168 108.05 168 107.5C168 107.35 168.05 107.3 168.05 107.1C168.2 105.3 168.2 97.05 168.2 94.55C168.2 92.95 168.3 85.2 168.3 83.45C166.35 86.4 164.3 88.7 161.85 90.3L161.65 90.15C166.35 83.75 170.3 73.2 170.05 70.65L174.7 73.1C175.05 73.3 175.2 73.55 175.2 73.8C175.2 74.45 175.05 74.5 173.4 74.9C172.55 76.45 171.8 77.85 170.4 80.15L171.9 80.95H178.5C179.5 79.15 180.75 76 181.3 73.25C181.5 72.15 181.45 71.15 181.4 70.75L186.3 73.5C186.55 73.65 186.8 73.9 186.8 74.15C186.8 74.75 186.4 74.85 184.8 75.25C182.45 77.9 181.35 79.2 179.45 80.95H187.35L189 79.1C189.35 78.7 189.55 78.5 189.8 78.5C190.05 78.5 190.25 78.65 190.7 79L193.05 80.85C193.45 81.15 193.55 81.35 193.55 81.6C193.55 82.1 193.05 82.15 192.8 82.15H181.65V88.7H185.05L186.9 86.6C187.25 86.2 187.4 86 187.7 86C187.95 86 188.25 86.15 188.6 86.5L190.85 88.6C191.1 88.85 191.35 89.05 191.35 89.35C191.35 89.85 190.85 89.9 190.6 89.9H181.65V96.45H185.5L186.8 94.7C187.15 94.25 187.35 94.05 187.6 94.05C187.9 94.05 188.15 94.25 188.6 94.55L191.15 96.35C191.5 96.6 191.65 96.9 191.65 97.1C191.65 97.6 191.15 97.65 190.85 97.65H181.65V104.7H188L190.1 102.4C190.5 101.95 190.65 101.8 190.9 101.8C191.15 101.8 191.35 101.95 191.85 102.35L194.55 104.65C194.95 104.95 195.05 105.15 195.05 105.4ZM178.2 96.45V89.9H171.6V96.45H178.2ZM178.2 88.7V82.15H171.6V88.7H178.2ZM178.2 104.7V97.65H171.6V104.7H178.2ZM163.25 79.7C163.25 81.25 162.2 82 161.3 82C160.15 82 160 81.65 158.65 78.85C157.05 75.6 156.2 74.45 154.9 73.15L155.05 72.95C157.1 73.4 163.25 75.75 163.25 79.7ZM196.4 110.4C194.5 111.9 193.75 113.1 193.1 115.35C191.6 115.45 190.45 115.45 189.25 115.45C185.1 115.45 175.35 115.4 171.65 114.75C164.05 113.4 162.05 109.45 161.15 107.75C160.3 108.7 155.85 113.55 155.65 113.8C155.15 115.65 155.1 115.9 154.65 115.9C154.35 115.9 154.2 115.85 153.95 115.5L150.75 111.15C154.25 111.25 158.05 109 158.5 108.75V94H157.35C156.45 94 153.9 94 151.5 94.45L150.5 92.5C154.3 92.8 157.55 92.8 157.85 92.8L159.5 91.15C159.9 90.75 159.95 90.75 160.15 90.75C160.3 90.75 160.4 90.85 160.6 91L163.15 92.95C163.45 93.15 163.5 93.3 163.5 93.5C163.5 93.7 163.45 94 163.2 94.2C162.6 94.7 162 95.1 161.8 95.3C161.75 96.55 161.8 105.4 161.9 106.05C162.9 111.95 171.95 111.95 176.7 111.95C183.3 111.95 189.85 111.4 196.3 110.15L196.4 110.4ZM243.95 94.95C243.95 96.85 242.9 97.05 242.6 97.05C242.3 97.05 241.55 96.65 240.75 96.2C239.9 95.75 239 95.7 235.7 95.65L235.65 95.45C239 93.65 239.05 93.25 239.05 92.65C239.05 91.65 237.3 88.95 235.15 88.95C233.25 88.95 233.2 91.25 233.2 92.55C233.2 97.1 235.05 102.5 235.65 104.05C236.65 106.5 236.7 106.8 236.7 107.35C236.7 114 222.75 114 221.75 114C218.65 114 212.95 113.6 211 111.2C209.9 109.9 209.85 108.25 209.85 107.8C209.85 105.85 210.5 103.4 210.8 102.35C207.05 101.9 205.35 97.55 205.35 95.4C205.35 91.8 208.75 88.7 212.2 88.7C212.55 88.7 212.75 88.7 213.2 88.75L213.65 85.3C211.8 85.6 210.15 85.7 209.35 85.7C205.75 85.7 204 83.85 203.9 81.45C205.6 82.8 207.15 83.15 209.1 83.15C211.05 83.15 213.05 82.8 213.95 82.65C214.55 78.05 214.65 77.45 214.65 76.8C214.65 75.4 214.2 74.9 211.15 74C211.5 73.6 212.3 72.65 213.7 72.65C215.5 72.65 219.15 73.8 219.15 75.55C219.15 76.05 218.85 76.75 218.55 77.25C217.9 78.35 217.7 78.7 216.9 82C218.45 81.6 220.1 81.15 222.4 80.15C223.4 79.7 223.75 79.7 224.2 79.7C225.3 79.7 226.7 80.4 226.7 81.45C226.7 82.4 225.65 82.7 225.25 82.85C222.7 83.65 220.4 84.1 216.3 84.85C215.5 89 215.4 89.45 215.25 90.2C215.75 90.8 216.65 91.85 216.65 93.5C216.65 95.15 215.6 97.75 214.65 99.75C212 105.35 211.7 106 211.7 107.25C211.7 110.8 217.9 110.8 219.9 110.8C219.95 110.8 228.8 110.75 231.3 108.25C232.35 107.2 232.5 106.05 232.5 104.7C232.5 104 231.9 96.1 231.9 94.45C231.9 89.75 232.9 87.65 235.5 87.65C239.15 87.65 243.95 90.8 243.95 94.95ZM212.7 92.85C212.7 92 212.25 90.6 210.9 90.85C210.15 90.95 207.4 92.4 207.4 94.8C207.4 96.6 208.9 99.2 210.4 99.2C211.2 99.2 211.65 98.8 212 97.7C212.65 95.55 212.7 93.15 212.7 92.85Z" fill="#523C3C"/>
</svg>
