<svg width="513" height="24" viewBox="0 0 513 24" fill="none" xmlns="http://www.w3.org/2000/svg">
<g clip-path="url(#clip0_923_2293)">
<path opacity="0.5" d="M17.088 -36.84C17.088 -32.424 16.08 -29.568 13.392 -27.12C12.6 -26.4 11.088 -25.248 9.984 -25.008L9.936 -25.128C14.088 -28.128 15.312 -32.76 15.312 -37.056C15.312 -38.64 15.216 -43.008 13.416 -43.008C12.456 -43.008 11.784 -42.024 11.568 -41.712C10.608 -40.32 9.024 -36.648 9.024 -33.768C9.024 -33.504 9.192 -32.28 9.192 -32.04C9.192 -31.776 9.096 -31.368 8.616 -31.368C7.2 -31.368 6.768 -34.176 6.768 -36.336C6.768 -38.16 7.272 -41.328 7.608 -43.272C7.632 -43.392 7.704 -43.848 7.704 -44.184C7.704 -45.48 6.816 -46.032 6.312 -46.368C6.528 -46.416 6.936 -46.536 7.392 -46.536C8.496 -46.536 9.504 -45.648 9.504 -44.808C9.504 -44.424 9.36 -44.112 9.216 -43.752C8.472 -42.024 7.872 -39.6 7.872 -37.32C7.872 -36.96 7.872 -35.592 8.112 -35.592C8.256 -35.592 8.304 -35.712 8.328 -35.832C8.88 -37.8 10.944 -43.944 13.776 -43.944C16.776 -43.944 17.088 -39.24 17.088 -36.84ZM44.04 -32.568C44.04 -28.608 39.144 -26.256 33.432 -26.592V-26.736C35.424 -27.048 37.32 -27.744 39.072 -28.704C40.776 -29.616 42.192 -30.768 42.192 -32.808C42.192 -33.456 42.048 -35.88 39.168 -35.88C36.312 -35.88 33.24 -33.96 31.32 -31.056C31.2 -30.864 31.032 -30.624 30.72 -30.624C29.832 -30.624 29.448 -32.04 29.448 -32.544C29.448 -32.928 29.496 -33.072 29.76 -34.272C30 -35.376 30.192 -38.28 30.192 -39.312C30.192 -41.496 30.192 -42.744 34.344 -43.392C34.488 -43.416 34.56 -43.44 34.56 -43.56C34.56 -43.68 34.488 -43.728 33.912 -44.112C33.24 -44.568 32.4 -45.552 32.424 -46.488C33.456 -45.648 33.648 -45.576 35.88 -44.64C36.408 -44.424 37.752 -43.872 37.752 -42.432C37.752 -41.904 37.56 -41.688 37.248 -41.688C36.912 -41.688 36.696 -41.808 36.144 -42.072C35.712 -42.264 34.704 -42.48 33.648 -42.48C31.824 -42.48 31.056 -41.904 31.056 -41.208C31.056 -40.968 31.104 -40.824 31.584 -39.624C31.704 -39.288 31.752 -38.952 31.752 -38.784C31.752 -38.544 31.464 -37.584 31.416 -37.368C31.296 -36.864 30.912 -35.208 30.912 -34.104C30.912 -33.96 30.936 -33.552 31.224 -33.552C31.368 -33.552 32.856 -34.632 33.168 -34.824C35.568 -36.288 37.944 -36.744 39.36 -36.744C42.648 -36.744 44.04 -34.44 44.04 -32.568ZM64.224 -26.64C64.224 -26.088 63.912 -25.248 63.312 -25.248C62.928 -25.248 62.856 -25.344 61.728 -27.168C60.408 -29.304 59.856 -29.856 55.296 -34.368C55.056 -34.608 54.432 -35.304 54.432 -36.072C54.432 -36.456 54.504 -36.864 55.32 -37.728C57.744 -40.296 61.392 -44.112 61.392 -45.048C61.392 -45.624 60.864 -46.152 60.24 -46.776C62.352 -46.992 63.48 -45.24 63.48 -44.328C63.48 -43.848 63.24 -43.656 62.52 -43.08C61.752 -42.48 58.176 -39.192 56.184 -37.008C55.776 -36.576 55.776 -36.264 55.776 -36.12C55.776 -35.52 55.944 -35.352 57.888 -33.576C63.264 -28.728 64.224 -27.888 64.224 -26.64ZM91.608 -32.496C91.608 -29.736 89.208 -26.808 84.792 -26.808C82.488 -26.808 80.112 -27.744 80.112 -29.616C80.112 -31.272 81.768 -31.704 82.752 -31.704C84.552 -31.704 85.896 -30.456 86.52 -28.464C88.44 -28.8 89.784 -30.864 89.784 -32.688C89.784 -34.584 88.32 -36.264 85.872 -36.264C81.192 -36.264 78.096 -31.728 77.736 -31.176C77.136 -30.216 76.92 -29.856 76.416 -29.856C76.128 -29.856 75.6 -30.024 75.6 -30.864C75.6 -31.656 75.792 -31.848 77.232 -33.24C79.152 -35.136 85.056 -42.792 85.056 -43.704C85.056 -43.848 84.984 -43.944 84.792 -43.944C84.48 -43.944 82.656 -43.344 81.36 -42.648C81.312 -42.624 80.376 -42.12 80.304 -42.12C79.776 -42.12 78.36 -42.888 78.36 -44.376C78.36 -44.808 78.48 -45 78.624 -45.168C79.176 -44.256 79.608 -44.04 80.28 -44.04C81.432 -44.04 83.976 -44.76 84.696 -45C84.864 -45.048 85.656 -45.312 85.776 -45.312C86.688 -45.312 87.528 -44.16 87.528 -43.656C87.528 -43.272 87.528 -43.248 86.664 -42.6C86.04 -42.12 81.432 -36.84 80.472 -35.28C81.912 -36.096 83.736 -36.984 86.232 -36.984C90.096 -36.984 91.608 -34.68 91.608 -32.496ZM85.032 -28.08C84.528 -29.856 82.968 -30.744 82.176 -30.744C81.696 -30.744 81.024 -30.432 81.024 -29.736C81.024 -28.488 83.496 -27.936 84.192 -27.936C84.552 -27.936 84.744 -27.984 85.032 -28.08ZM117.696 -28.728C117.696 -28.392 117.504 -27.936 117 -27.936C116.568 -27.936 116.088 -28.272 115.56 -28.656C114.168 -29.664 113.832 -29.856 113.472 -30.048C113.184 -29.184 112.536 -27.312 109.608 -27.312C107.544 -27.312 105.768 -28.44 105.768 -29.928C105.768 -31.44 107.304 -32.304 109.704 -32.304C110.76 -32.304 111.528 -32.184 112.2 -32.088C112.176 -33.168 111.96 -37.92 111.936 -38.904C110.448 -38.736 110.424 -38.736 109.944 -38.736C108.912 -38.736 106.44 -39.048 105.792 -40.536C106.392 -40.32 107.472 -39.936 109.152 -39.936C110.28 -39.936 111.432 -40.104 111.888 -40.176C111.84 -41.688 111.768 -43.776 111.72 -44.016C111.624 -44.496 111.48 -44.76 110.088 -45.12C110.352 -45.336 110.88 -45.744 111.648 -45.744C112.464 -45.744 113.712 -45.072 113.712 -44.448C113.712 -44.376 113.448 -43.08 113.424 -42.984C113.304 -42.264 113.256 -41.256 113.232 -40.416C113.424 -40.464 113.76 -40.56 114.024 -40.632C114.192 -40.68 115.656 -41.112 116.208 -41.112C116.664 -41.112 117.48 -40.752 117.48 -40.296C117.48 -39.576 115.944 -39.384 113.232 -39.048C113.232 -38.88 113.28 -35.28 113.616 -31.632C116.352 -30.504 117.696 -29.88 117.696 -28.728ZM103.32 -36C103.296 -35.904 102.192 -30.528 102.168 -30.432C102.072 -29.808 102.048 -29.4 102.048 -29.136C102.048 -28.872 102.192 -27.768 102.192 -27.552C102.192 -26.856 101.784 -26.784 101.52 -26.784C99.816 -26.784 99.36 -31.056 99.36 -32.76C99.36 -35.352 99.936 -38.376 100.128 -39.432C100.464 -41.304 100.632 -42.192 100.632 -42.504C100.632 -43.608 100.08 -44.064 99.6 -44.448C99.792 -44.52 99.984 -44.592 100.32 -44.592C101.424 -44.592 102.672 -43.44 102.672 -42.552C102.672 -42.24 102.624 -42.144 102.288 -41.352C100.728 -37.608 100.584 -34.872 100.584 -33.72C100.584 -33.336 100.68 -30.936 101.016 -30.936C101.16 -30.936 101.28 -31.152 101.328 -31.344C101.352 -31.44 102.912 -35.592 103.08 -36.048L103.32 -36ZM112.032 -30.744C111.264 -31.08 110.136 -31.176 109.272 -31.176C107.4 -31.176 106.656 -30.48 106.656 -30.072C106.656 -29.448 107.544 -28.776 109.104 -28.776C109.512 -28.776 111.648 -28.776 112.032 -30.744ZM126.936 -27.456C126.936 -26.784 126.504 -26.064 125.76 -26.064C124.992 -26.064 124.8 -26.688 124.56 -27.48C124.416 -27.984 123.72 -30.24 121.416 -32.088L121.488 -32.304C123.168 -31.752 124.152 -31.368 125.304 -30.408C125.712 -30.048 126.936 -28.896 126.936 -27.456ZM153.72 -38.088C153.72 -37.488 153.072 -37.488 153.024 -37.488C152.64 -37.488 150.96 -37.584 150.6 -37.584C145.056 -37.584 141.936 -34.416 141.936 -31.896C141.936 -29.088 145.296 -28.32 147.528 -28.008C148.272 -27.912 148.8 -27.48 148.8 -26.736C148.8 -26.376 148.68 -25.992 147.768 -25.992C146.472 -25.992 140.88 -27.264 140.88 -31.344C140.88 -34.32 143.448 -36.096 145.584 -37.392C143.424 -37.32 139.368 -35.856 136.872 -34.416C136.728 -34.344 136.056 -33.96 135.552 -33.96C134.664 -33.96 134.352 -34.608 134.352 -35.016C134.352 -35.616 134.592 -35.712 135.984 -36.168C138.336 -36.96 140.616 -38.832 143.352 -41.352C144.024 -41.952 146.376 -44.208 146.376 -44.76C146.376 -44.928 146.232 -45 146.088 -45C145.272 -45 143.376 -44.04 142.536 -43.44C141.6 -42.792 141.504 -42.72 141.168 -42.72C140.424 -42.72 139.464 -43.752 139.464 -44.88C139.464 -45.36 139.608 -45.576 139.776 -45.816C140.304 -45.024 140.616 -44.76 141.168 -44.76C141.816 -44.76 146.04 -46.032 146.784 -46.032C147.648 -46.032 148.656 -44.904 148.656 -44.184C148.656 -43.776 148.536 -43.704 147.456 -43.032C146.712 -42.576 143.688 -40.152 143.04 -39.72C142.392 -39.264 139.008 -37.032 138.888 -36.912C138.864 -36.888 138.816 -36.84 138.816 -36.792C138.816 -36.744 138.864 -36.696 138.984 -36.696C139.08 -36.696 139.56 -36.816 139.704 -36.864C142.464 -37.632 144.264 -37.992 150.48 -39.408C151.056 -39.528 151.344 -39.576 151.536 -39.576C152.376 -39.576 153.72 -38.76 153.72 -38.088ZM178.224 -35.112C177.816 -33.504 176.232 -27.432 171.72 -27.432C169.032 -27.432 168.792 -29.448 168.48 -31.848C168.312 -33.288 168.12 -34.848 166.656 -34.848C163.656 -34.848 161.784 -30.504 161.112 -28.944C160.344 -27.192 160.272 -27 159.696 -27C159.048 -27 158.88 -28.008 158.88 -28.56C158.88 -28.872 158.88 -29.184 159.696 -30.288C161.208 -32.376 166.728 -42.504 166.728 -43.608C166.728 -44.16 166.368 -44.4 165.408 -45.024C165.624 -45.12 165.888 -45.264 166.344 -45.264C167.592 -45.264 168.912 -44.088 168.912 -43.104C168.912 -42.648 168.84 -42.552 168.072 -41.616C167.52 -40.92 163.992 -35.904 163.128 -33.912C164.664 -35.088 165.744 -35.688 167.16 -35.688C169.488 -35.688 169.728 -34.056 170.016 -32.304C170.4 -30 170.88 -29.232 172.008 -29.232C174.936 -29.232 177.168 -33.48 177.984 -35.16L178.224 -35.112ZM194.88 -42.504C194.88 -42.264 194.688 -42.12 194.496 -42.024C194.112 -41.832 192.24 -41.304 189.528 -40.656C188.904 -39.408 186.288 -33.84 185.664 -32.76C185.112 -31.824 184.608 -30.936 184.128 -30.936C183.96 -30.936 183.456 -31.032 183.456 -31.848C183.456 -32.52 183.792 -32.952 184.032 -33.288C185.76 -35.568 187.296 -38.736 188.016 -40.296C187.488 -40.176 186.768 -39.984 185.856 -39.984C184.44 -39.984 183.24 -40.728 183.432 -42.168C184.008 -41.352 184.8 -41.208 185.76 -41.208C186.624 -41.208 187.608 -41.376 188.568 -41.592C189.12 -42.96 189.576 -44.136 189.576 -44.64C189.576 -44.904 189.432 -45.48 188.16 -45.816C188.52 -46.128 188.856 -46.296 189.336 -46.296C190.272 -46.296 191.736 -45.288 191.736 -44.664C191.736 -44.424 191.736 -44.424 191.136 -43.56C190.8 -43.08 190.608 -42.744 190.248 -42.048C190.728 -42.216 191.544 -42.504 192.048 -42.744C193.104 -43.224 193.224 -43.296 193.512 -43.296C193.824 -43.296 194.88 -42.96 194.88 -42.504ZM201.12 -36.744C201.12 -36.312 200.88 -36.048 200.496 -36.048C200.352 -36.048 200.088 -36.072 199.656 -36.312C198.84 -36.744 198.552 -36.912 197.616 -36.912C195.096 -36.912 194.736 -35.544 194.736 -34.416C194.736 -33.024 195 -31.68 195.144 -30.936C197.064 -30.528 199.704 -29.52 199.704 -27.96C199.704 -27.6 199.464 -27.168 199.032 -27.168C198.744 -27.168 197.784 -27.84 197.184 -28.272C196.224 -28.944 195.792 -29.112 195.312 -29.28C195.288 -28.776 195.24 -27.768 194.4 -27C193.416 -26.088 192.048 -25.992 191.496 -25.992C189.504 -25.992 187.776 -27.072 187.776 -28.56C187.776 -30.36 189.96 -31.224 192.288 -31.224C192.816 -31.224 193.176 -31.176 193.536 -31.152C193.464 -31.992 193.368 -33.12 193.368 -33.672C193.368 -36.312 195.912 -37.344 197.568 -37.656C197.76 -37.704 197.976 -37.752 197.976 -38.04C197.976 -38.352 197.112 -39.24 194.688 -39.864C195.048 -39.984 195.504 -40.104 196.224 -40.104C199.2 -40.104 201.12 -37.872 201.12 -36.744ZM193.632 -29.832C193.176 -29.952 192.792 -30.072 191.832 -30.072C190.92 -30.072 188.688 -29.88 188.688 -28.584C188.688 -27.576 190.224 -27.312 191.04 -27.312C191.88 -27.312 193.704 -27.528 193.632 -29.832ZM214.512 -45.912H207.552V-25.104H206.544V-46.944H214.512V-45.912ZM234.696 -33.12H234C234 -30.504 233.976 -28.008 234.024 -27.696C234.072 -27.384 234.624 -27.336 235.272 -27.336C236.616 -27.336 236.808 -27.432 237.168 -28.272C237.384 -28.8 237.744 -30 237.96 -31.056L238.128 -31.032C238.2 -30.312 238.416 -28.368 238.728 -28.08C238.8 -28.008 238.992 -27.84 239.136 -27.72C239.256 -27.624 239.304 -27.48 239.304 -27.384C239.304 -26.952 238.896 -26.424 238.392 -26.184C238.008 -25.992 237.48 -25.752 234.912 -25.752C232.392 -25.752 232.392 -25.944 232.392 -29.04C232.392 -29.688 232.416 -32.544 232.416 -33.12H230.064L231.576 -31.968C231.696 -31.872 231.768 -31.752 231.768 -31.632C231.768 -31.296 231.408 -31.248 230.736 -31.152C228.48 -28.08 226.2 -25.728 220.872 -25.08L220.824 -25.296C224.856 -26.328 228.72 -30.072 229.68 -33.12H229.224C229.272 -32.376 228.744 -32.088 228.192 -32.088C227.688 -32.088 227.568 -32.376 227.568 -32.64C227.568 -32.856 227.592 -33.288 227.592 -33.576C227.616 -34.776 227.664 -37.176 227.664 -41.232C227.664 -44.208 227.568 -45.312 227.352 -46.464L229.56 -45.504H234.528L235.08 -46.104C235.152 -46.176 235.344 -46.368 235.488 -46.368C235.584 -46.368 235.776 -46.248 235.872 -46.176L237.048 -45.264C237.144 -45.192 237.24 -45.048 237.24 -44.952C237.24 -44.736 237.144 -44.664 236.304 -44.064C236.28 -42.072 236.304 -39.168 236.352 -37.656C236.352 -37.272 236.544 -33.48 236.544 -33.288C236.544 -32.448 235.728 -32.208 235.344 -32.208C234.672 -32.208 234.696 -32.688 234.696 -33.12ZM234.696 -41.088H229.2V-37.824H234.696V-41.088ZM229.2 -33.696H234.696V-37.248H229.2V-33.696ZM234.696 -44.928H229.2V-41.664H234.696V-44.928ZM226.416 -44.424H222.888V-38.448H223.752L224.592 -39.408C224.736 -39.552 224.856 -39.696 224.976 -39.696C225.096 -39.696 225.216 -39.624 225.408 -39.456L226.512 -38.496C226.608 -38.424 226.752 -38.28 226.752 -38.136C226.752 -37.896 226.512 -37.872 226.392 -37.872H222.888V-32.376C223.656 -32.592 226.056 -33.312 226.656 -33.528L226.704 -33.336C225.816 -32.76 220.68 -30.144 218.808 -29.376C218.592 -28.776 218.52 -28.584 218.28 -28.584C218.112 -28.584 218.016 -28.752 217.944 -28.896L216.888 -31.152C217.968 -31.056 218.808 -31.2 221.232 -31.896V-37.872C219.552 -37.872 218.808 -37.8 218.112 -37.656L217.632 -38.616C218.376 -38.544 220.368 -38.472 221.232 -38.448V-44.424H220.656C220.08 -44.424 218.904 -44.4 217.824 -44.208L217.368 -45.168C218.52 -45.048 219.864 -45 221.04 -45H223.872L224.688 -45.816C224.832 -45.96 225 -46.128 225.096 -46.128C225.192 -46.128 225.36 -46.032 225.528 -45.888L226.536 -45.048C226.632 -44.976 226.776 -44.808 226.776 -44.688C226.776 -44.472 226.608 -44.424 226.416 -44.424ZM259.368 -45.384C259.368 -45.144 258.984 -44.904 258.6 -44.688C258.6 -42.648 258.624 -41.832 258.648 -40.992C258.672 -40.656 258.72 -39.144 258.72 -38.832C258.72 -38.04 257.832 -37.896 257.568 -37.896C256.944 -37.896 256.968 -38.376 257.016 -38.976H252.744C252.744 -38.496 252.768 -37.728 251.64 -37.728C250.992 -37.728 250.992 -38.112 250.992 -38.28C250.992 -38.4 251.04 -38.736 251.04 -38.808C251.088 -39.888 251.136 -42.216 251.136 -43.32C251.136 -45.336 251.064 -45.936 250.896 -46.824L252.864 -45.816H256.92L257.472 -46.416C257.592 -46.56 257.664 -46.632 257.76 -46.632C257.856 -46.632 257.952 -46.56 258.096 -46.464L259.104 -45.72C259.224 -45.648 259.368 -45.528 259.368 -45.384ZM257.04 -42.816V-45.24H252.72V-42.816H257.04ZM257.04 -39.552V-42.24H252.72V-39.552H257.04ZM263.088 -36.696C263.088 -36.456 262.872 -36.432 262.728 -36.432H252.936C252.384 -35.304 251.928 -34.656 251.568 -34.2H259.224L259.824 -34.992C259.92 -35.136 260.04 -35.256 260.136 -35.256C260.256 -35.256 260.424 -35.112 260.544 -35.016L261.744 -34.128C261.864 -34.056 261.984 -33.936 261.984 -33.792C261.984 -33.432 261.432 -33.216 261.096 -33.072C260.592 -25.536 258.576 -25.104 256.8 -25.032C256.728 -25.728 256.44 -26.448 255.168 -27.48L255.192 -27.672C256.56 -27.384 257.064 -27.336 257.52 -27.336C258.072 -27.336 258.432 -27.504 258.912 -29.376C259.272 -30.744 259.416 -32.184 259.464 -33.624H257.904C256.416 -29.424 253.272 -26.256 250.152 -25.248L250.056 -25.368C252.792 -27.384 255.096 -30.84 256.032 -33.624H254.592C252.672 -30.048 249.576 -26.88 245.88 -25.752L245.808 -25.896C248.952 -27.648 251.904 -32.064 252.672 -33.624H251.112C249.888 -32.064 248.352 -30.768 246.6 -29.88L246.48 -30C249.12 -32.496 250.44 -35.184 251.016 -36.432H250.44C249.84 -36.432 248.688 -36.408 247.608 -36.216L247.128 -37.176C248.64 -37.056 250.128 -37.008 250.824 -37.008H259.68L260.544 -38.208C260.64 -38.328 260.784 -38.496 260.904 -38.496C261.024 -38.496 261.12 -38.424 261.336 -38.256L262.848 -37.056C262.968 -36.96 263.088 -36.84 263.088 -36.696ZM249.504 -40.488C249.504 -40.248 249.288 -40.224 249.144 -40.224H246.024C246 -37.992 246.024 -35.616 246.024 -33.312C248.136 -34.176 248.592 -34.392 249.12 -34.656L249.216 -34.488C248.04 -33.408 244.992 -31.464 242.736 -30.048C242.592 -29.448 242.472 -29.256 242.232 -29.256C242.04 -29.256 241.872 -29.544 241.8 -29.664L240.672 -31.824C242.04 -31.824 242.28 -31.92 244.392 -32.664C244.392 -34.872 244.368 -38.136 244.368 -40.224C243.528 -40.224 242.496 -40.152 241.656 -40.008L241.2 -40.968C242.088 -40.896 242.832 -40.848 244.368 -40.8C244.344 -41.904 244.296 -45.024 244.104 -45.912C244.008 -46.296 243.912 -46.608 243.768 -46.968L246.336 -46.2C246.624 -46.104 246.864 -46.056 246.864 -45.792C246.864 -45.48 246.408 -45.288 246.048 -45.144C246.024 -44.472 246.024 -41.424 246.024 -40.8H246.744L247.416 -41.784C247.488 -41.904 247.632 -42.096 247.752 -42.096C247.896 -42.096 248.064 -41.976 248.208 -41.832L249.264 -40.848C249.456 -40.68 249.504 -40.584 249.504 -40.488ZM286.536 -38.328C286.536 -37.656 286.032 -37.56 285.888 -37.56C285.528 -37.56 285.456 -37.68 284.76 -38.736C284.184 -39.576 283.104 -40.464 282.312 -41.04C283.848 -40.896 286.536 -39.912 286.536 -38.328ZM283.728 -37.296C283.728 -36.888 283.584 -36.456 283.08 -36.456C282.672 -36.456 282.6 -36.552 282.024 -37.56C281.544 -38.4 280.92 -39.048 279.768 -40.2C281.376 -39.864 283.728 -38.808 283.728 -37.296ZM285.168 -43.32C285.168 -42.552 284.424 -42.552 283.752 -42.552C280.68 -42.552 279.768 -42.552 278.16 -41.592C275.928 -40.272 274.104 -37.176 274.104 -34.44C274.104 -30.432 278.328 -29.496 280.488 -29.016C280.848 -28.944 281.856 -28.728 281.856 -27.696C281.856 -27.072 281.256 -27.024 280.944 -27.024C278.472 -27.024 272.928 -28.848 272.928 -34.128C272.928 -35.16 273.12 -37.224 274.896 -39.504C275.568 -40.368 276.144 -40.872 278.208 -42.504C275.664 -42.168 270.528 -40.392 269.712 -39.936C268.68 -39.336 268.56 -39.288 268.176 -39.288C267.576 -39.288 266.424 -40.008 266.424 -41.4C266.424 -42.024 266.592 -42.336 266.76 -42.624C267.216 -41.904 267.576 -41.352 268.632 -41.352C269.112 -41.352 269.736 -41.472 272.16 -42.048C275.016 -42.744 279.624 -43.776 282.48 -44.472C282.72 -44.52 283.056 -44.592 283.248 -44.592C283.608 -44.592 285.168 -44.136 285.168 -43.32ZM303.768 -41.856C303.768 -41.712 303.6 -41.64 303.408 -41.64H299.016V-39.6H300.72L301.056 -40.056C301.176 -40.224 301.32 -40.344 301.44 -40.344C301.536 -40.344 301.752 -40.248 301.944 -40.104L302.784 -39.528C302.904 -39.456 303.048 -39.312 303.048 -39.192C303.048 -39 302.832 -38.784 302.304 -38.304C302.256 -37.704 302.328 -34.704 302.328 -34.032C302.328 -33.096 301.56 -33.048 301.32 -33.048C300.744 -33.048 300.792 -33.456 300.84 -33.792H299.016V-31.536H300.288L300.864 -32.376C300.984 -32.544 301.08 -32.664 301.248 -32.664C301.368 -32.664 301.512 -32.568 301.68 -32.424L302.64 -31.584C302.76 -31.464 302.88 -31.32 302.88 -31.176C302.88 -31.032 302.76 -30.96 302.52 -30.96H299.016V-29.112C300.048 -29.232 301.44 -29.448 302.592 -29.784L302.64 -29.616C301.104 -28.776 297.504 -27.72 295.32 -27.216C295.2 -26.952 295.032 -26.712 294.816 -26.712C294.672 -26.712 294.552 -26.856 294.48 -27.072L293.904 -28.92C294.192 -28.872 294.576 -28.824 295.008 -28.824C295.128 -28.824 296.28 -28.824 297.672 -28.968V-30.96H297.264C297.096 -30.96 295.56 -30.96 294.432 -30.744L293.976 -31.704C295.032 -31.608 295.968 -31.56 297.672 -31.536V-33.792H295.848C295.848 -33.456 295.824 -32.856 294.912 -32.856C294.336 -32.856 294.336 -33.24 294.336 -33.408C294.336 -33.48 294.36 -33.84 294.36 -33.936C294.432 -35.184 294.456 -37.128 294.456 -38.016C294.456 -38.784 294.456 -39.672 294.288 -40.32L295.944 -39.6H297.672V-41.64H297.12C296.544 -41.64 295.344 -41.64 294.288 -41.424L293.832 -42.384C294.432 -42.336 295.872 -42.216 297.672 -42.216V-43.992C295.92 -43.656 295.056 -43.704 294.528 -43.728V-43.872C300.672 -45.888 301.08 -46.344 301.608 -46.968L303.048 -45.624C303.168 -45.504 303.24 -45.408 303.24 -45.312C303.24 -45.192 303.144 -45.072 302.832 -45.072H302.208C302.112 -45.072 299.52 -44.4 299.016 -44.28V-42.216H301.008L301.728 -43.152C301.872 -43.344 301.992 -43.464 302.112 -43.464C302.256 -43.464 302.376 -43.344 302.544 -43.2L303.528 -42.264C303.672 -42.12 303.768 -41.976 303.768 -41.856ZM300.864 -37.032V-39.024H299.016V-37.032H300.864ZM300.864 -34.368V-36.456H299.016V-34.368H300.864ZM297.672 -37.032V-39.024H295.848V-37.032H297.672ZM297.672 -34.368V-36.456H295.848V-34.368H297.672ZM310.392 -40.824C310.392 -40.608 310.2 -40.464 309.792 -40.152C309.744 -38.88 309.624 -33.168 309.576 -32.016C309.336 -27.528 308.544 -25.776 305.88 -25.368C305.52 -26.448 304.68 -27.168 303.672 -27.696L303.696 -27.888C304.224 -27.792 304.944 -27.648 306 -27.648C307.272 -27.648 307.632 -28.512 307.92 -30.648C308.328 -33.552 308.256 -39.6 308.256 -40.704L306.528 -40.584C306.432 -35.904 306.264 -28.152 299.592 -25.464L299.52 -25.632C303.12 -28.248 304.752 -31.56 304.944 -40.488C303.696 -40.368 303.288 -40.272 302.904 -40.176L302.376 -41.088C303.504 -41.04 304.704 -41.088 304.92 -41.112C304.92 -41.688 304.872 -44.568 304.872 -44.784C304.872 -45.504 304.848 -45.648 304.536 -46.824L306.768 -46.248C306.912 -46.2 307.128 -46.104 307.128 -45.96C307.128 -45.816 306.984 -45.6 306.552 -45.288V-44.808C306.552 -44.592 306.528 -43.704 306.528 -41.16L307.92 -41.256L308.424 -41.856C308.568 -42.024 308.664 -42.12 308.784 -42.12C308.928 -42.12 309.048 -42.048 309.24 -41.904L310.128 -41.208C310.248 -41.112 310.392 -40.968 310.392 -40.824ZM295.44 -45.528C295.44 -45.384 295.344 -45.264 295.176 -45.192C295.032 -45.12 294.744 -45.024 294.552 -44.952C294.24 -44.28 293.88 -43.464 293.184 -42.168L293.568 -41.928C293.76 -41.808 293.808 -41.736 293.808 -41.616C293.808 -41.448 293.736 -41.304 293.016 -40.824C292.992 -38.304 292.968 -36.792 292.968 -35.4C292.968 -34.008 293.088 -27.912 293.088 -26.664C293.088 -26.232 293.016 -25.224 291.792 -25.224C291.336 -25.224 291.168 -25.416 291.168 -26.016C291.168 -26.496 291.312 -29.88 291.336 -30.48C291.432 -32.424 291.504 -34.56 291.504 -36.504V-39.432C290.832 -38.424 289.752 -36.888 288.6 -35.952L288.504 -36.024C290.472 -39.048 292.92 -45.12 293.136 -46.968L295.152 -45.912C295.32 -45.816 295.44 -45.696 295.44 -45.528ZM328.224 -26.64C328.224 -26.088 327.912 -25.248 327.312 -25.248C326.928 -25.248 326.856 -25.344 325.728 -27.168C324.408 -29.304 323.856 -29.856 319.296 -34.368C319.056 -34.608 318.432 -35.304 318.432 -36.072C318.432 -36.456 318.504 -36.864 319.32 -37.728C321.744 -40.296 325.392 -44.112 325.392 -45.048C325.392 -45.624 324.864 -46.152 324.24 -46.776C326.352 -46.992 327.48 -45.24 327.48 -44.328C327.48 -43.848 327.24 -43.656 326.52 -43.08C325.752 -42.48 322.176 -39.192 320.184 -37.008C319.776 -36.576 319.776 -36.264 319.776 -36.12C319.776 -35.52 319.944 -35.352 321.888 -33.576C327.264 -28.728 328.224 -27.888 328.224 -26.64ZM355.92 -29.136C355.92 -28.488 355.656 -28.008 355.08 -28.008C354.576 -28.008 354.312 -28.416 354.096 -28.776C352.176 -31.944 350.856 -33.528 348.72 -35.112C344.448 -29.736 340.368 -28.224 338.112 -27.768L338.088 -27.96C343.656 -30.408 349.512 -37.752 350.832 -42.216C349.92 -42.096 345.936 -41.352 344.64 -40.848C344.424 -40.752 343.536 -40.272 343.344 -40.272C342.984 -40.272 341.664 -41.448 341.664 -42.696C341.664 -43.176 341.76 -43.488 341.88 -43.728C342.792 -42.288 343.2 -42.264 343.68 -42.264C344.352 -42.264 349.56 -42.768 350.544 -43.344C350.712 -43.44 351.456 -44.016 351.648 -44.016C351.912 -44.016 353.688 -42.504 353.688 -42.096C353.688 -41.832 353.52 -41.784 352.752 -41.496C352.584 -41.424 352.56 -41.376 352.248 -40.8C351.192 -38.76 350.592 -37.584 349.056 -35.52C351.936 -34.248 355.92 -31.392 355.92 -29.136ZM379.272 -41.112C379.272 -40.872 379.176 -40.848 378.648 -40.632C378.168 -40.44 378 -40.296 377.208 -38.736C373.512 -31.56 369.792 -28.272 364.512 -26.784L364.44 -26.952C367.656 -28.8 370.536 -31.2 372.696 -34.176C372.456 -34.2 372.192 -34.416 371.76 -34.896C370.104 -36.792 369.864 -37.056 368.568 -37.776C367.272 -36.36 365.952 -35.328 364.56 -34.656L364.488 -34.8C367.512 -37.728 370.392 -42.672 370.392 -43.608C370.392 -44.4 369.456 -44.76 368.976 -44.952C369.288 -45.096 369.624 -45.24 370.176 -45.24C371.544 -45.24 372.84 -44.064 372.84 -43.56C372.84 -43.296 372.792 -43.248 372.24 -42.768C372.048 -42.576 371.76 -42.12 371.592 -41.88C371.76 -41.88 372 -41.856 372.456 -41.856C373.632 -41.856 376.056 -42.24 376.392 -42.408C376.56 -42.504 377.232 -42.984 377.4 -42.984C377.688 -42.984 379.272 -41.448 379.272 -41.112ZM376.416 -41.256C375.768 -41.184 372.912 -40.704 372.36 -40.704C372.168 -40.704 371.904 -40.704 371.112 -41.16C369.864 -39.312 368.928 -38.208 368.808 -38.064C370.152 -37.896 373.224 -37.296 373.368 -35.136C373.992 -36.072 375.144 -37.824 376.416 -41.256ZM396.768 -37.104C396.768 -36.6 396.504 -36.168 396.048 -36.168C395.544 -36.168 395.472 -36.384 395.064 -37.488C394.752 -38.376 394.176 -39.24 393.624 -39.96C395.256 -39.48 396.768 -38.136 396.768 -37.104ZM402.312 -38.304C402.312 -38.136 402.264 -38.064 401.808 -37.56C401.664 -37.392 400.68 -35.28 400.464 -34.872C397.008 -28.368 392.736 -27.24 391.056 -26.784L391.008 -27.024C398.208 -30.384 400.272 -38.064 400.272 -38.4C400.272 -38.976 399.312 -39.528 399 -39.696C399.312 -39.768 399.624 -39.864 400.056 -39.864C401.088 -39.864 402.312 -38.592 402.312 -38.304ZM392.616 -36.024C392.616 -35.544 392.376 -35.136 391.92 -35.136C391.392 -35.136 391.152 -35.688 390.888 -36.288C390.576 -36.96 389.928 -38.04 389.136 -38.88C390.72 -38.64 392.616 -37.344 392.616 -36.024ZM428.016 -41.352C428.016 -41.064 427.992 -41.064 427.224 -40.608C426.792 -40.344 426.6 -39.912 426.312 -39.072C424.92 -35.064 422.688 -31.248 419.112 -28.944C417.096 -27.648 415.392 -27.216 414.648 -27.024L414.6 -27.216C418.968 -29.472 423.768 -34.704 425.232 -41.568C423.6 -41.592 416.688 -40.584 415.44 -40.224C415.224 -40.152 414.144 -39.672 414.096 -39.672C413.64 -39.672 412.152 -40.896 412.152 -42.48C412.152 -42.792 412.272 -43.056 412.368 -43.248C413.448 -41.976 413.64 -41.736 414.696 -41.736C415.368 -41.736 424.32 -42.48 425.04 -42.792C425.208 -42.864 425.808 -43.368 425.952 -43.368C426.24 -43.368 428.016 -41.808 428.016 -41.352ZM441.456 -25.296H433.488V-26.328H440.448V-47.136H441.456V-25.296ZM465.6 -36.24C465.6 -31.584 461.712 -28.008 456.216 -27.528L456.192 -27.72C461.328 -29.544 463.728 -32.928 463.728 -36.576C463.728 -40.632 460.464 -43.032 456.288 -43.032C455.688 -43.032 455.568 -43.008 455.304 -42.888C456.6 -42.192 456.96 -41.304 456.96 -40.968C456.96 -40.704 456.888 -40.536 456.144 -38.976C454.608 -35.688 452.352 -30.864 450.72 -29.52C450.552 -29.4 450.264 -29.256 449.952 -29.256C449.4 -29.256 449.184 -29.568 448.464 -30.576C448.296 -30.816 447.336 -31.704 447.168 -31.92C446.904 -32.304 446.496 -33.168 446.496 -34.368C446.496 -39.528 450.864 -43.776 456.72 -43.776C461.376 -43.776 465.6 -41.064 465.6 -36.24ZM455.064 -41.208C455.064 -41.808 454.776 -42.312 454.32 -42.744C451.68 -42.312 448.008 -38.904 448.008 -34.488C448.008 -32.856 448.944 -31.056 449.88 -31.056C450.528 -31.056 451.464 -32.76 451.872 -33.576C454.272 -38.4 455.064 -39.96 455.064 -41.208ZM10.512 2.088H3.552V22.896H2.544V1.056H10.512V2.088ZM35.376 20.76C35.376 21.216 34.704 22.296 33.384 22.296H29.832C28.272 22.296 27.576 21.96 27.576 20.088C27.576 17.328 27.576 4.536 27.504 2.616C27.48 1.92 27.408 1.68 27.264 1.272L29.616 1.872C29.736 1.896 30.024 1.968 30.024 2.208C30.024 2.376 29.856 2.52 29.712 2.64C29.496 2.808 29.4 2.88 29.208 3.048V9.168C29.616 8.808 32.208 6.36 32.76 4.944L34.56 6.624C34.656 6.696 34.752 6.864 34.752 6.96C34.752 7.176 34.488 7.224 34.344 7.224C34.2 7.224 33.984 7.176 33.744 7.128C32.232 8.16 30.504 9.096 29.208 9.624C29.184 11.232 29.232 18.264 29.184 19.704C29.16 20.448 29.28 20.664 30.144 20.664H32.04C32.52 20.664 33.024 20.448 33.288 19.512C33.336 19.344 33.816 17.448 33.936 16.728H34.104C34.2 17.712 34.488 19.848 34.752 20.136C34.824 20.208 35.16 20.424 35.232 20.472C35.328 20.544 35.376 20.64 35.376 20.76ZM33.936 14.856C33.936 15.216 33.672 15.888 33 15.888C32.256 15.888 31.896 15.264 31.176 13.992C31.128 13.896 30.24 12.528 29.256 11.928L29.304 11.736C29.928 11.904 31.368 12.312 32.304 12.864C33.816 13.776 33.936 14.616 33.936 14.856ZM23.856 9.336C23.856 9.84 23.592 10.296 22.992 10.296C22.248 10.296 22.128 9.96 21.648 8.472C21.6 8.328 21.288 7.44 20.568 6.6L20.664 6.432C22.368 7.176 23.856 7.944 23.856 9.336ZM26.592 2.232C26.592 2.496 26.208 2.712 25.8 2.904C25.824 3.6 25.848 4.632 25.848 5.376C25.848 12.768 25.776 15.312 24.576 17.712C23.4 20.016 21.648 21.528 19.176 22.56L19.08 22.368C23.616 19.2 23.952 15 24.144 12.648C23.376 13.392 22.416 14.208 21.144 15.192C21 15.936 20.88 16.2 20.64 16.2C20.52 16.2 20.304 16.08 20.208 15.864L19.176 13.608C20.64 13.68 23.04 12.72 24.168 12.12C24.24 10.608 24.24 9.744 24.24 8.808C24.24 7.008 24.216 2.592 23.832 1.224L26.136 1.872C26.304 1.92 26.592 2.04 26.592 2.232ZM22.248 5.904C22.248 6.144 22.032 6.168 21.888 6.168H18.312V11.04C19.512 10.728 20.64 10.392 21.48 10.056L21.6 10.296C20.736 10.776 19.44 11.52 18.312 12.072C18.336 13.32 18.504 18.816 18.504 19.92C18.504 20.88 18.504 22.416 15.408 22.92C15.12 21.816 14.784 21.288 13.248 20.448L13.32 20.328C14.28 20.496 15.72 20.568 16.008 20.568C16.536 20.568 16.704 20.472 16.776 20.136C16.848 19.848 16.848 17.976 16.848 17.496C16.848 17.064 16.824 13.08 16.824 12.816C16.08 13.176 15.504 13.416 14.88 13.704C14.736 14.472 14.712 14.664 14.4 14.664C14.184 14.664 14.04 14.52 13.968 14.4L12.648 12.24C13.704 12.216 14.016 12.12 16.8 11.424L16.728 6.168C15.84 6.168 14.688 6.168 13.536 6.384L13.056 5.424C14.64 5.568 15.768 5.592 16.728 5.592C16.728 4.44 16.704 2.424 16.68 2.112C16.608 1.584 16.464 1.272 16.32 0.935999L18.888 1.68C19.08 1.728 19.224 1.848 19.224 2.04C19.224 2.232 19.056 2.376 18.312 2.832V5.592H19.536L20.28 4.656C20.448 4.464 20.52 4.344 20.664 4.344C20.808 4.344 20.904 4.44 21.072 4.608L22.008 5.544C22.152 5.688 22.248 5.784 22.248 5.904ZM58.8 21.696C58.8 22.224 58.368 22.44 57.96 22.44C56.736 22.44 53.928 21.096 52.296 17.616C49.488 20.208 47.112 20.952 46.032 21.264L45.984 21.096C47.208 20.472 49.2 19.344 51.768 16.392C50.712 13.608 50.52 11.112 50.352 9.024C49.224 9.264 48.816 9.408 48.408 9.552L47.856 8.808C47.808 9.72 47.952 13.776 47.952 14.616C47.952 15.288 47.328 15.6 46.896 15.6C46.344 15.6 46.32 15.288 46.32 15.048H44.016V17.352H46.416L47.16 16.344C47.304 16.152 47.424 16.056 47.544 16.056C47.64 16.056 47.808 16.128 47.952 16.272L49.08 17.304C49.2 17.424 49.32 17.592 49.32 17.712C49.32 17.856 49.176 17.928 48.96 17.928H44.016C44.016 18.48 44.112 20.856 44.112 21.336C44.112 22.056 43.704 22.536 42.984 22.536C42.336 22.536 42.24 22.152 42.24 21.864C42.24 21.6 42.36 20.496 42.384 20.28C42.432 19.344 42.456 18.408 42.456 17.928H40.488C40.056 17.928 38.832 17.952 37.68 18.168L37.2 17.208C38.688 17.328 40.152 17.352 40.872 17.352H42.456C42.48 16.992 42.504 15.384 42.504 15.048H40.224C40.224 15.48 40.248 16.128 39.168 16.128C38.808 16.128 38.568 15.888 38.568 15.552C38.568 15.384 38.64 14.712 38.664 14.568C38.688 12.984 38.688 11.784 38.688 10.992C38.688 8.328 38.688 8.256 38.52 6.984L40.32 7.8H46.056L46.608 7.128C46.728 6.984 46.872 6.84 46.992 6.84C47.112 6.84 47.28 6.936 47.496 7.104L48.24 7.704C48.432 7.848 48.504 7.968 48.504 8.088C48.504 8.28 48.408 8.4 47.904 8.688C49.272 8.568 50.112 8.424 50.304 8.4C50.256 7.416 50.208 4.824 50.16 3.024C50.136 1.992 50.016 1.608 49.896 1.128L52.128 1.896C52.32 1.968 52.512 2.088 52.512 2.232C52.512 2.496 52.224 2.688 51.864 2.832C51.792 3.552 51.744 4.464 51.744 5.928C51.744 7.008 51.768 7.704 51.816 8.16L55.08 7.584L55.824 6.48C55.992 6.216 56.088 6.12 56.232 6.12C56.328 6.12 56.472 6.192 56.664 6.288L58.056 7.032C58.224 7.128 58.344 7.272 58.344 7.392C58.344 7.536 58.224 7.632 58.032 7.656L51.84 8.736C52.008 10.728 52.128 12.456 52.872 15C54.504 12.696 55.704 10.392 55.848 9.192L57.864 10.512C58.008 10.608 58.128 10.728 58.128 10.896C58.128 11.088 57.888 11.28 57.144 11.304C56.376 12.624 55.296 14.376 53.4 16.512C54.48 18.96 56.28 19.848 56.568 19.848C56.928 19.848 57.072 19.584 57.576 18.672C57.744 18.336 58.464 16.896 58.608 16.608L58.752 16.632C58.728 16.944 58.296 20.064 58.296 20.352C58.296 20.496 58.32 20.688 58.584 21.12C58.776 21.408 58.8 21.528 58.8 21.696ZM46.344 11.112V8.376H44.016V11.112H46.344ZM46.344 14.472V11.688H44.016V14.472H46.344ZM42.504 11.112V8.376H40.2V11.112H42.504ZM42.504 14.472V11.688H40.2V14.472H42.504ZM56.232 4.896C56.232 5.52 55.704 5.856 55.248 5.856C54.624 5.856 54.384 5.304 54.288 5.112C54.024 4.488 53.616 3.6 52.944 2.904L53.04 2.736C54.144 2.928 56.232 3.288 56.232 4.896ZM48.792 2.928C48.792 3.192 48.552 3.288 48.24 3.36C47.544 4.2 45.744 6.216 44.28 7.296L44.16 7.152C45.12 5.544 46.32 3.36 46.584 1.728L48.48 2.52C48.696 2.616 48.792 2.76 48.792 2.928ZM43.896 4.824C43.896 5.088 43.752 5.952 42.912 5.952C42.096 5.952 42.048 5.256 41.952 4.344C41.856 3.384 41.664 2.904 41.232 2.088L41.352 1.968C43.896 3.192 43.896 4.56 43.896 4.824ZM40.656 5.424C40.656 6.072 40.296 6.504 39.792 6.504C39.048 6.504 38.832 5.736 38.784 5.52C38.496 4.488 38.328 3.768 37.56 2.688L37.656 2.592C39.528 3.12 40.656 4.296 40.656 5.424ZM69.456 22.704H61.488V21.672H68.448V0.863999H69.456V22.704ZM92.184 5.832C92.184 6.384 91.68 6.528 90.816 6.672C88.488 7.08 86.976 7.872 86.184 8.448L86.04 8.304C86.4 7.968 88.152 6.36 88.224 6.288C88.296 6.216 88.296 6.168 88.296 6.096C88.296 5.832 87.552 5.832 87.408 5.832C86.448 5.832 84.864 6.216 83.04 6.912C84.336 5.184 86.76 4.56 88.992 4.56C90.48 4.56 92.184 4.992 92.184 5.832ZM93.36 18.48C93.36 19.248 92.52 19.368 91.008 19.368C90.432 19.368 87.216 19.344 85.128 18.696C83.688 18.24 82.704 16.848 82.704 15.432C82.704 14.88 82.824 14.664 82.944 14.424C83.496 16.248 83.928 17.64 88.464 17.64C88.944 17.64 91.272 17.448 91.512 17.448C92.352 17.448 93.36 17.808 93.36 18.48ZM80.136 11.496C79.992 12.168 79.656 13.56 79.464 14.328C79.176 15.528 78.624 17.832 78.624 18.912C78.624 19.176 78.744 20.328 78.744 20.568C78.744 20.976 78.696 21.456 78.12 21.456C77.136 21.456 75.576 19.248 75.576 14.376C75.576 12.648 76.104 9.408 76.512 6.936C76.584 6.48 76.656 5.856 76.656 5.328C76.656 4.488 76.536 3.864 75.84 3C75.96 2.952 76.056 2.904 76.272 2.904C77.136 2.904 78.696 4.248 78.696 5.184C78.696 5.4 78.648 5.616 78.384 6.312C77.448 8.712 76.704 11.232 76.704 13.848C76.704 15.504 77.112 17.352 77.496 17.352C77.64 17.352 77.76 17.064 77.808 16.896C78.072 16.08 79.08 13.296 79.944 11.448L80.136 11.496ZM114.984 19.296C114.984 19.776 114.792 20.184 114.288 20.184C113.952 20.184 113.064 19.632 112.176 19.056C110.544 18.024 109.752 17.76 108.96 17.568C108.816 18.936 108.384 21.048 104.952 21.048C103.152 21.048 100.632 20.16 100.632 18.528C100.632 17.28 101.928 16.44 102.744 16.2C104.592 15.624 106.32 15.696 107.256 15.744C107.112 14.832 106.944 13.512 106.944 10.44C106.944 9.96 106.968 5.376 106.968 5.208C106.968 3.768 106.68 3.24 104.952 2.928C105.168 2.688 105.552 2.256 106.464 2.256C107.304 2.256 109.08 2.904 109.08 3.84C109.08 4.008 108.864 4.92 108.792 5.16C108.696 5.568 108.6 6 108.456 7.08C109.488 7.008 110.4 6.72 112.272 6.12C112.488 6.048 112.704 6 112.992 6C113.328 6 114.312 6.144 114.312 6.792C114.312 7.128 114.168 7.296 113.976 7.416C113.424 7.8 111.336 8.304 109.944 8.304C109.368 8.304 108.816 8.112 108.36 7.896C108.336 8.328 108.264 9.216 108.264 10.464C108.264 13.32 108.624 15.264 108.792 16.032C111.072 16.44 114.984 17.688 114.984 19.296ZM107.304 17.16C106.824 17.064 106.296 16.968 105.312 16.968C104.064 16.968 101.568 17.232 101.568 18.432C101.568 19.392 103.296 19.608 104.328 19.608C107.208 19.608 107.304 18 107.304 17.16ZM139.32 14.88C139.32 18.408 135.6 20.736 129.432 20.736C128.592 20.736 128.088 20.688 127.656 20.64V20.376C129.096 20.328 132.816 19.848 134.928 18.648C135.792 18.144 137.76 16.752 137.76 14.544C137.76 12.408 135.816 11.112 133.68 11.112C132.792 11.112 130.104 11.4 126.504 14.568C125.592 15.36 125.496 15.432 125.256 15.432C124.704 15.432 123.48 14.424 123.48 13.392C123.48 12.984 123.6 12.744 123.744 12.504C123.984 12.864 124.392 13.44 124.896 13.44C125.232 13.44 125.496 13.32 126.216 12.936C127.728 12.096 129.312 11.376 130.92 10.872C131.688 10.632 132.744 10.392 133.872 10.392C136.68 10.392 139.32 11.856 139.32 14.88ZM165.432 4.824C165.432 5.544 164.76 5.544 164.424 5.544C161.136 5.544 160.776 5.544 159.744 5.88C156.912 6.84 154.32 10.296 154.32 13.68C154.32 17.784 158.712 18.624 160.44 18.96C161.208 19.104 162.096 19.464 162.096 20.376C162.096 21.096 161.352 21.096 161.184 21.096C159.792 21.096 153.144 19.8 153.144 14.064C153.144 10.344 155.616 7.776 158.352 5.616C156.96 5.568 152.088 7.248 149.712 8.328C148.68 8.784 148.656 8.808 148.416 8.808C147.888 8.808 146.664 8.04 146.664 6.648C146.664 6.048 146.88 5.664 147.048 5.376C147.432 6.192 147.936 6.72 148.92 6.72C149.208 6.72 149.712 6.624 149.952 6.576C155.376 5.28 155.976 5.136 158.352 4.632C159.744 4.32 161.448 3.984 162.48 3.672C162.672 3.6 163.152 3.504 163.464 3.504C164.856 3.504 165.432 4.584 165.432 4.824ZM180.936 10.896H187.248L188.136 9.48C188.208 9.36 188.376 9.168 188.52 9.168C188.664 9.168 188.832 9.312 188.976 9.432L190.584 10.848C190.728 10.968 190.824 11.064 190.824 11.208C190.824 11.448 190.632 11.472 190.464 11.472H181.344C183.336 14.928 187.44 17.952 191.376 18.48V18.6C190.464 18.912 189.528 19.56 188.928 20.544C183.864 17.88 181.488 13.512 181.008 11.472H180.96C180.936 12.552 180.936 14.736 180.96 15.744C181.008 17.304 181.128 21.312 181.128 21.624C181.128 22.488 180.504 22.824 179.904 22.824C179.28 22.824 179.088 22.464 179.088 21.984C179.088 21.432 179.232 19.008 179.256 18.504C179.304 17.232 179.304 15.384 179.304 13.536C176.712 17.088 172.824 19.944 169.536 20.856V20.736C174.144 17.76 177.984 12.744 178.656 11.472H172.704C172.272 11.472 171.048 11.472 169.896 11.688L169.416 10.728C171.168 10.872 172.68 10.896 173.088 10.896H179.304C179.328 9.456 179.328 7.56 179.304 6.096H174.864C174.456 6.096 173.208 6.096 172.032 6.312L171.552 5.352C172.776 5.472 174.024 5.52 175.248 5.52H179.28C179.232 2.424 179.112 1.728 178.848 0.719999L181.248 1.392C181.464 1.44 181.608 1.584 181.608 1.776C181.608 2.04 181.128 2.328 180.936 2.448V5.52H184.776L185.64 4.224C185.76 4.032 185.88 3.912 186.024 3.912C186.144 3.912 186.312 4.032 186.432 4.152L187.92 5.472C188.016 5.568 188.16 5.688 188.16 5.856C188.16 6.072 187.944 6.096 187.8 6.096H180.936V10.896ZM214.248 12.504H204.912C206.64 15.144 210.48 17.952 214.896 18.408L214.944 18.576C214.368 18.768 213.144 19.464 212.616 20.616C208.536 18.744 205.968 15.288 204.888 13.32C204.912 15.696 204.936 17.496 204.96 18.6C204.96 19.08 205.08 21.168 205.08 21.576C205.08 22.632 204 22.704 203.856 22.704C203.088 22.704 203.088 22.272 203.088 21.984C203.088 21.792 203.136 20.808 203.16 20.544C203.328 17.088 203.352 16.128 203.352 13.992C201.576 16.44 198 19.68 193.968 21.048L193.872 20.856C197.712 18.432 200.928 14.856 202.344 12.504H197.064C196.416 12.504 195.288 12.528 194.232 12.744L193.752 11.784C194.976 11.88 196.224 11.928 197.448 11.928H203.328C203.328 9.336 203.328 8.928 203.28 5.28H198.504C197.808 5.28 196.704 5.328 195.672 5.496L195.192 4.56C196.416 4.656 197.664 4.704 198.888 4.704H203.28C203.232 2.568 203.232 1.992 202.8 1.056L205.344 1.752C205.488 1.8 205.656 1.848 205.656 2.064C205.656 2.208 205.392 2.4 204.888 2.712C204.888 2.928 204.864 4.368 204.864 4.704H209.472L210.336 3.624C210.456 3.456 210.6 3.312 210.72 3.312C210.816 3.312 210.984 3.384 211.2 3.576L212.568 4.68C212.664 4.752 212.808 4.92 212.808 5.04C212.808 5.28 212.568 5.28 212.424 5.28H204.864C204.864 8.4 204.864 8.784 204.888 11.928H206.304C207.552 10.2 208.968 7.176 209.04 6.12L211.2 7.416C211.44 7.56 211.464 7.656 211.464 7.728C211.464 8.04 211.224 8.112 210.384 8.208C210.168 8.424 210.024 8.592 208.632 10.104C207.72 11.112 207.072 11.688 206.784 11.928H211.032L212.136 10.824C212.352 10.608 212.448 10.536 212.544 10.536C212.64 10.536 212.76 10.584 212.976 10.776L214.368 11.904C214.488 12 214.632 12.168 214.632 12.264C214.632 12.504 214.368 12.504 214.248 12.504ZM196.752 6.576L196.872 6.48C197.856 6.912 200.472 8.088 200.472 10.176C200.472 10.68 200.184 11.304 199.512 11.304C198.696 11.304 198.552 10.584 198.456 10.08C198.408 9.84 198.048 8.112 196.752 6.576ZM236.496 10.368C236.496 10.92 236.184 11.016 235.68 11.112C233.352 11.568 231.12 12.432 228.936 13.368C229.008 13.776 229.176 14.808 229.176 16.2C229.176 16.704 229.176 18.288 228.312 18.288C227.424 18.288 227.424 16.92 227.424 16.512C227.424 16.152 227.424 14.52 227.4 14.16C225.792 15.168 223.968 16.92 223.968 18.216C223.968 20.04 227.112 20.04 227.808 20.04C229.104 20.04 230.568 19.8 231.48 19.632C231.936 19.56 232.08 19.536 232.32 19.536C233.352 19.536 233.76 20.16 233.76 20.592C233.76 21.024 233.328 21.288 233.016 21.36C232.584 21.456 230.448 21.6 229.344 21.6C228.024 21.6 222.984 21.6 222.984 18.624C222.984 16.368 225.936 14.184 227.304 13.272C227.088 12 226.752 10.8 225.24 10.8C223.776 10.8 222.624 12.24 222.24 12.864C221.16 14.544 221.064 14.568 220.656 14.568C220.08 14.568 219.96 14.16 219.96 13.584C219.96 12.72 220.224 12.504 220.488 12.264C222.192 10.8 223.416 8.856 224.592 6.912C223.872 7.032 223.176 7.152 222.456 7.152C220.824 7.152 220.032 6.264 220.08 5.016C220.824 5.712 221.496 5.904 222.552 5.904C223.56 5.904 224.952 5.688 225.336 5.616C225.672 5.064 226.656 3.288 226.656 2.88C226.656 2.544 226.128 2.04 225.024 1.896C225.288 1.632 225.648 1.32 226.488 1.32C227.664 1.32 228.672 2.208 228.672 2.712C228.672 3.048 228.456 3.336 228.288 3.552C227.784 4.152 227.712 4.248 227.04 5.232C227.568 5.088 229.872 4.128 230.376 4.128C230.952 4.128 231.648 4.464 231.648 4.944C231.648 5.28 231.384 5.448 231.144 5.544C230.04 6.024 227.4 6.456 226.032 6.672C223.872 9.792 223.656 10.128 223.344 10.704C223.896 10.44 224.64 10.056 225.792 10.056C228 10.056 228.456 11.496 228.72 12.384C230.352 11.424 232.704 10.296 233.4 9.96C233.832 9.744 234 9.576 234 9.264C234 8.952 233.808 8.808 233.256 8.4C233.424 8.352 233.52 8.328 233.76 8.328C234.624 8.328 236.496 9.024 236.496 10.368ZM245.88 8.808L248.352 8.04L249.072 6.624C249.24 6.288 249.288 6.216 249.432 6.216C249.552 6.216 249.744 6.288 249.84 6.336L251.472 7.008C251.64 7.08 251.832 7.176 251.832 7.368C251.832 7.512 251.688 7.632 251.544 7.68L245.88 9.408C245.88 10.344 245.808 15 245.904 15.408C245.976 15.672 246.144 15.816 247.608 15.816C248.64 15.816 249.36 15.672 250.08 12.48H250.272C250.32 12.864 250.44 14.472 250.584 14.904C250.632 15.072 250.752 15.216 250.92 15.384C251.016 15.48 251.064 15.696 251.064 15.792C251.064 16.176 250.632 16.728 250.128 16.968C249.552 17.232 248.688 17.376 247.512 17.376C244.176 17.376 244.176 16.68 244.176 15.384C244.176 14.52 244.224 10.68 244.224 9.912C243.336 10.176 242.376 10.488 241.296 11.04L240.552 10.272C241.92 9.96 242.88 9.72 244.224 9.288C244.272 6.456 244.296 3.768 244.248 2.976C244.224 2.28 244.104 1.632 244.008 1.296L246.336 2.112C246.48 2.16 246.72 2.304 246.72 2.496C246.72 2.76 246.336 3 246 3.168C245.928 4.056 245.904 7.992 245.88 8.808ZM252.336 3.84H259.272L260.04 3.048C260.16 2.904 260.304 2.76 260.424 2.76C260.496 2.76 260.664 2.904 260.736 2.952L261.84 3.912C261.984 4.032 262.176 4.224 262.176 4.392C262.176 4.536 261.912 4.776 261.408 5.184C261.408 6.888 261.432 12.024 261.096 15.024C260.496 20.376 259.224 21.912 255.504 22.392C255.384 21.576 255.192 20.832 253.32 19.536L253.44 19.368C253.896 19.512 255.048 19.896 256.368 19.896C257.352 19.896 258.168 19.728 258.696 18.192C259.632 15.528 259.632 13.08 259.632 4.416H255.264C255.192 8.304 255.192 12.936 253.752 16.296C252.648 18.888 249.648 21.888 244.224 22.752L244.128 22.56C249.168 20.568 251.4 18 252.336 15.336C253.584 11.832 253.512 6.096 253.488 4.416H251.952C251.376 4.416 250.2 4.44 249.12 4.632L248.64 3.672C250.632 3.84 252.048 3.84 252.336 3.84ZM281.088 11.16C281.088 15.576 280.08 18.432 277.392 20.88C276.6 21.6 275.088 22.752 273.984 22.992L273.936 22.872C278.088 19.872 279.312 15.24 279.312 10.944C279.312 9.36 279.216 4.992 277.416 4.992C276.456 4.992 275.784 5.976 275.568 6.288C274.608 7.68 273.024 11.352 273.024 14.232C273.024 14.496 273.192 15.72 273.192 15.96C273.192 16.224 273.096 16.632 272.616 16.632C271.2 16.632 270.768 13.824 270.768 11.664C270.768 9.84 271.272 6.672 271.608 4.728C271.632 4.608 271.704 4.152 271.704 3.816C271.704 2.52 270.816 1.968 270.312 1.632C270.528 1.584 270.936 1.464 271.392 1.464C272.496 1.464 273.504 2.352 273.504 3.192C273.504 3.576 273.36 3.888 273.216 4.248C272.472 5.976 271.872 8.4 271.872 10.68C271.872 11.04 271.872 12.408 272.112 12.408C272.256 12.408 272.304 12.288 272.328 12.168C272.88 10.2 274.944 4.056 277.776 4.056C280.776 4.056 281.088 8.76 281.088 11.16ZM310.824 3.672C310.824 3.912 310.608 3.936 310.464 3.936H304.08C303.528 5.976 302.616 8.28 301.272 10.752L302.232 11.232H307.248L308.064 10.344C308.184 10.224 308.304 10.08 308.448 10.08C308.568 10.08 308.688 10.176 308.808 10.272L309.84 11.112C309.96 11.208 310.128 11.376 310.128 11.568C310.128 11.808 309.936 11.976 309.384 12.264C309.336 13.8 309.408 15.48 309.432 16.8C309.456 17.472 309.6 20.52 309.6 21.12C309.6 22.08 308.88 22.224 308.424 22.224C307.728 22.224 307.728 21.696 307.776 20.808H302.112C302.136 21.528 302.184 22.32 301.008 22.32C300.432 22.32 300.384 21.936 300.384 21.576C300.384 21.36 300.456 20.304 300.456 20.088C300.48 18.888 300.504 17.688 300.504 16.464C300.504 15.336 300.504 13.296 300.432 12.192C299.784 13.224 297.96 16.056 296.184 17.376L296.064 17.208C298.656 13.968 301.152 8.304 302.112 3.936H300.384C299.952 3.936 298.728 3.936 297.576 4.152L297.096 3.192C298.584 3.312 300.048 3.36 300.768 3.36H307.296L308.232 2.112C308.328 1.968 308.472 1.8 308.616 1.8C308.76 1.8 308.928 1.968 309.048 2.064L310.584 3.312C310.704 3.408 310.824 3.528 310.824 3.672ZM298.896 6.264C298.896 6.48 298.704 6.528 298.536 6.528H295.032C295.032 7.248 295.032 10.488 295.056 11.16C295.632 10.944 298.272 10.104 298.8 9.888L298.824 10.056C298.272 10.464 295.608 11.928 295.08 12.24C295.104 13.536 295.224 19.152 295.224 19.92C295.224 21.048 295.152 22.128 292.848 22.776C292.728 22.2 292.512 21.096 290.28 20.376V20.208C290.64 20.232 292.152 20.28 292.464 20.28C293.136 20.28 293.544 20.28 293.544 19.248V13.08C292.008 13.896 291.264 14.232 290.664 14.472C290.544 14.904 290.424 15.048 290.256 15.048C290.136 15.048 289.992 14.952 289.92 14.808L288.672 12.648C288.888 12.672 289.152 12.696 289.536 12.672C290.16 12.624 292.728 11.88 293.544 11.64C293.544 10.824 293.424 7.248 293.4 6.528H292.68C292.08 6.528 290.928 6.552 289.848 6.744L289.368 5.784C290.76 5.904 292.2 5.952 293.376 5.952C293.376 5.448 293.328 3.216 293.28 2.76C293.232 2.016 292.944 1.368 292.752 0.912L295.296 1.656C295.512 1.728 295.68 1.896 295.68 2.04C295.68 2.208 295.464 2.4 295.032 2.76C295.008 3.264 295.032 5.496 295.032 5.952H296.136L296.64 5.112C296.736 4.968 296.832 4.8 296.976 4.8C297.12 4.8 297.24 4.872 297.456 5.04L298.656 5.904C298.776 5.976 298.896 6.096 298.896 6.264ZM307.776 20.232V11.808H302.112V20.232H307.776ZM333.6 13.992C333.6 14.832 333.144 15.552 332.76 15.552C332.472 15.552 332.376 15.456 331.44 14.568C330.792 13.968 329.496 13.728 328.896 13.608V13.464C329.232 13.416 330.864 13.272 331.032 13.224C331.344 13.152 331.56 12.96 331.56 12.6C331.56 11.856 330.312 8.328 327.336 6.84C327.504 6.816 327.552 6.792 327.744 6.792C330.432 6.792 333.6 11.208 333.6 13.992ZM323.76 10.416C323.424 11.136 320.928 16.776 320.88 17.04C320.856 17.16 320.832 17.232 320.832 17.352C320.832 17.544 321.024 18.456 321.024 18.648C321.024 19.272 320.64 19.464 320.28 19.464C319.44 19.464 316.032 18.264 315.624 11.424C315.48 9.048 315.384 7.536 315.24 7.008C315.024 6.144 314.64 5.496 314.4 5.04C315.624 5.112 317.424 6.168 317.424 7.728C317.424 7.896 317.424 8.04 317.328 8.52C317.184 9.408 317.016 10.584 317.016 11.856C317.016 14.808 318.456 16.56 319.104 16.56C319.368 16.56 319.608 16.248 319.68 16.128C320.76 14.52 322.536 11.976 323.568 10.344L323.76 10.416ZM357.432 4.824C357.432 5.544 356.76 5.544 356.424 5.544C353.136 5.544 352.776 5.544 351.744 5.88C348.912 6.84 346.32 10.296 346.32 13.68C346.32 17.784 350.712 18.624 352.44 18.96C353.208 19.104 354.096 19.464 354.096 20.376C354.096 21.096 353.352 21.096 353.184 21.096C351.792 21.096 345.144 19.8 345.144 14.064C345.144 10.344 347.616 7.776 350.352 5.616C348.96 5.568 344.088 7.248 341.712 8.328C340.68 8.784 340.656 8.808 340.416 8.808C339.888 8.808 338.664 8.04 338.664 6.648C338.664 6.048 338.88 5.664 339.048 5.376C339.432 6.192 339.936 6.72 340.92 6.72C341.208 6.72 341.712 6.624 341.952 6.576C347.376 5.28 347.976 5.136 350.352 4.632C351.744 4.32 353.448 3.984 354.48 3.672C354.672 3.6 355.152 3.504 355.464 3.504C356.856 3.504 357.432 4.584 357.432 4.824ZM378.6 15.816C378.6 16.344 378.336 17.592 377.712 17.592C377.472 17.592 377.352 17.52 376.344 16.776C375.264 16.008 371.856 15.216 369.624 15.216C368.688 15.216 366.288 15.408 366.288 17.688C366.288 20.184 369.792 20.4 371.4 20.4C371.856 20.4 373.824 20.232 374.232 20.232C374.856 20.232 375.768 20.496 375.768 21.192C375.768 22.08 374.832 22.08 373.512 22.08C371.688 22.08 365.256 22.08 365.256 17.952C365.256 14.712 368.568 14.472 370.416 14.472C372.24 14.472 374.064 14.688 375.84 15.072C375.912 15.096 375.96 15.096 376.008 15.096C376.128 15.096 376.224 15.096 376.224 14.952C376.224 14.808 376.128 14.64 375.984 14.424C375.912 14.304 375.24 13.32 373.512 10.848C371.016 11.688 368.76 11.952 368.04 11.952C366.648 11.952 365.472 11.088 365.04 10.032C365.904 10.416 366.672 10.752 367.92 10.752C368.904 10.752 370.872 10.488 372.792 9.744C371.928 8.28 371.496 7.32 371.28 6.864C370.848 7.008 368.976 7.56 368.016 7.56C367.176 7.56 365.832 7.032 365.328 5.928C366.144 6.264 366.552 6.432 367.512 6.432C368.664 6.432 369.816 6.144 370.8 5.784C370.632 5.424 369.984 3.768 369.816 3.456C369.36 2.64 368.304 2.472 367.32 2.544C367.584 2.016 367.92 1.368 369.312 1.368C369.816 1.368 371.328 1.56 371.448 2.376C371.472 2.616 371.544 3.792 371.592 4.008C371.688 4.512 371.808 4.944 371.928 5.304C372.24 5.184 372.888 4.848 373.488 4.44C374.352 3.864 374.448 3.792 374.856 3.792C375.384 3.792 375.84 4.104 375.84 4.464C375.84 4.728 375.72 4.944 375.24 5.208C374.136 5.832 373.368 6.168 372.384 6.504C372.936 7.776 373.368 8.544 373.848 9.312C374.352 9.072 375 8.76 375.96 8.16C376.68 7.728 376.776 7.656 377.184 7.656C377.808 7.656 378.288 7.992 378.288 8.352C378.288 8.688 377.928 8.928 377.616 9.096C377.328 9.24 376.128 9.864 374.616 10.44C375.6 11.832 376.704 13.128 377.832 14.376C378.576 15.192 378.6 15.456 378.6 15.816ZM405.384 10.176C405.384 10.44 405.264 10.8 404.712 10.8C404.52 10.8 403.656 10.704 403.488 10.704C402.432 10.704 400.56 11.472 399.888 11.904L399.768 11.784C399.984 11.592 400.944 10.824 401.136 10.68C401.856 10.056 401.928 10.008 401.928 9.768C401.928 9.072 399.576 9.048 399.264 9.048C398.688 9.048 398.28 9.072 397.92 9.096C399.072 8.208 400.464 8.064 401.4 8.064C404.064 8.064 405.384 9.36 405.384 10.176ZM405.216 20.256C405.216 21.12 402.96 21.12 402.12 21.12C399.36 21.12 395.016 20.808 395.016 17.616C395.016 17.424 395.016 16.536 395.568 15.768C395.616 18.744 397.296 19.416 400.584 19.416C401.712 19.416 402.24 19.344 402.96 19.224C403.68 19.104 403.776 19.104 403.944 19.104C404.712 19.104 405.216 19.8 405.216 20.256ZM398.136 5.904C398.136 6.12 398.064 6.36 397.368 6.672C395.448 7.536 393.6 8.064 393.408 8.112C391.992 11.976 390.6 15.864 388.872 19.608C388.32 20.784 388.128 21.024 387.624 21.024C387.096 21.024 386.832 20.352 386.832 19.896C386.832 19.464 386.856 19.44 387.792 17.928C389.592 15.024 391.464 10.008 391.896 8.784C391.968 8.592 391.992 8.544 392.016 8.448C391.008 8.664 389.952 8.832 388.968 8.832C387.72 8.832 386.808 8.04 386.544 7.224C387.048 7.392 387.72 7.608 388.848 7.608C390.312 7.608 391.68 7.272 392.472 7.056C393.168 4.728 393.24 4.176 393.24 3.72C393.24 2.736 391.944 2.28 391.752 2.208C391.992 2.016 392.184 1.848 392.808 1.848C394.248 1.848 395.328 3.024 395.328 3.744C395.328 4.008 395.232 4.152 394.872 4.704C394.608 5.112 394.44 5.448 393.984 6.576C394.704 6.288 395.232 6.048 395.76 5.712C396.528 5.208 396.696 5.112 397.152 5.112C397.776 5.112 398.136 5.544 398.136 5.904ZM431.184 9.192C430.344 9.552 429.48 10.056 428.88 11.016C424.728 9.168 421.68 5.592 420.12 2.376L420.024 2.4C417.408 6.96 411.72 10.944 409.032 12.024L408.96 11.88C412.56 9.36 415.488 6.024 417.792 2.304C418.344 1.44 418.416 1.104 418.512 0.671999L420.936 1.44C421.056 1.488 421.32 1.608 421.32 1.848C421.32 2.136 421.08 2.184 420.576 2.304C422.04 4.752 425.856 8.112 431.184 9.024V9.192ZM424.176 9.984C424.176 10.2 423.96 10.224 423.816 10.224H417.648C417.048 10.224 415.896 10.248 414.816 10.44L414.336 9.48C415.992 9.624 417.72 9.648 418.032 9.648H420.72L421.8 8.448C421.92 8.328 422.04 8.16 422.184 8.16C422.304 8.16 422.496 8.304 422.616 8.4L423.936 9.6C424.056 9.72 424.176 9.816 424.176 9.984ZM429.432 14.112C429.432 14.376 429.192 14.376 429.072 14.376H419.448C418.152 16.8 415.728 19.584 415.488 19.872C418.44 19.68 422.16 19.32 424.872 18.984C424.728 18.72 423.936 17.28 422.232 15.672L422.376 15.528C425.664 17.016 428.28 19.44 428.28 21.456C428.28 21.84 428.016 22.632 427.224 22.632C426.432 22.632 426.12 21.984 425.808 21.144C425.52 20.304 425.424 20.04 425.088 19.392C423.144 19.992 414.312 21.864 412.944 22.08C412.8 22.392 412.728 22.608 412.512 22.608C412.32 22.608 412.2 22.368 412.128 22.176L411.12 19.752C411.648 19.848 412.2 19.968 413.256 19.968C413.76 19.968 414.24 19.944 414.984 19.896C415.776 18.12 416.448 16.344 416.952 14.376H413.568C413.016 14.376 411.816 14.4 410.76 14.592L410.28 13.656C412.176 13.8 413.544 13.8 413.952 13.8H425.472L426.696 12.48C426.864 12.288 426.984 12.192 427.104 12.192C427.224 12.192 427.368 12.312 427.536 12.432L429.192 13.752C429.288 13.824 429.432 13.968 429.432 14.112ZM454.752 20.832C454.752 21 454.536 21.072 454.392 21.072H444.24C444 21.072 442.536 21.072 441.408 21.288L440.928 20.328C442.608 20.472 444.408 20.496 444.624 20.496H446.976C446.976 18.048 447 14.16 446.976 11.712C446.952 10.56 446.952 10.392 446.952 9.648H445.536C445.296 9.648 443.832 9.648 442.704 9.864L442.224 8.904C443.832 9.048 445.488 9.072 445.92 9.072H446.952C446.952 8.664 446.928 7.08 446.928 6.672C446.904 2.808 446.904 2.304 446.232 0.912L448.896 1.536C449.256 1.608 449.472 1.776 449.472 1.992C449.472 2.304 449.016 2.568 448.656 2.712C448.632 3.312 448.632 8.064 448.632 9.072H451.056L451.944 7.896C452.088 7.704 452.184 7.608 452.328 7.608C452.448 7.608 452.592 7.704 452.784 7.872L454.104 9.024C454.248 9.144 454.344 9.288 454.344 9.408C454.344 9.576 454.152 9.648 453.984 9.648H448.632V16.152L448.656 20.496H451.224L452.352 19.248C452.52 19.056 452.64 18.984 452.76 18.984C452.88 18.984 453.024 19.032 453.216 19.224L454.536 20.448C454.656 20.568 454.752 20.712 454.752 20.832ZM442.656 13.224C442.656 13.584 442.44 14.232 441.792 14.232C441.24 14.232 440.976 13.776 440.784 13.416C440.232 12.336 439.608 11.256 438.816 10.344C438.792 16.704 438.792 17.4 438.84 19.152C438.84 19.512 438.936 21.12 438.936 21.432C438.936 22.32 438.12 22.512 437.76 22.512C437.016 22.512 437.016 21.984 437.016 21.768C437.016 21.504 437.112 20.352 437.112 20.112C437.184 18.264 437.16 17.784 437.232 11.904C435.024 14.112 433.2 15.048 432.48 15.432L432.384 15.264C435.096 12.912 438.552 8.472 439.632 6.168H436.272C435.672 6.168 434.52 6.192 433.44 6.384L432.984 5.448C434.616 5.568 436.32 5.592 436.656 5.592H437.28C437.232 2.52 436.968 1.8 436.656 0.887999L439.416 1.68C439.56 1.728 439.704 1.872 439.704 1.992C439.704 2.28 439.416 2.472 438.936 2.712C438.888 3.384 438.888 3.432 438.936 5.592H439.8L440.4 4.968C440.568 4.8 440.688 4.728 440.832 4.728C440.976 4.728 441.072 4.824 441.216 4.944L442.296 5.904C442.416 6 442.464 6.12 442.464 6.24C442.464 6.6 442.08 6.696 441.312 6.792C440.928 7.392 440.256 8.424 438.912 10.08C439.152 10.152 440.256 10.536 441.456 11.4C441.888 11.712 442.656 12.264 442.656 13.224ZM478.536 9.672C478.536 10.344 478.032 10.44 477.888 10.44C477.528 10.44 477.456 10.32 476.76 9.264C476.184 8.424 475.104 7.536 474.312 6.96C475.848 7.104 478.536 8.088 478.536 9.672ZM475.728 10.704C475.728 11.112 475.584 11.544 475.08 11.544C474.672 11.544 474.6 11.448 474.024 10.44C473.544 9.6 472.92 8.952 471.768 7.8C473.376 8.136 475.728 9.192 475.728 10.704ZM477.168 4.68C477.168 5.448 476.424 5.448 475.752 5.448C472.68 5.448 471.768 5.448 470.16 6.408C467.928 7.728 466.104 10.824 466.104 13.56C466.104 17.568 470.328 18.504 472.488 18.984C472.848 19.056 473.856 19.272 473.856 20.304C473.856 20.928 473.256 20.976 472.944 20.976C470.472 20.976 464.928 19.152 464.928 13.872C464.928 12.84 465.12 10.776 466.896 8.496C467.568 7.632 468.144 7.128 470.208 5.496C467.664 5.832 462.528 7.608 461.712 8.064C460.68 8.664 460.56 8.712 460.176 8.712C459.576 8.712 458.424 7.992 458.424 6.6C458.424 5.976 458.592 5.664 458.76 5.376C459.216 6.096 459.576 6.648 460.632 6.648C461.112 6.648 461.736 6.528 464.16 5.952C467.016 5.256 471.624 4.224 474.48 3.528C474.72 3.48 475.056 3.408 475.248 3.408C475.608 3.408 477.168 3.864 477.168 4.68ZM502.2 6.96C502.2 7.488 501.696 7.608 501.432 7.608C500.64 7.608 499.368 7.32 498.576 7.248C497.688 7.176 496.92 7.152 496.32 7.152C495.312 7.152 494.184 7.224 493.44 7.272C493.416 8.016 493.416 8.568 493.416 9.192C493.416 9.816 493.44 10.248 493.464 10.68C493.824 11.328 494.496 12.48 494.496 14.472C494.496 18.096 492.168 21.48 487.752 23.04L487.656 22.872C490.344 21.192 492.192 18.6 492.528 16.032C492.024 16.44 491.544 16.824 490.944 16.824C489.744 16.824 488.232 15.24 488.232 13.176C488.232 11.424 489.384 9.696 491.04 9.696C491.568 9.696 492 9.84 492.432 9.984C492.432 9.864 492.384 8.256 492.384 7.392C490.92 7.56 486.912 8.088 484.56 9.36C483.864 9.72 483.792 9.768 483.576 9.768C482.76 9.768 481.608 8.28 481.608 7.296C481.608 7.032 481.68 6.84 481.8 6.624C482.28 7.272 482.784 7.752 483.552 7.752C483.816 7.752 485.712 7.416 486.792 7.248C489.048 6.864 490.824 6.6 492.36 6.456C492.192 2.616 492.192 2.544 490.2 1.8C490.896 1.248 491.472 1.248 491.592 1.248C492.216 1.248 494.016 1.896 494.016 2.664C494.016 2.736 493.848 3.432 493.8 3.6C493.704 4.032 493.584 4.944 493.488 6.336C494.04 6.288 500.208 5.736 500.232 5.736C501.048 5.736 502.2 6.288 502.2 6.96ZM492.456 13.152C492.456 12.576 492.36 10.752 490.68 10.752C490.008 10.752 489.072 11.568 489.072 12.936C489.072 14.304 490.128 15.408 491.016 15.408C491.808 15.408 492.456 14.544 492.456 13.152ZM512.496 18.552C512.496 20.496 510.984 22.104 509.016 22.104C507.072 22.104 505.56 20.496 505.56 18.552C505.56 16.584 507.12 15.024 509.016 15.024C510.936 15.024 512.496 16.584 512.496 18.552ZM511.8 18.576C511.8 16.992 510.552 15.72 509.016 15.72C507.48 15.72 506.256 17.016 506.256 18.552C506.256 20.088 507.456 21.408 509.016 21.408C510.576 21.408 511.8 20.112 511.8 18.576Z" fill="#523C3C"/>
</g>
<defs>
<clipPath id="clip0_923_2293">
<rect width="513" height="24" fill="white"/>
</clipPath>
</defs>
</svg>
