<svg width="390" height="185" viewBox="0 0 390 185" fill="none" xmlns="http://www.w3.org/2000/svg">
<path d="M60.4 23.92C60.4 24.64 59.76 24.8 59.2 24.8H34.88C34.64 25.2 34.4 25.6 34.08 26.16C39.44 26.48 54.88 28.96 54.88 35.68C54.88 37.44 53.36 38.64 52 38.64C50.24 38.64 49.84 38.08 47.44 35.68C46.96 35.2 40.32 29.04 33.6 27.04C27.12 36.48 13.6 37.84 10.72 38.16L10.64 37.76C19.52 34.96 26 30.4 29.28 24.8H24C22 24.8 18.16 24.8 14.56 25.52L12.96 22.32C17.92 22.72 22.88 22.88 25.28 22.88H30.24C31.04 20.88 31.6 19.04 31.6 16.96C31.6 15.84 31.44 15.2 31.2 14.4L38.56 16C39.04 16.08 39.68 16.4 39.68 16.96C39.68 17.52 39.2 18.16 36.96 19.28C36.56 20.88 36.32 21.68 35.76 22.88H50.32L52.64 19.52C52.96 19.12 53.36 18.48 53.76 18.48C54.24 18.48 54.72 18.8 55.28 19.28L59.6 22.64C60.24 23.12 60.4 23.52 60.4 23.92ZM71.76 42.24C71.76 43.04 71.12 43.12 70.56 43.12H55.84C55.84 46.56 56.16 61.6 56.16 64.64C56.16 67.68 56.16 73.36 47.12 74.64C46.08 71.2 44 68.32 40.64 67.12L40.72 66.56C42.64 66.72 44.88 66.88 47.12 66.88C49.2 66.88 49.92 66.8 50.24 66.32C50.56 65.92 50.56 63.52 50.56 62C50.56 59.6 50.48 49.92 50.4 43.12H11.36C9.92 43.12 5.76 43.12 1.92 43.84L0.32 40.64C5.28 41.04 10.24 41.2 12.64 41.2H61.36L63.84 37.52C64.08 37.12 64.56 36.48 65.04 36.48C65.52 36.48 66.08 37.04 66.48 37.36L70.96 41.04C71.36 41.36 71.76 41.76 71.76 42.24ZM39.6 51.44C39.6 52 39.12 52.56 37.68 54C37.68 55.36 37.92 61.84 37.92 63.28C37.92 65.44 36.64 67.12 34.48 67.12C31.92 67.12 32.16 65.28 32.32 64.08H18.4V66.4C18.4 68.08 18.4 70.72 14.96 70.72C14.08 70.72 12.64 70.48 12.64 68.72C12.64 68.08 13.04 57.6 13.04 55.52C13.04 51.84 12.8 48.08 12.56 46.64L19.28 49.84H31.52L33.52 47.92C33.76 47.68 34.24 47.44 34.64 47.44C35.12 47.44 35.52 47.6 35.84 47.92L38.72 50.24C39.12 50.56 39.6 50.96 39.6 51.44ZM32.32 62.16V51.76H18.4V62.16H32.32ZM71.12 15.52C71.12 16.8 70 17.12 65.84 17.12C64.96 17.44 60.64 19.44 59.68 19.92L59.28 19.52C59.76 18.48 61.04 15.2 61.76 12.88H13.2C12.88 16.16 10.96 24.56 4.88 24.56C3.28 24.56 1.6 23.36 1.6 21.52C1.6 19.12 3.36 17.92 6.24 15.92C10.96 12.72 11.92 9.2 12.4 6.96H13.04C13.2 8.24 13.28 9.36 13.28 10.96H33.12C33.04 7.04 33.04 5.84 31.44 1.35999L40.08 3.68C40.72 3.84 41.12 4.31999 41.12 4.72C41.12 5.28 40.96 5.68 38.64 7.04C38.56 8.48 38.56 8.88 38.64 10.96H61.04L62.96 9.12C63.44 8.72 64 8.32 64.4 8.32C64.88 8.32 65.52 8.64 65.92 9.12L70.64 14.24C70.8 14.48 71.12 14.96 71.12 15.52ZM132.96 35.2C132.96 49.92 129.6 59.44 120.64 67.6C118 70 112.96 73.84 109.28 74.64L109.12 74.24C122.96 64.24 127.04 48.8 127.04 34.48C127.04 29.2 126.72 14.64 120.72 14.64C117.52 14.64 115.28 17.92 114.56 18.96C111.36 23.6 106.08 35.84 106.08 45.44C106.08 46.32 106.64 50.4 106.64 51.2C106.64 52.08 106.32 53.44 104.72 53.44C100 53.44 98.56 44.08 98.56 36.88C98.56 30.8 100.24 20.24 101.36 13.76C101.44 13.36 101.68 11.84 101.68 10.72C101.68 6.4 98.72 4.56 97.04 3.44C97.76 3.28 99.12 2.88 100.64 2.88C104.32 2.88 107.68 5.84 107.68 8.64C107.68 9.92 107.2 10.96 106.72 12.16C104.24 17.92 102.24 26 102.24 33.6C102.24 34.8 102.24 39.36 103.04 39.36C103.52 39.36 103.68 38.96 103.76 38.56C105.6 32 112.48 11.52 121.92 11.52C131.92 11.52 132.96 27.2 132.96 35.2ZM178.56 49.52L178.32 49.2C188.64 37.68 192.88 29.68 195.6 22.88H191.28C189.84 22.88 185.76 22.88 181.84 23.6L180.32 20.48C185.28 20.88 190.16 20.96 192.56 20.96H196.4C197.92 16.64 198.48 14.32 198.8 13.04C194.48 13.76 189.68 14.24 182.08 14.08L182.24 13.6C187.68 12.64 211.68 6.8 217.28 0.719998L222.16 5.36C222.88 6.08 223.2 6.32 223.2 7.04C223.2 8.08 222.32 8.16 221.92 8.16C221.6 8.16 220.48 8.08 219.04 7.68C215.2 9.12 210.96 10.56 205.2 11.84C203.84 16.88 202.96 19.12 202.16 20.96H220L223.12 17.36C223.6 16.8 223.92 16.4 224.32 16.4C224.88 16.4 225.12 16.64 225.84 17.2L230.24 20.8C230.64 21.12 231.04 21.44 231.04 22.08C231.04 22.8 230.32 22.88 229.84 22.88H208.32C214 33.12 222.32 39.12 233.76 41.28V41.6C230.48 42.56 227.44 45.04 225.68 47.2C216.48 41.68 209.52 30.48 207.04 22.88H201.36C193.84 40.16 182.88 46.96 178.56 49.52ZM165.6 4.48V4.08C171.6 4.88 177.92 8.16 177.92 13.12C177.92 14.64 177.2 16.32 174.96 16.32C172.48 16.32 171.52 14.16 170.88 12.72C169.12 8.88 166.96 5.92 165.6 4.48ZM159.2 25.76L159.28 25.36C164.8 25.44 171.68 28.96 171.68 33.12C171.68 33.76 171.44 36.48 168.72 36.48C166.96 36.48 166.56 35.76 164.72 32.64C163.04 29.92 161.36 27.6 159.2 25.76ZM195.68 37.68L203.36 39.84C204.24 40.08 204.56 40.48 204.56 40.96C204.56 41.76 204.32 41.92 202.16 43.44C202.32 48.16 202.4 59.84 202.4 64.48C202.4 69.84 200.48 72.48 194.24 73.92C193.6 70.72 192.24 68.96 188.16 66.08V65.68C189.36 66 193.36 66.16 194.24 66.16C195.76 66.16 196.56 66 196.8 64.96C197.04 64.16 197.04 59.36 197.04 58.08C197.04 55.28 196.96 42.72 196.56 40.72C196.32 39.36 196 38.48 195.68 37.68ZM186.72 49.28H187.04C187.52 50.48 188.08 52 188.08 55.36C188.08 61.68 185.68 66.08 182.08 66.08C180.96 66.08 179.28 65.44 179.28 63.36C179.28 61.6 179.92 60.8 182.32 58C183.28 56.8 185.52 53.76 186.72 49.28ZM206.48 50.64L206.8 50.4C210.48 52.72 216.16 58.56 216.16 63.6C216.16 66.64 214.24 67.92 212.48 67.92C209.44 67.92 209.2 64.96 209.04 62.8C208.72 58.56 208.4 55.28 206.48 50.64ZM218.16 51.6L218.48 51.36C222 53.36 230.48 58.48 230.48 65.2C230.48 67.04 229.44 69.2 227.12 69.2C224.24 69.2 223.6 65.76 223.12 63.36C222.4 59.68 220.4 54.72 218.16 51.6ZM179.52 25.12H180C178.8 31.92 177.12 36.88 172.48 51.6C171.76 53.76 171.6 54.8 171.6 55.92C171.6 57.04 171.76 58.48 172.96 62.96C174.08 67.12 174.24 67.6 174.24 69.04C174.24 73.2 171.52 73.68 170.56 73.68C168 73.68 166.96 71.12 166.96 69.12C166.96 68.24 167.2 64.48 167.2 63.68C167.2 58.48 167.2 54.64 162.4 52.24V51.6C164.08 51.52 166.4 51.36 167.92 49.28C170.48 45.76 179.2 25.84 179.52 25.12ZM308 44.64C308 47.44 306.48 49.84 305.2 49.84C304.24 49.84 303.92 49.52 300.8 46.56C298.64 44.56 294.32 43.76 292.32 43.36V42.88C293.44 42.72 298.88 42.24 299.44 42.08C300.48 41.84 301.2 41.2 301.2 40C301.2 37.52 297.04 25.76 287.12 20.8C287.68 20.72 287.84 20.64 288.48 20.64C297.44 20.64 308 35.36 308 44.64ZM275.2 32.72C274.08 35.12 265.76 53.92 265.6 54.8C265.52 55.2 265.44 55.44 265.44 55.84C265.44 56.48 266.08 59.52 266.08 60.16C266.08 62.24 264.8 62.88 263.6 62.88C260.8 62.88 249.44 58.88 248.08 36.08C247.6 28.16 247.28 23.12 246.8 21.36C246.08 18.48 244.8 16.32 244 14.8C248.08 15.04 254.08 18.56 254.08 23.76C254.08 24.32 254.08 24.8 253.76 26.4C253.28 29.36 252.72 33.28 252.72 37.52C252.72 47.36 257.52 53.2 259.68 53.2C260.56 53.2 261.36 52.16 261.6 51.76C265.2 46.4 271.12 37.92 274.56 32.48L275.2 32.72ZM58.88 175.76C58.88 177.6 56.88 178.24 55.84 178.56C53.6 179.28 44.88 179.84 40 179.84C37.28 179.84 24.24 179.92 18.4 175.84C15.28 173.68 13.36 170.08 13.36 166.72C13.36 161.76 16.56 154 28.72 146.4C27.76 144.96 25.6 141.76 25.52 137.12C25.28 124.64 25.2 123.28 24.8 121.6C24.32 119.6 22.96 118.08 21.84 117.52C19.6 116.32 19.28 116.24 18.72 115.84C19.68 115.44 21.28 114.72 23.28 114.72C26.8 114.72 32.48 117.92 32.48 120.32C32.48 120.72 32.16 121.68 32 122.08C31.36 124 30.32 126.88 30.32 133.12C30.32 137.04 30.48 140.96 32.08 144.48C36.72 141.84 41.6 139.68 46.72 137.84C48.16 137.28 49.04 136.8 49.04 135.68C49.04 135.12 48.88 134.48 48.4 133.12C49.68 133.44 52.16 133.92 53.68 135.68C54.96 137.12 55.84 139.12 55.84 140C55.84 142.24 55.28 142.24 50.88 142.96C39.52 144.72 16.08 154.8 16.08 166C16.08 174.56 28 174.56 33.2 174.56C39.44 174.56 42.56 174.08 50.4 172.72C51.52 172.56 52.48 172.4 53.44 172.4C55.6 172.4 58.88 173.2 58.88 175.76ZM138.48 167.92C138.48 181.36 125.12 184 119.6 184C114.56 184 108.96 182.32 105.68 178.32C103.36 175.44 102.96 170.88 102.96 168.32C102.96 166.08 103.12 164.88 103.92 160.16C100.16 158.56 93.76 155.76 93.76 150.8C93.76 147.36 95.2 146.16 102.32 140C103.2 139.28 103.28 138.88 103.28 138.48C103.28 137.92 103.04 137.6 102.4 137.28C95.76 133.68 93.44 132.32 93.36 127.28C98.24 132.16 102.96 133.28 108.8 134.64C109.6 130.8 110.72 124.4 110.72 121.84C110.72 117.84 108 116.24 105.52 114.96C106.24 114.4 107.12 113.84 108.96 113.84C112.8 113.84 118.08 117.44 118.08 120.32C118.08 121.36 117.76 122 116.88 124.16C114.88 128.8 114.32 130.08 112.8 135.76C114.8 136.8 115.76 138.32 115.76 139.44C115.76 141.6 113.6 141.52 111.36 141.44C110.32 145.6 110.16 146.32 108.08 156.48C109.44 156.56 115.2 156.8 116.32 157.2C117.68 157.76 119.84 159.6 119.84 161.12C119.84 162.64 117.84 162.88 115.44 162.88C111.68 162.88 108.48 161.76 107.28 161.36C107.12 162.56 106.96 164.24 106.96 166.72C106.96 171.44 107.76 175.12 111.36 177.52C114.16 179.36 117.2 179.76 119.2 179.76C126.88 179.76 132.32 174.96 132.32 167.76C132.32 160.8 126.56 150.24 119.04 145.12L119.36 144.64C131.44 150.64 138.48 158 138.48 167.92ZM107.44 141.28C101.44 141.44 96.88 146.72 96.88 150C96.88 153.44 102.08 155.12 104.64 155.84C105.2 152.88 106.08 148 107.44 141.28ZM223.28 129.44C223.28 131.28 221.6 131.76 218.72 132.24C210.96 133.6 205.92 136.24 203.28 138.16L202.8 137.68C204 136.56 209.84 131.2 210.08 130.96C210.32 130.72 210.32 130.56 210.32 130.32C210.32 129.44 207.84 129.44 207.36 129.44C204.16 129.44 198.88 130.72 192.8 133.04C197.12 127.28 205.2 125.2 212.64 125.2C217.6 125.2 223.28 126.64 223.28 129.44ZM227.2 171.6C227.2 174.16 224.4 174.56 219.36 174.56C217.44 174.56 206.72 174.48 199.76 172.32C194.96 170.8 191.68 166.16 191.68 161.44C191.68 159.6 192.08 158.88 192.48 158.08C194.32 164.16 195.76 168.8 210.88 168.8C212.48 168.8 220.24 168.16 221.04 168.16C223.84 168.16 227.2 169.36 227.2 171.6ZM183.12 148.32C182.64 150.56 181.52 155.2 180.88 157.76C179.92 161.76 178.08 169.44 178.08 173.04C178.08 173.92 178.48 177.76 178.48 178.56C178.48 179.92 178.32 181.52 176.4 181.52C173.12 181.52 167.92 174.16 167.92 157.92C167.92 152.16 169.68 141.36 171.04 133.12C171.28 131.6 171.52 129.52 171.52 127.76C171.52 124.96 171.12 122.88 168.8 120C169.2 119.84 169.52 119.68 170.24 119.68C173.12 119.68 178.32 124.16 178.32 127.28C178.32 128 178.16 128.72 177.28 131.04C174.16 139.04 171.68 147.44 171.68 156.16C171.68 161.68 173.04 167.84 174.32 167.84C174.8 167.84 175.2 166.88 175.36 166.32C176.24 163.6 179.6 154.32 182.48 148.16L183.12 148.32ZM311.28 167.84C311.28 168.64 310.48 168.64 310.08 168.64H273.76C273.84 170.24 273.92 173.2 270.4 173.2C268.48 173.2 268 172.08 268 171.2C268 170.96 268.08 170.88 268.08 170.56C268.32 167.68 268.32 154.48 268.32 150.48C268.32 147.92 268.48 135.52 268.48 132.72C265.36 137.44 262.08 141.12 258.16 143.68L257.84 143.44C265.36 133.2 271.68 116.32 271.28 112.24L278.72 116.16C279.28 116.48 279.52 116.88 279.52 117.28C279.52 118.32 279.28 118.4 276.64 119.04C275.28 121.52 274.08 123.76 271.84 127.44L274.24 128.72H284.8C286.4 125.84 288.4 120.8 289.28 116.4C289.6 114.64 289.52 113.04 289.44 112.4L297.28 116.8C297.68 117.04 298.08 117.44 298.08 117.84C298.08 118.8 297.44 118.96 294.88 119.6C291.12 123.84 289.36 125.92 286.32 128.72H298.96L301.6 125.76C302.16 125.12 302.48 124.8 302.88 124.8C303.28 124.8 303.6 125.04 304.32 125.6L308.08 128.56C308.72 129.04 308.88 129.36 308.88 129.76C308.88 130.56 308.08 130.64 307.68 130.64H289.84V141.12H295.28L298.24 137.76C298.8 137.12 299.04 136.8 299.52 136.8C299.92 136.8 300.4 137.04 300.96 137.6L304.56 140.96C304.96 141.36 305.36 141.68 305.36 142.16C305.36 142.96 304.56 143.04 304.16 143.04H289.84V153.52H296L298.08 150.72C298.64 150 298.96 149.68 299.36 149.68C299.84 149.68 300.24 150 300.96 150.48L305.04 153.36C305.6 153.76 305.84 154.24 305.84 154.56C305.84 155.36 305.04 155.44 304.56 155.44H289.84V166.72H300L303.36 163.04C304 162.32 304.24 162.08 304.64 162.08C305.04 162.08 305.36 162.32 306.16 162.96L310.48 166.64C311.12 167.12 311.28 167.44 311.28 167.84ZM284.32 153.52V143.04H273.76V153.52H284.32ZM284.32 141.12V130.64H273.76V141.12H284.32ZM284.32 166.72V155.44H273.76V166.72H284.32ZM260.4 126.72C260.4 129.2 258.72 130.4 257.28 130.4C255.44 130.4 255.2 129.84 253.04 125.36C250.48 120.16 249.12 118.32 247.04 116.24L247.28 115.92C250.56 116.64 260.4 120.4 260.4 126.72ZM313.44 175.84C310.4 178.24 309.2 180.16 308.16 183.76C305.76 183.92 303.92 183.92 302 183.92C295.36 183.92 279.76 183.84 273.84 182.8C261.68 180.64 258.48 174.32 257.04 171.6C255.68 173.12 248.56 180.88 248.24 181.28C247.44 184.24 247.36 184.64 246.64 184.64C246.16 184.64 245.92 184.56 245.52 184L240.4 177.04C246 177.2 252.08 173.6 252.8 173.2V149.6H250.96C249.52 149.6 245.44 149.6 241.6 150.32L240 147.2C246.08 147.68 251.28 147.68 251.76 147.68L254.4 145.04C255.04 144.4 255.12 144.4 255.44 144.4C255.68 144.4 255.84 144.56 256.16 144.8L260.24 147.92C260.72 148.24 260.8 148.48 260.8 148.8C260.8 149.12 260.72 149.6 260.32 149.92C259.36 150.72 258.4 151.36 258.08 151.68C258 153.68 258.08 167.84 258.24 168.88C259.84 178.32 274.32 178.32 281.92 178.32C292.48 178.32 302.96 177.44 313.28 175.44L313.44 175.84ZM389.52 151.12C389.52 154.16 387.84 154.48 387.36 154.48C386.88 154.48 385.68 153.84 384.4 153.12C383.04 152.4 381.6 152.32 376.32 152.24L376.24 151.92C381.6 149.04 381.68 148.4 381.68 147.44C381.68 145.84 378.88 141.52 375.44 141.52C372.4 141.52 372.32 145.2 372.32 147.28C372.32 154.56 375.28 163.2 376.24 165.68C377.84 169.6 377.92 170.08 377.92 170.96C377.92 181.6 355.6 181.6 354 181.6C349.04 181.6 339.92 180.96 336.8 177.12C335.04 175.04 334.96 172.4 334.96 171.68C334.96 168.56 336 164.64 336.48 162.96C330.48 162.24 327.76 155.28 327.76 151.84C327.76 146.08 333.2 141.12 338.72 141.12C339.28 141.12 339.6 141.12 340.32 141.2L341.04 135.68C338.08 136.16 335.44 136.32 334.16 136.32C328.4 136.32 325.6 133.36 325.44 129.52C328.16 131.68 330.64 132.24 333.76 132.24C336.88 132.24 340.08 131.68 341.52 131.44C342.48 124.08 342.64 123.12 342.64 122.08C342.64 119.84 341.92 119.04 337.04 117.6C337.6 116.96 338.88 115.44 341.12 115.44C344 115.44 349.84 117.28 349.84 120.08C349.84 120.88 349.36 122 348.88 122.8C347.84 124.56 347.52 125.12 346.24 130.4C348.72 129.76 351.36 129.04 355.04 127.44C356.64 126.72 357.2 126.72 357.92 126.72C359.68 126.72 361.92 127.84 361.92 129.52C361.92 131.04 360.24 131.52 359.6 131.76C355.52 133.04 351.84 133.76 345.28 134.96C344 141.6 343.84 142.32 343.6 143.52C344.4 144.48 345.84 146.16 345.84 148.8C345.84 151.44 344.16 155.6 342.64 158.8C338.4 167.76 337.92 168.8 337.92 170.8C337.92 176.48 347.84 176.48 351.04 176.48C351.12 176.48 365.28 176.4 369.28 172.4C370.96 170.72 371.2 168.88 371.2 166.72C371.2 165.6 370.24 152.96 370.24 150.32C370.24 142.8 371.84 139.44 376 139.44C381.84 139.44 389.52 144.48 389.52 151.12ZM339.52 147.76C339.52 146.4 338.8 144.16 336.64 144.56C335.44 144.72 331.04 147.04 331.04 150.88C331.04 153.76 333.44 157.92 335.84 157.92C337.12 157.92 337.84 157.28 338.4 155.52C339.44 152.08 339.52 148.24 339.52 147.76Z" fill="#523C3C"/>
</svg>
