<svg width="324" height="18" viewBox="0 0 324 18" fill="none" xmlns="http://www.w3.org/2000/svg">
<g clip-path="url(#clip0_933_2309)">
<path opacity="0.5" d="M12.816 -27.38C12.816 -24.068 12.06 -21.926 10.044 -20.09C9.45 -19.55 8.316 -18.686 7.488 -18.506L7.452 -18.596C10.566 -20.846 11.484 -24.32 11.484 -27.542C11.484 -28.73 11.412 -32.006 10.062 -32.006C9.342 -32.006 8.838 -31.268 8.676 -31.034C7.956 -29.99 6.768 -27.236 6.768 -25.076C6.768 -24.878 6.894 -23.96 6.894 -23.78C6.894 -23.582 6.822 -23.276 6.462 -23.276C5.4 -23.276 5.076 -25.382 5.076 -27.002C5.076 -28.37 5.454 -30.746 5.706 -32.204C5.724 -32.294 5.778 -32.636 5.778 -32.888C5.778 -33.86 5.112 -34.274 4.734 -34.526C4.896 -34.562 5.202 -34.652 5.544 -34.652C6.372 -34.652 7.128 -33.986 7.128 -33.356C7.128 -33.068 7.02 -32.834 6.912 -32.564C6.354 -31.268 5.904 -29.45 5.904 -27.74C5.904 -27.47 5.904 -26.444 6.084 -26.444C6.192 -26.444 6.228 -26.534 6.246 -26.624C6.66 -28.1 8.208 -32.708 10.332 -32.708C12.582 -32.708 12.816 -29.18 12.816 -27.38ZM33.03 -24.176C33.03 -21.206 29.358 -19.442 25.074 -19.694V-19.802C26.568 -20.036 27.99 -20.558 29.304 -21.278C30.582 -21.962 31.644 -22.826 31.644 -24.356C31.644 -24.842 31.536 -26.66 29.376 -26.66C27.234 -26.66 24.93 -25.22 23.49 -23.042C23.4 -22.898 23.274 -22.718 23.04 -22.718C22.374 -22.718 22.086 -23.78 22.086 -24.158C22.086 -24.446 22.122 -24.554 22.32 -25.454C22.5 -26.282 22.644 -28.46 22.644 -29.234C22.644 -30.872 22.644 -31.808 25.758 -32.294C25.866 -32.312 25.92 -32.33 25.92 -32.42C25.92 -32.51 25.866 -32.546 25.434 -32.834C24.93 -33.176 24.3 -33.914 24.318 -34.616C25.092 -33.986 25.236 -33.932 26.91 -33.23C27.306 -33.068 28.314 -32.654 28.314 -31.574C28.314 -31.178 28.17 -31.016 27.936 -31.016C27.684 -31.016 27.522 -31.106 27.108 -31.304C26.784 -31.448 26.028 -31.61 25.236 -31.61C23.868 -31.61 23.292 -31.178 23.292 -30.656C23.292 -30.476 23.328 -30.368 23.688 -29.468C23.778 -29.216 23.814 -28.964 23.814 -28.838C23.814 -28.658 23.598 -27.938 23.562 -27.776C23.472 -27.398 23.184 -26.156 23.184 -25.328C23.184 -25.22 23.202 -24.914 23.418 -24.914C23.526 -24.914 24.642 -25.724 24.876 -25.868C26.676 -26.966 28.458 -27.308 29.52 -27.308C31.986 -27.308 33.03 -25.58 33.03 -24.176ZM48.168 -19.73C48.168 -19.316 47.934 -18.686 47.484 -18.686C47.196 -18.686 47.142 -18.758 46.296 -20.126C45.306 -21.728 44.892 -22.142 41.472 -25.526C41.292 -25.706 40.824 -26.228 40.824 -26.804C40.824 -27.092 40.878 -27.398 41.49 -28.046C43.308 -29.972 46.044 -32.834 46.044 -33.536C46.044 -33.968 45.648 -34.364 45.18 -34.832C46.764 -34.994 47.61 -33.68 47.61 -32.996C47.61 -32.636 47.43 -32.492 46.89 -32.06C46.314 -31.61 43.632 -29.144 42.138 -27.506C41.832 -27.182 41.832 -26.948 41.832 -26.84C41.832 -26.39 41.958 -26.264 43.416 -24.932C47.448 -21.296 48.168 -20.666 48.168 -19.73ZM68.706 -24.122C68.706 -22.052 66.906 -19.856 63.594 -19.856C61.866 -19.856 60.084 -20.558 60.084 -21.962C60.084 -23.204 61.326 -23.528 62.064 -23.528C63.414 -23.528 64.422 -22.592 64.89 -21.098C66.33 -21.35 67.338 -22.898 67.338 -24.266C67.338 -25.688 66.24 -26.948 64.404 -26.948C60.894 -26.948 58.572 -23.546 58.302 -23.132C57.852 -22.412 57.69 -22.142 57.312 -22.142C57.096 -22.142 56.7 -22.268 56.7 -22.898C56.7 -23.492 56.844 -23.636 57.924 -24.68C59.364 -26.102 63.792 -31.844 63.792 -32.528C63.792 -32.636 63.738 -32.708 63.594 -32.708C63.36 -32.708 61.992 -32.258 61.02 -31.736C60.984 -31.718 60.282 -31.34 60.228 -31.34C59.832 -31.34 58.77 -31.916 58.77 -33.032C58.77 -33.356 58.86 -33.5 58.968 -33.626C59.382 -32.942 59.706 -32.78 60.21 -32.78C61.074 -32.78 62.982 -33.32 63.522 -33.5C63.648 -33.536 64.242 -33.734 64.332 -33.734C65.016 -33.734 65.646 -32.87 65.646 -32.492C65.646 -32.204 65.646 -32.186 64.998 -31.7C64.53 -31.34 61.074 -27.38 60.354 -26.21C61.434 -26.822 62.802 -27.488 64.674 -27.488C67.572 -27.488 68.706 -25.76 68.706 -24.122ZM63.774 -20.81C63.396 -22.142 62.226 -22.808 61.632 -22.808C61.272 -22.808 60.768 -22.574 60.768 -22.052C60.768 -21.116 62.622 -20.702 63.144 -20.702C63.414 -20.702 63.558 -20.738 63.774 -20.81ZM88.272 -21.296C88.272 -21.044 88.128 -20.702 87.75 -20.702C87.426 -20.702 87.066 -20.954 86.67 -21.242C85.626 -21.998 85.374 -22.142 85.104 -22.286C84.888 -21.638 84.402 -20.234 82.206 -20.234C80.658 -20.234 79.326 -21.08 79.326 -22.196C79.326 -23.33 80.478 -23.978 82.278 -23.978C83.07 -23.978 83.646 -23.888 84.15 -23.816C84.132 -24.626 83.97 -28.19 83.952 -28.928C82.836 -28.802 82.818 -28.802 82.458 -28.802C81.684 -28.802 79.83 -29.036 79.344 -30.152C79.794 -29.99 80.604 -29.702 81.864 -29.702C82.71 -29.702 83.574 -29.828 83.916 -29.882C83.88 -31.016 83.826 -32.582 83.79 -32.762C83.718 -33.122 83.61 -33.32 82.566 -33.59C82.764 -33.752 83.16 -34.058 83.736 -34.058C84.348 -34.058 85.284 -33.554 85.284 -33.086C85.284 -33.032 85.086 -32.06 85.068 -31.988C84.978 -31.448 84.942 -30.692 84.924 -30.062C85.068 -30.098 85.32 -30.17 85.518 -30.224C85.644 -30.26 86.742 -30.584 87.156 -30.584C87.498 -30.584 88.11 -30.314 88.11 -29.972C88.11 -29.432 86.958 -29.288 84.924 -29.036C84.924 -28.91 84.96 -26.21 85.212 -23.474C87.264 -22.628 88.272 -22.16 88.272 -21.296ZM77.49 -26.75C77.472 -26.678 76.644 -22.646 76.626 -22.574C76.554 -22.106 76.536 -21.8 76.536 -21.602C76.536 -21.404 76.644 -20.576 76.644 -20.414C76.644 -19.892 76.338 -19.838 76.14 -19.838C74.862 -19.838 74.52 -23.042 74.52 -24.32C74.52 -26.264 74.952 -28.532 75.096 -29.324C75.348 -30.728 75.474 -31.394 75.474 -31.628C75.474 -32.456 75.06 -32.798 74.7 -33.086C74.844 -33.14 74.988 -33.194 75.24 -33.194C76.068 -33.194 77.004 -32.33 77.004 -31.664C77.004 -31.43 76.968 -31.358 76.716 -30.764C75.546 -27.956 75.438 -25.904 75.438 -25.04C75.438 -24.752 75.51 -22.952 75.762 -22.952C75.87 -22.952 75.96 -23.114 75.996 -23.258C76.014 -23.33 77.184 -26.444 77.31 -26.786L77.49 -26.75ZM84.024 -22.808C83.448 -23.06 82.602 -23.132 81.954 -23.132C80.55 -23.132 79.992 -22.61 79.992 -22.304C79.992 -21.836 80.658 -21.332 81.828 -21.332C82.134 -21.332 83.736 -21.332 84.024 -22.808ZM95.202 -20.342C95.202 -19.838 94.878 -19.298 94.32 -19.298C93.744 -19.298 93.6 -19.766 93.42 -20.36C93.312 -20.738 92.79 -22.43 91.062 -23.816L91.116 -23.978C92.376 -23.564 93.114 -23.276 93.978 -22.556C94.284 -22.286 95.202 -21.422 95.202 -20.342ZM115.29 -28.316C115.29 -27.866 114.804 -27.866 114.768 -27.866C114.48 -27.866 113.22 -27.938 112.95 -27.938C108.792 -27.938 106.452 -25.562 106.452 -23.672C106.452 -21.566 108.972 -20.99 110.646 -20.756C111.204 -20.684 111.6 -20.36 111.6 -19.802C111.6 -19.532 111.51 -19.244 110.826 -19.244C109.854 -19.244 105.66 -20.198 105.66 -23.258C105.66 -25.49 107.586 -26.822 109.188 -27.794C107.568 -27.74 104.526 -26.642 102.654 -25.562C102.546 -25.508 102.042 -25.22 101.664 -25.22C100.998 -25.22 100.764 -25.706 100.764 -26.012C100.764 -26.462 100.944 -26.534 101.988 -26.876C103.752 -27.47 105.462 -28.874 107.514 -30.764C108.018 -31.214 109.782 -32.906 109.782 -33.32C109.782 -33.446 109.674 -33.5 109.566 -33.5C108.954 -33.5 107.532 -32.78 106.902 -32.33C106.2 -31.844 106.128 -31.79 105.876 -31.79C105.318 -31.79 104.598 -32.564 104.598 -33.41C104.598 -33.77 104.706 -33.932 104.832 -34.112C105.228 -33.518 105.462 -33.32 105.876 -33.32C106.362 -33.32 109.53 -34.274 110.088 -34.274C110.736 -34.274 111.492 -33.428 111.492 -32.888C111.492 -32.582 111.402 -32.528 110.592 -32.024C110.034 -31.682 107.766 -29.864 107.28 -29.54C106.794 -29.198 104.256 -27.524 104.166 -27.434C104.148 -27.416 104.112 -27.38 104.112 -27.344C104.112 -27.308 104.148 -27.272 104.238 -27.272C104.31 -27.272 104.67 -27.362 104.778 -27.398C106.848 -27.974 108.198 -28.244 112.86 -29.306C113.292 -29.396 113.508 -29.432 113.652 -29.432C114.282 -29.432 115.29 -28.82 115.29 -28.316ZM133.668 -26.084C133.362 -24.878 132.174 -20.324 128.79 -20.324C126.774 -20.324 126.594 -21.836 126.36 -23.636C126.234 -24.716 126.09 -25.886 124.992 -25.886C122.742 -25.886 121.338 -22.628 120.834 -21.458C120.258 -20.144 120.204 -20 119.772 -20C119.286 -20 119.16 -20.756 119.16 -21.17C119.16 -21.404 119.16 -21.638 119.772 -22.466C120.906 -24.032 125.046 -31.628 125.046 -32.456C125.046 -32.87 124.776 -33.05 124.056 -33.518C124.218 -33.59 124.416 -33.698 124.758 -33.698C125.694 -33.698 126.684 -32.816 126.684 -32.078C126.684 -31.736 126.63 -31.664 126.054 -30.962C125.64 -30.44 122.994 -26.678 122.346 -25.184C123.498 -26.066 124.308 -26.516 125.37 -26.516C127.116 -26.516 127.296 -25.292 127.512 -23.978C127.8 -22.25 128.16 -21.674 129.006 -21.674C131.202 -21.674 132.876 -24.86 133.488 -26.12L133.668 -26.084ZM146.16 -31.628C146.16 -31.448 146.016 -31.34 145.872 -31.268C145.584 -31.124 144.18 -30.728 142.146 -30.242C141.678 -29.306 139.716 -25.13 139.248 -24.32C138.834 -23.618 138.456 -22.952 138.096 -22.952C137.97 -22.952 137.592 -23.024 137.592 -23.636C137.592 -24.14 137.844 -24.464 138.024 -24.716C139.32 -26.426 140.472 -28.802 141.012 -29.972C140.616 -29.882 140.076 -29.738 139.392 -29.738C138.33 -29.738 137.43 -30.296 137.574 -31.376C138.006 -30.764 138.6 -30.656 139.32 -30.656C139.968 -30.656 140.706 -30.782 141.426 -30.944C141.84 -31.97 142.182 -32.852 142.182 -33.23C142.182 -33.428 142.074 -33.86 141.12 -34.112C141.39 -34.346 141.642 -34.472 142.002 -34.472C142.704 -34.472 143.802 -33.716 143.802 -33.248C143.802 -33.068 143.802 -33.068 143.352 -32.42C143.1 -32.06 142.956 -31.808 142.686 -31.286C143.046 -31.412 143.658 -31.628 144.036 -31.808C144.828 -32.168 144.918 -32.222 145.134 -32.222C145.368 -32.222 146.16 -31.97 146.16 -31.628ZM150.84 -27.308C150.84 -26.984 150.66 -26.786 150.372 -26.786C150.264 -26.786 150.066 -26.804 149.742 -26.984C149.13 -27.308 148.914 -27.434 148.212 -27.434C146.322 -27.434 146.052 -26.408 146.052 -25.562C146.052 -24.518 146.25 -23.51 146.358 -22.952C147.798 -22.646 149.778 -21.89 149.778 -20.72C149.778 -20.45 149.598 -20.126 149.274 -20.126C149.058 -20.126 148.338 -20.63 147.888 -20.954C147.168 -21.458 146.844 -21.584 146.484 -21.71C146.466 -21.332 146.43 -20.576 145.8 -20C145.062 -19.316 144.036 -19.244 143.622 -19.244C142.128 -19.244 140.832 -20.054 140.832 -21.17C140.832 -22.52 142.47 -23.168 144.216 -23.168C144.612 -23.168 144.882 -23.132 145.152 -23.114C145.098 -23.744 145.026 -24.59 145.026 -25.004C145.026 -26.984 146.934 -27.758 148.176 -27.992C148.32 -28.028 148.482 -28.064 148.482 -28.28C148.482 -28.514 147.834 -29.18 146.016 -29.648C146.286 -29.738 146.628 -29.828 147.168 -29.828C149.4 -29.828 150.84 -28.154 150.84 -27.308ZM145.224 -22.124C144.882 -22.214 144.594 -22.304 143.874 -22.304C143.19 -22.304 141.516 -22.16 141.516 -21.188C141.516 -20.432 142.668 -20.234 143.28 -20.234C143.91 -20.234 145.278 -20.396 145.224 -22.124ZM7.884 1.816H2.664V17.422H1.908V1.042H7.884V1.816ZM23.022 11.41H22.5C22.5 13.372 22.482 15.244 22.518 15.478C22.554 15.712 22.968 15.748 23.454 15.748C24.462 15.748 24.606 15.676 24.876 15.046C25.038 14.65 25.308 13.75 25.47 12.958L25.596 12.976C25.65 13.516 25.812 14.974 26.046 15.19C26.1 15.244 26.244 15.37 26.352 15.46C26.442 15.532 26.478 15.64 26.478 15.712C26.478 16.036 26.172 16.432 25.794 16.612C25.506 16.756 25.11 16.936 23.184 16.936C21.294 16.936 21.294 16.792 21.294 14.47C21.294 13.984 21.312 11.842 21.312 11.41H19.548L20.682 12.274C20.772 12.346 20.826 12.436 20.826 12.526C20.826 12.778 20.556 12.814 20.052 12.886C18.36 15.19 16.65 16.954 12.654 17.44L12.618 17.278C15.642 16.504 18.54 13.696 19.26 11.41H18.918C18.954 11.968 18.558 12.184 18.144 12.184C17.766 12.184 17.676 11.968 17.676 11.77C17.676 11.608 17.694 11.284 17.694 11.068C17.712 10.168 17.748 8.368 17.748 5.326C17.748 3.094 17.676 2.266 17.514 1.402L19.17 2.122H22.896L23.31 1.672C23.364 1.618 23.508 1.474 23.616 1.474C23.688 1.474 23.832 1.564 23.904 1.618L24.786 2.302C24.858 2.356 24.93 2.464 24.93 2.536C24.93 2.698 24.858 2.752 24.228 3.202C24.21 4.696 24.228 6.874 24.264 8.008C24.264 8.296 24.408 11.14 24.408 11.284C24.408 11.914 23.796 12.094 23.508 12.094C23.004 12.094 23.022 11.734 23.022 11.41ZM23.022 5.434H18.9V7.882H23.022V5.434ZM18.9 10.978H23.022V8.314H18.9V10.978ZM23.022 2.554H18.9V5.002H23.022V2.554ZM16.812 2.932H14.166V7.414H14.814L15.444 6.694C15.552 6.586 15.642 6.478 15.732 6.478C15.822 6.478 15.912 6.532 16.056 6.658L16.884 7.378C16.956 7.432 17.064 7.54 17.064 7.648C17.064 7.828 16.884 7.846 16.794 7.846H14.166V11.968C14.742 11.806 16.542 11.266 16.992 11.104L17.028 11.248C16.362 11.68 12.51 13.642 11.106 14.218C10.944 14.668 10.89 14.812 10.71 14.812C10.584 14.812 10.512 14.686 10.458 14.578L9.666 12.886C10.476 12.958 11.106 12.85 12.924 12.328V7.846C11.664 7.846 11.106 7.9 10.584 8.008L10.224 7.288C10.782 7.342 12.276 7.396 12.924 7.414V2.932H12.492C12.06 2.932 11.178 2.95 10.368 3.094L10.026 2.374C10.89 2.464 11.898 2.5 12.78 2.5H14.904L15.516 1.888C15.624 1.78 15.75 1.654 15.822 1.654C15.894 1.654 16.02 1.726 16.146 1.834L16.902 2.464C16.974 2.518 17.082 2.644 17.082 2.734C17.082 2.896 16.956 2.932 16.812 2.932ZM41.526 2.212C41.526 2.392 41.238 2.572 40.95 2.734C40.95 4.264 40.968 4.876 40.986 5.506C41.004 5.758 41.04 6.892 41.04 7.126C41.04 7.72 40.374 7.828 40.176 7.828C39.708 7.828 39.726 7.468 39.762 7.018H36.558C36.558 7.378 36.576 7.954 35.73 7.954C35.244 7.954 35.244 7.666 35.244 7.54C35.244 7.45 35.28 7.198 35.28 7.144C35.316 6.334 35.352 4.588 35.352 3.76C35.352 2.248 35.298 1.798 35.172 1.132L36.648 1.888H39.69L40.104 1.438C40.194 1.33 40.248 1.276 40.32 1.276C40.392 1.276 40.464 1.33 40.572 1.402L41.328 1.96C41.418 2.014 41.526 2.104 41.526 2.212ZM39.78 4.138V2.32H36.54V4.138H39.78ZM39.78 6.586V4.57H36.54V6.586H39.78ZM44.316 8.728C44.316 8.908 44.154 8.926 44.046 8.926H36.702C36.288 9.772 35.946 10.258 35.676 10.6H41.418L41.868 10.006C41.94 9.898 42.03 9.808 42.102 9.808C42.192 9.808 42.318 9.916 42.408 9.988L43.308 10.654C43.398 10.708 43.488 10.798 43.488 10.906C43.488 11.176 43.074 11.338 42.822 11.446C42.444 17.098 40.932 17.422 39.6 17.476C39.546 16.954 39.33 16.414 38.376 15.64L38.394 15.496C39.42 15.712 39.798 15.748 40.14 15.748C40.554 15.748 40.824 15.622 41.184 14.218C41.454 13.192 41.562 12.112 41.598 11.032H40.428C39.312 14.182 36.954 16.558 34.614 17.314L34.542 17.224C36.594 15.712 38.322 13.12 39.024 11.032H37.944C36.504 13.714 34.182 16.09 31.41 16.936L31.356 16.828C33.714 15.514 35.928 12.202 36.504 11.032H35.334C34.416 12.202 33.264 13.174 31.95 13.84L31.86 13.75C33.84 11.878 34.83 9.862 35.262 8.926H34.83C34.38 8.926 33.516 8.944 32.706 9.088L32.346 8.368C33.48 8.458 34.596 8.494 35.118 8.494H41.76L42.408 7.594C42.48 7.504 42.588 7.378 42.678 7.378C42.768 7.378 42.84 7.432 43.002 7.558L44.136 8.458C44.226 8.53 44.316 8.62 44.316 8.728ZM34.128 5.884C34.128 6.064 33.966 6.082 33.858 6.082H31.518C31.5 7.756 31.518 9.538 31.518 11.266C33.102 10.618 33.444 10.456 33.84 10.258L33.912 10.384C33.03 11.194 30.744 12.652 29.052 13.714C28.944 14.164 28.854 14.308 28.674 14.308C28.53 14.308 28.404 14.092 28.35 14.002L27.504 12.382C28.53 12.382 28.71 12.31 30.294 11.752C30.294 10.096 30.276 7.648 30.276 6.082C29.646 6.082 28.872 6.136 28.242 6.244L27.9 5.524C28.566 5.578 29.124 5.614 30.276 5.65C30.258 4.822 30.222 2.482 30.078 1.816C30.006 1.528 29.934 1.294 29.826 1.024L31.752 1.6C31.968 1.672 32.148 1.708 32.148 1.906C32.148 2.14 31.806 2.284 31.536 2.392C31.518 2.896 31.518 5.182 31.518 5.65H32.058L32.562 4.912C32.616 4.822 32.724 4.678 32.814 4.678C32.922 4.678 33.048 4.768 33.156 4.876L33.948 5.614C34.092 5.74 34.128 5.812 34.128 5.884ZM61.902 7.504C61.902 8.008 61.524 8.08 61.416 8.08C61.146 8.08 61.092 7.99 60.57 7.198C60.138 6.568 59.328 5.902 58.734 5.47C59.886 5.578 61.902 6.316 61.902 7.504ZM59.796 8.278C59.796 8.584 59.688 8.908 59.31 8.908C59.004 8.908 58.95 8.836 58.518 8.08C58.158 7.45 57.69 6.964 56.826 6.1C58.032 6.352 59.796 7.144 59.796 8.278ZM60.876 3.76C60.876 4.336 60.318 4.336 59.814 4.336C57.51 4.336 56.826 4.336 55.62 5.056C53.946 6.046 52.578 8.368 52.578 10.42C52.578 13.426 55.746 14.128 57.366 14.488C57.636 14.542 58.392 14.704 58.392 15.478C58.392 15.946 57.942 15.982 57.708 15.982C55.854 15.982 51.696 14.614 51.696 10.654C51.696 9.88 51.84 8.332 53.172 6.622C53.676 5.974 54.108 5.596 55.656 4.372C53.748 4.624 49.896 5.956 49.284 6.298C48.51 6.748 48.42 6.784 48.132 6.784C47.682 6.784 46.818 6.244 46.818 5.2C46.818 4.732 46.944 4.498 47.07 4.282C47.412 4.822 47.682 5.236 48.474 5.236C48.834 5.236 49.302 5.146 51.12 4.714C53.262 4.192 56.718 3.418 58.86 2.896C59.04 2.86 59.292 2.806 59.436 2.806C59.706 2.806 60.876 3.148 60.876 3.76ZM74.826 4.858C74.826 4.966 74.7 5.02 74.556 5.02H71.262V6.55H72.54L72.792 6.208C72.882 6.082 72.99 5.992 73.08 5.992C73.152 5.992 73.314 6.064 73.458 6.172L74.088 6.604C74.178 6.658 74.286 6.766 74.286 6.856C74.286 7 74.124 7.162 73.728 7.522C73.692 7.972 73.746 10.222 73.746 10.726C73.746 11.428 73.17 11.464 72.99 11.464C72.558 11.464 72.594 11.158 72.63 10.906H71.262V12.598H72.216L72.648 11.968C72.738 11.842 72.81 11.752 72.936 11.752C73.026 11.752 73.134 11.824 73.26 11.932L73.98 12.562C74.07 12.652 74.16 12.76 74.16 12.868C74.16 12.976 74.07 13.03 73.89 13.03H71.262V14.416C72.036 14.326 73.08 14.164 73.944 13.912L73.98 14.038C72.828 14.668 70.128 15.46 68.49 15.838C68.4 16.036 68.274 16.216 68.112 16.216C68.004 16.216 67.914 16.108 67.86 15.946L67.428 14.56C67.644 14.596 67.932 14.632 68.256 14.632C68.346 14.632 69.21 14.632 70.254 14.524V13.03H69.948C69.822 13.03 68.67 13.03 67.824 13.192L67.482 12.472C68.274 12.544 68.976 12.58 70.254 12.598V10.906H68.886C68.886 11.158 68.868 11.608 68.184 11.608C67.752 11.608 67.752 11.32 67.752 11.194C67.752 11.14 67.77 10.87 67.77 10.798C67.824 9.862 67.842 8.404 67.842 7.738C67.842 7.162 67.842 6.496 67.716 6.01L68.958 6.55H70.254V5.02H69.84C69.408 5.02 68.508 5.02 67.716 5.182L67.374 4.462C67.824 4.498 68.904 4.588 70.254 4.588V3.256C68.94 3.508 68.292 3.472 67.896 3.454V3.346C72.504 1.834 72.81 1.492 73.206 1.024L74.286 2.032C74.376 2.122 74.43 2.194 74.43 2.266C74.43 2.356 74.358 2.446 74.124 2.446H73.656C73.584 2.446 71.64 2.95 71.262 3.04V4.588H72.756L73.296 3.886C73.404 3.742 73.494 3.652 73.584 3.652C73.692 3.652 73.782 3.742 73.908 3.85L74.646 4.552C74.754 4.66 74.826 4.768 74.826 4.858ZM72.648 8.476V6.982H71.262V8.476H72.648ZM72.648 10.474V8.908H71.262V10.474H72.648ZM70.254 8.476V6.982H68.886V8.476H70.254ZM70.254 10.474V8.908H68.886V10.474H70.254ZM79.794 5.632C79.794 5.794 79.65 5.902 79.344 6.136C79.308 7.09 79.218 11.374 79.182 12.238C79.002 15.604 78.408 16.918 76.41 17.224C76.14 16.414 75.51 15.874 74.754 15.478L74.772 15.334C75.168 15.406 75.708 15.514 76.5 15.514C77.454 15.514 77.724 14.866 77.94 13.264C78.246 11.086 78.192 6.55 78.192 5.722L76.896 5.812C76.824 9.322 76.698 15.136 71.694 17.152L71.64 17.026C74.34 15.064 75.564 12.58 75.708 5.884C74.772 5.974 74.466 6.046 74.178 6.118L73.782 5.434C74.628 5.47 75.528 5.434 75.69 5.416C75.69 4.984 75.654 2.824 75.654 2.662C75.654 2.122 75.636 2.014 75.402 1.132L77.076 1.564C77.184 1.6 77.346 1.672 77.346 1.78C77.346 1.888 77.238 2.05 76.914 2.284V2.644C76.914 2.806 76.896 3.472 76.896 5.38L77.94 5.308L78.318 4.858C78.426 4.732 78.498 4.66 78.588 4.66C78.696 4.66 78.786 4.714 78.93 4.822L79.596 5.344C79.686 5.416 79.794 5.524 79.794 5.632ZM68.58 2.104C68.58 2.212 68.508 2.302 68.382 2.356C68.274 2.41 68.058 2.482 67.914 2.536C67.68 3.04 67.41 3.652 66.888 4.624L67.176 4.804C67.32 4.894 67.356 4.948 67.356 5.038C67.356 5.164 67.302 5.272 66.762 5.632C66.744 7.522 66.726 8.656 66.726 9.7C66.726 10.744 66.816 15.316 66.816 16.252C66.816 16.576 66.762 17.332 65.844 17.332C65.502 17.332 65.376 17.188 65.376 16.738C65.376 16.378 65.484 13.84 65.502 13.39C65.574 11.932 65.628 10.33 65.628 8.872V6.676C65.124 7.432 64.314 8.584 63.45 9.286L63.378 9.232C64.854 6.964 66.69 2.41 66.852 1.024L68.364 1.816C68.49 1.888 68.58 1.978 68.58 2.104ZM93.168 16.27C93.168 16.684 92.934 17.314 92.484 17.314C92.196 17.314 92.142 17.242 91.296 15.874C90.306 14.272 89.892 13.858 86.472 10.474C86.292 10.294 85.824 9.772 85.824 9.196C85.824 8.908 85.878 8.602 86.49 7.954C88.308 6.028 91.044 3.166 91.044 2.464C91.044 2.032 90.648 1.636 90.18 1.168C91.764 1.006 92.61 2.32 92.61 3.004C92.61 3.364 92.43 3.508 91.89 3.94C91.314 4.39 88.632 6.856 87.138 8.494C86.832 8.818 86.832 9.052 86.832 9.16C86.832 9.61 86.958 9.736 88.416 11.068C92.448 14.704 93.168 15.334 93.168 16.27ZM113.94 14.398C113.94 14.884 113.742 15.244 113.31 15.244C112.932 15.244 112.734 14.938 112.572 14.668C111.132 12.292 110.142 11.104 108.54 9.916C105.336 13.948 102.276 15.082 100.584 15.424L100.566 15.28C104.742 13.444 109.134 7.936 110.124 4.588C109.44 4.678 106.452 5.236 105.48 5.614C105.318 5.686 104.652 6.046 104.508 6.046C104.238 6.046 103.248 5.164 103.248 4.228C103.248 3.868 103.32 3.634 103.41 3.454C104.094 4.534 104.4 4.552 104.76 4.552C105.264 4.552 109.17 4.174 109.908 3.742C110.034 3.67 110.592 3.238 110.736 3.238C110.934 3.238 112.266 4.372 112.266 4.678C112.266 4.876 112.14 4.912 111.564 5.128C111.438 5.182 111.42 5.218 111.186 5.65C110.394 7.18 109.944 8.062 108.792 9.61C110.952 10.564 113.94 12.706 113.94 14.398ZM131.454 5.416C131.454 5.596 131.382 5.614 130.986 5.776C130.626 5.92 130.5 6.028 129.906 7.198C127.134 12.58 124.344 15.046 120.384 16.162L120.33 16.036C122.742 14.65 124.902 12.85 126.522 10.618C126.342 10.6 126.144 10.438 125.82 10.078C124.578 8.656 124.398 8.458 123.426 7.918C122.454 8.98 121.464 9.754 120.42 10.258L120.366 10.15C122.634 7.954 124.794 4.246 124.794 3.544C124.794 2.95 124.092 2.68 123.732 2.536C123.966 2.428 124.218 2.32 124.632 2.32C125.658 2.32 126.63 3.202 126.63 3.58C126.63 3.778 126.594 3.814 126.18 4.174C126.036 4.318 125.82 4.66 125.694 4.84C125.82 4.84 126 4.858 126.342 4.858C127.224 4.858 129.042 4.57 129.294 4.444C129.42 4.372 129.924 4.012 130.05 4.012C130.266 4.012 131.454 5.164 131.454 5.416ZM129.312 5.308C128.826 5.362 126.684 5.722 126.27 5.722C126.126 5.722 125.928 5.722 125.334 5.38C124.398 6.766 123.696 7.594 123.606 7.702C124.614 7.828 126.918 8.278 127.026 9.898C127.494 9.196 128.358 7.882 129.312 5.308ZM144.576 8.422C144.576 8.8 144.378 9.124 144.036 9.124C143.658 9.124 143.604 8.962 143.298 8.134C143.064 7.468 142.632 6.82 142.218 6.28C143.442 6.64 144.576 7.648 144.576 8.422ZM148.734 7.522C148.734 7.648 148.698 7.702 148.356 8.08C148.248 8.206 147.51 9.79 147.348 10.096C144.756 14.974 141.552 15.82 140.292 16.162L140.256 15.982C145.656 13.462 147.204 7.702 147.204 7.45C147.204 7.018 146.484 6.604 146.25 6.478C146.484 6.424 146.718 6.352 147.042 6.352C147.816 6.352 148.734 7.306 148.734 7.522ZM141.462 9.232C141.462 9.592 141.282 9.898 140.94 9.898C140.544 9.898 140.364 9.484 140.166 9.034C139.932 8.53 139.446 7.72 138.852 7.09C140.04 7.27 141.462 8.242 141.462 9.232ZM168.012 5.236C168.012 5.452 167.994 5.452 167.418 5.794C167.094 5.992 166.95 6.316 166.734 6.946C165.69 9.952 164.016 12.814 161.334 14.542C159.822 15.514 158.544 15.838 157.986 15.982L157.95 15.838C161.226 14.146 164.826 10.222 165.924 5.074C164.7 5.056 159.516 5.812 158.58 6.082C158.418 6.136 157.608 6.496 157.572 6.496C157.23 6.496 156.114 5.578 156.114 4.39C156.114 4.156 156.204 3.958 156.276 3.814C157.086 4.768 157.23 4.948 158.022 4.948C158.526 4.948 165.24 4.39 165.78 4.156C165.906 4.102 166.356 3.724 166.464 3.724C166.68 3.724 168.012 4.894 168.012 5.236ZM178.092 17.278H172.116V16.504H177.336V0.897999H178.092V17.278ZM196.2 9.07C196.2 12.562 193.284 15.244 189.162 15.604L189.144 15.46C192.996 14.092 194.796 11.554 194.796 8.818C194.796 5.776 192.348 3.976 189.216 3.976C188.766 3.976 188.676 3.994 188.478 4.084C189.45 4.606 189.72 5.272 189.72 5.524C189.72 5.722 189.666 5.848 189.108 7.018C187.956 9.484 186.264 13.102 185.04 14.11C184.914 14.2 184.698 14.308 184.464 14.308C184.05 14.308 183.888 14.074 183.348 13.318C183.222 13.138 182.502 12.472 182.376 12.31C182.178 12.022 181.872 11.374 181.872 10.474C181.872 6.604 185.148 3.418 189.54 3.418C193.032 3.418 196.2 5.452 196.2 9.07ZM188.298 5.344C188.298 4.894 188.082 4.516 187.74 4.192C185.76 4.516 183.006 7.072 183.006 10.384C183.006 11.608 183.708 12.958 184.41 12.958C184.896 12.958 185.598 11.68 185.904 11.068C187.704 7.45 188.298 6.28 188.298 5.344ZM205.884 1.816H200.664V17.422H199.908V1.042H205.884V1.816ZM224.532 15.82C224.532 16.162 224.028 16.972 223.038 16.972H220.374C219.204 16.972 218.682 16.72 218.682 15.316C218.682 13.246 218.682 3.652 218.628 2.212C218.61 1.69 218.556 1.51 218.448 1.204L220.212 1.654C220.302 1.672 220.518 1.726 220.518 1.906C220.518 2.032 220.392 2.14 220.284 2.23C220.122 2.356 220.05 2.41 219.906 2.536V7.126C220.212 6.856 222.156 5.02 222.57 3.958L223.92 5.218C223.992 5.272 224.064 5.398 224.064 5.47C224.064 5.632 223.866 5.668 223.758 5.668C223.65 5.668 223.488 5.632 223.308 5.596C222.174 6.37 220.878 7.072 219.906 7.468C219.888 8.674 219.924 13.948 219.888 15.028C219.87 15.586 219.96 15.748 220.608 15.748H222.03C222.39 15.748 222.768 15.586 222.966 14.884C223.002 14.758 223.362 13.336 223.452 12.796H223.578C223.65 13.534 223.866 15.136 224.064 15.352C224.118 15.406 224.37 15.568 224.424 15.604C224.496 15.658 224.532 15.73 224.532 15.82ZM223.452 11.392C223.452 11.662 223.254 12.166 222.75 12.166C222.192 12.166 221.922 11.698 221.382 10.744C221.346 10.672 220.68 9.646 219.942 9.196L219.978 9.052C220.446 9.178 221.526 9.484 222.228 9.898C223.362 10.582 223.452 11.212 223.452 11.392ZM215.892 7.252C215.892 7.63 215.694 7.972 215.244 7.972C214.686 7.972 214.596 7.72 214.236 6.604C214.2 6.496 213.966 5.83 213.426 5.2L213.498 5.074C214.776 5.632 215.892 6.208 215.892 7.252ZM217.944 1.924C217.944 2.122 217.656 2.284 217.35 2.428C217.368 2.95 217.386 3.724 217.386 4.282C217.386 9.826 217.332 11.734 216.432 13.534C215.55 15.262 214.236 16.396 212.382 17.17L212.31 17.026C215.712 14.65 215.964 11.5 216.108 9.736C215.532 10.294 214.812 10.906 213.858 11.644C213.75 12.202 213.66 12.4 213.48 12.4C213.39 12.4 213.228 12.31 213.156 12.148L212.382 10.456C213.48 10.51 215.28 9.79 216.126 9.34C216.18 8.206 216.18 7.558 216.18 6.856C216.18 5.506 216.162 2.194 215.874 1.168L217.602 1.654C217.728 1.69 217.944 1.78 217.944 1.924ZM214.686 4.678C214.686 4.858 214.524 4.876 214.416 4.876H211.734V8.53C212.634 8.296 213.48 8.044 214.11 7.792L214.2 7.972C213.552 8.332 212.58 8.89 211.734 9.304C211.752 10.24 211.878 14.362 211.878 15.19C211.878 15.91 211.878 17.062 209.556 17.44C209.34 16.612 209.088 16.216 207.936 15.586L207.99 15.496C208.71 15.622 209.79 15.676 210.006 15.676C210.402 15.676 210.528 15.604 210.582 15.352C210.636 15.136 210.636 13.732 210.636 13.372C210.636 13.048 210.618 10.06 210.618 9.862C210.06 10.132 209.628 10.312 209.16 10.528C209.052 11.104 209.034 11.248 208.8 11.248C208.638 11.248 208.53 11.14 208.476 11.05L207.486 9.43C208.278 9.412 208.512 9.34 210.6 8.818L210.546 4.876C209.88 4.876 209.016 4.876 208.152 5.038L207.792 4.318C208.98 4.426 209.826 4.444 210.546 4.444C210.546 3.58 210.528 2.068 210.51 1.834C210.456 1.438 210.348 1.204 210.24 0.952L212.166 1.51C212.31 1.546 212.418 1.636 212.418 1.78C212.418 1.924 212.292 2.032 211.734 2.374V4.444H212.652L213.21 3.742C213.336 3.598 213.39 3.508 213.498 3.508C213.606 3.508 213.678 3.58 213.804 3.706L214.506 4.408C214.614 4.516 214.686 4.588 214.686 4.678ZM242.1 16.522C242.1 16.918 241.776 17.08 241.47 17.08C240.552 17.08 238.446 16.072 237.222 13.462C235.116 15.406 233.334 15.964 232.524 16.198L232.488 16.072C233.406 15.604 234.9 14.758 236.826 12.544C236.034 10.456 235.89 8.584 235.764 7.018C234.918 7.198 234.612 7.306 234.306 7.414L233.892 6.856C233.856 7.54 233.964 10.582 233.964 11.212C233.964 11.716 233.496 11.95 233.172 11.95C232.758 11.95 232.74 11.716 232.74 11.536H231.012V13.264H232.812L233.37 12.508C233.478 12.364 233.568 12.292 233.658 12.292C233.73 12.292 233.856 12.346 233.964 12.454L234.81 13.228C234.9 13.318 234.99 13.444 234.99 13.534C234.99 13.642 234.882 13.696 234.72 13.696H231.012C231.012 14.11 231.084 15.892 231.084 16.252C231.084 16.792 230.778 17.152 230.238 17.152C229.752 17.152 229.68 16.864 229.68 16.648C229.68 16.45 229.77 15.622 229.788 15.46C229.824 14.758 229.842 14.056 229.842 13.696H228.366C228.042 13.696 227.124 13.714 226.26 13.876L225.9 13.156C227.016 13.246 228.114 13.264 228.654 13.264H229.842C229.86 12.994 229.878 11.788 229.878 11.536H228.168C228.168 11.86 228.186 12.346 227.376 12.346C227.106 12.346 226.926 12.166 226.926 11.914C226.926 11.788 226.98 11.284 226.998 11.176C227.016 9.988 227.016 9.088 227.016 8.494C227.016 6.496 227.016 6.442 226.89 5.488L228.24 6.1H232.542L232.956 5.596C233.046 5.488 233.154 5.38 233.244 5.38C233.334 5.38 233.46 5.452 233.622 5.578L234.18 6.028C234.324 6.136 234.378 6.226 234.378 6.316C234.378 6.46 234.306 6.55 233.928 6.766C234.954 6.676 235.584 6.568 235.728 6.55C235.692 5.812 235.656 3.868 235.62 2.518C235.602 1.744 235.512 1.456 235.422 1.096L237.096 1.672C237.24 1.726 237.384 1.816 237.384 1.924C237.384 2.122 237.168 2.266 236.898 2.374C236.844 2.914 236.808 3.598 236.808 4.696C236.808 5.506 236.826 6.028 236.862 6.37L239.31 5.938L239.868 5.11C239.994 4.912 240.066 4.84 240.174 4.84C240.246 4.84 240.354 4.894 240.498 4.966L241.542 5.524C241.668 5.596 241.758 5.704 241.758 5.794C241.758 5.902 241.668 5.974 241.524 5.992L236.88 6.802C237.006 8.296 237.096 9.592 237.654 11.5C238.878 9.772 239.778 8.044 239.886 7.144L241.398 8.134C241.506 8.206 241.596 8.296 241.596 8.422C241.596 8.566 241.416 8.71 240.858 8.728C240.282 9.718 239.472 11.032 238.05 12.634C238.86 14.47 240.21 15.136 240.426 15.136C240.696 15.136 240.804 14.938 241.182 14.254C241.308 14.002 241.848 12.922 241.956 12.706L242.064 12.724C242.046 12.958 241.722 15.298 241.722 15.514C241.722 15.622 241.74 15.766 241.938 16.09C242.082 16.306 242.1 16.396 242.1 16.522ZM232.758 8.584V6.532H231.012V8.584H232.758ZM232.758 11.104V9.016H231.012V11.104H232.758ZM229.878 8.584V6.532H228.15V8.584H229.878ZM229.878 11.104V9.016H228.15V11.104H229.878ZM240.174 3.922C240.174 4.39 239.778 4.642 239.436 4.642C238.968 4.642 238.788 4.228 238.716 4.084C238.518 3.616 238.212 2.95 237.708 2.428L237.78 2.302C238.608 2.446 240.174 2.716 240.174 3.922ZM234.594 2.446C234.594 2.644 234.414 2.716 234.18 2.77C233.658 3.4 232.308 4.912 231.21 5.722L231.12 5.614C231.84 4.408 232.74 2.77 232.938 1.546L234.36 2.14C234.522 2.212 234.594 2.32 234.594 2.446ZM230.922 3.868C230.922 4.066 230.814 4.714 230.184 4.714C229.572 4.714 229.536 4.192 229.464 3.508C229.392 2.788 229.248 2.428 228.924 1.816L229.014 1.726C230.922 2.644 230.922 3.67 230.922 3.868ZM228.492 4.318C228.492 4.804 228.222 5.128 227.844 5.128C227.286 5.128 227.124 4.552 227.088 4.39C226.872 3.616 226.746 3.076 226.17 2.266L226.242 2.194C227.646 2.59 228.492 3.472 228.492 4.318ZM250.092 17.278H244.116V16.504H249.336V0.897999H250.092V17.278ZM267.138 4.624C267.138 5.038 266.76 5.146 266.112 5.254C264.366 5.56 263.232 6.154 262.638 6.586L262.53 6.478C262.8 6.226 264.114 5.02 264.168 4.966C264.222 4.912 264.222 4.876 264.222 4.822C264.222 4.624 263.664 4.624 263.556 4.624C262.836 4.624 261.648 4.912 260.28 5.434C261.252 4.138 263.07 3.67 264.744 3.67C265.86 3.67 267.138 3.994 267.138 4.624ZM268.02 14.11C268.02 14.686 267.39 14.776 266.256 14.776C265.824 14.776 263.412 14.758 261.846 14.272C260.766 13.93 260.028 12.886 260.028 11.824C260.028 11.41 260.118 11.248 260.208 11.068C260.622 12.436 260.946 13.48 264.348 13.48C264.708 13.48 266.454 13.336 266.634 13.336C267.264 13.336 268.02 13.606 268.02 14.11ZM258.102 8.872C257.994 9.376 257.742 10.42 257.598 10.996C257.382 11.896 256.968 13.624 256.968 14.434C256.968 14.632 257.058 15.496 257.058 15.676C257.058 15.982 257.022 16.342 256.59 16.342C255.852 16.342 254.682 14.686 254.682 11.032C254.682 9.736 255.078 7.306 255.384 5.452C255.438 5.11 255.492 4.642 255.492 4.246C255.492 3.616 255.402 3.148 254.88 2.5C254.97 2.464 255.042 2.428 255.204 2.428C255.852 2.428 257.022 3.436 257.022 4.138C257.022 4.3 256.986 4.462 256.788 4.984C256.086 6.784 255.528 8.674 255.528 10.636C255.528 11.878 255.834 13.264 256.122 13.264C256.23 13.264 256.32 13.048 256.356 12.922C256.554 12.31 257.31 10.222 257.958 8.836L258.102 8.872ZM284.238 14.722C284.238 15.082 284.094 15.388 283.716 15.388C283.464 15.388 282.798 14.974 282.132 14.542C280.908 13.768 280.314 13.57 279.72 13.426C279.612 14.452 279.288 16.036 276.714 16.036C275.364 16.036 273.474 15.37 273.474 14.146C273.474 13.21 274.446 12.58 275.058 12.4C276.444 11.968 277.74 12.022 278.442 12.058C278.334 11.374 278.208 10.384 278.208 8.08C278.208 7.72 278.226 4.282 278.226 4.156C278.226 3.076 278.01 2.68 276.714 2.446C276.876 2.266 277.164 1.942 277.848 1.942C278.478 1.942 279.81 2.428 279.81 3.13C279.81 3.256 279.648 3.94 279.594 4.12C279.522 4.426 279.45 4.75 279.342 5.56C280.116 5.506 280.8 5.29 282.204 4.84C282.366 4.786 282.528 4.75 282.744 4.75C282.996 4.75 283.734 4.858 283.734 5.344C283.734 5.596 283.626 5.722 283.482 5.812C283.068 6.1 281.502 6.478 280.458 6.478C280.026 6.478 279.612 6.334 279.27 6.172C279.252 6.496 279.198 7.162 279.198 8.098C279.198 10.24 279.468 11.698 279.594 12.274C281.304 12.58 284.238 13.516 284.238 14.722ZM278.478 13.12C278.118 13.048 277.722 12.976 276.984 12.976C276.048 12.976 274.176 13.174 274.176 14.074C274.176 14.794 275.472 14.956 276.246 14.956C278.406 14.956 278.478 13.75 278.478 13.12ZM302.49 11.41C302.49 14.056 299.7 15.802 295.074 15.802C294.444 15.802 294.066 15.766 293.742 15.73V15.532C294.822 15.496 297.612 15.136 299.196 14.236C299.844 13.858 301.32 12.814 301.32 11.158C301.32 9.556 299.862 8.584 298.26 8.584C297.594 8.584 295.578 8.8 292.878 11.176C292.194 11.77 292.122 11.824 291.942 11.824C291.528 11.824 290.61 11.068 290.61 10.294C290.61 9.988 290.7 9.808 290.808 9.628C290.988 9.898 291.294 10.33 291.672 10.33C291.924 10.33 292.122 10.24 292.662 9.952C293.796 9.322 294.984 8.782 296.19 8.404C296.766 8.224 297.558 8.044 298.404 8.044C300.51 8.044 302.49 9.142 302.49 11.41ZM322.074 3.868C322.074 4.408 321.57 4.408 321.318 4.408C318.852 4.408 318.582 4.408 317.808 4.66C315.684 5.38 313.74 7.972 313.74 10.51C313.74 13.588 317.034 14.218 318.33 14.47C318.906 14.578 319.572 14.848 319.572 15.532C319.572 16.072 319.014 16.072 318.888 16.072C317.844 16.072 312.858 15.1 312.858 10.798C312.858 8.008 314.712 6.082 316.764 4.462C315.72 4.426 312.066 5.686 310.284 6.496C309.51 6.838 309.492 6.856 309.312 6.856C308.916 6.856 307.998 6.28 307.998 5.236C307.998 4.786 308.16 4.498 308.286 4.282C308.574 4.894 308.952 5.29 309.69 5.29C309.906 5.29 310.284 5.218 310.464 5.182C314.532 4.21 314.982 4.102 316.764 3.724C317.808 3.49 319.086 3.238 319.86 3.004C320.004 2.95 320.364 2.878 320.598 2.878C321.642 2.878 322.074 3.688 322.074 3.868ZM9.702 44.422H14.436L15.102 43.36C15.156 43.27 15.282 43.126 15.39 43.126C15.498 43.126 15.624 43.234 15.732 43.324L16.938 44.386C17.046 44.476 17.118 44.548 17.118 44.656C17.118 44.836 16.974 44.854 16.848 44.854H10.008C11.502 47.446 14.58 49.714 17.532 50.11V50.2C16.848 50.434 16.146 50.92 15.696 51.658C11.898 49.66 10.116 46.384 9.756 44.854H9.72C9.702 45.664 9.702 47.302 9.72 48.058C9.756 49.228 9.846 52.234 9.846 52.468C9.846 53.116 9.378 53.368 8.928 53.368C8.46 53.368 8.316 53.098 8.316 52.738C8.316 52.324 8.424 50.506 8.442 50.128C8.478 49.174 8.478 47.788 8.478 46.402C6.534 49.066 3.618 51.208 1.152 51.892V51.802C4.608 49.57 7.488 45.808 7.992 44.854H3.528C3.204 44.854 2.286 44.854 1.422 45.016L1.062 44.296C2.376 44.404 3.51 44.422 3.816 44.422H8.478C8.496 43.342 8.496 41.92 8.478 40.822H5.148C4.842 40.822 3.906 40.822 3.024 40.984L2.664 40.264C3.582 40.354 4.518 40.39 5.436 40.39H8.46C8.424 38.068 8.334 37.546 8.136 36.79L9.936 37.294C10.098 37.33 10.206 37.438 10.206 37.582C10.206 37.78 9.846 37.996 9.702 38.086V40.39H12.582L13.23 39.418C13.32 39.274 13.41 39.184 13.518 39.184C13.608 39.184 13.734 39.274 13.824 39.364L14.94 40.354C15.012 40.426 15.12 40.516 15.12 40.642C15.12 40.804 14.958 40.822 14.85 40.822H9.702V44.422ZM34.686 45.628H27.684C28.98 47.608 31.86 49.714 35.172 50.056L35.208 50.182C34.776 50.326 33.858 50.848 33.462 51.712C30.402 50.308 28.476 47.716 27.666 46.24C27.684 48.022 27.702 49.372 27.72 50.2C27.72 50.56 27.81 52.126 27.81 52.432C27.81 53.224 27 53.278 26.892 53.278C26.316 53.278 26.316 52.954 26.316 52.738C26.316 52.594 26.352 51.856 26.37 51.658C26.496 49.066 26.514 48.346 26.514 46.744C25.182 48.58 22.5 51.01 19.476 52.036L19.404 51.892C22.284 50.074 24.696 47.392 25.758 45.628H21.798C21.312 45.628 20.466 45.646 19.674 45.808L19.314 45.088C20.232 45.16 21.168 45.196 22.086 45.196H26.496C26.496 43.252 26.496 42.946 26.46 40.21H22.878C22.356 40.21 21.528 40.246 20.754 40.372L20.394 39.67C21.312 39.742 22.248 39.778 23.166 39.778H26.46C26.424 38.176 26.424 37.744 26.1 37.042L28.008 37.564C28.116 37.6 28.242 37.636 28.242 37.798C28.242 37.906 28.044 38.05 27.666 38.284C27.666 38.446 27.648 39.526 27.648 39.778H31.104L31.752 38.968C31.842 38.842 31.95 38.734 32.04 38.734C32.112 38.734 32.238 38.788 32.4 38.932L33.426 39.76C33.498 39.814 33.606 39.94 33.606 40.03C33.606 40.21 33.426 40.21 33.318 40.21H27.648C27.648 42.55 27.648 42.838 27.666 45.196H28.728C29.664 43.9 30.726 41.632 30.78 40.84L32.4 41.812C32.58 41.92 32.598 41.992 32.598 42.046C32.598 42.28 32.418 42.334 31.788 42.406C31.626 42.568 31.518 42.694 30.474 43.828C29.79 44.584 29.304 45.016 29.088 45.196H32.274L33.102 44.368C33.264 44.206 33.336 44.152 33.408 44.152C33.48 44.152 33.57 44.188 33.732 44.332L34.776 45.178C34.866 45.25 34.974 45.376 34.974 45.448C34.974 45.628 34.776 45.628 34.686 45.628ZM21.564 41.182L21.654 41.11C22.392 41.434 24.354 42.316 24.354 43.882C24.354 44.26 24.138 44.728 23.634 44.728C23.022 44.728 22.914 44.188 22.842 43.81C22.806 43.63 22.536 42.334 21.564 41.182ZM51.372 44.026C51.372 44.44 51.138 44.512 50.76 44.584C49.014 44.926 47.34 45.574 45.702 46.276C45.756 46.582 45.882 47.356 45.882 48.4C45.882 48.778 45.882 49.966 45.234 49.966C44.568 49.966 44.568 48.94 44.568 48.634C44.568 48.364 44.568 47.14 44.55 46.87C43.344 47.626 41.976 48.94 41.976 49.912C41.976 51.28 44.334 51.28 44.856 51.28C45.828 51.28 46.926 51.1 47.61 50.974C47.952 50.92 48.06 50.902 48.24 50.902C49.014 50.902 49.32 51.37 49.32 51.694C49.32 52.018 48.996 52.216 48.762 52.27C48.438 52.342 46.836 52.45 46.008 52.45C45.018 52.45 41.238 52.45 41.238 50.218C41.238 48.526 43.452 46.888 44.478 46.204C44.316 45.25 44.064 44.35 42.93 44.35C41.832 44.35 40.968 45.43 40.68 45.898C39.87 47.158 39.798 47.176 39.492 47.176C39.06 47.176 38.97 46.87 38.97 46.438C38.97 45.79 39.168 45.628 39.366 45.448C40.644 44.35 41.562 42.892 42.444 41.434C41.904 41.524 41.382 41.614 40.842 41.614C39.618 41.614 39.024 40.948 39.06 40.012C39.618 40.534 40.122 40.678 40.914 40.678C41.67 40.678 42.714 40.516 43.002 40.462C43.254 40.048 43.992 38.716 43.992 38.41C43.992 38.158 43.596 37.78 42.768 37.672C42.966 37.474 43.236 37.24 43.866 37.24C44.748 37.24 45.504 37.906 45.504 38.284C45.504 38.536 45.342 38.752 45.216 38.914C44.838 39.364 44.784 39.436 44.28 40.174C44.676 40.066 46.404 39.346 46.782 39.346C47.214 39.346 47.736 39.598 47.736 39.958C47.736 40.21 47.538 40.336 47.358 40.408C46.53 40.768 44.55 41.092 43.524 41.254C41.904 43.594 41.742 43.846 41.508 44.278C41.922 44.08 42.48 43.792 43.344 43.792C45 43.792 45.342 44.872 45.54 45.538C46.764 44.818 48.528 43.972 49.05 43.72C49.374 43.558 49.5 43.432 49.5 43.198C49.5 42.964 49.356 42.856 48.942 42.55C49.068 42.514 49.14 42.496 49.32 42.496C49.968 42.496 51.372 43.018 51.372 44.026ZM58.41 42.856L60.264 42.28L60.804 41.218C60.93 40.966 60.966 40.912 61.074 40.912C61.164 40.912 61.308 40.966 61.38 41.002L62.604 41.506C62.73 41.56 62.874 41.632 62.874 41.776C62.874 41.884 62.766 41.974 62.658 42.01L58.41 43.306C58.41 44.008 58.356 47.5 58.428 47.806C58.482 48.004 58.608 48.112 59.706 48.112C60.48 48.112 61.02 48.004 61.56 45.61H61.704C61.74 45.898 61.83 47.104 61.938 47.428C61.974 47.554 62.064 47.662 62.19 47.788C62.262 47.86 62.298 48.022 62.298 48.094C62.298 48.382 61.974 48.796 61.596 48.976C61.164 49.174 60.516 49.282 59.634 49.282C57.132 49.282 57.132 48.76 57.132 47.788C57.132 47.14 57.168 44.26 57.168 43.684C56.502 43.882 55.782 44.116 54.972 44.53L54.414 43.954C55.44 43.72 56.16 43.54 57.168 43.216C57.204 41.092 57.222 39.076 57.186 38.482C57.168 37.96 57.078 37.474 57.006 37.222L58.752 37.834C58.86 37.87 59.04 37.978 59.04 38.122C59.04 38.32 58.752 38.5 58.5 38.626C58.446 39.292 58.428 42.244 58.41 42.856ZM63.252 39.13H68.454L69.03 38.536C69.12 38.428 69.228 38.32 69.318 38.32C69.372 38.32 69.498 38.428 69.552 38.464L70.38 39.184C70.488 39.274 70.632 39.418 70.632 39.544C70.632 39.652 70.434 39.832 70.056 40.138C70.056 41.416 70.074 45.268 69.822 47.518C69.372 51.532 68.418 52.684 65.628 53.044C65.538 52.432 65.394 51.874 63.99 50.902L64.08 50.776C64.422 50.884 65.286 51.172 66.276 51.172C67.014 51.172 67.626 51.046 68.022 49.894C68.724 47.896 68.724 46.06 68.724 39.562H65.448C65.394 42.478 65.394 45.952 64.314 48.472C63.486 50.416 61.236 52.666 57.168 53.314L57.096 53.17C60.876 51.676 62.55 49.75 63.252 47.752C64.188 45.124 64.134 40.822 64.116 39.562H62.964C62.532 39.562 61.65 39.58 60.84 39.724L60.48 39.004C61.974 39.13 63.036 39.13 63.252 39.13ZM84.816 44.62C84.816 47.932 84.06 50.074 82.044 51.91C81.45 52.45 80.316 53.314 79.488 53.494L79.452 53.404C82.566 51.154 83.484 47.68 83.484 44.458C83.484 43.27 83.412 39.994 82.062 39.994C81.342 39.994 80.838 40.732 80.676 40.966C79.956 42.01 78.768 44.764 78.768 46.924C78.768 47.122 78.894 48.04 78.894 48.22C78.894 48.418 78.822 48.724 78.462 48.724C77.4 48.724 77.076 46.618 77.076 44.998C77.076 43.63 77.454 41.254 77.706 39.796C77.724 39.706 77.778 39.364 77.778 39.112C77.778 38.14 77.112 37.726 76.734 37.474C76.896 37.438 77.202 37.348 77.544 37.348C78.372 37.348 79.128 38.014 79.128 38.644C79.128 38.932 79.02 39.166 78.912 39.436C78.354 40.732 77.904 42.55 77.904 44.26C77.904 44.53 77.904 45.556 78.084 45.556C78.192 45.556 78.228 45.466 78.246 45.376C78.66 43.9 80.208 39.292 82.332 39.292C84.582 39.292 84.816 42.82 84.816 44.62ZM107.118 39.004C107.118 39.184 106.956 39.202 106.848 39.202H102.06C101.646 40.732 100.962 42.46 99.954 44.314L100.674 44.674H104.436L105.048 44.008C105.138 43.918 105.228 43.81 105.336 43.81C105.426 43.81 105.516 43.882 105.606 43.954L106.38 44.584C106.47 44.656 106.596 44.782 106.596 44.926C106.596 45.106 106.452 45.232 106.038 45.448C106.002 46.6 106.056 47.86 106.074 48.85C106.092 49.354 106.2 51.64 106.2 52.09C106.2 52.81 105.66 52.918 105.318 52.918C104.796 52.918 104.796 52.522 104.832 51.856H100.584C100.602 52.396 100.638 52.99 99.756 52.99C99.324 52.99 99.288 52.702 99.288 52.432C99.288 52.27 99.342 51.478 99.342 51.316C99.36 50.416 99.378 49.516 99.378 48.598C99.378 47.752 99.378 46.222 99.324 45.394C98.838 46.168 97.47 48.292 96.138 49.282L96.048 49.156C97.992 46.726 99.864 42.478 100.584 39.202H99.288C98.964 39.202 98.046 39.202 97.182 39.364L96.822 38.644C97.938 38.734 99.036 38.77 99.576 38.77H104.472L105.174 37.834C105.246 37.726 105.354 37.6 105.462 37.6C105.57 37.6 105.696 37.726 105.786 37.798L106.938 38.734C107.028 38.806 107.118 38.896 107.118 39.004ZM98.172 40.948C98.172 41.11 98.028 41.146 97.902 41.146H95.274C95.274 41.686 95.274 44.116 95.292 44.62C95.724 44.458 97.704 43.828 98.1 43.666L98.118 43.792C97.704 44.098 95.706 45.196 95.31 45.43C95.328 46.402 95.418 50.614 95.418 51.19C95.418 52.036 95.364 52.846 93.636 53.332C93.546 52.9 93.384 52.072 91.71 51.532V51.406C91.98 51.424 93.114 51.46 93.348 51.46C93.852 51.46 94.158 51.46 94.158 50.686V46.06C93.006 46.672 92.448 46.924 91.998 47.104C91.908 47.428 91.818 47.536 91.692 47.536C91.602 47.536 91.494 47.464 91.44 47.356L90.504 45.736C90.666 45.754 90.864 45.772 91.152 45.754C91.62 45.718 93.546 45.16 94.158 44.98C94.158 44.368 94.068 41.686 94.05 41.146H93.51C93.06 41.146 92.196 41.164 91.386 41.308L91.026 40.588C92.07 40.678 93.15 40.714 94.032 40.714C94.032 40.336 93.996 38.662 93.96 38.32C93.924 37.762 93.708 37.276 93.564 36.934L95.472 37.492C95.634 37.546 95.76 37.672 95.76 37.78C95.76 37.906 95.598 38.05 95.274 38.32C95.256 38.698 95.274 40.372 95.274 40.714H96.102L96.48 40.084C96.552 39.976 96.624 39.85 96.732 39.85C96.84 39.85 96.93 39.904 97.092 40.03L97.992 40.678C98.082 40.732 98.172 40.822 98.172 40.948ZM104.832 51.424V45.106H100.584V51.424H104.832ZM124.2 46.744C124.2 47.374 123.858 47.914 123.57 47.914C123.354 47.914 123.282 47.842 122.58 47.176C122.094 46.726 121.122 46.546 120.672 46.456V46.348C120.924 46.312 122.148 46.204 122.274 46.168C122.508 46.114 122.67 45.97 122.67 45.7C122.67 45.142 121.734 42.496 119.502 41.38C119.628 41.362 119.664 41.344 119.808 41.344C121.824 41.344 124.2 44.656 124.2 46.744ZM116.82 44.062C116.568 44.602 114.696 48.832 114.66 49.03C114.642 49.12 114.624 49.174 114.624 49.264C114.624 49.408 114.768 50.092 114.768 50.236C114.768 50.704 114.48 50.848 114.21 50.848C113.58 50.848 111.024 49.948 110.718 44.818C110.61 43.036 110.538 41.902 110.43 41.506C110.268 40.858 109.98 40.372 109.8 40.03C110.718 40.084 112.068 40.876 112.068 42.046C112.068 42.172 112.068 42.28 111.996 42.64C111.888 43.306 111.762 44.188 111.762 45.142C111.762 47.356 112.842 48.67 113.328 48.67C113.526 48.67 113.706 48.436 113.76 48.346C114.57 47.14 115.902 45.232 116.676 44.008L116.82 44.062ZM142.074 39.868C142.074 40.408 141.57 40.408 141.318 40.408C138.852 40.408 138.582 40.408 137.808 40.66C135.684 41.38 133.74 43.972 133.74 46.51C133.74 49.588 137.034 50.218 138.33 50.47C138.906 50.578 139.572 50.848 139.572 51.532C139.572 52.072 139.014 52.072 138.888 52.072C137.844 52.072 132.858 51.1 132.858 46.798C132.858 44.008 134.712 42.082 136.764 40.462C135.72 40.426 132.066 41.686 130.284 42.496C129.51 42.838 129.492 42.856 129.312 42.856C128.916 42.856 127.998 42.28 127.998 41.236C127.998 40.786 128.16 40.498 128.286 40.282C128.574 40.894 128.952 41.29 129.69 41.29C129.906 41.29 130.284 41.218 130.464 41.182C134.532 40.21 134.982 40.102 136.764 39.724C137.808 39.49 139.086 39.238 139.86 39.004C140.004 38.95 140.364 38.878 140.598 38.878C141.642 38.878 142.074 39.688 142.074 39.868ZM157.95 48.112C157.95 48.508 157.752 49.444 157.284 49.444C157.104 49.444 157.014 49.39 156.258 48.832C155.448 48.256 152.892 47.662 151.218 47.662C150.516 47.662 148.716 47.806 148.716 49.516C148.716 51.388 151.344 51.55 152.55 51.55C152.892 51.55 154.368 51.424 154.674 51.424C155.142 51.424 155.826 51.622 155.826 52.144C155.826 52.81 155.124 52.81 154.134 52.81C152.766 52.81 147.942 52.81 147.942 49.714C147.942 47.284 150.426 47.104 151.812 47.104C153.18 47.104 154.548 47.266 155.88 47.554C155.934 47.572 155.97 47.572 156.006 47.572C156.096 47.572 156.168 47.572 156.168 47.464C156.168 47.356 156.096 47.23 155.988 47.068C155.934 46.978 155.43 46.24 154.134 44.386C152.262 45.016 150.57 45.214 150.03 45.214C148.986 45.214 148.104 44.566 147.78 43.774C148.428 44.062 149.004 44.314 149.94 44.314C150.678 44.314 152.154 44.116 153.594 43.558C152.946 42.46 152.622 41.74 152.46 41.398C152.136 41.506 150.732 41.92 150.012 41.92C149.382 41.92 148.374 41.524 147.996 40.696C148.608 40.948 148.914 41.074 149.634 41.074C150.498 41.074 151.362 40.858 152.1 40.588C151.974 40.318 151.488 39.076 151.362 38.842C151.02 38.23 150.228 38.104 149.49 38.158C149.688 37.762 149.94 37.276 150.984 37.276C151.362 37.276 152.496 37.42 152.586 38.032C152.604 38.212 152.658 39.094 152.694 39.256C152.766 39.634 152.856 39.958 152.946 40.228C153.18 40.138 153.666 39.886 154.116 39.58C154.764 39.148 154.836 39.094 155.142 39.094C155.538 39.094 155.88 39.328 155.88 39.598C155.88 39.796 155.79 39.958 155.43 40.156C154.602 40.624 154.026 40.876 153.288 41.128C153.702 42.082 154.026 42.658 154.386 43.234C154.764 43.054 155.25 42.82 155.97 42.37C156.51 42.046 156.582 41.992 156.888 41.992C157.356 41.992 157.716 42.244 157.716 42.514C157.716 42.766 157.446 42.946 157.212 43.072C156.996 43.18 156.096 43.648 154.962 44.08C155.7 45.124 156.528 46.096 157.374 47.032C157.932 47.644 157.95 47.842 157.95 48.112ZM178.038 43.882C178.038 44.08 177.948 44.35 177.534 44.35C177.39 44.35 176.742 44.278 176.616 44.278C175.824 44.278 174.42 44.854 173.916 45.178L173.826 45.088C173.988 44.944 174.708 44.368 174.852 44.26C175.392 43.792 175.446 43.756 175.446 43.576C175.446 43.054 173.682 43.036 173.448 43.036C173.016 43.036 172.71 43.054 172.44 43.072C173.304 42.406 174.348 42.298 175.05 42.298C177.048 42.298 178.038 43.27 178.038 43.882ZM177.912 51.442C177.912 52.09 176.22 52.09 175.59 52.09C173.52 52.09 170.262 51.856 170.262 49.462C170.262 49.318 170.262 48.652 170.676 48.076C170.712 50.308 171.972 50.812 174.438 50.812C175.284 50.812 175.68 50.758 176.22 50.668C176.76 50.578 176.832 50.578 176.958 50.578C177.534 50.578 177.912 51.1 177.912 51.442ZM172.602 40.678C172.602 40.84 172.548 41.02 172.026 41.254C170.586 41.902 169.2 42.298 169.056 42.334C167.994 45.232 166.95 48.148 165.654 50.956C165.24 51.838 165.096 52.018 164.718 52.018C164.322 52.018 164.124 51.514 164.124 51.172C164.124 50.848 164.142 50.83 164.844 49.696C166.194 47.518 167.598 43.756 167.922 42.838C167.976 42.694 167.994 42.658 168.012 42.586C167.256 42.748 166.464 42.874 165.726 42.874C164.79 42.874 164.106 42.28 163.908 41.668C164.286 41.794 164.79 41.956 165.636 41.956C166.734 41.956 167.76 41.704 168.354 41.542C168.876 39.796 168.93 39.382 168.93 39.04C168.93 38.302 167.958 37.96 167.814 37.906C167.994 37.762 168.138 37.636 168.606 37.636C169.686 37.636 170.496 38.518 170.496 39.058C170.496 39.256 170.424 39.364 170.154 39.778C169.956 40.084 169.83 40.336 169.488 41.182C170.028 40.966 170.424 40.786 170.82 40.534C171.396 40.156 171.522 40.084 171.864 40.084C172.332 40.084 172.602 40.408 172.602 40.678ZM197.388 43.144C196.758 43.414 196.11 43.792 195.66 44.512C192.546 43.126 190.26 40.444 189.09 38.032L189.018 38.05C187.056 41.47 182.79 44.458 180.774 45.268L180.72 45.16C183.42 43.27 185.616 40.768 187.344 37.978C187.758 37.33 187.812 37.078 187.884 36.754L189.702 37.33C189.792 37.366 189.99 37.456 189.99 37.636C189.99 37.852 189.81 37.888 189.432 37.978C190.53 39.814 193.392 42.334 197.388 43.018V43.144ZM192.132 43.738C192.132 43.9 191.97 43.918 191.862 43.918H187.236C186.786 43.918 185.922 43.936 185.112 44.08L184.752 43.36C185.994 43.468 187.29 43.486 187.524 43.486H189.54L190.35 42.586C190.44 42.496 190.53 42.37 190.638 42.37C190.728 42.37 190.872 42.478 190.962 42.55L191.952 43.45C192.042 43.54 192.132 43.612 192.132 43.738ZM196.074 46.834C196.074 47.032 195.894 47.032 195.804 47.032H188.586C187.614 48.85 185.796 50.938 185.616 51.154C187.83 51.01 190.62 50.74 192.654 50.488C192.546 50.29 191.952 49.21 190.674 48.004L190.782 47.896C193.248 49.012 195.21 50.83 195.21 52.342C195.21 52.63 195.012 53.224 194.418 53.224C193.824 53.224 193.59 52.738 193.356 52.108C193.14 51.478 193.068 51.28 192.816 50.794C191.358 51.244 184.734 52.648 183.708 52.81C183.6 53.044 183.546 53.206 183.384 53.206C183.24 53.206 183.15 53.026 183.096 52.882L182.34 51.064C182.736 51.136 183.15 51.226 183.942 51.226C184.32 51.226 184.68 51.208 185.238 51.172C185.832 49.84 186.336 48.508 186.714 47.032H184.176C183.762 47.032 182.862 47.05 182.07 47.194L181.71 46.492C183.132 46.6 184.158 46.6 184.464 46.6H193.104L194.022 45.61C194.148 45.466 194.238 45.394 194.328 45.394C194.418 45.394 194.526 45.484 194.652 45.574L195.894 46.564C195.966 46.618 196.074 46.726 196.074 46.834ZM215.064 51.874C215.064 52 214.902 52.054 214.794 52.054H207.18C207 52.054 205.902 52.054 205.056 52.216L204.696 51.496C205.956 51.604 207.306 51.622 207.468 51.622H209.232C209.232 49.786 209.25 46.87 209.232 45.034C209.214 44.17 209.214 44.044 209.214 43.486H208.152C207.972 43.486 206.874 43.486 206.028 43.648L205.668 42.928C206.874 43.036 208.116 43.054 208.44 43.054H209.214C209.214 42.748 209.196 41.56 209.196 41.254C209.178 38.356 209.178 37.978 208.674 36.934L210.672 37.402C210.942 37.456 211.104 37.582 211.104 37.744C211.104 37.978 210.762 38.176 210.492 38.284C210.474 38.734 210.474 42.298 210.474 43.054H212.292L212.958 42.172C213.066 42.028 213.138 41.956 213.246 41.956C213.336 41.956 213.444 42.028 213.588 42.154L214.578 43.018C214.686 43.108 214.758 43.216 214.758 43.306C214.758 43.432 214.614 43.486 214.488 43.486H210.474V48.364L210.492 51.622H212.418L213.264 50.686C213.39 50.542 213.48 50.488 213.57 50.488C213.66 50.488 213.768 50.524 213.912 50.668L214.902 51.586C214.992 51.676 215.064 51.784 215.064 51.874ZM205.992 46.168C205.992 46.438 205.83 46.924 205.344 46.924C204.93 46.924 204.732 46.582 204.588 46.312C204.174 45.502 203.706 44.692 203.112 44.008C203.094 48.778 203.094 49.3 203.13 50.614C203.13 50.884 203.202 52.09 203.202 52.324C203.202 52.99 202.59 53.134 202.32 53.134C201.762 53.134 201.762 52.738 201.762 52.576C201.762 52.378 201.834 51.514 201.834 51.334C201.888 49.948 201.87 49.588 201.924 45.178C200.268 46.834 198.9 47.536 198.36 47.824L198.288 47.698C200.322 45.934 202.914 42.604 203.724 40.876H201.204C200.754 40.876 199.89 40.894 199.08 41.038L198.738 40.336C199.962 40.426 201.24 40.444 201.492 40.444H201.96C201.924 38.14 201.726 37.6 201.492 36.916L203.562 37.51C203.67 37.546 203.778 37.654 203.778 37.744C203.778 37.96 203.562 38.104 203.202 38.284C203.166 38.788 203.166 38.824 203.202 40.444H203.85L204.3 39.976C204.426 39.85 204.516 39.796 204.624 39.796C204.732 39.796 204.804 39.868 204.912 39.958L205.722 40.678C205.812 40.75 205.848 40.84 205.848 40.93C205.848 41.2 205.56 41.272 204.984 41.344C204.696 41.794 204.192 42.568 203.184 43.81C203.364 43.864 204.192 44.152 205.092 44.8C205.416 45.034 205.992 45.448 205.992 46.168ZM232.902 43.504C232.902 44.008 232.524 44.08 232.416 44.08C232.146 44.08 232.092 43.99 231.57 43.198C231.138 42.568 230.328 41.902 229.734 41.47C230.886 41.578 232.902 42.316 232.902 43.504ZM230.796 44.278C230.796 44.584 230.688 44.908 230.31 44.908C230.004 44.908 229.95 44.836 229.518 44.08C229.158 43.45 228.69 42.964 227.826 42.1C229.032 42.352 230.796 43.144 230.796 44.278ZM231.876 39.76C231.876 40.336 231.318 40.336 230.814 40.336C228.51 40.336 227.826 40.336 226.62 41.056C224.946 42.046 223.578 44.368 223.578 46.42C223.578 49.426 226.746 50.128 228.366 50.488C228.636 50.542 229.392 50.704 229.392 51.478C229.392 51.946 228.942 51.982 228.708 51.982C226.854 51.982 222.696 50.614 222.696 46.654C222.696 45.88 222.84 44.332 224.172 42.622C224.676 41.974 225.108 41.596 226.656 40.372C224.748 40.624 220.896 41.956 220.284 42.298C219.51 42.748 219.42 42.784 219.132 42.784C218.682 42.784 217.818 42.244 217.818 41.2C217.818 40.732 217.944 40.498 218.07 40.282C218.412 40.822 218.682 41.236 219.474 41.236C219.834 41.236 220.302 41.146 222.12 40.714C224.262 40.192 227.718 39.418 229.86 38.896C230.04 38.86 230.292 38.806 230.436 38.806C230.706 38.806 231.876 39.148 231.876 39.76ZM250.65 41.47C250.65 41.866 250.272 41.956 250.074 41.956C249.48 41.956 248.526 41.74 247.932 41.686C247.266 41.632 246.69 41.614 246.24 41.614C245.484 41.614 244.638 41.668 244.08 41.704C244.062 42.262 244.062 42.676 244.062 43.144C244.062 43.612 244.08 43.936 244.098 44.26C244.368 44.746 244.872 45.61 244.872 47.104C244.872 49.822 243.126 52.36 239.814 53.53L239.742 53.404C241.758 52.144 243.144 50.2 243.396 48.274C243.018 48.58 242.658 48.868 242.208 48.868C241.308 48.868 240.174 47.68 240.174 46.132C240.174 44.818 241.038 43.522 242.28 43.522C242.676 43.522 243 43.63 243.324 43.738C243.324 43.648 243.288 42.442 243.288 41.794C242.19 41.92 239.184 42.316 237.42 43.27C236.898 43.54 236.844 43.576 236.682 43.576C236.07 43.576 235.206 42.46 235.206 41.722C235.206 41.524 235.26 41.38 235.35 41.218C235.71 41.704 236.088 42.064 236.664 42.064C236.862 42.064 238.284 41.812 239.094 41.686C240.786 41.398 242.118 41.2 243.27 41.092C243.144 38.212 243.144 38.158 241.65 37.6C242.172 37.186 242.604 37.186 242.694 37.186C243.162 37.186 244.512 37.672 244.512 38.248C244.512 38.302 244.386 38.824 244.35 38.95C244.278 39.274 244.188 39.958 244.116 41.002C244.53 40.966 249.156 40.552 249.174 40.552C249.786 40.552 250.65 40.966 250.65 41.47ZM243.342 46.114C243.342 45.682 243.27 44.314 242.01 44.314C241.506 44.314 240.804 44.926 240.804 45.952C240.804 46.978 241.596 47.806 242.262 47.806C242.856 47.806 243.342 47.158 243.342 46.114ZM258.372 50.164C258.372 51.622 257.238 52.828 255.762 52.828C254.304 52.828 253.17 51.622 253.17 50.164C253.17 48.688 254.34 47.518 255.762 47.518C257.202 47.518 258.372 48.688 258.372 50.164ZM257.85 50.182C257.85 48.994 256.914 48.04 255.762 48.04C254.61 48.04 253.692 49.012 253.692 50.164C253.692 51.316 254.592 52.306 255.762 52.306C256.932 52.306 257.85 51.334 257.85 50.182Z" fill="#523C3C"/>
</g>
<defs>
<clipPath id="clip0_933_2309">
<rect width="324" height="18" fill="white"/>
</clipPath>
</defs>
</svg>
