<svg width="324" height="18" viewBox="0 0 324 18" fill="none" xmlns="http://www.w3.org/2000/svg">
<g clip-path="url(#clip0_933_2309)">
<path opacity="0.5" d="M12.816 -63.38C12.816 -60.068 12.06 -57.926 10.044 -56.09C9.45 -55.55 8.316 -54.686 7.488 -54.506L7.452 -54.596C10.566 -56.846 11.484 -60.32 11.484 -63.542C11.484 -64.73 11.412 -68.006 10.062 -68.006C9.342 -68.006 8.838 -67.268 8.676 -67.034C7.956 -65.99 6.768 -63.236 6.768 -61.076C6.768 -60.878 6.894 -59.96 6.894 -59.78C6.894 -59.582 6.822 -59.276 6.462 -59.276C5.4 -59.276 5.076 -61.382 5.076 -63.002C5.076 -64.37 5.454 -66.746 5.706 -68.204C5.724 -68.294 5.778 -68.636 5.778 -68.888C5.778 -69.86 5.112 -70.274 4.734 -70.526C4.896 -70.562 5.202 -70.652 5.544 -70.652C6.372 -70.652 7.128 -69.986 7.128 -69.356C7.128 -69.068 7.02 -68.834 6.912 -68.564C6.354 -67.268 5.904 -65.45 5.904 -63.74C5.904 -63.47 5.904 -62.444 6.084 -62.444C6.192 -62.444 6.228 -62.534 6.246 -62.624C6.66 -64.1 8.208 -68.708 10.332 -68.708C12.582 -68.708 12.816 -65.18 12.816 -63.38ZM33.03 -60.176C33.03 -57.206 29.358 -55.442 25.074 -55.694V-55.802C26.568 -56.036 27.99 -56.558 29.304 -57.278C30.582 -57.962 31.644 -58.826 31.644 -60.356C31.644 -60.842 31.536 -62.66 29.376 -62.66C27.234 -62.66 24.93 -61.22 23.49 -59.042C23.4 -58.898 23.274 -58.718 23.04 -58.718C22.374 -58.718 22.086 -59.78 22.086 -60.158C22.086 -60.446 22.122 -60.554 22.32 -61.454C22.5 -62.282 22.644 -64.46 22.644 -65.234C22.644 -66.872 22.644 -67.808 25.758 -68.294C25.866 -68.312 25.92 -68.33 25.92 -68.42C25.92 -68.51 25.866 -68.546 25.434 -68.834C24.93 -69.176 24.3 -69.914 24.318 -70.616C25.092 -69.986 25.236 -69.932 26.91 -69.23C27.306 -69.068 28.314 -68.654 28.314 -67.574C28.314 -67.178 28.17 -67.016 27.936 -67.016C27.684 -67.016 27.522 -67.106 27.108 -67.304C26.784 -67.448 26.028 -67.61 25.236 -67.61C23.868 -67.61 23.292 -67.178 23.292 -66.656C23.292 -66.476 23.328 -66.368 23.688 -65.468C23.778 -65.216 23.814 -64.964 23.814 -64.838C23.814 -64.658 23.598 -63.938 23.562 -63.776C23.472 -63.398 23.184 -62.156 23.184 -61.328C23.184 -61.22 23.202 -60.914 23.418 -60.914C23.526 -60.914 24.642 -61.724 24.876 -61.868C26.676 -62.966 28.458 -63.308 29.52 -63.308C31.986 -63.308 33.03 -61.58 33.03 -60.176ZM48.168 -55.73C48.168 -55.316 47.934 -54.686 47.484 -54.686C47.196 -54.686 47.142 -54.758 46.296 -56.126C45.306 -57.728 44.892 -58.142 41.472 -61.526C41.292 -61.706 40.824 -62.228 40.824 -62.804C40.824 -63.092 40.878 -63.398 41.49 -64.046C43.308 -65.972 46.044 -68.834 46.044 -69.536C46.044 -69.968 45.648 -70.364 45.18 -70.832C46.764 -70.994 47.61 -69.68 47.61 -68.996C47.61 -68.636 47.43 -68.492 46.89 -68.06C46.314 -67.61 43.632 -65.144 42.138 -63.506C41.832 -63.182 41.832 -62.948 41.832 -62.84C41.832 -62.39 41.958 -62.264 43.416 -60.932C47.448 -57.296 48.168 -56.666 48.168 -55.73ZM68.706 -60.122C68.706 -58.052 66.906 -55.856 63.594 -55.856C61.866 -55.856 60.084 -56.558 60.084 -57.962C60.084 -59.204 61.326 -59.528 62.064 -59.528C63.414 -59.528 64.422 -58.592 64.89 -57.098C66.33 -57.35 67.338 -58.898 67.338 -60.266C67.338 -61.688 66.24 -62.948 64.404 -62.948C60.894 -62.948 58.572 -59.546 58.302 -59.132C57.852 -58.412 57.69 -58.142 57.312 -58.142C57.096 -58.142 56.7 -58.268 56.7 -58.898C56.7 -59.492 56.844 -59.636 57.924 -60.68C59.364 -62.102 63.792 -67.844 63.792 -68.528C63.792 -68.636 63.738 -68.708 63.594 -68.708C63.36 -68.708 61.992 -68.258 61.02 -67.736C60.984 -67.718 60.282 -67.34 60.228 -67.34C59.832 -67.34 58.77 -67.916 58.77 -69.032C58.77 -69.356 58.86 -69.5 58.968 -69.626C59.382 -68.942 59.706 -68.78 60.21 -68.78C61.074 -68.78 62.982 -69.32 63.522 -69.5C63.648 -69.536 64.242 -69.734 64.332 -69.734C65.016 -69.734 65.646 -68.87 65.646 -68.492C65.646 -68.204 65.646 -68.186 64.998 -67.7C64.53 -67.34 61.074 -63.38 60.354 -62.21C61.434 -62.822 62.802 -63.488 64.674 -63.488C67.572 -63.488 68.706 -61.76 68.706 -60.122ZM63.774 -56.81C63.396 -58.142 62.226 -58.808 61.632 -58.808C61.272 -58.808 60.768 -58.574 60.768 -58.052C60.768 -57.116 62.622 -56.702 63.144 -56.702C63.414 -56.702 63.558 -56.738 63.774 -56.81ZM88.272 -57.296C88.272 -57.044 88.128 -56.702 87.75 -56.702C87.426 -56.702 87.066 -56.954 86.67 -57.242C85.626 -57.998 85.374 -58.142 85.104 -58.286C84.888 -57.638 84.402 -56.234 82.206 -56.234C80.658 -56.234 79.326 -57.08 79.326 -58.196C79.326 -59.33 80.478 -59.978 82.278 -59.978C83.07 -59.978 83.646 -59.888 84.15 -59.816C84.132 -60.626 83.97 -64.19 83.952 -64.928C82.836 -64.802 82.818 -64.802 82.458 -64.802C81.684 -64.802 79.83 -65.036 79.344 -66.152C79.794 -65.99 80.604 -65.702 81.864 -65.702C82.71 -65.702 83.574 -65.828 83.916 -65.882C83.88 -67.016 83.826 -68.582 83.79 -68.762C83.718 -69.122 83.61 -69.32 82.566 -69.59C82.764 -69.752 83.16 -70.058 83.736 -70.058C84.348 -70.058 85.284 -69.554 85.284 -69.086C85.284 -69.032 85.086 -68.06 85.068 -67.988C84.978 -67.448 84.942 -66.692 84.924 -66.062C85.068 -66.098 85.32 -66.17 85.518 -66.224C85.644 -66.26 86.742 -66.584 87.156 -66.584C87.498 -66.584 88.11 -66.314 88.11 -65.972C88.11 -65.432 86.958 -65.288 84.924 -65.036C84.924 -64.91 84.96 -62.21 85.212 -59.474C87.264 -58.628 88.272 -58.16 88.272 -57.296ZM77.49 -62.75C77.472 -62.678 76.644 -58.646 76.626 -58.574C76.554 -58.106 76.536 -57.8 76.536 -57.602C76.536 -57.404 76.644 -56.576 76.644 -56.414C76.644 -55.892 76.338 -55.838 76.14 -55.838C74.862 -55.838 74.52 -59.042 74.52 -60.32C74.52 -62.264 74.952 -64.532 75.096 -65.324C75.348 -66.728 75.474 -67.394 75.474 -67.628C75.474 -68.456 75.06 -68.798 74.7 -69.086C74.844 -69.14 74.988 -69.194 75.24 -69.194C76.068 -69.194 77.004 -68.33 77.004 -67.664C77.004 -67.43 76.968 -67.358 76.716 -66.764C75.546 -63.956 75.438 -61.904 75.438 -61.04C75.438 -60.752 75.51 -58.952 75.762 -58.952C75.87 -58.952 75.96 -59.114 75.996 -59.258C76.014 -59.33 77.184 -62.444 77.31 -62.786L77.49 -62.75ZM84.024 -58.808C83.448 -59.06 82.602 -59.132 81.954 -59.132C80.55 -59.132 79.992 -58.61 79.992 -58.304C79.992 -57.836 80.658 -57.332 81.828 -57.332C82.134 -57.332 83.736 -57.332 84.024 -58.808ZM95.202 -56.342C95.202 -55.838 94.878 -55.298 94.32 -55.298C93.744 -55.298 93.6 -55.766 93.42 -56.36C93.312 -56.738 92.79 -58.43 91.062 -59.816L91.116 -59.978C92.376 -59.564 93.114 -59.276 93.978 -58.556C94.284 -58.286 95.202 -57.422 95.202 -56.342ZM115.29 -64.316C115.29 -63.866 114.804 -63.866 114.768 -63.866C114.48 -63.866 113.22 -63.938 112.95 -63.938C108.792 -63.938 106.452 -61.562 106.452 -59.672C106.452 -57.566 108.972 -56.99 110.646 -56.756C111.204 -56.684 111.6 -56.36 111.6 -55.802C111.6 -55.532 111.51 -55.244 110.826 -55.244C109.854 -55.244 105.66 -56.198 105.66 -59.258C105.66 -61.49 107.586 -62.822 109.188 -63.794C107.568 -63.74 104.526 -62.642 102.654 -61.562C102.546 -61.508 102.042 -61.22 101.664 -61.22C100.998 -61.22 100.764 -61.706 100.764 -62.012C100.764 -62.462 100.944 -62.534 101.988 -62.876C103.752 -63.47 105.462 -64.874 107.514 -66.764C108.018 -67.214 109.782 -68.906 109.782 -69.32C109.782 -69.446 109.674 -69.5 109.566 -69.5C108.954 -69.5 107.532 -68.78 106.902 -68.33C106.2 -67.844 106.128 -67.79 105.876 -67.79C105.318 -67.79 104.598 -68.564 104.598 -69.41C104.598 -69.77 104.706 -69.932 104.832 -70.112C105.228 -69.518 105.462 -69.32 105.876 -69.32C106.362 -69.32 109.53 -70.274 110.088 -70.274C110.736 -70.274 111.492 -69.428 111.492 -68.888C111.492 -68.582 111.402 -68.528 110.592 -68.024C110.034 -67.682 107.766 -65.864 107.28 -65.54C106.794 -65.198 104.256 -63.524 104.166 -63.434C104.148 -63.416 104.112 -63.38 104.112 -63.344C104.112 -63.308 104.148 -63.272 104.238 -63.272C104.31 -63.272 104.67 -63.362 104.778 -63.398C106.848 -63.974 108.198 -64.244 112.86 -65.306C113.292 -65.396 113.508 -65.432 113.652 -65.432C114.282 -65.432 115.29 -64.82 115.29 -64.316ZM133.668 -62.084C133.362 -60.878 132.174 -56.324 128.79 -56.324C126.774 -56.324 126.594 -57.836 126.36 -59.636C126.234 -60.716 126.09 -61.886 124.992 -61.886C122.742 -61.886 121.338 -58.628 120.834 -57.458C120.258 -56.144 120.204 -56 119.772 -56C119.286 -56 119.16 -56.756 119.16 -57.17C119.16 -57.404 119.16 -57.638 119.772 -58.466C120.906 -60.032 125.046 -67.628 125.046 -68.456C125.046 -68.87 124.776 -69.05 124.056 -69.518C124.218 -69.59 124.416 -69.698 124.758 -69.698C125.694 -69.698 126.684 -68.816 126.684 -68.078C126.684 -67.736 126.63 -67.664 126.054 -66.962C125.64 -66.44 122.994 -62.678 122.346 -61.184C123.498 -62.066 124.308 -62.516 125.37 -62.516C127.116 -62.516 127.296 -61.292 127.512 -59.978C127.8 -58.25 128.16 -57.674 129.006 -57.674C131.202 -57.674 132.876 -60.86 133.488 -62.12L133.668 -62.084ZM146.16 -67.628C146.16 -67.448 146.016 -67.34 145.872 -67.268C145.584 -67.124 144.18 -66.728 142.146 -66.242C141.678 -65.306 139.716 -61.13 139.248 -60.32C138.834 -59.618 138.456 -58.952 138.096 -58.952C137.97 -58.952 137.592 -59.024 137.592 -59.636C137.592 -60.14 137.844 -60.464 138.024 -60.716C139.32 -62.426 140.472 -64.802 141.012 -65.972C140.616 -65.882 140.076 -65.738 139.392 -65.738C138.33 -65.738 137.43 -66.296 137.574 -67.376C138.006 -66.764 138.6 -66.656 139.32 -66.656C139.968 -66.656 140.706 -66.782 141.426 -66.944C141.84 -67.97 142.182 -68.852 142.182 -69.23C142.182 -69.428 142.074 -69.86 141.12 -70.112C141.39 -70.346 141.642 -70.472 142.002 -70.472C142.704 -70.472 143.802 -69.716 143.802 -69.248C143.802 -69.068 143.802 -69.068 143.352 -68.42C143.1 -68.06 142.956 -67.808 142.686 -67.286C143.046 -67.412 143.658 -67.628 144.036 -67.808C144.828 -68.168 144.918 -68.222 145.134 -68.222C145.368 -68.222 146.16 -67.97 146.16 -67.628ZM150.84 -63.308C150.84 -62.984 150.66 -62.786 150.372 -62.786C150.264 -62.786 150.066 -62.804 149.742 -62.984C149.13 -63.308 148.914 -63.434 148.212 -63.434C146.322 -63.434 146.052 -62.408 146.052 -61.562C146.052 -60.518 146.25 -59.51 146.358 -58.952C147.798 -58.646 149.778 -57.89 149.778 -56.72C149.778 -56.45 149.598 -56.126 149.274 -56.126C149.058 -56.126 148.338 -56.63 147.888 -56.954C147.168 -57.458 146.844 -57.584 146.484 -57.71C146.466 -57.332 146.43 -56.576 145.8 -56C145.062 -55.316 144.036 -55.244 143.622 -55.244C142.128 -55.244 140.832 -56.054 140.832 -57.17C140.832 -58.52 142.47 -59.168 144.216 -59.168C144.612 -59.168 144.882 -59.132 145.152 -59.114C145.098 -59.744 145.026 -60.59 145.026 -61.004C145.026 -62.984 146.934 -63.758 148.176 -63.992C148.32 -64.028 148.482 -64.064 148.482 -64.28C148.482 -64.514 147.834 -65.18 146.016 -65.648C146.286 -65.738 146.628 -65.828 147.168 -65.828C149.4 -65.828 150.84 -64.154 150.84 -63.308ZM145.224 -58.124C144.882 -58.214 144.594 -58.304 143.874 -58.304C143.19 -58.304 141.516 -58.16 141.516 -57.188C141.516 -56.432 142.668 -56.234 143.28 -56.234C143.91 -56.234 145.278 -56.396 145.224 -58.124ZM7.884 -34.184H2.664V-18.578H1.908V-34.958H7.884V-34.184ZM23.022 -24.59H22.5C22.5 -22.628 22.482 -20.756 22.518 -20.522C22.554 -20.288 22.968 -20.252 23.454 -20.252C24.462 -20.252 24.606 -20.324 24.876 -20.954C25.038 -21.35 25.308 -22.25 25.47 -23.042L25.596 -23.024C25.65 -22.484 25.812 -21.026 26.046 -20.81C26.1 -20.756 26.244 -20.63 26.352 -20.54C26.442 -20.468 26.478 -20.36 26.478 -20.288C26.478 -19.964 26.172 -19.568 25.794 -19.388C25.506 -19.244 25.11 -19.064 23.184 -19.064C21.294 -19.064 21.294 -19.208 21.294 -21.53C21.294 -22.016 21.312 -24.158 21.312 -24.59H19.548L20.682 -23.726C20.772 -23.654 20.826 -23.564 20.826 -23.474C20.826 -23.222 20.556 -23.186 20.052 -23.114C18.36 -20.81 16.65 -19.046 12.654 -18.56L12.618 -18.722C15.642 -19.496 18.54 -22.304 19.26 -24.59H18.918C18.954 -24.032 18.558 -23.816 18.144 -23.816C17.766 -23.816 17.676 -24.032 17.676 -24.23C17.676 -24.392 17.694 -24.716 17.694 -24.932C17.712 -25.832 17.748 -27.632 17.748 -30.674C17.748 -32.906 17.676 -33.734 17.514 -34.598L19.17 -33.878H22.896L23.31 -34.328C23.364 -34.382 23.508 -34.526 23.616 -34.526C23.688 -34.526 23.832 -34.436 23.904 -34.382L24.786 -33.698C24.858 -33.644 24.93 -33.536 24.93 -33.464C24.93 -33.302 24.858 -33.248 24.228 -32.798C24.21 -31.304 24.228 -29.126 24.264 -27.992C24.264 -27.704 24.408 -24.86 24.408 -24.716C24.408 -24.086 23.796 -23.906 23.508 -23.906C23.004 -23.906 23.022 -24.266 23.022 -24.59ZM23.022 -30.566H18.9V-28.118H23.022V-30.566ZM18.9 -25.022H23.022V-27.686H18.9V-25.022ZM23.022 -33.446H18.9V-30.998H23.022V-33.446ZM16.812 -33.068H14.166V-28.586H14.814L15.444 -29.306C15.552 -29.414 15.642 -29.522 15.732 -29.522C15.822 -29.522 15.912 -29.468 16.056 -29.342L16.884 -28.622C16.956 -28.568 17.064 -28.46 17.064 -28.352C17.064 -28.172 16.884 -28.154 16.794 -28.154H14.166V-24.032C14.742 -24.194 16.542 -24.734 16.992 -24.896L17.028 -24.752C16.362 -24.32 12.51 -22.358 11.106 -21.782C10.944 -21.332 10.89 -21.188 10.71 -21.188C10.584 -21.188 10.512 -21.314 10.458 -21.422L9.666 -23.114C10.476 -23.042 11.106 -23.15 12.924 -23.672V-28.154C11.664 -28.154 11.106 -28.1 10.584 -27.992L10.224 -28.712C10.782 -28.658 12.276 -28.604 12.924 -28.586V-33.068H12.492C12.06 -33.068 11.178 -33.05 10.368 -32.906L10.026 -33.626C10.89 -33.536 11.898 -33.5 12.78 -33.5H14.904L15.516 -34.112C15.624 -34.22 15.75 -34.346 15.822 -34.346C15.894 -34.346 16.02 -34.274 16.146 -34.166L16.902 -33.536C16.974 -33.482 17.082 -33.356 17.082 -33.266C17.082 -33.104 16.956 -33.068 16.812 -33.068ZM41.526 -33.788C41.526 -33.608 41.238 -33.428 40.95 -33.266C40.95 -31.736 40.968 -31.124 40.986 -30.494C41.004 -30.242 41.04 -29.108 41.04 -28.874C41.04 -28.28 40.374 -28.172 40.176 -28.172C39.708 -28.172 39.726 -28.532 39.762 -28.982H36.558C36.558 -28.622 36.576 -28.046 35.73 -28.046C35.244 -28.046 35.244 -28.334 35.244 -28.46C35.244 -28.55 35.28 -28.802 35.28 -28.856C35.316 -29.666 35.352 -31.412 35.352 -32.24C35.352 -33.752 35.298 -34.202 35.172 -34.868L36.648 -34.112H39.69L40.104 -34.562C40.194 -34.67 40.248 -34.724 40.32 -34.724C40.392 -34.724 40.464 -34.67 40.572 -34.598L41.328 -34.04C41.418 -33.986 41.526 -33.896 41.526 -33.788ZM39.78 -31.862V-33.68H36.54V-31.862H39.78ZM39.78 -29.414V-31.43H36.54V-29.414H39.78ZM44.316 -27.272C44.316 -27.092 44.154 -27.074 44.046 -27.074H36.702C36.288 -26.228 35.946 -25.742 35.676 -25.4H41.418L41.868 -25.994C41.94 -26.102 42.03 -26.192 42.102 -26.192C42.192 -26.192 42.318 -26.084 42.408 -26.012L43.308 -25.346C43.398 -25.292 43.488 -25.202 43.488 -25.094C43.488 -24.824 43.074 -24.662 42.822 -24.554C42.444 -18.902 40.932 -18.578 39.6 -18.524C39.546 -19.046 39.33 -19.586 38.376 -20.36L38.394 -20.504C39.42 -20.288 39.798 -20.252 40.14 -20.252C40.554 -20.252 40.824 -20.378 41.184 -21.782C41.454 -22.808 41.562 -23.888 41.598 -24.968H40.428C39.312 -21.818 36.954 -19.442 34.614 -18.686L34.542 -18.776C36.594 -20.288 38.322 -22.88 39.024 -24.968H37.944C36.504 -22.286 34.182 -19.91 31.41 -19.064L31.356 -19.172C33.714 -20.486 35.928 -23.798 36.504 -24.968H35.334C34.416 -23.798 33.264 -22.826 31.95 -22.16L31.86 -22.25C33.84 -24.122 34.83 -26.138 35.262 -27.074H34.83C34.38 -27.074 33.516 -27.056 32.706 -26.912L32.346 -27.632C33.48 -27.542 34.596 -27.506 35.118 -27.506H41.76L42.408 -28.406C42.48 -28.496 42.588 -28.622 42.678 -28.622C42.768 -28.622 42.84 -28.568 43.002 -28.442L44.136 -27.542C44.226 -27.47 44.316 -27.38 44.316 -27.272ZM34.128 -30.116C34.128 -29.936 33.966 -29.918 33.858 -29.918H31.518C31.5 -28.244 31.518 -26.462 31.518 -24.734C33.102 -25.382 33.444 -25.544 33.84 -25.742L33.912 -25.616C33.03 -24.806 30.744 -23.348 29.052 -22.286C28.944 -21.836 28.854 -21.692 28.674 -21.692C28.53 -21.692 28.404 -21.908 28.35 -21.998L27.504 -23.618C28.53 -23.618 28.71 -23.69 30.294 -24.248C30.294 -25.904 30.276 -28.352 30.276 -29.918C29.646 -29.918 28.872 -29.864 28.242 -29.756L27.9 -30.476C28.566 -30.422 29.124 -30.386 30.276 -30.35C30.258 -31.178 30.222 -33.518 30.078 -34.184C30.006 -34.472 29.934 -34.706 29.826 -34.976L31.752 -34.4C31.968 -34.328 32.148 -34.292 32.148 -34.094C32.148 -33.86 31.806 -33.716 31.536 -33.608C31.518 -33.104 31.518 -30.818 31.518 -30.35H32.058L32.562 -31.088C32.616 -31.178 32.724 -31.322 32.814 -31.322C32.922 -31.322 33.048 -31.232 33.156 -31.124L33.948 -30.386C34.092 -30.26 34.128 -30.188 34.128 -30.116ZM61.902 -28.496C61.902 -27.992 61.524 -27.92 61.416 -27.92C61.146 -27.92 61.092 -28.01 60.57 -28.802C60.138 -29.432 59.328 -30.098 58.734 -30.53C59.886 -30.422 61.902 -29.684 61.902 -28.496ZM59.796 -27.722C59.796 -27.416 59.688 -27.092 59.31 -27.092C59.004 -27.092 58.95 -27.164 58.518 -27.92C58.158 -28.55 57.69 -29.036 56.826 -29.9C58.032 -29.648 59.796 -28.856 59.796 -27.722ZM60.876 -32.24C60.876 -31.664 60.318 -31.664 59.814 -31.664C57.51 -31.664 56.826 -31.664 55.62 -30.944C53.946 -29.954 52.578 -27.632 52.578 -25.58C52.578 -22.574 55.746 -21.872 57.366 -21.512C57.636 -21.458 58.392 -21.296 58.392 -20.522C58.392 -20.054 57.942 -20.018 57.708 -20.018C55.854 -20.018 51.696 -21.386 51.696 -25.346C51.696 -26.12 51.84 -27.668 53.172 -29.378C53.676 -30.026 54.108 -30.404 55.656 -31.628C53.748 -31.376 49.896 -30.044 49.284 -29.702C48.51 -29.252 48.42 -29.216 48.132 -29.216C47.682 -29.216 46.818 -29.756 46.818 -30.8C46.818 -31.268 46.944 -31.502 47.07 -31.718C47.412 -31.178 47.682 -30.764 48.474 -30.764C48.834 -30.764 49.302 -30.854 51.12 -31.286C53.262 -31.808 56.718 -32.582 58.86 -33.104C59.04 -33.14 59.292 -33.194 59.436 -33.194C59.706 -33.194 60.876 -32.852 60.876 -32.24ZM74.826 -31.142C74.826 -31.034 74.7 -30.98 74.556 -30.98H71.262V-29.45H72.54L72.792 -29.792C72.882 -29.918 72.99 -30.008 73.08 -30.008C73.152 -30.008 73.314 -29.936 73.458 -29.828L74.088 -29.396C74.178 -29.342 74.286 -29.234 74.286 -29.144C74.286 -29 74.124 -28.838 73.728 -28.478C73.692 -28.028 73.746 -25.778 73.746 -25.274C73.746 -24.572 73.17 -24.536 72.99 -24.536C72.558 -24.536 72.594 -24.842 72.63 -25.094H71.262V-23.402H72.216L72.648 -24.032C72.738 -24.158 72.81 -24.248 72.936 -24.248C73.026 -24.248 73.134 -24.176 73.26 -24.068L73.98 -23.438C74.07 -23.348 74.16 -23.24 74.16 -23.132C74.16 -23.024 74.07 -22.97 73.89 -22.97H71.262V-21.584C72.036 -21.674 73.08 -21.836 73.944 -22.088L73.98 -21.962C72.828 -21.332 70.128 -20.54 68.49 -20.162C68.4 -19.964 68.274 -19.784 68.112 -19.784C68.004 -19.784 67.914 -19.892 67.86 -20.054L67.428 -21.44C67.644 -21.404 67.932 -21.368 68.256 -21.368C68.346 -21.368 69.21 -21.368 70.254 -21.476V-22.97H69.948C69.822 -22.97 68.67 -22.97 67.824 -22.808L67.482 -23.528C68.274 -23.456 68.976 -23.42 70.254 -23.402V-25.094H68.886C68.886 -24.842 68.868 -24.392 68.184 -24.392C67.752 -24.392 67.752 -24.68 67.752 -24.806C67.752 -24.86 67.77 -25.13 67.77 -25.202C67.824 -26.138 67.842 -27.596 67.842 -28.262C67.842 -28.838 67.842 -29.504 67.716 -29.99L68.958 -29.45H70.254V-30.98H69.84C69.408 -30.98 68.508 -30.98 67.716 -30.818L67.374 -31.538C67.824 -31.502 68.904 -31.412 70.254 -31.412V-32.744C68.94 -32.492 68.292 -32.528 67.896 -32.546V-32.654C72.504 -34.166 72.81 -34.508 73.206 -34.976L74.286 -33.968C74.376 -33.878 74.43 -33.806 74.43 -33.734C74.43 -33.644 74.358 -33.554 74.124 -33.554H73.656C73.584 -33.554 71.64 -33.05 71.262 -32.96V-31.412H72.756L73.296 -32.114C73.404 -32.258 73.494 -32.348 73.584 -32.348C73.692 -32.348 73.782 -32.258 73.908 -32.15L74.646 -31.448C74.754 -31.34 74.826 -31.232 74.826 -31.142ZM72.648 -27.524V-29.018H71.262V-27.524H72.648ZM72.648 -25.526V-27.092H71.262V-25.526H72.648ZM70.254 -27.524V-29.018H68.886V-27.524H70.254ZM70.254 -25.526V-27.092H68.886V-25.526H70.254ZM79.794 -30.368C79.794 -30.206 79.65 -30.098 79.344 -29.864C79.308 -28.91 79.218 -24.626 79.182 -23.762C79.002 -20.396 78.408 -19.082 76.41 -18.776C76.14 -19.586 75.51 -20.126 74.754 -20.522L74.772 -20.666C75.168 -20.594 75.708 -20.486 76.5 -20.486C77.454 -20.486 77.724 -21.134 77.94 -22.736C78.246 -24.914 78.192 -29.45 78.192 -30.278L76.896 -30.188C76.824 -26.678 76.698 -20.864 71.694 -18.848L71.64 -18.974C74.34 -20.936 75.564 -23.42 75.708 -30.116C74.772 -30.026 74.466 -29.954 74.178 -29.882L73.782 -30.566C74.628 -30.53 75.528 -30.566 75.69 -30.584C75.69 -31.016 75.654 -33.176 75.654 -33.338C75.654 -33.878 75.636 -33.986 75.402 -34.868L77.076 -34.436C77.184 -34.4 77.346 -34.328 77.346 -34.22C77.346 -34.112 77.238 -33.95 76.914 -33.716V-33.356C76.914 -33.194 76.896 -32.528 76.896 -30.62L77.94 -30.692L78.318 -31.142C78.426 -31.268 78.498 -31.34 78.588 -31.34C78.696 -31.34 78.786 -31.286 78.93 -31.178L79.596 -30.656C79.686 -30.584 79.794 -30.476 79.794 -30.368ZM68.58 -33.896C68.58 -33.788 68.508 -33.698 68.382 -33.644C68.274 -33.59 68.058 -33.518 67.914 -33.464C67.68 -32.96 67.41 -32.348 66.888 -31.376L67.176 -31.196C67.32 -31.106 67.356 -31.052 67.356 -30.962C67.356 -30.836 67.302 -30.728 66.762 -30.368C66.744 -28.478 66.726 -27.344 66.726 -26.3C66.726 -25.256 66.816 -20.684 66.816 -19.748C66.816 -19.424 66.762 -18.668 65.844 -18.668C65.502 -18.668 65.376 -18.812 65.376 -19.262C65.376 -19.622 65.484 -22.16 65.502 -22.61C65.574 -24.068 65.628 -25.67 65.628 -27.128V-29.324C65.124 -28.568 64.314 -27.416 63.45 -26.714L63.378 -26.768C64.854 -29.036 66.69 -33.59 66.852 -34.976L68.364 -34.184C68.49 -34.112 68.58 -34.022 68.58 -33.896ZM93.168 -19.73C93.168 -19.316 92.934 -18.686 92.484 -18.686C92.196 -18.686 92.142 -18.758 91.296 -20.126C90.306 -21.728 89.892 -22.142 86.472 -25.526C86.292 -25.706 85.824 -26.228 85.824 -26.804C85.824 -27.092 85.878 -27.398 86.49 -28.046C88.308 -29.972 91.044 -32.834 91.044 -33.536C91.044 -33.968 90.648 -34.364 90.18 -34.832C91.764 -34.994 92.61 -33.68 92.61 -32.996C92.61 -32.636 92.43 -32.492 91.89 -32.06C91.314 -31.61 88.632 -29.144 87.138 -27.506C86.832 -27.182 86.832 -26.948 86.832 -26.84C86.832 -26.39 86.958 -26.264 88.416 -24.932C92.448 -21.296 93.168 -20.666 93.168 -19.73ZM113.94 -21.602C113.94 -21.116 113.742 -20.756 113.31 -20.756C112.932 -20.756 112.734 -21.062 112.572 -21.332C111.132 -23.708 110.142 -24.896 108.54 -26.084C105.336 -22.052 102.276 -20.918 100.584 -20.576L100.566 -20.72C104.742 -22.556 109.134 -28.064 110.124 -31.412C109.44 -31.322 106.452 -30.764 105.48 -30.386C105.318 -30.314 104.652 -29.954 104.508 -29.954C104.238 -29.954 103.248 -30.836 103.248 -31.772C103.248 -32.132 103.32 -32.366 103.41 -32.546C104.094 -31.466 104.4 -31.448 104.76 -31.448C105.264 -31.448 109.17 -31.826 109.908 -32.258C110.034 -32.33 110.592 -32.762 110.736 -32.762C110.934 -32.762 112.266 -31.628 112.266 -31.322C112.266 -31.124 112.14 -31.088 111.564 -30.872C111.438 -30.818 111.42 -30.782 111.186 -30.35C110.394 -28.82 109.944 -27.938 108.792 -26.39C110.952 -25.436 113.94 -23.294 113.94 -21.602ZM131.454 -30.584C131.454 -30.404 131.382 -30.386 130.986 -30.224C130.626 -30.08 130.5 -29.972 129.906 -28.802C127.134 -23.42 124.344 -20.954 120.384 -19.838L120.33 -19.964C122.742 -21.35 124.902 -23.15 126.522 -25.382C126.342 -25.4 126.144 -25.562 125.82 -25.922C124.578 -27.344 124.398 -27.542 123.426 -28.082C122.454 -27.02 121.464 -26.246 120.42 -25.742L120.366 -25.85C122.634 -28.046 124.794 -31.754 124.794 -32.456C124.794 -33.05 124.092 -33.32 123.732 -33.464C123.966 -33.572 124.218 -33.68 124.632 -33.68C125.658 -33.68 126.63 -32.798 126.63 -32.42C126.63 -32.222 126.594 -32.186 126.18 -31.826C126.036 -31.682 125.82 -31.34 125.694 -31.16C125.82 -31.16 126 -31.142 126.342 -31.142C127.224 -31.142 129.042 -31.43 129.294 -31.556C129.42 -31.628 129.924 -31.988 130.05 -31.988C130.266 -31.988 131.454 -30.836 131.454 -30.584ZM129.312 -30.692C128.826 -30.638 126.684 -30.278 126.27 -30.278C126.126 -30.278 125.928 -30.278 125.334 -30.62C124.398 -29.234 123.696 -28.406 123.606 -28.298C124.614 -28.172 126.918 -27.722 127.026 -26.102C127.494 -26.804 128.358 -28.118 129.312 -30.692ZM144.576 -27.578C144.576 -27.2 144.378 -26.876 144.036 -26.876C143.658 -26.876 143.604 -27.038 143.298 -27.866C143.064 -28.532 142.632 -29.18 142.218 -29.72C143.442 -29.36 144.576 -28.352 144.576 -27.578ZM148.734 -28.478C148.734 -28.352 148.698 -28.298 148.356 -27.92C148.248 -27.794 147.51 -26.21 147.348 -25.904C144.756 -21.026 141.552 -20.18 140.292 -19.838L140.256 -20.018C145.656 -22.538 147.204 -28.298 147.204 -28.55C147.204 -28.982 146.484 -29.396 146.25 -29.522C146.484 -29.576 146.718 -29.648 147.042 -29.648C147.816 -29.648 148.734 -28.694 148.734 -28.478ZM141.462 -26.768C141.462 -26.408 141.282 -26.102 140.94 -26.102C140.544 -26.102 140.364 -26.516 140.166 -26.966C139.932 -27.47 139.446 -28.28 138.852 -28.91C140.04 -28.73 141.462 -27.758 141.462 -26.768ZM168.012 -30.764C168.012 -30.548 167.994 -30.548 167.418 -30.206C167.094 -30.008 166.95 -29.684 166.734 -29.054C165.69 -26.048 164.016 -23.186 161.334 -21.458C159.822 -20.486 158.544 -20.162 157.986 -20.018L157.95 -20.162C161.226 -21.854 164.826 -25.778 165.924 -30.926C164.7 -30.944 159.516 -30.188 158.58 -29.918C158.418 -29.864 157.608 -29.504 157.572 -29.504C157.23 -29.504 156.114 -30.422 156.114 -31.61C156.114 -31.844 156.204 -32.042 156.276 -32.186C157.086 -31.232 157.23 -31.052 158.022 -31.052C158.526 -31.052 165.24 -31.61 165.78 -31.844C165.906 -31.898 166.356 -32.276 166.464 -32.276C166.68 -32.276 168.012 -31.106 168.012 -30.764ZM178.092 -18.722H172.116V-19.496H177.336V-35.102H178.092V-18.722ZM196.2 -26.93C196.2 -23.438 193.284 -20.756 189.162 -20.396L189.144 -20.54C192.996 -21.908 194.796 -24.446 194.796 -27.182C194.796 -30.224 192.348 -32.024 189.216 -32.024C188.766 -32.024 188.676 -32.006 188.478 -31.916C189.45 -31.394 189.72 -30.728 189.72 -30.476C189.72 -30.278 189.666 -30.152 189.108 -28.982C187.956 -26.516 186.264 -22.898 185.04 -21.89C184.914 -21.8 184.698 -21.692 184.464 -21.692C184.05 -21.692 183.888 -21.926 183.348 -22.682C183.222 -22.862 182.502 -23.528 182.376 -23.69C182.178 -23.978 181.872 -24.626 181.872 -25.526C181.872 -29.396 185.148 -32.582 189.54 -32.582C193.032 -32.582 196.2 -30.548 196.2 -26.93ZM188.298 -30.656C188.298 -31.106 188.082 -31.484 187.74 -31.808C185.76 -31.484 183.006 -28.928 183.006 -25.616C183.006 -24.392 183.708 -23.042 184.41 -23.042C184.896 -23.042 185.598 -24.32 185.904 -24.932C187.704 -28.55 188.298 -29.72 188.298 -30.656ZM205.884 -34.184H200.664V-18.578H199.908V-34.958H205.884V-34.184ZM224.532 -20.18C224.532 -19.838 224.028 -19.028 223.038 -19.028H220.374C219.204 -19.028 218.682 -19.28 218.682 -20.684C218.682 -22.754 218.682 -32.348 218.628 -33.788C218.61 -34.31 218.556 -34.49 218.448 -34.796L220.212 -34.346C220.302 -34.328 220.518 -34.274 220.518 -34.094C220.518 -33.968 220.392 -33.86 220.284 -33.77C220.122 -33.644 220.05 -33.59 219.906 -33.464V-28.874C220.212 -29.144 222.156 -30.98 222.57 -32.042L223.92 -30.782C223.992 -30.728 224.064 -30.602 224.064 -30.53C224.064 -30.368 223.866 -30.332 223.758 -30.332C223.65 -30.332 223.488 -30.368 223.308 -30.404C222.174 -29.63 220.878 -28.928 219.906 -28.532C219.888 -27.326 219.924 -22.052 219.888 -20.972C219.87 -20.414 219.96 -20.252 220.608 -20.252H222.03C222.39 -20.252 222.768 -20.414 222.966 -21.116C223.002 -21.242 223.362 -22.664 223.452 -23.204H223.578C223.65 -22.466 223.866 -20.864 224.064 -20.648C224.118 -20.594 224.37 -20.432 224.424 -20.396C224.496 -20.342 224.532 -20.27 224.532 -20.18ZM223.452 -24.608C223.452 -24.338 223.254 -23.834 222.75 -23.834C222.192 -23.834 221.922 -24.302 221.382 -25.256C221.346 -25.328 220.68 -26.354 219.942 -26.804L219.978 -26.948C220.446 -26.822 221.526 -26.516 222.228 -26.102C223.362 -25.418 223.452 -24.788 223.452 -24.608ZM215.892 -28.748C215.892 -28.37 215.694 -28.028 215.244 -28.028C214.686 -28.028 214.596 -28.28 214.236 -29.396C214.2 -29.504 213.966 -30.17 213.426 -30.8L213.498 -30.926C214.776 -30.368 215.892 -29.792 215.892 -28.748ZM217.944 -34.076C217.944 -33.878 217.656 -33.716 217.35 -33.572C217.368 -33.05 217.386 -32.276 217.386 -31.718C217.386 -26.174 217.332 -24.266 216.432 -22.466C215.55 -20.738 214.236 -19.604 212.382 -18.83L212.31 -18.974C215.712 -21.35 215.964 -24.5 216.108 -26.264C215.532 -25.706 214.812 -25.094 213.858 -24.356C213.75 -23.798 213.66 -23.6 213.48 -23.6C213.39 -23.6 213.228 -23.69 213.156 -23.852L212.382 -25.544C213.48 -25.49 215.28 -26.21 216.126 -26.66C216.18 -27.794 216.18 -28.442 216.18 -29.144C216.18 -30.494 216.162 -33.806 215.874 -34.832L217.602 -34.346C217.728 -34.31 217.944 -34.22 217.944 -34.076ZM214.686 -31.322C214.686 -31.142 214.524 -31.124 214.416 -31.124H211.734V-27.47C212.634 -27.704 213.48 -27.956 214.11 -28.208L214.2 -28.028C213.552 -27.668 212.58 -27.11 211.734 -26.696C211.752 -25.76 211.878 -21.638 211.878 -20.81C211.878 -20.09 211.878 -18.938 209.556 -18.56C209.34 -19.388 209.088 -19.784 207.936 -20.414L207.99 -20.504C208.71 -20.378 209.79 -20.324 210.006 -20.324C210.402 -20.324 210.528 -20.396 210.582 -20.648C210.636 -20.864 210.636 -22.268 210.636 -22.628C210.636 -22.952 210.618 -25.94 210.618 -26.138C210.06 -25.868 209.628 -25.688 209.16 -25.472C209.052 -24.896 209.034 -24.752 208.8 -24.752C208.638 -24.752 208.53 -24.86 208.476 -24.95L207.486 -26.57C208.278 -26.588 208.512 -26.66 210.6 -27.182L210.546 -31.124C209.88 -31.124 209.016 -31.124 208.152 -30.962L207.792 -31.682C208.98 -31.574 209.826 -31.556 210.546 -31.556C210.546 -32.42 210.528 -33.932 210.51 -34.166C210.456 -34.562 210.348 -34.796 210.24 -35.048L212.166 -34.49C212.31 -34.454 212.418 -34.364 212.418 -34.22C212.418 -34.076 212.292 -33.968 211.734 -33.626V-31.556H212.652L213.21 -32.258C213.336 -32.402 213.39 -32.492 213.498 -32.492C213.606 -32.492 213.678 -32.42 213.804 -32.294L214.506 -31.592C214.614 -31.484 214.686 -31.412 214.686 -31.322ZM242.1 -19.478C242.1 -19.082 241.776 -18.92 241.47 -18.92C240.552 -18.92 238.446 -19.928 237.222 -22.538C235.116 -20.594 233.334 -20.036 232.524 -19.802L232.488 -19.928C233.406 -20.396 234.9 -21.242 236.826 -23.456C236.034 -25.544 235.89 -27.416 235.764 -28.982C234.918 -28.802 234.612 -28.694 234.306 -28.586L233.892 -29.144C233.856 -28.46 233.964 -25.418 233.964 -24.788C233.964 -24.284 233.496 -24.05 233.172 -24.05C232.758 -24.05 232.74 -24.284 232.74 -24.464H231.012V-22.736H232.812L233.37 -23.492C233.478 -23.636 233.568 -23.708 233.658 -23.708C233.73 -23.708 233.856 -23.654 233.964 -23.546L234.81 -22.772C234.9 -22.682 234.99 -22.556 234.99 -22.466C234.99 -22.358 234.882 -22.304 234.72 -22.304H231.012C231.012 -21.89 231.084 -20.108 231.084 -19.748C231.084 -19.208 230.778 -18.848 230.238 -18.848C229.752 -18.848 229.68 -19.136 229.68 -19.352C229.68 -19.55 229.77 -20.378 229.788 -20.54C229.824 -21.242 229.842 -21.944 229.842 -22.304H228.366C228.042 -22.304 227.124 -22.286 226.26 -22.124L225.9 -22.844C227.016 -22.754 228.114 -22.736 228.654 -22.736H229.842C229.86 -23.006 229.878 -24.212 229.878 -24.464H228.168C228.168 -24.14 228.186 -23.654 227.376 -23.654C227.106 -23.654 226.926 -23.834 226.926 -24.086C226.926 -24.212 226.98 -24.716 226.998 -24.824C227.016 -26.012 227.016 -26.912 227.016 -27.506C227.016 -29.504 227.016 -29.558 226.89 -30.512L228.24 -29.9H232.542L232.956 -30.404C233.046 -30.512 233.154 -30.62 233.244 -30.62C233.334 -30.62 233.46 -30.548 233.622 -30.422L234.18 -29.972C234.324 -29.864 234.378 -29.774 234.378 -29.684C234.378 -29.54 234.306 -29.45 233.928 -29.234C234.954 -29.324 235.584 -29.432 235.728 -29.45C235.692 -30.188 235.656 -32.132 235.62 -33.482C235.602 -34.256 235.512 -34.544 235.422 -34.904L237.096 -34.328C237.24 -34.274 237.384 -34.184 237.384 -34.076C237.384 -33.878 237.168 -33.734 236.898 -33.626C236.844 -33.086 236.808 -32.402 236.808 -31.304C236.808 -30.494 236.826 -29.972 236.862 -29.63L239.31 -30.062L239.868 -30.89C239.994 -31.088 240.066 -31.16 240.174 -31.16C240.246 -31.16 240.354 -31.106 240.498 -31.034L241.542 -30.476C241.668 -30.404 241.758 -30.296 241.758 -30.206C241.758 -30.098 241.668 -30.026 241.524 -30.008L236.88 -29.198C237.006 -27.704 237.096 -26.408 237.654 -24.5C238.878 -26.228 239.778 -27.956 239.886 -28.856L241.398 -27.866C241.506 -27.794 241.596 -27.704 241.596 -27.578C241.596 -27.434 241.416 -27.29 240.858 -27.272C240.282 -26.282 239.472 -24.968 238.05 -23.366C238.86 -21.53 240.21 -20.864 240.426 -20.864C240.696 -20.864 240.804 -21.062 241.182 -21.746C241.308 -21.998 241.848 -23.078 241.956 -23.294L242.064 -23.276C242.046 -23.042 241.722 -20.702 241.722 -20.486C241.722 -20.378 241.74 -20.234 241.938 -19.91C242.082 -19.694 242.1 -19.604 242.1 -19.478ZM232.758 -27.416V-29.468H231.012V-27.416H232.758ZM232.758 -24.896V-26.984H231.012V-24.896H232.758ZM229.878 -27.416V-29.468H228.15V-27.416H229.878ZM229.878 -24.896V-26.984H228.15V-24.896H229.878ZM240.174 -32.078C240.174 -31.61 239.778 -31.358 239.436 -31.358C238.968 -31.358 238.788 -31.772 238.716 -31.916C238.518 -32.384 238.212 -33.05 237.708 -33.572L237.78 -33.698C238.608 -33.554 240.174 -33.284 240.174 -32.078ZM234.594 -33.554C234.594 -33.356 234.414 -33.284 234.18 -33.23C233.658 -32.6 232.308 -31.088 231.21 -30.278L231.12 -30.386C231.84 -31.592 232.74 -33.23 232.938 -34.454L234.36 -33.86C234.522 -33.788 234.594 -33.68 234.594 -33.554ZM230.922 -32.132C230.922 -31.934 230.814 -31.286 230.184 -31.286C229.572 -31.286 229.536 -31.808 229.464 -32.492C229.392 -33.212 229.248 -33.572 228.924 -34.184L229.014 -34.274C230.922 -33.356 230.922 -32.33 230.922 -32.132ZM228.492 -31.682C228.492 -31.196 228.222 -30.872 227.844 -30.872C227.286 -30.872 227.124 -31.448 227.088 -31.61C226.872 -32.384 226.746 -32.924 226.17 -33.734L226.242 -33.806C227.646 -33.41 228.492 -32.528 228.492 -31.682ZM250.092 -18.722H244.116V-19.496H249.336V-35.102H250.092V-18.722ZM267.138 -31.376C267.138 -30.962 266.76 -30.854 266.112 -30.746C264.366 -30.44 263.232 -29.846 262.638 -29.414L262.53 -29.522C262.8 -29.774 264.114 -30.98 264.168 -31.034C264.222 -31.088 264.222 -31.124 264.222 -31.178C264.222 -31.376 263.664 -31.376 263.556 -31.376C262.836 -31.376 261.648 -31.088 260.28 -30.566C261.252 -31.862 263.07 -32.33 264.744 -32.33C265.86 -32.33 267.138 -32.006 267.138 -31.376ZM268.02 -21.89C268.02 -21.314 267.39 -21.224 266.256 -21.224C265.824 -21.224 263.412 -21.242 261.846 -21.728C260.766 -22.07 260.028 -23.114 260.028 -24.176C260.028 -24.59 260.118 -24.752 260.208 -24.932C260.622 -23.564 260.946 -22.52 264.348 -22.52C264.708 -22.52 266.454 -22.664 266.634 -22.664C267.264 -22.664 268.02 -22.394 268.02 -21.89ZM258.102 -27.128C257.994 -26.624 257.742 -25.58 257.598 -25.004C257.382 -24.104 256.968 -22.376 256.968 -21.566C256.968 -21.368 257.058 -20.504 257.058 -20.324C257.058 -20.018 257.022 -19.658 256.59 -19.658C255.852 -19.658 254.682 -21.314 254.682 -24.968C254.682 -26.264 255.078 -28.694 255.384 -30.548C255.438 -30.89 255.492 -31.358 255.492 -31.754C255.492 -32.384 255.402 -32.852 254.88 -33.5C254.97 -33.536 255.042 -33.572 255.204 -33.572C255.852 -33.572 257.022 -32.564 257.022 -31.862C257.022 -31.7 256.986 -31.538 256.788 -31.016C256.086 -29.216 255.528 -27.326 255.528 -25.364C255.528 -24.122 255.834 -22.736 256.122 -22.736C256.23 -22.736 256.32 -22.952 256.356 -23.078C256.554 -23.69 257.31 -25.778 257.958 -27.164L258.102 -27.128ZM284.238 -21.278C284.238 -20.918 284.094 -20.612 283.716 -20.612C283.464 -20.612 282.798 -21.026 282.132 -21.458C280.908 -22.232 280.314 -22.43 279.72 -22.574C279.612 -21.548 279.288 -19.964 276.714 -19.964C275.364 -19.964 273.474 -20.63 273.474 -21.854C273.474 -22.79 274.446 -23.42 275.058 -23.6C276.444 -24.032 277.74 -23.978 278.442 -23.942C278.334 -24.626 278.208 -25.616 278.208 -27.92C278.208 -28.28 278.226 -31.718 278.226 -31.844C278.226 -32.924 278.01 -33.32 276.714 -33.554C276.876 -33.734 277.164 -34.058 277.848 -34.058C278.478 -34.058 279.81 -33.572 279.81 -32.87C279.81 -32.744 279.648 -32.06 279.594 -31.88C279.522 -31.574 279.45 -31.25 279.342 -30.44C280.116 -30.494 280.8 -30.71 282.204 -31.16C282.366 -31.214 282.528 -31.25 282.744 -31.25C282.996 -31.25 283.734 -31.142 283.734 -30.656C283.734 -30.404 283.626 -30.278 283.482 -30.188C283.068 -29.9 281.502 -29.522 280.458 -29.522C280.026 -29.522 279.612 -29.666 279.27 -29.828C279.252 -29.504 279.198 -28.838 279.198 -27.902C279.198 -25.76 279.468 -24.302 279.594 -23.726C281.304 -23.42 284.238 -22.484 284.238 -21.278ZM278.478 -22.88C278.118 -22.952 277.722 -23.024 276.984 -23.024C276.048 -23.024 274.176 -22.826 274.176 -21.926C274.176 -21.206 275.472 -21.044 276.246 -21.044C278.406 -21.044 278.478 -22.25 278.478 -22.88ZM302.49 -24.59C302.49 -21.944 299.7 -20.198 295.074 -20.198C294.444 -20.198 294.066 -20.234 293.742 -20.27V-20.468C294.822 -20.504 297.612 -20.864 299.196 -21.764C299.844 -22.142 301.32 -23.186 301.32 -24.842C301.32 -26.444 299.862 -27.416 298.26 -27.416C297.594 -27.416 295.578 -27.2 292.878 -24.824C292.194 -24.23 292.122 -24.176 291.942 -24.176C291.528 -24.176 290.61 -24.932 290.61 -25.706C290.61 -26.012 290.7 -26.192 290.808 -26.372C290.988 -26.102 291.294 -25.67 291.672 -25.67C291.924 -25.67 292.122 -25.76 292.662 -26.048C293.796 -26.678 294.984 -27.218 296.19 -27.596C296.766 -27.776 297.558 -27.956 298.404 -27.956C300.51 -27.956 302.49 -26.858 302.49 -24.59ZM322.074 -32.132C322.074 -31.592 321.57 -31.592 321.318 -31.592C318.852 -31.592 318.582 -31.592 317.808 -31.34C315.684 -30.62 313.74 -28.028 313.74 -25.49C313.74 -22.412 317.034 -21.782 318.33 -21.53C318.906 -21.422 319.572 -21.152 319.572 -20.468C319.572 -19.928 319.014 -19.928 318.888 -19.928C317.844 -19.928 312.858 -20.9 312.858 -25.202C312.858 -27.992 314.712 -29.918 316.764 -31.538C315.72 -31.574 312.066 -30.314 310.284 -29.504C309.51 -29.162 309.492 -29.144 309.312 -29.144C308.916 -29.144 307.998 -29.72 307.998 -30.764C307.998 -31.214 308.16 -31.502 308.286 -31.718C308.574 -31.106 308.952 -30.71 309.69 -30.71C309.906 -30.71 310.284 -30.782 310.464 -30.818C314.532 -31.79 314.982 -31.898 316.764 -32.276C317.808 -32.51 319.086 -32.762 319.86 -32.996C320.004 -33.05 320.364 -33.122 320.598 -33.122C321.642 -33.122 322.074 -32.312 322.074 -32.132ZM9.702 8.422H14.436L15.102 7.36C15.156 7.27 15.282 7.126 15.39 7.126C15.498 7.126 15.624 7.234 15.732 7.324L16.938 8.386C17.046 8.476 17.118 8.548 17.118 8.656C17.118 8.836 16.974 8.854 16.848 8.854H10.008C11.502 11.446 14.58 13.714 17.532 14.11V14.2C16.848 14.434 16.146 14.92 15.696 15.658C11.898 13.66 10.116 10.384 9.756 8.854H9.72C9.702 9.664 9.702 11.302 9.72 12.058C9.756 13.228 9.846 16.234 9.846 16.468C9.846 17.116 9.378 17.368 8.928 17.368C8.46 17.368 8.316 17.098 8.316 16.738C8.316 16.324 8.424 14.506 8.442 14.128C8.478 13.174 8.478 11.788 8.478 10.402C6.534 13.066 3.618 15.208 1.152 15.892V15.802C4.608 13.57 7.488 9.808 7.992 8.854H3.528C3.204 8.854 2.286 8.854 1.422 9.016L1.062 8.296C2.376 8.404 3.51 8.422 3.816 8.422H8.478C8.496 7.342 8.496 5.92 8.478 4.822H5.148C4.842 4.822 3.906 4.822 3.024 4.984L2.664 4.264C3.582 4.354 4.518 4.39 5.436 4.39H8.46C8.424 2.068 8.334 1.546 8.136 0.789999L9.936 1.294C10.098 1.33 10.206 1.438 10.206 1.582C10.206 1.78 9.846 1.996 9.702 2.086V4.39H12.582L13.23 3.418C13.32 3.274 13.41 3.184 13.518 3.184C13.608 3.184 13.734 3.274 13.824 3.364L14.94 4.354C15.012 4.426 15.12 4.516 15.12 4.642C15.12 4.804 14.958 4.822 14.85 4.822H9.702V8.422ZM34.686 9.628H27.684C28.98 11.608 31.86 13.714 35.172 14.056L35.208 14.182C34.776 14.326 33.858 14.848 33.462 15.712C30.402 14.308 28.476 11.716 27.666 10.24C27.684 12.022 27.702 13.372 27.72 14.2C27.72 14.56 27.81 16.126 27.81 16.432C27.81 17.224 27 17.278 26.892 17.278C26.316 17.278 26.316 16.954 26.316 16.738C26.316 16.594 26.352 15.856 26.37 15.658C26.496 13.066 26.514 12.346 26.514 10.744C25.182 12.58 22.5 15.01 19.476 16.036L19.404 15.892C22.284 14.074 24.696 11.392 25.758 9.628H21.798C21.312 9.628 20.466 9.646 19.674 9.808L19.314 9.088C20.232 9.16 21.168 9.196 22.086 9.196H26.496C26.496 7.252 26.496 6.946 26.46 4.21H22.878C22.356 4.21 21.528 4.246 20.754 4.372L20.394 3.67C21.312 3.742 22.248 3.778 23.166 3.778H26.46C26.424 2.176 26.424 1.744 26.1 1.042L28.008 1.564C28.116 1.6 28.242 1.636 28.242 1.798C28.242 1.906 28.044 2.05 27.666 2.284C27.666 2.446 27.648 3.526 27.648 3.778H31.104L31.752 2.968C31.842 2.842 31.95 2.734 32.04 2.734C32.112 2.734 32.238 2.788 32.4 2.932L33.426 3.76C33.498 3.814 33.606 3.94 33.606 4.03C33.606 4.21 33.426 4.21 33.318 4.21H27.648C27.648 6.55 27.648 6.838 27.666 9.196H28.728C29.664 7.9 30.726 5.632 30.78 4.84L32.4 5.812C32.58 5.92 32.598 5.992 32.598 6.046C32.598 6.28 32.418 6.334 31.788 6.406C31.626 6.568 31.518 6.694 30.474 7.828C29.79 8.584 29.304 9.016 29.088 9.196H32.274L33.102 8.368C33.264 8.206 33.336 8.152 33.408 8.152C33.48 8.152 33.57 8.188 33.732 8.332L34.776 9.178C34.866 9.25 34.974 9.376 34.974 9.448C34.974 9.628 34.776 9.628 34.686 9.628ZM21.564 5.182L21.654 5.11C22.392 5.434 24.354 6.316 24.354 7.882C24.354 8.26 24.138 8.728 23.634 8.728C23.022 8.728 22.914 8.188 22.842 7.81C22.806 7.63 22.536 6.334 21.564 5.182ZM51.372 8.026C51.372 8.44 51.138 8.512 50.76 8.584C49.014 8.926 47.34 9.574 45.702 10.276C45.756 10.582 45.882 11.356 45.882 12.4C45.882 12.778 45.882 13.966 45.234 13.966C44.568 13.966 44.568 12.94 44.568 12.634C44.568 12.364 44.568 11.14 44.55 10.87C43.344 11.626 41.976 12.94 41.976 13.912C41.976 15.28 44.334 15.28 44.856 15.28C45.828 15.28 46.926 15.1 47.61 14.974C47.952 14.92 48.06 14.902 48.24 14.902C49.014 14.902 49.32 15.37 49.32 15.694C49.32 16.018 48.996 16.216 48.762 16.27C48.438 16.342 46.836 16.45 46.008 16.45C45.018 16.45 41.238 16.45 41.238 14.218C41.238 12.526 43.452 10.888 44.478 10.204C44.316 9.25 44.064 8.35 42.93 8.35C41.832 8.35 40.968 9.43 40.68 9.898C39.87 11.158 39.798 11.176 39.492 11.176C39.06 11.176 38.97 10.87 38.97 10.438C38.97 9.79 39.168 9.628 39.366 9.448C40.644 8.35 41.562 6.892 42.444 5.434C41.904 5.524 41.382 5.614 40.842 5.614C39.618 5.614 39.024 4.948 39.06 4.012C39.618 4.534 40.122 4.678 40.914 4.678C41.67 4.678 42.714 4.516 43.002 4.462C43.254 4.048 43.992 2.716 43.992 2.41C43.992 2.158 43.596 1.78 42.768 1.672C42.966 1.474 43.236 1.24 43.866 1.24C44.748 1.24 45.504 1.906 45.504 2.284C45.504 2.536 45.342 2.752 45.216 2.914C44.838 3.364 44.784 3.436 44.28 4.174C44.676 4.066 46.404 3.346 46.782 3.346C47.214 3.346 47.736 3.598 47.736 3.958C47.736 4.21 47.538 4.336 47.358 4.408C46.53 4.768 44.55 5.092 43.524 5.254C41.904 7.594 41.742 7.846 41.508 8.278C41.922 8.08 42.48 7.792 43.344 7.792C45 7.792 45.342 8.872 45.54 9.538C46.764 8.818 48.528 7.972 49.05 7.72C49.374 7.558 49.5 7.432 49.5 7.198C49.5 6.964 49.356 6.856 48.942 6.55C49.068 6.514 49.14 6.496 49.32 6.496C49.968 6.496 51.372 7.018 51.372 8.026ZM58.41 6.856L60.264 6.28L60.804 5.218C60.93 4.966 60.966 4.912 61.074 4.912C61.164 4.912 61.308 4.966 61.38 5.002L62.604 5.506C62.73 5.56 62.874 5.632 62.874 5.776C62.874 5.884 62.766 5.974 62.658 6.01L58.41 7.306C58.41 8.008 58.356 11.5 58.428 11.806C58.482 12.004 58.608 12.112 59.706 12.112C60.48 12.112 61.02 12.004 61.56 9.61H61.704C61.74 9.898 61.83 11.104 61.938 11.428C61.974 11.554 62.064 11.662 62.19 11.788C62.262 11.86 62.298 12.022 62.298 12.094C62.298 12.382 61.974 12.796 61.596 12.976C61.164 13.174 60.516 13.282 59.634 13.282C57.132 13.282 57.132 12.76 57.132 11.788C57.132 11.14 57.168 8.26 57.168 7.684C56.502 7.882 55.782 8.116 54.972 8.53L54.414 7.954C55.44 7.72 56.16 7.54 57.168 7.216C57.204 5.092 57.222 3.076 57.186 2.482C57.168 1.96 57.078 1.474 57.006 1.222L58.752 1.834C58.86 1.87 59.04 1.978 59.04 2.122C59.04 2.32 58.752 2.5 58.5 2.626C58.446 3.292 58.428 6.244 58.41 6.856ZM63.252 3.13H68.454L69.03 2.536C69.12 2.428 69.228 2.32 69.318 2.32C69.372 2.32 69.498 2.428 69.552 2.464L70.38 3.184C70.488 3.274 70.632 3.418 70.632 3.544C70.632 3.652 70.434 3.832 70.056 4.138C70.056 5.416 70.074 9.268 69.822 11.518C69.372 15.532 68.418 16.684 65.628 17.044C65.538 16.432 65.394 15.874 63.99 14.902L64.08 14.776C64.422 14.884 65.286 15.172 66.276 15.172C67.014 15.172 67.626 15.046 68.022 13.894C68.724 11.896 68.724 10.06 68.724 3.562H65.448C65.394 6.478 65.394 9.952 64.314 12.472C63.486 14.416 61.236 16.666 57.168 17.314L57.096 17.17C60.876 15.676 62.55 13.75 63.252 11.752C64.188 9.124 64.134 4.822 64.116 3.562H62.964C62.532 3.562 61.65 3.58 60.84 3.724L60.48 3.004C61.974 3.13 63.036 3.13 63.252 3.13ZM84.816 8.62C84.816 11.932 84.06 14.074 82.044 15.91C81.45 16.45 80.316 17.314 79.488 17.494L79.452 17.404C82.566 15.154 83.484 11.68 83.484 8.458C83.484 7.27 83.412 3.994 82.062 3.994C81.342 3.994 80.838 4.732 80.676 4.966C79.956 6.01 78.768 8.764 78.768 10.924C78.768 11.122 78.894 12.04 78.894 12.22C78.894 12.418 78.822 12.724 78.462 12.724C77.4 12.724 77.076 10.618 77.076 8.998C77.076 7.63 77.454 5.254 77.706 3.796C77.724 3.706 77.778 3.364 77.778 3.112C77.778 2.14 77.112 1.726 76.734 1.474C76.896 1.438 77.202 1.348 77.544 1.348C78.372 1.348 79.128 2.014 79.128 2.644C79.128 2.932 79.02 3.166 78.912 3.436C78.354 4.732 77.904 6.55 77.904 8.26C77.904 8.53 77.904 9.556 78.084 9.556C78.192 9.556 78.228 9.466 78.246 9.376C78.66 7.9 80.208 3.292 82.332 3.292C84.582 3.292 84.816 6.82 84.816 8.62ZM107.118 3.004C107.118 3.184 106.956 3.202 106.848 3.202H102.06C101.646 4.732 100.962 6.46 99.954 8.314L100.674 8.674H104.436L105.048 8.008C105.138 7.918 105.228 7.81 105.336 7.81C105.426 7.81 105.516 7.882 105.606 7.954L106.38 8.584C106.47 8.656 106.596 8.782 106.596 8.926C106.596 9.106 106.452 9.232 106.038 9.448C106.002 10.6 106.056 11.86 106.074 12.85C106.092 13.354 106.2 15.64 106.2 16.09C106.2 16.81 105.66 16.918 105.318 16.918C104.796 16.918 104.796 16.522 104.832 15.856H100.584C100.602 16.396 100.638 16.99 99.756 16.99C99.324 16.99 99.288 16.702 99.288 16.432C99.288 16.27 99.342 15.478 99.342 15.316C99.36 14.416 99.378 13.516 99.378 12.598C99.378 11.752 99.378 10.222 99.324 9.394C98.838 10.168 97.47 12.292 96.138 13.282L96.048 13.156C97.992 10.726 99.864 6.478 100.584 3.202H99.288C98.964 3.202 98.046 3.202 97.182 3.364L96.822 2.644C97.938 2.734 99.036 2.77 99.576 2.77H104.472L105.174 1.834C105.246 1.726 105.354 1.6 105.462 1.6C105.57 1.6 105.696 1.726 105.786 1.798L106.938 2.734C107.028 2.806 107.118 2.896 107.118 3.004ZM98.172 4.948C98.172 5.11 98.028 5.146 97.902 5.146H95.274C95.274 5.686 95.274 8.116 95.292 8.62C95.724 8.458 97.704 7.828 98.1 7.666L98.118 7.792C97.704 8.098 95.706 9.196 95.31 9.43C95.328 10.402 95.418 14.614 95.418 15.19C95.418 16.036 95.364 16.846 93.636 17.332C93.546 16.9 93.384 16.072 91.71 15.532V15.406C91.98 15.424 93.114 15.46 93.348 15.46C93.852 15.46 94.158 15.46 94.158 14.686V10.06C93.006 10.672 92.448 10.924 91.998 11.104C91.908 11.428 91.818 11.536 91.692 11.536C91.602 11.536 91.494 11.464 91.44 11.356L90.504 9.736C90.666 9.754 90.864 9.772 91.152 9.754C91.62 9.718 93.546 9.16 94.158 8.98C94.158 8.368 94.068 5.686 94.05 5.146H93.51C93.06 5.146 92.196 5.164 91.386 5.308L91.026 4.588C92.07 4.678 93.15 4.714 94.032 4.714C94.032 4.336 93.996 2.662 93.96 2.32C93.924 1.762 93.708 1.276 93.564 0.934L95.472 1.492C95.634 1.546 95.76 1.672 95.76 1.78C95.76 1.906 95.598 2.05 95.274 2.32C95.256 2.698 95.274 4.372 95.274 4.714H96.102L96.48 4.084C96.552 3.976 96.624 3.85 96.732 3.85C96.84 3.85 96.93 3.904 97.092 4.03L97.992 4.678C98.082 4.732 98.172 4.822 98.172 4.948ZM104.832 15.424V9.106H100.584V15.424H104.832ZM124.2 10.744C124.2 11.374 123.858 11.914 123.57 11.914C123.354 11.914 123.282 11.842 122.58 11.176C122.094 10.726 121.122 10.546 120.672 10.456V10.348C120.924 10.312 122.148 10.204 122.274 10.168C122.508 10.114 122.67 9.97 122.67 9.7C122.67 9.142 121.734 6.496 119.502 5.38C119.628 5.362 119.664 5.344 119.808 5.344C121.824 5.344 124.2 8.656 124.2 10.744ZM116.82 8.062C116.568 8.602 114.696 12.832 114.66 13.03C114.642 13.12 114.624 13.174 114.624 13.264C114.624 13.408 114.768 14.092 114.768 14.236C114.768 14.704 114.48 14.848 114.21 14.848C113.58 14.848 111.024 13.948 110.718 8.818C110.61 7.036 110.538 5.902 110.43 5.506C110.268 4.858 109.98 4.372 109.8 4.03C110.718 4.084 112.068 4.876 112.068 6.046C112.068 6.172 112.068 6.28 111.996 6.64C111.888 7.306 111.762 8.188 111.762 9.142C111.762 11.356 112.842 12.67 113.328 12.67C113.526 12.67 113.706 12.436 113.76 12.346C114.57 11.14 115.902 9.232 116.676 8.008L116.82 8.062ZM142.074 3.868C142.074 4.408 141.57 4.408 141.318 4.408C138.852 4.408 138.582 4.408 137.808 4.66C135.684 5.38 133.74 7.972 133.74 10.51C133.74 13.588 137.034 14.218 138.33 14.47C138.906 14.578 139.572 14.848 139.572 15.532C139.572 16.072 139.014 16.072 138.888 16.072C137.844 16.072 132.858 15.1 132.858 10.798C132.858 8.008 134.712 6.082 136.764 4.462C135.72 4.426 132.066 5.686 130.284 6.496C129.51 6.838 129.492 6.856 129.312 6.856C128.916 6.856 127.998 6.28 127.998 5.236C127.998 4.786 128.16 4.498 128.286 4.282C128.574 4.894 128.952 5.29 129.69 5.29C129.906 5.29 130.284 5.218 130.464 5.182C134.532 4.21 134.982 4.102 136.764 3.724C137.808 3.49 139.086 3.238 139.86 3.004C140.004 2.95 140.364 2.878 140.598 2.878C141.642 2.878 142.074 3.688 142.074 3.868ZM157.95 12.112C157.95 12.508 157.752 13.444 157.284 13.444C157.104 13.444 157.014 13.39 156.258 12.832C155.448 12.256 152.892 11.662 151.218 11.662C150.516 11.662 148.716 11.806 148.716 13.516C148.716 15.388 151.344 15.55 152.55 15.55C152.892 15.55 154.368 15.424 154.674 15.424C155.142 15.424 155.826 15.622 155.826 16.144C155.826 16.81 155.124 16.81 154.134 16.81C152.766 16.81 147.942 16.81 147.942 13.714C147.942 11.284 150.426 11.104 151.812 11.104C153.18 11.104 154.548 11.266 155.88 11.554C155.934 11.572 155.97 11.572 156.006 11.572C156.096 11.572 156.168 11.572 156.168 11.464C156.168 11.356 156.096 11.23 155.988 11.068C155.934 10.978 155.43 10.24 154.134 8.386C152.262 9.016 150.57 9.214 150.03 9.214C148.986 9.214 148.104 8.566 147.78 7.774C148.428 8.062 149.004 8.314 149.94 8.314C150.678 8.314 152.154 8.116 153.594 7.558C152.946 6.46 152.622 5.74 152.46 5.398C152.136 5.506 150.732 5.92 150.012 5.92C149.382 5.92 148.374 5.524 147.996 4.696C148.608 4.948 148.914 5.074 149.634 5.074C150.498 5.074 151.362 4.858 152.1 4.588C151.974 4.318 151.488 3.076 151.362 2.842C151.02 2.23 150.228 2.104 149.49 2.158C149.688 1.762 149.94 1.276 150.984 1.276C151.362 1.276 152.496 1.42 152.586 2.032C152.604 2.212 152.658 3.094 152.694 3.256C152.766 3.634 152.856 3.958 152.946 4.228C153.18 4.138 153.666 3.886 154.116 3.58C154.764 3.148 154.836 3.094 155.142 3.094C155.538 3.094 155.88 3.328 155.88 3.598C155.88 3.796 155.79 3.958 155.43 4.156C154.602 4.624 154.026 4.876 153.288 5.128C153.702 6.082 154.026 6.658 154.386 7.234C154.764 7.054 155.25 6.82 155.97 6.37C156.51 6.046 156.582 5.992 156.888 5.992C157.356 5.992 157.716 6.244 157.716 6.514C157.716 6.766 157.446 6.946 157.212 7.072C156.996 7.18 156.096 7.648 154.962 8.08C155.7 9.124 156.528 10.096 157.374 11.032C157.932 11.644 157.95 11.842 157.95 12.112ZM178.038 7.882C178.038 8.08 177.948 8.35 177.534 8.35C177.39 8.35 176.742 8.278 176.616 8.278C175.824 8.278 174.42 8.854 173.916 9.178L173.826 9.088C173.988 8.944 174.708 8.368 174.852 8.26C175.392 7.792 175.446 7.756 175.446 7.576C175.446 7.054 173.682 7.036 173.448 7.036C173.016 7.036 172.71 7.054 172.44 7.072C173.304 6.406 174.348 6.298 175.05 6.298C177.048 6.298 178.038 7.27 178.038 7.882ZM177.912 15.442C177.912 16.09 176.22 16.09 175.59 16.09C173.52 16.09 170.262 15.856 170.262 13.462C170.262 13.318 170.262 12.652 170.676 12.076C170.712 14.308 171.972 14.812 174.438 14.812C175.284 14.812 175.68 14.758 176.22 14.668C176.76 14.578 176.832 14.578 176.958 14.578C177.534 14.578 177.912 15.1 177.912 15.442ZM172.602 4.678C172.602 4.84 172.548 5.02 172.026 5.254C170.586 5.902 169.2 6.298 169.056 6.334C167.994 9.232 166.95 12.148 165.654 14.956C165.24 15.838 165.096 16.018 164.718 16.018C164.322 16.018 164.124 15.514 164.124 15.172C164.124 14.848 164.142 14.83 164.844 13.696C166.194 11.518 167.598 7.756 167.922 6.838C167.976 6.694 167.994 6.658 168.012 6.586C167.256 6.748 166.464 6.874 165.726 6.874C164.79 6.874 164.106 6.28 163.908 5.668C164.286 5.794 164.79 5.956 165.636 5.956C166.734 5.956 167.76 5.704 168.354 5.542C168.876 3.796 168.93 3.382 168.93 3.04C168.93 2.302 167.958 1.96 167.814 1.906C167.994 1.762 168.138 1.636 168.606 1.636C169.686 1.636 170.496 2.518 170.496 3.058C170.496 3.256 170.424 3.364 170.154 3.778C169.956 4.084 169.83 4.336 169.488 5.182C170.028 4.966 170.424 4.786 170.82 4.534C171.396 4.156 171.522 4.084 171.864 4.084C172.332 4.084 172.602 4.408 172.602 4.678ZM197.388 7.144C196.758 7.414 196.11 7.792 195.66 8.512C192.546 7.126 190.26 4.444 189.09 2.032L189.018 2.05C187.056 5.47 182.79 8.458 180.774 9.268L180.72 9.16C183.42 7.27 185.616 4.768 187.344 1.978C187.758 1.33 187.812 1.078 187.884 0.753999L189.702 1.33C189.792 1.366 189.99 1.456 189.99 1.636C189.99 1.852 189.81 1.888 189.432 1.978C190.53 3.814 193.392 6.334 197.388 7.018V7.144ZM192.132 7.738C192.132 7.9 191.97 7.918 191.862 7.918H187.236C186.786 7.918 185.922 7.936 185.112 8.08L184.752 7.36C185.994 7.468 187.29 7.486 187.524 7.486H189.54L190.35 6.586C190.44 6.496 190.53 6.37 190.638 6.37C190.728 6.37 190.872 6.478 190.962 6.55L191.952 7.45C192.042 7.54 192.132 7.612 192.132 7.738ZM196.074 10.834C196.074 11.032 195.894 11.032 195.804 11.032H188.586C187.614 12.85 185.796 14.938 185.616 15.154C187.83 15.01 190.62 14.74 192.654 14.488C192.546 14.29 191.952 13.21 190.674 12.004L190.782 11.896C193.248 13.012 195.21 14.83 195.21 16.342C195.21 16.63 195.012 17.224 194.418 17.224C193.824 17.224 193.59 16.738 193.356 16.108C193.14 15.478 193.068 15.28 192.816 14.794C191.358 15.244 184.734 16.648 183.708 16.81C183.6 17.044 183.546 17.206 183.384 17.206C183.24 17.206 183.15 17.026 183.096 16.882L182.34 15.064C182.736 15.136 183.15 15.226 183.942 15.226C184.32 15.226 184.68 15.208 185.238 15.172C185.832 13.84 186.336 12.508 186.714 11.032H184.176C183.762 11.032 182.862 11.05 182.07 11.194L181.71 10.492C183.132 10.6 184.158 10.6 184.464 10.6H193.104L194.022 9.61C194.148 9.466 194.238 9.394 194.328 9.394C194.418 9.394 194.526 9.484 194.652 9.574L195.894 10.564C195.966 10.618 196.074 10.726 196.074 10.834ZM215.064 15.874C215.064 16 214.902 16.054 214.794 16.054H207.18C207 16.054 205.902 16.054 205.056 16.216L204.696 15.496C205.956 15.604 207.306 15.622 207.468 15.622H209.232C209.232 13.786 209.25 10.87 209.232 9.034C209.214 8.17 209.214 8.044 209.214 7.486H208.152C207.972 7.486 206.874 7.486 206.028 7.648L205.668 6.928C206.874 7.036 208.116 7.054 208.44 7.054H209.214C209.214 6.748 209.196 5.56 209.196 5.254C209.178 2.356 209.178 1.978 208.674 0.934L210.672 1.402C210.942 1.456 211.104 1.582 211.104 1.744C211.104 1.978 210.762 2.176 210.492 2.284C210.474 2.734 210.474 6.298 210.474 7.054H212.292L212.958 6.172C213.066 6.028 213.138 5.956 213.246 5.956C213.336 5.956 213.444 6.028 213.588 6.154L214.578 7.018C214.686 7.108 214.758 7.216 214.758 7.306C214.758 7.432 214.614 7.486 214.488 7.486H210.474V12.364L210.492 15.622H212.418L213.264 14.686C213.39 14.542 213.48 14.488 213.57 14.488C213.66 14.488 213.768 14.524 213.912 14.668L214.902 15.586C214.992 15.676 215.064 15.784 215.064 15.874ZM205.992 10.168C205.992 10.438 205.83 10.924 205.344 10.924C204.93 10.924 204.732 10.582 204.588 10.312C204.174 9.502 203.706 8.692 203.112 8.008C203.094 12.778 203.094 13.3 203.13 14.614C203.13 14.884 203.202 16.09 203.202 16.324C203.202 16.99 202.59 17.134 202.32 17.134C201.762 17.134 201.762 16.738 201.762 16.576C201.762 16.378 201.834 15.514 201.834 15.334C201.888 13.948 201.87 13.588 201.924 9.178C200.268 10.834 198.9 11.536 198.36 11.824L198.288 11.698C200.322 9.934 202.914 6.604 203.724 4.876H201.204C200.754 4.876 199.89 4.894 199.08 5.038L198.738 4.336C199.962 4.426 201.24 4.444 201.492 4.444H201.96C201.924 2.14 201.726 1.6 201.492 0.915999L203.562 1.51C203.67 1.546 203.778 1.654 203.778 1.744C203.778 1.96 203.562 2.104 203.202 2.284C203.166 2.788 203.166 2.824 203.202 4.444H203.85L204.3 3.976C204.426 3.85 204.516 3.796 204.624 3.796C204.732 3.796 204.804 3.868 204.912 3.958L205.722 4.678C205.812 4.75 205.848 4.84 205.848 4.93C205.848 5.2 205.56 5.272 204.984 5.344C204.696 5.794 204.192 6.568 203.184 7.81C203.364 7.864 204.192 8.152 205.092 8.8C205.416 9.034 205.992 9.448 205.992 10.168ZM232.902 7.504C232.902 8.008 232.524 8.08 232.416 8.08C232.146 8.08 232.092 7.99 231.57 7.198C231.138 6.568 230.328 5.902 229.734 5.47C230.886 5.578 232.902 6.316 232.902 7.504ZM230.796 8.278C230.796 8.584 230.688 8.908 230.31 8.908C230.004 8.908 229.95 8.836 229.518 8.08C229.158 7.45 228.69 6.964 227.826 6.1C229.032 6.352 230.796 7.144 230.796 8.278ZM231.876 3.76C231.876 4.336 231.318 4.336 230.814 4.336C228.51 4.336 227.826 4.336 226.62 5.056C224.946 6.046 223.578 8.368 223.578 10.42C223.578 13.426 226.746 14.128 228.366 14.488C228.636 14.542 229.392 14.704 229.392 15.478C229.392 15.946 228.942 15.982 228.708 15.982C226.854 15.982 222.696 14.614 222.696 10.654C222.696 9.88 222.84 8.332 224.172 6.622C224.676 5.974 225.108 5.596 226.656 4.372C224.748 4.624 220.896 5.956 220.284 6.298C219.51 6.748 219.42 6.784 219.132 6.784C218.682 6.784 217.818 6.244 217.818 5.2C217.818 4.732 217.944 4.498 218.07 4.282C218.412 4.822 218.682 5.236 219.474 5.236C219.834 5.236 220.302 5.146 222.12 4.714C224.262 4.192 227.718 3.418 229.86 2.896C230.04 2.86 230.292 2.806 230.436 2.806C230.706 2.806 231.876 3.148 231.876 3.76ZM250.65 5.47C250.65 5.866 250.272 5.956 250.074 5.956C249.48 5.956 248.526 5.74 247.932 5.686C247.266 5.632 246.69 5.614 246.24 5.614C245.484 5.614 244.638 5.668 244.08 5.704C244.062 6.262 244.062 6.676 244.062 7.144C244.062 7.612 244.08 7.936 244.098 8.26C244.368 8.746 244.872 9.61 244.872 11.104C244.872 13.822 243.126 16.36 239.814 17.53L239.742 17.404C241.758 16.144 243.144 14.2 243.396 12.274C243.018 12.58 242.658 12.868 242.208 12.868C241.308 12.868 240.174 11.68 240.174 10.132C240.174 8.818 241.038 7.522 242.28 7.522C242.676 7.522 243 7.63 243.324 7.738C243.324 7.648 243.288 6.442 243.288 5.794C242.19 5.92 239.184 6.316 237.42 7.27C236.898 7.54 236.844 7.576 236.682 7.576C236.07 7.576 235.206 6.46 235.206 5.722C235.206 5.524 235.26 5.38 235.35 5.218C235.71 5.704 236.088 6.064 236.664 6.064C236.862 6.064 238.284 5.812 239.094 5.686C240.786 5.398 242.118 5.2 243.27 5.092C243.144 2.212 243.144 2.158 241.65 1.6C242.172 1.186 242.604 1.186 242.694 1.186C243.162 1.186 244.512 1.672 244.512 2.248C244.512 2.302 244.386 2.824 244.35 2.95C244.278 3.274 244.188 3.958 244.116 5.002C244.53 4.966 249.156 4.552 249.174 4.552C249.786 4.552 250.65 4.966 250.65 5.47ZM243.342 10.114C243.342 9.682 243.27 8.314 242.01 8.314C241.506 8.314 240.804 8.926 240.804 9.952C240.804 10.978 241.596 11.806 242.262 11.806C242.856 11.806 243.342 11.158 243.342 10.114ZM258.372 14.164C258.372 15.622 257.238 16.828 255.762 16.828C254.304 16.828 253.17 15.622 253.17 14.164C253.17 12.688 254.34 11.518 255.762 11.518C257.202 11.518 258.372 12.688 258.372 14.164ZM257.85 14.182C257.85 12.994 256.914 12.04 255.762 12.04C254.61 12.04 253.692 13.012 253.692 14.164C253.692 15.316 254.592 16.306 255.762 16.306C256.932 16.306 257.85 15.334 257.85 14.182Z" fill="#523C3C"/>
</g>
<defs>
<clipPath id="clip0_933_2309">
<rect width="324" height="18" fill="white"/>
</clipPath>
</defs>
</svg>
